<svg xmlns="http://www.w3.org/2000/svg" width="52.234" height="58.644" xml:space="preserve"><g fill-rule="evenodd" clip-rule="evenodd" fill="#B3B4B4"><path d="m20.48 2.137.002-.04-.018-.014-.069.062-.019.051zM20.239 2.842l-.121.003-.007.027-.008.095.023.018h.019l.05.024.017-.002.033-.022.018-.004.024-.02.03-.031-.002-.017-.011-.015zM40.99 34.365l-.061.031-.077-.014.018.151-.041.207.019.031.024.019.03.012.033-.041.043-.113.005-.081-.001-.123.012-.039zM40.944 36.66l-.094.082-.041.056-.042.029.023.034.015.01.039-.011.037-.053.045-.009.055-.14.007-.064-.011.011zM40.53 35.477l.049.003.05.07.029-.014.017.059.023.027.02-.002.039-.02.008-.032-.053-.173-.006-.007-.038-.041-.045-.133-.006-.114-.034-.073-.031.107-.055.063.008.124-.018.073z"/><path d="m49.08 21.846-.074-.045-.005.019.003.041-.088.038-.023-.01.013-.021.03-.014.007-.038.017-.049.006-.05-.025-.341-.034-.21.033-.138.054-.124.007-.071.014-.069-.046-.01-.289-.115-.11.032-.073.098-.042.078-.248.161-.332.064-.179.088-.231.058-.088.011-.025.002-.165-.055-.072.002-.095.025-.296.122-.218.563-.172.489h-.049l-.123-.48-.179-.128-.288.011-.075-.058-.148-.072-.164-.027-.15-.043-.085.022-.253.123-.277.172-.398.005-.077-.034-.088-.064-.223-.19-.164-.204-.142-.253-.143-.125-.062-.053-.085-.019-.094.002-.086.02-.097.042-.049.011-.031-.006-.015-.056.085.01.11-.146.175-.072.157-.114.044-.047.03-.052.019-.08-.045-.145-.041-.078-.125-.16-.011-.039-.027-.094-.062-.061-.019.074-.125-.045-.048-.126-.156-.165-.087.007-.043-.15-.077-.154-.428-.322-.135-.212-.226-.305-.272-.1-.121-.114-.064-.041-.079-.025-.094-.008-.073-.033-.089-.112-.02-.053-.016-.095-.046-.048-.084-.062-.034.046-.013.077.02.06.004.035-.022.063-.049-.073-.07-.194-.039-.057-.052-.007-.067-.208-.092-.109-.062-.222-.073-.434-.088-.29-.098-.278-.232-.469-.027-.056-.176-.118-.037-.055-.021.018-.035.012-.055-.068-.041-.062-.112-.119-.14-.112-.093-.019-.049-.029-.045-.055-.086-.22-.095-.399.003-.17-.059-.268-.012-.222.022-.132-.044-.142-.016-.132-.014-.071.003-.099.048.021.029.031.003-.027-.004-.029-.036-.063-.096-.114-.117-.211-.037-.148-.016-.186-.001-.015-.031-.067-.301-.24-.138-.191-.226-.09-.049-.038-.036-.051-.073-.079-.104-.264-.035-.139-.024-.274.005-.052.015-.063.037-.018.026-.006.107.01-.116-.104-.106-.072-.061-.094-.149-.167-.262-.54-.133-.246-.089-.203-.178-.271-.215-.428-.067-.08-.063-.326-.036-.11-.036-.068-.076-.059-.031-.073-.082-.143.002-.077-.017-.16-.039-.062-.089-.062-.124-.128-.135-.19-.091-.1-.032-.053-.022-.059-.035-.068-.093-.114-.022-.053-.004-.154-.033-.113-.027-.053-.122-.119-.03-.078.028-.097.051-.083-.015-.059.062-.04.064.143.064.224.035.058.033.04.046.093.152.173.042.076.059.163.003.067.037.104.125.144.129.11.124.168.208.179.124.052.063-.101.05-.104.015-.073.002-.204.099-.326.058-.415.069-.131.036-.037-.028-.071-.067-.201-.047-.137-.064-.17-.102-.206-.012-.049-.023-.073-.074-.187-.059-.135-.068-.173-.028-.068-.011-.024-.014.015-.181.246-.16.188h-.198l-.124-.11-.028-.107-.02-.07-.154.027-.033.106-.114.154h-.056l-.05-.148-.151.027-.052.121h-.024l.021-.175.029-.069-.048.013-.07-.006-.028-.062-.043-.061-.074-.019-.092-.044.066-.099.007-.056.134.111.041.003-.126-.13-.054-.032-.033.012-.156.057-.057-.002-.233-.105-.076-.012-.021.009-.011.068-.017.037-.109.018-.095.029-.095-.011.215-.085.025-.036-.237.076-.12.012-.033.045-.02.037-.032.033-.025.047-.065.002-.054-.008-.08.031-.223.175-.109.067-.1.049-.08.027-.06.003-.07-.021-.117-.07-.206-.087-.377-.038-.099-.079-.144.002-.055-.017-.207-.133-.333-.075-.215-.034-.39-.088-.347.088-.108-.017-.056-.098-.026-.047-.068-.138-.053-.057-.05-.025-.135-.025-.139.015-.24-.01-.063-.022-.099-.074-.07-.025-.236-.045-.012-.095v-.053l-.103-.042-.089-.138-.149-.055-.128-.044-.166-.043-.131-.07-.107-.031-.238.008-.082-.028-.059.004-.14.113-.072.017-.175.002-.297.158-.167.121-.166.172-.059.09-.037.088-.029.147.03.212.043.117.06.09.028.085.009.094-.024.093-.065.132-.2.253-.083.06-.203.102-.115.018-.13-.02-.185-.101-.336-.293-.167-.06-.083-.062-.333-.124-.392-.108-.227-.01-.226-.03-.2-.078-.088-.053-.077-.085-.069-.102-.058-.143-.037-.111-.004-.153-.065-.123-.063-.065-.454-.097-.062-.032-.128-.105-.056-.024-.22-.066-.128-.006-.076-.021-.173-.073-.099.014-.262.078-.223-.023-.101-.024-.319-.191-.106-.02-.104-.051-.071-.035-.043.012-.071-.019-.021-.013.02-.018.026-.012-.009-.018-.073-.049-.045-.158-.086-.052-.041.076-.047.011-.072.004-.013-.077.007-.065-.177.022-.101-.054-.099-.099-.075-.169-.005-.068.017-.058.036-.057.056-.054.227-.162.106-.11.119-.169.061-.123.111-.17-.052-.078-.008-.098-.021-.081.002-.067-.148-.115-.064-.022-.066-.073-.058-.12-.019-.118.008-.066.026-.057.078-.08.105-.06.113-.208.061-.081.047-.027-.034-.077-.015-.088-.069.011-.124.107-.131.042-.036.073-.071.05-.08-.042.027-.069-.097-.14.006-.142-.073-.037-.067-.006-.075.003.002.034.012.026-.045.038-.031-.062.021-.036.016-.045-.053-.018L19.412 0l-.366.12-.056.032-.159.131-.166.051-.302.022-.146.045-.08-.02-.122-.099-.117-.05-.153-.027.022.103-.064.021-.146.019-.235-.069-.059-.068-.107.033-.054.089-.125.061-.229.053-.204.103-.087.023-.067-.024-.132-.108L16.18.4 16.1.377h-.657l-.176.079-.368.006-.086.037-.174.114-.168-.008-.249.035-.483.039-.195.063-.124.073-.188.078-.14.082-.111.082-.075.135-.067.056-.096.011-.107-.036-.051.001-.338.16-.118.074-.082.069-.093.108-.102.05-.133.099-.165.074-.071.007-.136-.016-.137-.016-.145.009-.063-.018-.074.006-.018-.037-.034-.095-.017-.022-.002-.04-.007-.037-.065.075-.1.064-.129.022-.132-.013-.067-.043-.065.029-.132.002-.238.067-.2-.037-.138-.062-.173-.154-.093-.121-.051-.108.005-.091.042-.039-.079-.023-.088.057-.069.027-.085.011-.121.025-.027.086-.31.746-.304.527-.106.133-.172.114-.294.155-.516.216-.15.099-.06.054-.178.216-.297.282-.007.071-.037.199-.05.124-.243.305-.106.231-.034.287-.01.18-.036.105.012.059L6 5.51l.076.126.015.077-.041.197-.059.122-.082.121-.117.136-.143.211-.211.257-.135.101-.292.183-.159.153-.098.117-.088.058-.308.147-.34.097-.227.026-.111.052-.07.118-.099.092-.001.003-.065.177-.119.234-.072.223-.062.112-.087.075-.185.125-.154.06-.106.097-.072.035-.044.073-.046.194-.061.095-.083.212-.068.117-.041.15-.023.283-.04.123-.1.139-.108.057-.294.33-.138.098-.09.088-.041.084-.022.058.05-.047.043-.059.039-.034.007.04-.014.035-.103.16-.043.104-.089.16-.072.106.026.053-.026.071-.076.09-.047.195-.118.212-.121.048-.081.093-.106.211-.068.39-.006.035-.08.423.034.041.043-.19.02-.03.032-.031.035.023.095.228.069.139.041.025.021-.041.005-.045.035.016.034.031.06.192.439.153.334.07v.114l-.4.174-.304.254.011-.032-.095.084-.096.016-.04.023.019.062.113.107.059.122.035.232.36.16.338.243v.272l-.365.278-.262.287-.187.216-.133.265-.037.119-.053.136-.018.365-.031.084-.207.358-.227.302-.192.106-.089.03.062.084.02-.058.052-.005.06.023.064.049.059.128.073.065.062.158.056.094.002.072.035-.001.054-.024.035-.004-.016.026-.068.038-.025.046.014.052.067.057.041.066.016.083.02.105.061.085.063.008.157-.085.203-.01.201-.032.093.013.008.481-.032.476h-.104l-.134-.441-.13-.221.316-.097.416-.07v.036l-.499-.01-.321.02-.211-.027-.083-.044-.037-.064-.052-.032-.066.041-.058.068.033.157.002.068.002.069-.011.078.003.147-.015.026.007.034.016.035.031-.014.021-.016.026-.051.029-.024.034.041.066.032.008.124-.006.135H.693l-.046-.056-.089.056h-.06l-.018-.046.026.015.023.014.193.111.09-.037.048.002-.008.024-.047.05-.008.074.036.06.096.049.129-.034.027.017.012.015-.03.108.087.019.121-.045.1-.08.057-.021.175.376.056.329h.024l.003-1h-.021l-.023.488-.056.512h-.146l-.037-.3-.025-.11-.003-.036.062.048.038-.026.032-.048.062-.019.076.017.035.051-.066.013-.063.006-.128.06-.037.072.021.017.036-.01.031.004.005.015-.034.036-.006.055.005.04.053.053.039-.007.033.003-.006.102.029-.003.062-.085.03-.002-.03.106.035.058-.008.476.028.414h.026l.039-.505.027-.213.035-.093.044-.023.012.032.043.086.011.037.061-.067.004.025-.021.094.002.055.126.36.181.212h.06l.03-.126.011-.036.004.026.047.05.095.059.047.01.03-.045.017-.004.06.061.097.061v.111l-.095.084.054-.006.075.1.013.049.001.037.069.078.017.039-.026.075.007.024.014.05.083.073.067.013-.008.021-.098.01-.014.063-.003.057.032.097.043-.01.024-.03.097.009.036-.034.006.022-.014.039-.059.044-.066.083-.052-.014-.032-.034-.041-.003-.009.047.05.076.036.099.092.011.045.046.021.072.03.162.021.031.049.022.059.061.091.162.044.108h.021l-.022-.079.054.023-.035.046-.004.027.099.027.297.123.139.075.132.114.028.033.153.177.204.106.111.075.044.126.056.041.078.039.128.036.101.072.442.455.198.225.173.152.623.378.186.066.242.115.082.012.086-.02.14-.089.125-.048.097-.076.056-.027.213-.073.35-.155.107-.047.25-.064.362-.034-.031-.026-.116.003-.073.007.023-.033.039-.015.185.005.038.045.051.008.171-.028.448-.046-.018-.022-.038-.004-.354.021.04-.036.141-.018.169-.006.098.013.081.059.375.073.025-.024.054-.142.027-.016.035.005-.013.118.075.037.027.006.005.016-.049.002-.091-.016-.023.028.095.02.023.005.083.03.174.026.232.069.095.045.126.089.063.001.162-.096.099-.081.099-.047.314-.117.191-.036.092-.074.133-.062.098-.087.16-.054.277.686.296.838h.055l.144-.881.042-.498.031-.282.04-.151.058-.084.089-.073.224-.069.14-.042.336-.059.301-.035.047-.006.404-.017.068-.105.053-.005.153-.054.025.011-.148.087-.04.016-.028.025.025.014.458-.002.219.051.145.107.162.155.129.186.037.025.009.032.004.07.044.032.074-.032.021-.043.015-.011-.001.833.018.805h.048l.028-.775-.045-.362-.075-.199-.053-.093-.012-.018.024.016.11.054.118-.065-.013.036-.023.037-.044.01-.051.022-.003.064.004.052.013.017.063.016-.017.022-.035-.012-.014.011.046.149.032.086.043.086.024.07.151.155.077.056.046.04.076.039.07.01.023-.012.006-.075.041-.038.003.049-.014.03.005.021.026.264.117.237h.027l.039-.268.018-.239.016-.048.011.032.012.277.058.246h.03l-.162-.289-.285-.342v-.101l.233.372.223.36h.014l.026-.355.011-.111.02-.038.04-.011.064-.032.102-.108.007-.089-.056-.06-.007-.027.048.026.045.058.056.052.126-.006.035-.033.006-.04.01-.009.025.077.056.029.112.003.164-.027.189-.002.026-.08-.068-.204.014-.014.064.081.037.009.027.055.06.017.02-.027.009.002.01.003-.027.119.005.027.025.037.059.008.024-.027-.021-.098.034.02.039.053.032.006.035-.005.024.005.021.016-.011.096.007.063.013.055.033.049.016.112.082.042.097.035.034.02.01.027.037.011.045.003.026-.016.028-.048-.012-.053.02.005.028.026.036.001.049-.04.014.016-.028.039-.007.035.069.069.002.023-.079-.015-.026.046-.026.013.043.083.018.069.089-.01-.067.07.146.185.028.057.024.13-.045.132-.013.148-.033.159-.015.191-.015.192.019.114-.063.113-.051.139-.011.042-.035.021-.064.085-.043.113-.035.128.042.015.047.005.064.049-.006.018-.263.033-.216.172v.12l.535.045.465.007v-.021l-.285-.053-.168-.005-.187.044-.038.048.036.053.043.101.05.054.163.084.12-.022.04.02-.135.056-.012.066-.042-.033-.118-.052-.076-.008-.041-.033-.018-.037-.008-.05-.015-.03-.038.045.017.141.01.141-.03.238-.115.181-.04.041-.031.01-.031-.002-.035.044-.09.016-.046-.076-.039-.019.102.262.023.026.023.064.024.038.088.185.1.068.041-.007.026-.01.015-.023.021-.006-.048.127.011.027.025.015.048-.003.037-.017.038.037.016.035-.084.03-.036.002-.027-.004-.203-.263.012.057.075.121.072.162-.007.042.013.038.055.003.101.053.008.033-.009.022-.1-.055-.032.007.052.059.023.042.094.111.029.054.012.051.024.06.038.04.066-.002.066.023.071.039.073.049-.019.021-.024.01-.171-.093-.03-.005.027.041.178.187.245.215.17.215.04.098.149.133.071.082.061.133.07.073.168.174.021.057.197.19.078.107.003.09.014.023.014.041.052.09.053.072.026.022.011.018.015.025.051.132.048.104.021.116-.019.057-.018.077.031.081.011.021.019.04.053.072.07.073.029.012.044.003.119-.035.08-.068.049-.019.103-.015.046.023-.042.035-.157.078-.17.035-.124.031-.056.007-.014.025.037.051.048.136.086.192.216.296.027.226.164.445.113.479-.101.081v.069l.1.057.032.051-.195.26.006-.025.028-.034.014-.028.008.018.007.056v.047l.016.148.036.129.02.131.003.124.053.1.031.14.115.21.031.133.067.075.063.098.012.1.067.141-.229.101-.285.352v.264l.167.253.057.132-.07.19-.151.107-.114.101-.054.204-.244.334-.032.258-.088.23-.07.487-.148.496-.041.216-.034.097-.048.07-.036.04-.07.052.013.067-.016.058-.021.421v.162l.008.136-.009.307-.006.177.013.231.031.204.126.218.063.163.039.057.165.171.091.143.41.894.088.128.081.275.116.319.272.452.034.109.059.13.243.344.098.21.044.206-.005.084-.018.094-.025-.011-.015-.022-.025.071.014.09.034.165-.002.158.017.135-.012.332.012.123.087.281.096.195.047.2-.014.173.002.092.028.142-.014.156.058.189.023.293.089.088.029.067.016.074-.028.056.006.097.056.169.048.227.036.091.257.471.118.152.08.064.224.248.077.066.022.019.175.299.141.32.156.564.103.279.219.465.174.294.149.22.031.071.062.308.011.119-.008.191-.053.119-.088.079-.061.021-.048-.054-.048.034-.031.062.016.109.053.069.021.086.055.045.053.123.07.052.031.075.081.165.014.065.004.074-.076.042-.017.111.011.093.037.088.034.041.004-.146.027-.048.023-.019.049-.007.07-.004.029.008.038.021.01.066.002.054-.005.034.003.055.048-.002.035-.014.099.005.033.055.065-.004.023.02.033.046-.007.064-.017.036.063-.008.161.122.146.003.051.014.064.009.288-.227.065-.037.167-.02.075-.043.073-.016.048.019.127.057h.367l.319-.284.115-.346.096-.37h.124l.127.359.232.173.057.069.162-.029.076.026.328.066.276.098.157-.002.058-.088.069-.07.114-.01.206.055.066.005.044-.019.016-.132.109-.092.126-.02.297.039.128-.043.323-.152.202-.13.283-.215.069-.035.253-.231.167-.117.293-.268.198-.236.258-.266.182-.165.068-.038.101-.082.234-.285.137-.207.144-.227.164-.293.107-.139.115-.25.123-.173.325-.358.08-.02.045-.023.052-.036.188-.177.067-.1.124-.243.109-.481.04-.135.114-.294.035-.188.003-.015.053-.47.021-.138-.027.003-.017.035-.036.112-.031-.021-.022-.032-.045-.036-.036-.054-.037-.071.049-.084.05-.065.055-.144.123-.126.278-.186.13-.059.218-.098.548-.201.275-.138.118-.089.073-.09.138-.211.04-.086.045.139-.013.304h-.026l-.018-.282-.044-.178-.019-.116.008-.116.1-.446.064-.191-.043-.16-.007-.095.045-.23.001-.061-.005-.045-.016-.047-.006-.053-.026-.008-.028.051-.017.112.002.07-.019.042-.045-.046.011-.111-.269-.181-.31-.224v-.09l.188-.208.138-.162-.014-.316-.036-.11-.058-.089-.101-.072-.117-.056v-.386l.13-.087.032-.045-.014-.053.065.452.105.537h.027l.041-.453.303-.482.212-.379.148-.195.092-.093.104-.071.04.016.038-.011.023-.117.044.059.054-.02.009-.062.064-.096.031-.046.159-.172.107-.145.016-.039.016-.071.045-.047.037-.021.142-.138.195-.137.237-.145.15-.058.029-.037.042-.027.169-.059.182-.075.027-.023.031-.003.031.007.09-.01.052-.03.092-.026.073-.107.044-.04.279-.173.102-.091.058-.026-.034-.115.05-.034.089-.022.087-.13.008-.033.001-.037.074-.091.078-.084.183-.236.072-.173.004-.055-.024-.063.019-.027.038-.014-.004-.043.012-.067.056-.07.043-.042.009-.059-.015-.068.007-.054-.01-.027.006-.415-.029-.398h-.034l-.061.456-.005.109.005.04.054-.036.004-.039-.046-.002-.033-.02-.004-.033-.266-.225-.287-.181v-.072l.264-.056.164-.072-.231-.065-.197-.057v-.088l.286.176.277.165h-.563v-.487l.244-.026.195-.065.073-.053.039-.1-.006-.089-.036-.028-.236-.08-.273-.065v-.158l.291-.093.12-.052.057-.078-.006-.152.044-.169-.033-.096.018-.054.054-.07.041-.092-.011-.033-.014-.021.009-.057.059-.08-.077-.053.05-.04.041-.044-.066-.077-.036-.084-.007-.017-.012-.026-.032-.047-.122-.091-.055-.031-.038-.038-.071.003-.027-.055-.056-.057-.099-.018.043-.069-.005-.063-.032-.092-.02-.118-.048-.138.015-.176-.132-.203.021-.03.007-.036-.078-.114-.048-.225.005-.076.024-.088.075-.188-.006-.161-.07-.054-.031.033.004-.219.049-.144.059-.109.062-.067.021-.081-.051-.119-.132-.051-.041-.106-.072-.105-.041-.046-.061-.036-.075-.1-.012-.103-.035-.11.012-.156.069-.205.049-.087.06-.233.022-.054.023-.081.004-.069.059-.166.015-.068.005-.022.043-.046.064.014.083-.12.108-.265.015-.027.021-.042.033-.06.01-.031.012-.034.042-.104.032-.17.026-.033.029-.076.041-.074.089-.082.01-.063.049-.125-.009-.162.031-.107.041-.048.091-.059.172-.014.122-.119.005-.046.057-.054.018-.062-.012-.046-.011-.092.019.015.026.011.013-.052.019-.033.045.02.034.005.116-.03.086-.063.105-.14.072-.095.073-.12.082-.184.031-.044.027-.077.039-.067.091-.095.081-.096.131-.185.047-.043.068-.11.053-.058.056-.061.542-.647.179-.193.226-.201.214-.232.42-.34.647-.407.16-.134.587-.659.447-.554.327-.43.179-.37.291-.44.277-.552.028-.191.096-.3.078-.173.153-.249.07-.141.061-.154.059-.246.175-.193.125-.251.023-.09.073-.184.144-.214.047-.107.111-.152v-.403l.006-.267.018-.067.074-.041.122-.037.042.022.084.014.003-.029-.017-.043z"/><path d="m3.434 24.195-.051-.024-.171.013-.07.041.246.078.046.052.011-.02.019-.081-.008-.038zM52.234 34.191l-.059-.109-.053.041.023.033.046.037.009.048.034.026zM17.734 29.01l-.016-.013-.02.015-.041.062.009.033.031.018.027-.021.021-.052-.002-.025zM17.617 26.721l-.031-.023-.063.108.046.006.07-.025.019-.056zM.977 14.363l.026-.13-.036.014-.02.039-.043.074.005.052.019.03zM46.892 41.238l.008-.045-.026-.09-.029.005-.011.042-.046.003.011.102.093.012z"/><path d="m48.241 42.516-.048-.167-.014-.176-.005-.386-.056-.375-.065-.251-.015-.16-.04-.081-.048-.076-.112-.197-.035-.081-.03-.085-.039-.068-.08-.092-.023-.038-.01.538-.034.556h-.04l-.129-.4-.078-.195-.023-.132-.068-.089-.013-.012.044.095.025.081.014.091-.009.076-.091.269-.13.128-.083.034-.075.056-.051.082-.061.065-.048-.01-.069-.068-.033-.022-.041.015-.031.039-.034.056-.012.062.011.041.064.083-.009.02-.02.016-.003.051-.139.246.021.142.104.104-.066-.022-.068-.007-.043.036-.035.05-.059.099-.053.104-.034.014-.034-.011.012-.058.024-.043.018-.043-.006-.044-.013-.042-.018-.008-.064.051-.025.046-.032.098-.133.082-.15.086v.037l.079.04-.002.046-.077.049v.059l.04.018.011-.003.022-.024-.013-.146-.031-.02-.041.009-.152.124-.146.106-.067.071-.042.093-.006.042.01.039.068.067-.031.023-.034-.006-.026-.011-.082-.128-.023-.007-.11.036-.085.014-.133.012-.028.02-.017.036-.013.051-.02.543-.04.498h-.04l-.104-.463-.027-.273-.02-.166-.034-.072-.041-.006-.091.076-.066.04-.033.013-.255.022-.054.01-.025.02-.012.037-.011.099.005.171-.013.066-.339.56-.033.154.032.089.01.092-.01.105.01.289.04.175.045.093.034.099.004.1-.015.137.001.035.096.185.039.102-.002.1-.02.1-.029.201-.021.092-.028.09-.086.19-.093.135-.042.09-.116.17-.047.171-.043.083-.071.062-.087.03-.06.053-.056.235-.021.041-.031.034-.021.042-.01.049-.032.066-.097.095-.091.185v.087l.108.251.053.08.043.077.122.158.031.088.014.096.039.093.012.088-.224.082-.198.091V50.125l.185.046.193.147.079.083.039.119.039.063.015.055.019.052.029.024.121.075.057.088.041.023.046.014.154.024.08.028.199.17.062.022.211-.006.07-.028.064-.049.167-.104.172-.09.162-.047.165-.002.075-.016.152-.083.072-.056.11-.156.079-.182.034-.098.022-.102.032-.081.044-.076.104-.203.027-.097.017-.1.115-.324.058-.197.05-.199.048-.228.022-.059.196-.447.146-.402.103-.364.118-.36.082-.203.075-.207.104-.343.119-.334.116-.266.078-.201.056-.169.1-.356.022-.186-.026-.262.013-.087.073-.169.044-.082.031-.031.075-.036.042-.028.003-.046v-.044l.038-.082.013-.095-.001-.187-.031-.079-.031-.03-.019-.036.004-.121-.005-.095-.017-.095-.007-.104.012-.037.059-.058.078-.009.027.015.02.094.057.186.049.078.062.049.017.002.04-.048.023-.035.089-.186.065-.198-.02-.193z"/><path d="m47.834 44.138-.029.125.088-.149.07-.169-.027.014zM41.889 32.032l-.079.06-.014.047.027-.008.089-.047.013-.012.002-.012-.006-.014zM.952 21.277l-.013.006-.028.02-.024.029-.013.001-.03.013.003.016.026.04.057-.012.031-.02.014-.027-.009-.065zM1.047 20.952l-.041.058-.003.041.018.022.034.012.034-.025-.007-.1zM1.218 21.193l-.027.027-.02.06.009.011.03.005.001-.033.027-.015.015-.019.007-.023-.01-.009zM1.012 20.718l-.094.008.003.025.031.059.046.011.039-.099zM1.079 21.308l-.02-.026-.007.011-.014.068.009.007-.01.023.042.003.007-.022-.005-.054zM1.353 20.936l-.061.069.04.016.007-.019.02-.014.03-.011.003-.052zM40.937 17.638l-.005.009-.027.008-.056-.033.023.068.085.018.072-.006.077.017.067-.002.005-.04-.114-.061-.01.031-.016.014-.02.004-.031-.043-.009-.08-.027-.035-.04-.03-.061-.012.033.05-.014.017-.024.014-.003.037.055.009zM40.956 17.387l-.027-.079-.021-.018-.005.019-.03.032.013.016zM18.687 27.692l.02-.078.111-.184.003-.064-.029-.042-.107.003-.018-.004-.043.019-.027.054-.011.072-.033.08-.019.011-.061.015-.01.022-.012.074.007.031.022.023.127.039.037-.005z"/></g></svg>