<?xml version="1.0" encoding="UTF-8" standalone="no"?>
<svg
   xmlns:dc="http://purl.org/dc/elements/1.1/"
   xmlns:cc="http://creativecommons.org/ns#"
   xmlns:rdf="http://www.w3.org/1999/02/22-rdf-syntax-ns#"
   xmlns:svg="http://www.w3.org/2000/svg"
   xmlns="http://www.w3.org/2000/svg"
   version="1.1"
   id="Layer_1"
   x="0px"
   y="0px"
   width="71.818px"
   height="46.937px"
   viewBox="0 0 71.818 46.937"
   enable-background="new 0 0 71.818 46.937"
   xml:space="preserve"><metadata
   id="metadata869"><rdf:RDF><cc:Work
       rdf:about=""><dc:format>image/svg+xml</dc:format><dc:type
         rdf:resource="http://purl.org/dc/dcmitype/StillImage" /><dc:title></dc:title></cc:Work></rdf:RDF></metadata><defs
   id="defs867" />
<g
   style="fill:#b3b4b4;fill-opacity:1"
   id="g862">
	<path
   id="polygon2"
   style="clip-rule:evenodd;fill-rule:evenodd;fill:#b3b4b4;fill-opacity:1"
   d="M 48.772,43.982 C 48.754416,43.999878 48.754416,43.999878 48.772,43.982 Z" />
	<path
   id="polygon4"
   style="clip-rule:evenodd;fill-rule:evenodd;fill:#b3b4b4;fill-opacity:1"
   d="M 46.993,44.034 C 46.660164,43.805887 47.143513,44.564456 46.993,44.034 Z" />
	<path
   id="polygon6"
   style="clip-rule:evenodd;fill-rule:evenodd;fill:#b3b4b4;fill-opacity:1"
   d="M 48.171,36.843 C 47.985227,36.745725 48.195725,37.099056 48.171,36.843 Z" />
	<path
   id="polygon8"
   style="clip-rule:evenodd;fill-rule:evenodd;fill:#b3b4b4;fill-opacity:1"
   d="M 48.148,37.021 C 48.075136,37.178224 48.266149,36.86286 48.148,37.021 Z" />
	<path
   id="polygon10"
   style="clip-rule:evenodd;fill-rule:evenodd;fill:#b3b4b4;fill-opacity:1"
   d="M 48.509,45.118 C 48.526112,45.109318 48.526112,45.109318 48.509,45.118 Z" />
	<path
   id="polygon12"
   style="clip-rule:evenodd;fill-rule:evenodd;fill:#b3b4b4;fill-opacity:1"
   d="M 15.631,24.984 C 15.651445,25.055829 15.651445,25.055829 15.631,24.984 Z" />
	<path
   id="polygon14"
   style="clip-rule:evenodd;fill-rule:evenodd;fill:#b3b4b4;fill-opacity:1"
   d="M 43.852,45.51 C 43.865783,45.549401 43.865783,45.549401 43.852,45.51 Z" />
	<path
   id="polyline16"
   style="clip-rule:evenodd;fill-rule:evenodd;fill:#b3b4b4;fill-opacity:1"
   d="M 43.789,45.646 C 43.920675,45.406352 43.562488,45.474517 43.703,45.63" />
	<path
   id="polygon18"
   style="clip-rule:evenodd;fill-rule:evenodd;fill:#b3b4b4;fill-opacity:1"
   d="M 46.029,43.192 C 46.134567,43.302268 46.027481,43.044195 46.029,43.192 Z" />
	<path
   id="polygon20"
   style="clip-rule:evenodd;fill-rule:evenodd;fill:#b3b4b4;fill-opacity:1"
   d="M 43.659,44.858 C 43.677222,45.015975 43.714868,44.749794 43.659,44.858 Z" />
	<path
   id="polygon22"
   style="clip-rule:evenodd;fill-rule:evenodd;fill:#b3b4b4;fill-opacity:1"
   d="M 44.686,44.471 C 44.673901,44.445434 44.673901,44.445434 44.686,44.471 Z" />
	<path
   id="polygon24"
   style="clip-rule:evenodd;fill-rule:evenodd;fill:#b3b4b4;fill-opacity:1"
   d="M 45.915,42.89 C 45.597496,42.438009 45.997397,43.135513 45.915,42.89 Z" />
	<path
   id="polygon26"
   style="clip-rule:evenodd;fill-rule:evenodd;fill:#b3b4b4;fill-opacity:1"
   d="M 44.618,44.551 C 44.583523,44.815898 44.819201,44.449483 44.618,44.551 Z" />
	<path
   id="polygon28"
   style="clip-rule:evenodd;fill-rule:evenodd;fill:#b3b4b4;fill-opacity:1"
   d="M 54.022,34.732 C 54.053447,34.547149 53.814101,34.806076 54.022,34.732 Z" />
	<path
   id="polygon30"
   style="clip-rule:evenodd;fill-rule:evenodd;fill:#b3b4b4;fill-opacity:1"
   d="M 55.936,34.362 C 55.511734,33.202321 54.468544,35.81455 55.947087,35.49684 53.993797,35.774323 56.467102,36.711751 55.912037,34.832723 Z" />
	<path
   id="polygon32"
   style="clip-rule:evenodd;fill-rule:evenodd;fill:#b3b4b4;fill-opacity:1"
   d="M 33.002,44.504 C 32.977547,44.482461 32.977547,44.482461 33.002,44.504 Z" />
	<path
   id="polygon34"
   style="clip-rule:evenodd;fill-rule:evenodd;fill:#b3b4b4;fill-opacity:1"
   d="M 32.91,44.859 C 32.937754,44.848598 32.841638,44.847547 32.91,44.859 Z" />
	<path
   id="polygon36"
   style="clip-rule:evenodd;fill-rule:evenodd;fill:#b3b4b4;fill-opacity:1"
   d="M 34.15,45.959 C 33.514252,43.085888 32.056514,45.801305 33.586605,46.946109 33.974606,46.792274 34.340133,46.422725 34.15,45.959 Z" />
	<path
   id="polygon38"
   style="clip-rule:evenodd;fill-rule:evenodd;fill:#b3b4b4;fill-opacity:1"
   d="M 33.247,44.418 C 33.372123,44.094299 33.109148,44.562719 33.247,44.418 Z" />
	<path
   id="polygon40"
   style="clip-rule:evenodd;fill-rule:evenodd;fill:#b3b4b4;fill-opacity:1"
   d="M 57.263,27.981 C 57.339183,28.122961 57.282883,27.858652 57.263,27.981 Z" />
	<path
   id="polygon42"
   style="clip-rule:evenodd;fill-rule:evenodd;fill:#b3b4b4;fill-opacity:1"
   d="M 57.324,27.912 C 57.610365,27.961663 57.079668,27.644436 57.324,27.912 Z" />
	<path
   id="polygon44"
   style="clip-rule:evenodd;fill-rule:evenodd;fill:#b3b4b4;fill-opacity:1"
   d="M 58.222,26.068 C 58.205701,25.897462 58.091852,26.153188 58.222,26.068 Z" />
	<path
   id="polygon46"
   style="clip-rule:evenodd;fill-rule:evenodd;fill:#b3b4b4;fill-opacity:1"
   d="M 57.737,27.911 C 57.968221,27.539576 57.38207,27.837654 57.737,27.911 Z" />
	<path
   id="polygon48"
   style="clip-rule:evenodd;fill-rule:evenodd;fill:#b3b4b4;fill-opacity:1"
   d="M 55.726,25.864 C 55.489299,25.847205 56.004717,26.13951 55.726,25.864 Z" />
	<path
   id="polygon50"
   style="clip-rule:evenodd;fill-rule:evenodd;fill:#b3b4b4;fill-opacity:1"
   d="M 56.767,28.198 C 56.926802,28.204562 56.603192,28.084285 56.767,28.198 Z" />
	<path
   id="polygon52"
   style="clip-rule:evenodd;fill-rule:evenodd;fill:#b3b4b4;fill-opacity:1"
   d="M 56.055,26.775 C 56.02361,26.735253 56.02361,26.735253 56.055,26.775 Z" />
	<path
   id="polygon54"
   style="clip-rule:evenodd;fill-rule:evenodd;fill:#b3b4b4;fill-opacity:1"
   d="M 56.276,27.792 C 56.300997,27.830791 56.300997,27.830791 56.276,27.792 Z" />
	<path
   id="polygon56"
   style="clip-rule:evenodd;fill-rule:evenodd;fill:#b3b4b4;fill-opacity:1"
   d="M 56.548,28.07 C 56.329564,27.886642 56.468311,28.382204 56.548,28.07 Z" />
	<path
   id="polygon58"
   style="clip-rule:evenodd;fill-rule:evenodd;fill:#b3b4b4;fill-opacity:1"
   d="M 56.738,28.877 C 57.381754,29.253797 56.959669,28.233597 56.738,28.877 Z" />
	<path
   id="polygon60"
   style="clip-rule:evenodd;fill-rule:evenodd;fill:#b3b4b4;fill-opacity:1"
   d="M 10.695,0.387 C 11.826536,0.28813486 9.7385752,0.3309869 10.695,0.387 Z" />
	<path
   id="polygon62"
   style="clip-rule:evenodd;fill-rule:evenodd;fill:#b3b4b4;fill-opacity:1"
   d="M 18.445,4.296 C 18.826197,4.5591357 18.645171,4.0016283 18.445,4.296 Z" />
	<path
   id="polygon64"
   style="clip-rule:evenodd;fill-rule:evenodd;fill:#b3b4b4;fill-opacity:1"
   d="M 17.271,0.437 C 18.573543,0.67921561 17.303598,0.1558996 17.271,0.437 Z" />
	<path
   id="polygon66"
   style="clip-rule:evenodd;fill-rule:evenodd;fill:#b3b4b4;fill-opacity:1"
   d="M 16.704,0.985 C 16.833795,0.98917073 16.833795,0.98917073 16.704,0.985 Z" />
	<path
   id="polygon68"
   style="clip-rule:evenodd;fill-rule:evenodd;fill:#b3b4b4;fill-opacity:1"
   d="M 12.843,5.835 C 14.646796,6.7292573 12.957522,5.1938043 12.843,5.835 Z" />
	<path
   id="polygon70"
   style="clip-rule:evenodd;fill-rule:evenodd;fill:#b3b4b4;fill-opacity:1"
   d="M 20.33,4.388 C 21.193997,4.8747823 20.304523,3.8701019 20.33,4.388 Z" />
	<path
   id="polygon72"
   style="clip-rule:evenodd;fill-rule:evenodd;fill:#b3b4b4;fill-opacity:1"
   d="M 20.509,3.065 C 20.929103,3.2642919 20.618167,2.8081566 20.509,3.065 Z" />
	<path
   id="polygon74"
   style="clip-rule:evenodd;fill-rule:evenodd;fill:#b3b4b4;fill-opacity:1"
   d="M 19.283,4.051 C 19.212102,4.0340598 19.212102,4.0340598 19.283,4.051 Z" />
	<path
   id="polygon76"
   style="clip-rule:evenodd;fill-rule:evenodd;fill:#b3b4b4;fill-opacity:1"
   d="M 11.085,0.085 C 12.404369,0.22086414 10.805915,-0.04794252 11.085,0.085 Z" />
	<path
   id="polygon78"
   style="clip-rule:evenodd;fill-rule:evenodd;fill:#b3b4b4;fill-opacity:1"
   d="M 19.783,4.658 C 20.787444,4.8951397 19.990426,4.1466058 19.783,4.658 Z" />
	<path
   id="polygon80"
   style="clip-rule:evenodd;fill-rule:evenodd;fill:#b3b4b4;fill-opacity:1"
   d="M 18.812,4.042 C 19.307678,4.0836147 18.727364,3.9078954 18.812,4.042 Z" />
	<path
   id="polygon82"
   style="clip-rule:evenodd;fill-rule:evenodd;fill:#b3b4b4;fill-opacity:1"
   d="M 8.692,6.312 C 9.0702875,7.22401 10.202987,5.7177746 8.692,6.312 Z" />
	<path
   id="polygon84"
   style="clip-rule:evenodd;fill-rule:evenodd;fill:#b3b4b4;fill-opacity:1"
   d="M 10.551,3.158 C 10.326843,3.2290614 10.873372,3.2616469 10.551,3.158 Z" />
	<path
   id="polygon86"
   style="clip-rule:evenodd;fill-rule:evenodd;fill:#b3b4b4;fill-opacity:1"
   d="M 12.205,3.481 C 11.981765,3.7424057 12.432308,3.3175989 12.205,3.481 Z" />
	<path
   id="polygon88"
   style="clip-rule:evenodd;fill-rule:evenodd;fill:#b3b4b4;fill-opacity:1"
   d="M 14.08,2.771 C 16.262799,2.5992036 13.523774,1.7378882 14.08,2.771 Z" />
	<path
   id="polygon90"
   style="clip-rule:evenodd;fill-rule:evenodd;fill:#b3b4b4;fill-opacity:1"
   d="M 11.601,4.039 C 11.6292,3.910618 11.500429,4.088352 11.601,4.039 Z" />
	<path
   id="polygon92"
   style="clip-rule:evenodd;fill-rule:evenodd;fill:#b3b4b4;fill-opacity:1"
   d="M 11.687,3.843 C 12.162746,3.8656325 11.296942,3.8008996 11.687,3.843 Z" />
	<path
   id="polygon94"
   style="clip-rule:evenodd;fill-rule:evenodd;fill:#b3b4b4;fill-opacity:1"
   d="M 13.911,3.039 C 14.135511,2.6057446 13.599162,2.8826665 13.911,3.039 Z" />
	<path
   id="polygon96"
   style="clip-rule:evenodd;fill-rule:evenodd;fill:#b3b4b4;fill-opacity:1"
   d="M 11.556,3.834 C 11.511992,4.2615769 11.831488,3.681378 11.556,3.834 Z" />
	<path
   id="polygon98"
   style="clip-rule:evenodd;fill-rule:evenodd;fill:#b3b4b4;fill-opacity:1"
   d="M 12.239,2.584 C 11.1035,2.7011858 9.1104068,4.7254491 11.474631,3.9031649 11.997014,3.0532872 15.604135,2.3952806 12.239,2.584 Z" />
	<path
   id="polygon100"
   style="clip-rule:evenodd;fill-rule:evenodd;fill:#b3b4b4;fill-opacity:1"
   d="M 12.292,3.424 C 12.30741,3.3825505 12.249275,3.4492483 12.292,3.424 Z" />
	<path
   id="polygon102"
   style="clip-rule:evenodd;fill-rule:evenodd;fill:#b3b4b4;fill-opacity:1"
   d="M 10.795,3.258 C 10.621526,3.1057628 10.621659,3.4008736 10.795,3.258 Z" />
	<path
   id="polygon104"
   style="clip-rule:evenodd;fill-rule:evenodd;fill:#b3b4b4;fill-opacity:1"
   d="M 10.541,3.414 C 10.716995,4.0197795 10.86874,2.9842249 10.541,3.414 Z" />
	<path
   id="polygon106"
   style="clip-rule:evenodd;fill-rule:evenodd;fill:#b3b4b4;fill-opacity:1"
   d="M 10.771,3.532 C 10.741711,3.4898913 10.740589,3.5600328 10.771,3.532 Z" />
	<path
   id="polygon108"
   style="clip-rule:evenodd;fill-rule:evenodd;fill:#b3b4b4;fill-opacity:1"
   d="M 11.171,4.562 C 11.180262,4.4006687 10.895256,4.7210712 11.171,4.562 Z" />
	<path
   id="polygon110"
   style="clip-rule:evenodd;fill-rule:evenodd;fill:#b3b4b4;fill-opacity:1"
   d="M 11.182,4.47 C 11.127882,4.647094 11.435533,4.3713869 11.182,4.47 Z" />
	<path
   id="polygon112"
   style="clip-rule:evenodd;fill-rule:evenodd;fill:#b3b4b4;fill-opacity:1"
   d="M 11.828,5.506 C 14.592681,6.0070548 9.4385746,4.7549237 12,4.699 11.42689,4.7328286 9.7789293,3.5043409 10.302291,4.4637909 11.361895,4.30388 7.9768471,5.1325779 10.490787,5.1511185 9.8622113,4.9420834 11.7962,6.2643714 11.828,5.506 Z" />
	<path
   id="polygon114"
   style="clip-rule:evenodd;fill-rule:evenodd;fill:#b3b4b4;fill-opacity:1"
   d="M 9.826,4.408 C 9.5482054,4.3748658 9.9706701,4.5394749 9.826,4.408 Z" />
	<path
   id="polygon116"
   style="clip-rule:evenodd;fill-rule:evenodd;fill:#b3b4b4;fill-opacity:1"
   d="M 9.903,4.562 C 10.204177,4.5235958 9.6963084,4.3215815 9.903,4.562 Z" />
	<path
   id="polygon118"
   style="clip-rule:evenodd;fill-rule:evenodd;fill:#b3b4b4;fill-opacity:1"
   d="M 10.027,5.149 C 10.038705,5.46675 10.639264,5.2133055 10.027,5.149 Z" />
	<path
   id="polygon120"
   style="clip-rule:evenodd;fill-rule:evenodd;fill:#b3b4b4;fill-opacity:1"
   d="M 8.87,0.693 C 9.169005,0.6256517 8.6064299,0.66746502 8.87,0.693 Z" />
	<path
   id="polygon122"
   style="clip-rule:evenodd;fill-rule:evenodd;fill:#b3b4b4;fill-opacity:1"
   d="M 9.095,0.748 C 10.03294,1.1234061 9.3567958,0.30372148 9.095,0.748 Z" />
	<path
   id="polygon124"
   style="clip-rule:evenodd;fill-rule:evenodd;fill:#b3b4b4;fill-opacity:1"
   d="M 10.474,0.741 C 9.6460512,0.64593007 10.811216,0.96438114 10.474,0.741 Z" />
	<path
   id="polygon126"
   style="clip-rule:evenodd;fill-rule:evenodd;fill:#b3b4b4;fill-opacity:1"
   d="M 11.418,0.402 C 12.250892,0.76913171 12.656341,-0.01197831 11.418,0.402 Z" />
	<path
   id="polygon128"
   style="clip-rule:evenodd;fill-rule:evenodd;fill:#b3b4b4;fill-opacity:1"
   d="M 16.01,5.598 C 16.22223,5.6803238 15.716728,5.3099649 16.01,5.598 Z" />
	<path
   id="polygon130"
   style="clip-rule:evenodd;fill-rule:evenodd;fill:#b3b4b4;fill-opacity:1"
   d="M 5.256,0.547 C 7.0984489,0.5156955 5.9103363,0.29185599 5.256,0.547 Z" />
	<path
   id="polygon132"
   style="clip-rule:evenodd;fill-rule:evenodd;fill:#b3b4b4;fill-opacity:1"
   d="M 7.114,0.711 C 6.7390325,0.55227532 6.949165,0.89513373 7.114,0.711 Z" />
	<path
   id="polygon134"
   style="clip-rule:evenodd;fill-rule:evenodd;fill:#b3b4b4;fill-opacity:1"
   d="M 10.27,0.563 C 11.717812,0.81508015 10.986685,0.09444252 10.27,0.563 Z" />
	<path
   id="polygon136"
   style="clip-rule:evenodd;fill-rule:evenodd;fill:#b3b4b4;fill-opacity:1"
   d="M 7.489,0.772 C 6.4413716,0.64318029 7.7887041,0.99358815 7.489,0.772 Z" />
	<path
   id="polygon138"
   style="clip-rule:evenodd;fill-rule:evenodd;fill:#b3b4b4;fill-opacity:1"
   d="M 7.92,0.705 C 9.0128068,0.80960929 7.5960072,0.50485192 7.92,0.705 Z" />
	<path
   id="polygon140"
   style="clip-rule:evenodd;fill-rule:evenodd;fill:#b3b4b4;fill-opacity:1"
   d="M 6.431,0.569 C 4.6829542,1.0692371 8.8894157,0.18583522 6.431,0.569 Z" />
	<path
   id="polygon142"
   style="clip-rule:evenodd;fill-rule:evenodd;fill:#b3b4b4;fill-opacity:1"
   d="M 6.938,0.321 C 6.9896363,0.31344428 6.9896363,0.31344428 6.938,0.321 Z" />
	<path
   id="polygon144"
   style="clip-rule:evenodd;fill-rule:evenodd;fill:#b3b4b4;fill-opacity:1"
   d="M 54.532,14.855 C 55.539359,15.420603 54.349527,14.086983 54.532,14.855 Z" />
	<path
   id="polygon146"
   style="clip-rule:evenodd;fill-rule:evenodd;fill:#b3b4b4;fill-opacity:1"
   d="M 21.356,3.672 C 21.166861,3.7370219 21.671069,3.7140098 21.356,3.672 Z" />
	<path
   id="polygon148"
   style="clip-rule:evenodd;fill-rule:evenodd;fill:#b3b4b4;fill-opacity:1"
   d="M 6.592,7.712 C 6.6289349,7.729228 6.6289349,7.729228 6.592,7.712 Z" />
	<path
   id="polygon150"
   style="clip-rule:evenodd;fill-rule:evenodd;fill:#b3b4b4;fill-opacity:1"
   d="M 8.306,0.583 C 8.6221807,0.80953993 8.4957155,0.39607638 8.306,0.583 Z" />
	<path
   id="polygon152"
   style="clip-rule:evenodd;fill-rule:evenodd;fill:#b3b4b4;fill-opacity:1"
   d="M 64.183,22.232 C 64.135859,22.177322 64.106699,22.239929 64.183,22.232 Z" />
	<path
   id="polygon154"
   style="clip-rule:evenodd;fill-rule:evenodd;fill:#b3b4b4;fill-opacity:1"
   d="M 9.79,0.204 C 9.8665524,0.20880804 9.8665524,0.20880804 9.79,0.204 Z" />
	<path
   id="polygon156"
   style="clip-rule:evenodd;fill-rule:evenodd;fill:#b3b4b4;fill-opacity:1"
   d="M 9.459,0.065 C 10.312255,0.21419839 9.7002043,-0.18118191 9.459,0.065 Z" />
	<path
   id="polygon158"
   style="clip-rule:evenodd;fill-rule:evenodd;fill:#b3b4b4;fill-opacity:1"
   d="M 9.961,0.456 C 9.9189556,0.02354328 8.8243836,0.65023456 9.961,0.456 Z" />
	<path
   id="polygon160"
   style="clip-rule:evenodd;fill-rule:evenodd;fill:#b3b4b4;fill-opacity:1"
   d="M 9.641,0.583 C 9.2616755,0.92584838 11.378298,0.45252807 9.641,0.583 Z" />
	<path
   id="polygon162"
   style="clip-rule:evenodd;fill-rule:evenodd;fill:#b3b4b4;fill-opacity:1"
   d="M 8.801,0.276 C 10.317107,0.35212776 9.5103974,-0.08861459 8.801,0.276 Z" />
	<path
   id="polygon164"
   style="clip-rule:evenodd;fill-rule:evenodd;fill:#b3b4b4;fill-opacity:1"
   d="M 63.746,21.948 C 64.138786,21.897487 63.92409,21.257349 63.746,21.948 Z" />
	<path
   id="polygon166"
   style="clip-rule:evenodd;fill-rule:evenodd;fill:#b3b4b4;fill-opacity:1"
   d="M 8.428,0.448 C 10.393527,0.73828925 8.6448369,0.05106063 8.428,0.448 Z" />
	<path
   id="polygon168"
   style="clip-rule:evenodd;fill-rule:evenodd;fill:#b3b4b4;fill-opacity:1"
   d="M 58.536,12.298 C 58.727536,12.383793 58.521893,12.08946 58.536,12.298 Z" />
	<path
   id="polygon170"
   style="clip-rule:evenodd;fill-rule:evenodd;fill:#b3b4b4;fill-opacity:1"
   d="M 57.448,15.188 C 57.489059,15.149651 57.375009,15.128772 57.448,15.188 Z" />
	<path
   id="polygon172"
   style="clip-rule:evenodd;fill-rule:evenodd;fill:#b3b4b4;fill-opacity:1"
   d="M 57.433,14.757 C 57.090187,14.794844 57.760646,15.342734 57.433,14.757 Z" />
	<path
   id="polygon174"
   style="clip-rule:evenodd;fill-rule:evenodd;fill:#b3b4b4;fill-opacity:1"
   d="M 62.249,20.485 C 62.01935,20.311059 62.219494,20.615245 62.249,20.485 Z" />
	<path
   id="polygon176"
   style="clip-rule:evenodd;fill-rule:evenodd;fill:#b3b4b4;fill-opacity:1"
   d="M 57.479,15.166 C 57.804513,15.483656 57.310638,14.833381 57.479,15.166 Z" />
	<path
   id="polygon178"
   style="clip-rule:evenodd;fill-rule:evenodd;fill:#b3b4b4;fill-opacity:1"
   d="M 62.005,20.455 C 62.423473,20.461001 61.297484,20.272314 62.005,20.455 Z" />
	<path
   id="polygon180"
   style="clip-rule:evenodd;fill-rule:evenodd;fill:#b3b4b4;fill-opacity:1"
   d="M 22.624,3.239 C 22.437433,3.4844761 23.233251,3.1303091 22.624,3.239 Z" />
	<path
   id="polygon182"
   style="clip-rule:evenodd;fill-rule:evenodd;fill:#b3b4b4;fill-opacity:1"
   d="M 64.381,21.985 C 64.463375,22.177059 64.602893,21.818116 64.381,21.985 Z" />
	<path
   id="polygon184"
   style="clip-rule:evenodd;fill-rule:evenodd;fill:#b3b4b4;fill-opacity:1"
   d="M 62.338,5.301 C 64.61102,5.9871889 63.529697,4.3532723 62.338,5.301 Z" />
	<path
   id="polygon186"
   style="clip-rule:evenodd;fill-rule:evenodd;fill:#b3b4b4;fill-opacity:1"
   d="M 64.236,22.228 C 64.221456,22.284351 64.292697,22.185695 64.236,22.228 Z" />
	<path
   id="polygon188"
   style="clip-rule:evenodd;fill-rule:evenodd;fill:#b3b4b4;fill-opacity:1"
   d="M 44.96,5.111 C 45.600074,5.1214818 44.544558,4.9545656 44.96,5.111 Z" />
	<path
   id="polygon190"
   style="clip-rule:evenodd;fill-rule:evenodd;fill:#b3b4b4;fill-opacity:1"
   d="M 65.734,17.366 C 65.448342,17.285943 65.912915,17.53556 65.734,17.366 Z" />
	<path
   id="polygon192"
   style="clip-rule:evenodd;fill-rule:evenodd;fill:#b3b4b4;fill-opacity:1"
   d="M 64.575,21.128 C 65.28889,20.165569 63.497944,22.127863 64.575,21.128 Z" />
	<path
   id="polygon194"
   style="clip-rule:evenodd;fill-rule:evenodd;fill:#b3b4b4;fill-opacity:1"
   d="M 65.297,20.392 C 64.572377,21.047552 65.589828,20.706366 65.297,20.392 Z" />
	<path
   id="polygon196"
   style="clip-rule:evenodd;fill-rule:evenodd;fill:#b3b4b4;fill-opacity:1"
   d="M 45.854,2.39 C 45.711459,2.164617 45.384395,2.5831352 45.854,2.39 Z" />
	<path
   id="polygon198"
   style="clip-rule:evenodd;fill-rule:evenodd;fill:#b3b4b4;fill-opacity:1"
   d="M 65.734,19.995 C 66.056057,20.02926 65.749697,19.572955 65.734,19.995 Z" />
	<path
   id="polygon200"
   style="clip-rule:evenodd;fill-rule:evenodd;fill:#b3b4b4;fill-opacity:1"
   d="M 58.824,5.996 C 60.126828,6.5372347 59.299771,5.5134431 58.824,5.996 Z" />
	<path
   id="polygon202"
   style="clip-rule:evenodd;fill-rule:evenodd;fill:#b3b4b4;fill-opacity:1"
   d="M 45.705,2.949 C 46.469202,3.7917859 48.60921,3.6081255 47.41,2.95 46.8522,3.4223058 46.222186,2.4218232 45.705,2.949 Z" />
	<path
   id="polygon204"
   style="clip-rule:evenodd;fill-rule:evenodd;fill:#b3b4b4;fill-opacity:1"
   d="M 56.324,6.235 C 57.357674,7.1321483 56.347649,5.7828154 56.324,6.235 Z" />
	<path
   id="polygon206"
   style="clip-rule:evenodd;fill-rule:evenodd;fill:#b3b4b4;fill-opacity:1"
   d="M 54.975,5.44 C 55.389667,5.5915646 54.809293,5.2815968 54.975,5.44 Z" />
	<path
   id="polygon208"
   style="clip-rule:evenodd;fill-rule:evenodd;fill:#b3b4b4;fill-opacity:1"
   d="M 64.298,22.091 C 64.214266,22.099874 64.372118,22.120905 64.298,22.091 Z" />
	<path
   id="polygon210"
   style="clip-rule:evenodd;fill-rule:evenodd;fill:#b3b4b4;fill-opacity:1"
   d="M 18.646,7.803 C 18.015931,7.3591479 18.66041,8.1632521 18.646,7.803 Z" />
	<path
   id="polygon212"
   style="clip-rule:evenodd;fill-rule:evenodd;fill:#b3b4b4;fill-opacity:1"
   d="M 16.663,6.215 C 16.706019,5.9984861 16.430757,6.3015905 16.663,6.215 Z" />
	<path
   id="polygon214"
   style="clip-rule:evenodd;fill-rule:evenodd;fill:#b3b4b4;fill-opacity:1"
   d="M 66.13,18.368 C 65.956107,17.503001 65.914331,18.630865 66.13,18.368 Z" />
	<path
   id="polygon216"
   style="clip-rule:evenodd;fill-rule:evenodd;fill:#b3b4b4;fill-opacity:1"
   d="M 68.749,14.818 C 67.50219,14.180494 69.610321,15.340387 68.749,14.818 Z" />
	<path
   id="polygon218"
   style="clip-rule:evenodd;fill-rule:evenodd;fill:#b3b4b4;fill-opacity:1"
   d="M 69.465,14.931 C 68.966525,14.829429 70.472831,15.291726 69.465,14.931 Z" />
	<path
   id="polygon220"
   style="clip-rule:evenodd;fill-rule:evenodd;fill:#b3b4b4;fill-opacity:1"
   d="M 3.903,8.659 C 3.6016878,8.469549 3.9376271,8.9161164 3.903,8.659 Z" />
	<path
   id="polygon222"
   style="clip-rule:evenodd;fill-rule:evenodd;fill:#b3b4b4;fill-opacity:1"
   d="M 21.022,0.309 C 22.163248,0.37900472 21.27084,0.18844426 21.022,0.309 Z" />
	<path
   id="polygon224"
   style="clip-rule:evenodd;fill-rule:evenodd;fill:#b3b4b4;fill-opacity:1"
   d="M 65.97,19.369 C 65.95175,19.491725 66.090503,19.39044 65.97,19.369 Z" />
	<path
   id="polygon226"
   style="clip-rule:evenodd;fill-rule:evenodd;fill:#b3b4b4;fill-opacity:1"
   d="M 66.247,17.542 C 66.294993,17.223438 65.869282,17.547132 66.247,17.542 Z" />
	<path
   id="polygon228"
   style="clip-rule:evenodd;fill-rule:evenodd;fill:#b3b4b4;fill-opacity:1"
   d="M 65.999,18.75 C 66.009477,18.72262 66.009477,18.72262 65.999,18.75 Z" />
	<path
   id="polygon230"
   style="clip-rule:evenodd;fill-rule:evenodd;fill:#b3b4b4;fill-opacity:1"
   d="M 66.197,17.754 C 65.969072,17.014925 65.78136,18.277113 66.197,17.754 Z" />
	<path
   id="polygon232"
   style="clip-rule:evenodd;fill-rule:evenodd;fill:#b3b4b4;fill-opacity:1"
   d="M 64.959,12.596 C 65.907275,12.26863 64.406125,11.921301 64.959,12.596 Z" />
	<path
   id="polygon234"
   style="clip-rule:evenodd;fill-rule:evenodd;fill:#b3b4b4;fill-opacity:1"
   d="M 47.745,2.661 C 47.697909,2.6543685 47.697909,2.6543685 47.745,2.661 Z" />
	<path
   id="polygon236"
   style="clip-rule:evenodd;fill-rule:evenodd;fill:#b3b4b4;fill-opacity:1"
   d="M 25.97,2.592 C 26.18133,2.7821258 25.999282,2.3792929 25.97,2.592 Z" />
	<path
   id="polygon238"
   style="clip-rule:evenodd;fill-rule:evenodd;fill:#b3b4b4;fill-opacity:1"
   d="M 31.739,2.445 C 32.446605,2.6714852 31.517192,2.2625523 31.739,2.445 Z" />
	<path
   id="polygon240"
   style="clip-rule:evenodd;fill-rule:evenodd;fill:#b3b4b4;fill-opacity:1"
   d="M 25.197,2.171 C 24.642521,2.3343003 26.038777,2.0962343 25.197,2.171 Z" />
	<path
   id="polygon242"
   style="clip-rule:evenodd;fill-rule:evenodd;fill:#b3b4b4;fill-opacity:1"
   d="M 22.351,0.447 C 22.331982,0.45146357 22.331982,0.45146357 22.351,0.447 Z" />
	<path
   id="polygon244"
   style="clip-rule:evenodd;fill-rule:evenodd;fill:#b3b4b4;fill-opacity:1"
   d="M 22.187,0.457 C 22.538767,0.42468957 21.914387,0.37741853 22.187,0.457 Z" />
	<path
   id="polygon246"
   style="clip-rule:evenodd;fill-rule:evenodd;fill:#b3b4b4;fill-opacity:1"
   d="M 22.185,0.921 C 22.430184,0.53385352 21.530105,0.86658924 22.185,0.921 Z" />
	<path
   id="polygon248"
   style="clip-rule:evenodd;fill-rule:evenodd;fill:#b3b4b4;fill-opacity:1"
   d="M 22.13,1.039 C 22.411329,1.1584271 22.115842,0.70684213 22.13,1.039 Z" />
	<path
   id="polygon250"
   style="clip-rule:evenodd;fill-rule:evenodd;fill:#b3b4b4;fill-opacity:1"
   d="M 21.968,0.841 C 21.462476,0.3376442 22.09788,1.6963714 21.968,0.841 Z" />
	<path
   id="polygon252"
   style="clip-rule:evenodd;fill-rule:evenodd;fill:#b3b4b4;fill-opacity:1"
   d="M 22.607,0.941 C 23.548197,1.1477767 25.522551,2.4852042 25.105493,0.80802424 24.415658,0.60385539 22.150896,1.1104806 23.883,0.575 23.541973,0.04508871 21.835175,0.20666237 22.607,0.941 Z" />
	<path
   id="polygon254"
   style="clip-rule:evenodd;fill-rule:evenodd;fill:#b3b4b4;fill-opacity:1"
   d="M 22.312,0.985 C 22.390413,0.78134971 22.10839,0.95290208 22.312,0.985 Z" />
	<path
   id="polygon256"
   style="clip-rule:evenodd;fill-rule:evenodd;fill:#b3b4b4;fill-opacity:1"
   d="M 22.42,1.039 C 22.574273,0.80764323 22.217825,0.97644991 22.42,1.039 Z" />
	<path
   id="polygon258"
   style="clip-rule:evenodd;fill-rule:evenodd;fill:#b3b4b4;fill-opacity:1"
   d="M 22.363,1.039 C 22.392877,0.86161252 22.195653,1.0880291 22.363,1.039 Z" />
	<path
   id="polygon260"
   style="clip-rule:evenodd;fill-rule:evenodd;fill:#b3b4b4;fill-opacity:1"
   d="M 24.038,0.691 C 24.192234,0.59208606 23.846546,0.64977968 24.038,0.691 Z" />
	<path
   id="polygon262"
   style="clip-rule:evenodd;fill-rule:evenodd;fill:#b3b4b4;fill-opacity:1"
   d="M 22.255,0.709 C 22.445206,0.79681882 22.147014,0.35763555 22.255,0.709 Z" />
	<path
   id="polygon264"
   style="clip-rule:evenodd;fill-rule:evenodd;fill:#b3b4b4;fill-opacity:1"
   d="M 26.063,2.424 C 26.335976,2.4815823 25.761986,2.3034415 26.063,2.424 Z" />
	<path
   id="polygon266"
   style="clip-rule:evenodd;fill-rule:evenodd;fill:#b3b4b4;fill-opacity:1"
   d="M 28.474,1.632 C 28.991968,1.6666139 28.347057,1.471448 28.474,1.632 Z" />
	<path
   id="polygon268"
   style="clip-rule:evenodd;fill-rule:evenodd;fill:#b3b4b4;fill-opacity:1"
   d="M 22.068,3.489 C 21.730817,3.5550412 22.383487,3.5465621 22.068,3.489 Z" />
	<path
   id="polygon270"
   style="clip-rule:evenodd;fill-rule:evenodd;fill:#b3b4b4;fill-opacity:1"
   d="M 28.853,1.682 C 29.663956,1.6534651 28.083717,1.6167198 28.853,1.682 Z" />
	<path
   id="polygon272"
   style="clip-rule:evenodd;fill-rule:evenodd;fill:#b3b4b4;fill-opacity:1"
   d="M 29.513,2.099 C 29.770168,2.0509599 29.226354,2.0390104 29.513,2.099 Z" />
	<path
   id="polygon274"
   style="clip-rule:evenodd;fill-rule:evenodd;fill:#b3b4b4;fill-opacity:1"
   d="M 21.5,3.708 C 21.601928,3.7084662 21.601928,3.7084662 21.5,3.708 Z" />
	<path
   id="polygon276"
   style="clip-rule:evenodd;fill-rule:evenodd;fill:#b3b4b4;fill-opacity:1"
   d="M 42.246,3.542 C 42.226277,3.4719708 42.226277,3.4719708 42.246,3.542 Z" />
	<path
   id="polygon278"
   style="clip-rule:evenodd;fill-rule:evenodd;fill:#b3b4b4;fill-opacity:1"
   d="M 43.771,3.409 C 43.811573,3.4076975 43.811573,3.4076975 43.771,3.409 Z" />
	<path
   id="polygon280"
   style="clip-rule:evenodd;fill-rule:evenodd;fill:#b3b4b4;fill-opacity:1"
   d="M 42.058,2.812 C 43.189538,4.1281795 44.67187,2.7721603 44.518,3.098 44.56634,4.3945575 47.203276,4.0138206 45.128475,3.6259704 45.397105,2.1170998 42.921119,3.0234598 42.863622,2.7771597 42.758843,2.7781309 41.908289,2.4409996 42.058,2.812 Z" />
	<path
   id="polygon282"
   style="clip-rule:evenodd;fill-rule:evenodd;fill:#b3b4b4;fill-opacity:1"
   d="M 44.773,4.042 C 44.723179,4.0392058 44.723179,4.0392058 44.773,4.042 Z" />
	<path
   id="polygon284"
   style="clip-rule:evenodd;fill-rule:evenodd;fill:#b3b4b4;fill-opacity:1"
   d="M 43.594,3.402 C 43.115457,3.7465186 44.141264,3.2934398 43.594,3.402 Z" />
	<path
   id="polygon286"
   style="clip-rule:evenodd;fill-rule:evenodd;fill:#b3b4b4;fill-opacity:1"
   d="M 44.724,3.729 C 44.339517,3.290562 44.019422,4.0085555 44.724,3.729 Z" />
	<path
   id="polygon288"
   style="clip-rule:evenodd;fill-rule:evenodd;fill:#b3b4b4;fill-opacity:1"
   d="M 42.447,3.641 C 42.541332,3.849768 43.427302,3.777434 42.447,3.641 Z" />
	<path
   id="polygon290"
   style="clip-rule:evenodd;fill-rule:evenodd;fill:#b3b4b4;fill-opacity:1"
   d="M 25.44,1.292 C 25.844873,1.596616 25.572048,0.93256873 25.44,1.292 Z" />
	<path
   id="polygon292"
   style="clip-rule:evenodd;fill-rule:evenodd;fill:#b3b4b4;fill-opacity:1"
   d="M 25.262,1.363 C 25.093187,1.7878494 25.745073,1.1947956 25.262,1.363 Z" />
	<path
   id="polygon294"
   style="clip-rule:evenodd;fill-rule:evenodd;fill:#b3b4b4;fill-opacity:1"
   d="M 22.766,2.093 C 22.510254,1.8999689 22.579322,2.2812285 22.766,2.093 Z" />
	<path
   id="polygon296"
   style="clip-rule:evenodd;fill-rule:evenodd;fill:#b3b4b4;fill-opacity:1"
   d="M 41.359,2.871 C 41.933099,3.5052163 41.649657,2.6530091 41.359,2.871 Z" />
	<path
   id="polygon298"
   style="clip-rule:evenodd;fill-rule:evenodd;fill:#b3b4b4;fill-opacity:1"
   d="M 38.186,3.822 C 38.46617,3.9105987 38.089924,3.7040857 38.186,3.822 Z" />
	<path
   id="polygon300"
   style="clip-rule:evenodd;fill-rule:evenodd;fill:#b3b4b4;fill-opacity:1"
   d="M 25.375,0.975 C 25.686101,0.38417278 25.235855,0.8023682 25.375,0.975 Z" />
	<path
   id="polygon302"
   style="clip-rule:evenodd;fill-rule:evenodd;fill:#b3b4b4;fill-opacity:1"
   d="M 36.937,4.259 C 37.087218,4.0847636 36.386844,4.3195661 36.937,4.259 Z" />
	<path
   id="polygon304"
   style="clip-rule:evenodd;fill-rule:evenodd;fill:#b3b4b4;fill-opacity:1"
   d="M 58.362,43.414 C 58.24381,43.550614 58.577008,43.497966 58.362,43.414 Z" />
	<path
   id="polygon306"
   style="clip-rule:evenodd;fill-rule:evenodd;fill:#b3b4b4;fill-opacity:1"
   d="M 58.288,42.674 C 58.395664,42.523047 57.972984,42.448884 58.288,42.674 Z" />
	<path
   id="polygon308"
   style="clip-rule:evenodd;fill-rule:evenodd;fill:#b3b4b4;fill-opacity:1"
   d="M 59.474,44.2 C 59.757955,44.57368 59.374212,43.55275 59.474,44.2 Z" />
	<path
   id="polygon310"
   style="clip-rule:evenodd;fill-rule:evenodd;fill:#b3b4b4;fill-opacity:1"
   d="M 57.774,43.771 C 57.410757,44.019924 58.012571,44.003018 57.774,43.771 Z" />
	<path
   id="polygon312"
   style="clip-rule:evenodd;fill-rule:evenodd;fill:#b3b4b4;fill-opacity:1"
   d="M 58.119,42.606 C 57.589014,43.041704 59.26444,43.244294 58.119,42.606 Z" />
	<path
   id="polygon314"
   style="clip-rule:evenodd;fill-rule:evenodd;fill:#b3b4b4;fill-opacity:1"
   d="M 57.192,41.915 C 56.832385,42.060585 57.542732,42.200469 57.192,41.915 Z" />
	<path
   id="polygon316"
   style="clip-rule:evenodd;fill-rule:evenodd;fill:#b3b4b4;fill-opacity:1"
   d="M 57.32,42.508 C 57.060447,42.806877 57.500809,42.967371 57.32,42.508 Z" />
	<path
   id="polygon318"
   style="clip-rule:evenodd;fill-rule:evenodd;fill:#b3b4b4;fill-opacity:1"
   d="M 56.183,41.826 C 56.193296,41.633574 55.917765,41.783725 56.183,41.826 Z" />
	<path
   id="polygon320"
   style="clip-rule:evenodd;fill-rule:evenodd;fill:#b3b4b4;fill-opacity:1"
   d="M 54.761,45.374 C 54.692145,45.549182 54.910116,45.389082 54.761,45.374 Z" />
	<path
   id="polygon322"
   style="clip-rule:evenodd;fill-rule:evenodd;fill:#b3b4b4;fill-opacity:1"
   d="M 57.449,42.588 C 57.421456,42.458963 57.385841,42.670758 57.449,42.588 Z" />
	<path
   id="polygon324"
   style="clip-rule:evenodd;fill-rule:evenodd;fill:#b3b4b4;fill-opacity:1"
   d="M 57.636,42.749 C 57.810664,42.526978 57.31508,42.65426 57.636,42.749 Z" />
	<path
   id="polygon326"
   style="clip-rule:evenodd;fill-rule:evenodd;fill:#b3b4b4;fill-opacity:1"
   d="M 57.941,42.339 C 57.91373,42.303448 57.91373,42.303448 57.941,42.339 Z" />
	<path
   id="polygon328"
   style="clip-rule:evenodd;fill-rule:evenodd;fill:#b3b4b4;fill-opacity:1"
   d="M 58.78,43.278 C 59.05707,43.19493 58.456848,43.034914 58.78,43.278 Z" />
	<path
   id="polygon330"
   style="clip-rule:evenodd;fill-rule:evenodd;fill:#b3b4b4;fill-opacity:1"
   d="M 59.34,44.304 C 59.312093,44.259747 59.312093,44.259747 59.34,44.304 Z" />
	<path
   id="polygon332"
   style="clip-rule:evenodd;fill-rule:evenodd;fill:#b3b4b4;fill-opacity:1"
   d="M 58.963,43.23 C 58.955001,43.203356 58.955001,43.203356 58.963,43.23 Z" />
	<path
   id="polygon334"
   style="clip-rule:evenodd;fill-rule:evenodd;fill:#b3b4b4;fill-opacity:1"
   d="M 57.779,44.602 C 58.588986,45.216689 58.150848,42.623738 57.667031,44.376158 Z" />
	<path
   id="polygon336"
   style="clip-rule:evenodd;fill-rule:evenodd;fill:#b3b4b4;fill-opacity:1"
   d="M 58.757,42.59 C 58.886293,44.126347 60.4095,43.330025 58.757,42.59 Z" />
	<path
   id="polygon338"
   style="clip-rule:evenodd;fill-rule:evenodd;fill:#b3b4b4;fill-opacity:1"
   d="M 59.734,44.432 C 59.740045,44.46679 59.740045,44.46679 59.734,44.432 Z" />
	<path
   id="polygon340"
   style="clip-rule:evenodd;fill-rule:evenodd;fill:#b3b4b4;fill-opacity:1"
   d="M 59.797,44.414 C 59.809827,44.384047 59.809827,44.384047 59.797,44.414 Z" />
	<path
   id="polygon342"
   style="clip-rule:evenodd;fill-rule:evenodd;fill:#b3b4b4;fill-opacity:1"
   d="M 58.53,44.474 C 59.374811,44.76016 58.611972,43.620271 58.53,44.474 Z" />
	<path
   id="polygon344"
   style="clip-rule:evenodd;fill-rule:evenodd;fill:#b3b4b4;fill-opacity:1"
   d="M 58.499,41.651 C 58.076644,41.603137 58.841883,42.20522 58.499,41.651 Z" />
	<path
   id="polygon346"
   style="clip-rule:evenodd;fill-rule:evenodd;fill:#b3b4b4;fill-opacity:1"
   d="M 58.771,43.811 C 58.756105,43.820673 58.756105,43.820673 58.771,43.811 Z" />
	<path
   id="polygon348"
   style="clip-rule:evenodd;fill-rule:evenodd;fill:#b3b4b4;fill-opacity:1"
   d="M 56.285,42.935 C 56.280528,42.546177 55.734567,42.922054 56.285,42.935 Z" />
	<path
   id="polygon350"
   style="clip-rule:evenodd;fill-rule:evenodd;fill:#b3b4b4;fill-opacity:1"
   d="M 56.614,38.428 C 56.623762,38.38733 56.623762,38.38733 56.614,38.428 Z" />
	<path
   id="polygon352"
   style="clip-rule:evenodd;fill-rule:evenodd;fill:#b3b4b4;fill-opacity:1"
   d="M 54.995,44.856 C 54.580897,46.179093 57.144938,41.850988 55.382928,44.441052 Z" />
	<path
   id="polyline354"
   style="clip-rule:evenodd;fill-rule:evenodd;fill:#b3b4b4;fill-opacity:1"
   d="M 54.662,45.659 C 54.808488,45.55251 54.514805,45.450759 54.597,45.651" />
	<path
   id="polygon356"
   style="clip-rule:evenodd;fill-rule:evenodd;fill:#b3b4b4;fill-opacity:1"
   d="M 58.2,45.862 C 58.11724,45.940008 58.250215,45.905149 58.2,45.862 Z" />
	<path
   id="polygon358"
   style="clip-rule:evenodd;fill-rule:evenodd;fill:#b3b4b4;fill-opacity:1"
   d="M 57.665,45.856 C 57.206093,46.074807 57.961787,46.609048 57.665,45.856 Z" />
	<path
   id="polygon360"
   style="clip-rule:evenodd;fill-rule:evenodd;fill:#b3b4b4;fill-opacity:1"
   d="M 57.947,45.731 C 57.228825,46.056353 58.336435,46.221674 57.947,45.731 Z" />
	<path
   id="polygon362"
   style="clip-rule:evenodd;fill-rule:evenodd;fill:#b3b4b4;fill-opacity:1"
   d="M 59.585,46.301 C 59.961225,46.433037 59.73783,45.965375 59.585,46.301 Z" />
	<path
   id="polygon364"
   style="clip-rule:evenodd;fill-rule:evenodd;fill:#b3b4b4;fill-opacity:1"
   d="M 58.213,45.884 C 58.491698,46.238982 58.421544,45.416309 58.213,45.884 Z" />
	<path
   id="polygon366"
   style="clip-rule:evenodd;fill-rule:evenodd;fill:#b3b4b4;fill-opacity:1"
   d="M 58.578,45.296 C 58.200325,44.764929 57.926914,45.774824 58.578,45.296 Z" />
	<path
   id="polygon368"
   style="clip-rule:evenodd;fill-rule:evenodd;fill:#b3b4b4;fill-opacity:1"
   d="M 58.392,45.743 C 58.370461,45.778812 58.417962,45.757124 58.392,45.743 Z" />
	<path
   id="polygon370"
   style="clip-rule:evenodd;fill-rule:evenodd;fill:#b3b4b4;fill-opacity:1"
   d="M 58.606,45.457 C 58.634309,45.764848 58.969328,44.993921 58.606,45.457 Z" />
	<path
   id="polygon372"
   style="clip-rule:evenodd;fill-rule:evenodd;fill:#b3b4b4;fill-opacity:1"
   d="M 57.052,41.175 C 57.293591,40.961767 56.787825,40.806222 57.052,41.175 Z" />
	<path
   id="polygon374"
   style="clip-rule:evenodd;fill-rule:evenodd;fill:#b3b4b4;fill-opacity:1"
   d="M 56.414,37.133 C 56.351176,36.983168 56.380685,37.343139 56.414,37.133 Z" />
	<path
   id="polygon376"
   style="clip-rule:evenodd;fill-rule:evenodd;fill:#b3b4b4;fill-opacity:1"
   d="M 58.192,41.803 C 57.944002,41.795386 58.260898,42.09316 58.192,41.803 Z" />
	<path
   id="polygon378"
   style="clip-rule:evenodd;fill-rule:evenodd;fill:#b3b4b4;fill-opacity:1"
   d="M 55.93,38.728 C 55.810024,40.12878 55.742517,41.836877 57,42.658 56.642595,41.720264 55.716064,40.888523 56.832572,41.745107 57.885958,42.084473 57.326257,41.486683 58.461,42.563 58.009375,41.193569 55.900546,41.576954 57.139,39.53 56.778609,38.998412 56.043353,36.970083 55.93,38.728 Z" />
	<path
   id="polygon380"
   style="clip-rule:evenodd;fill-rule:evenodd;fill:#b3b4b4;fill-opacity:1"
   d="M 58.25,41.749 C 58.145328,41.643435 58.241749,41.957761 58.25,41.749 Z" />
	<path
   id="polygon382"
   style="clip-rule:evenodd;fill-rule:evenodd;fill:#b3b4b4;fill-opacity:1"
   d="M 56.285,38.047 C 56.263764,38.214138 56.506897,38.043598 56.285,38.047 Z" />
	<path
   id="polygon384"
   style="clip-rule:evenodd;fill-rule:evenodd;fill:#b3b4b4;fill-opacity:1"
   d="M 57.111,41.48 C 57.18768,41.892159 57.388335,41.389728 57.111,41.48 Z" />
	<path
   id="polygon386"
   style="clip-rule:evenodd;fill-rule:evenodd;fill:#b3b4b4;fill-opacity:1"
   d="M 56.481,37.413 C 56.4947,37.390525 56.4947,37.390525 56.481,37.413 Z" />
	<path
   id="polygon388"
   style="clip-rule:evenodd;fill-rule:evenodd;fill:#b3b4b4;fill-opacity:1"
   d="M 58.425,44.736 C 58.1431,44.782595 58.614701,44.958513 58.425,44.736 Z" />
	<path
   id="polygon390"
   style="clip-rule:evenodd;fill-rule:evenodd;fill:#b3b4b4;fill-opacity:1"
   d="M 57.689,43.802 C 58.821698,41.79751 55.986171,44.124082 57.689,43.802 Z" />
	<path
   id="polygon392"
   style="clip-rule:evenodd;fill-rule:evenodd;fill:#b3b4b4;fill-opacity:1"
   d="M 57.511,46.562 C 58.06715,46.920857 57.472465,45.994988 57.511,46.562 Z" />
	<path
   id="polygon394"
   style="clip-rule:evenodd;fill-rule:evenodd;fill:#b3b4b4;fill-opacity:1"
   d="M 56.018,43.285 C 56.088846,43.488561 56.173857,43.142074 56.018,43.285 Z" />
	<path
   id="polygon396"
   style="clip-rule:evenodd;fill-rule:evenodd;fill:#b3b4b4;fill-opacity:1"
   d="M 56.17,42.992 C 55.871895,42.909817 56.352161,43.344751 56.17,42.992 Z" />
	<path
   id="polygon398"
   style="clip-rule:evenodd;fill-rule:evenodd;fill:#b3b4b4;fill-opacity:1"
   d="M 56.187,43.938 C 56.338069,43.736129 55.906024,43.98004 56.187,43.938 Z" />
	<path
   id="polygon400"
   style="clip-rule:evenodd;fill-rule:evenodd;fill:#b3b4b4;fill-opacity:1"
   d="M 58.542,44.05 C 58.757855,42.325838 57.713751,45.98277 58.542,44.05 Z" />
	<path
   id="polygon402"
   style="clip-rule:evenodd;fill-rule:evenodd;fill:#b3b4b4;fill-opacity:1"
   d="M 59.039,44.76 C 58.883211,44.881905 59.280234,44.86845 59.039,44.76 Z" />
	<path
   id="polygon404"
   style="clip-rule:evenodd;fill-rule:evenodd;fill:#b3b4b4;fill-opacity:1"
   d="M 59.218,44.116 C 58.945,42.409328 58.384821,43.776152 59.218,44.116 Z" />
	<path
   id="polygon406"
   style="clip-rule:evenodd;fill-rule:evenodd;fill:#b3b4b4;fill-opacity:1"
   d="M 54.308,24.678 C 54.356989,24.791682 54.347975,24.560939 54.308,24.678 Z" />
	<path
   id="polygon408"
   style="clip-rule:evenodd;fill-rule:evenodd;fill:#b3b4b4;fill-opacity:1"
   d="M 43.555,42.716 C 43.767481,42.526888 43.361633,42.427011 43.555,42.716 Z" />
	<path
   id="polygon410"
   style="clip-rule:evenodd;fill-rule:evenodd;fill:#b3b4b4;fill-opacity:1"
   d="M 43.713,43.106 C 43.435828,42.889011 43.814248,43.537632 43.713,43.106 Z" />
	<path
   id="polygon412"
   style="clip-rule:evenodd;fill-rule:evenodd;fill:#b3b4b4;fill-opacity:1"
   d="M 43.514,43.287 C 43.529916,43.233993 43.529916,43.233993 43.514,43.287 Z" />
	<path
   id="polygon414"
   style="clip-rule:evenodd;fill-rule:evenodd;fill:#b3b4b4;fill-opacity:1"
   d="M 43.581,44.304 C 43.862355,43.983276 43.393001,44.407756 43.581,44.304 Z" />
	<path
   id="polygon416"
   style="clip-rule:evenodd;fill-rule:evenodd;fill:#b3b4b4;fill-opacity:1"
   d="M 42.857,39.989 C 42.62489,39.904178 42.992935,40.382487 42.857,39.989 Z" />
	<path
   id="polygon418"
   style="clip-rule:evenodd;fill-rule:evenodd;fill:#b3b4b4;fill-opacity:1"
   d="M 43.488,42.177 C 43.487108,42.208985 43.487108,42.208985 43.488,42.177 Z" />
	<path
   id="polygon420"
   style="clip-rule:evenodd;fill-rule:evenodd;fill:#b3b4b4;fill-opacity:1"
   d="M 40.421,38.096 C 40.755422,38.06399 40.117034,37.831513 40.421,38.096 Z" />
	<path
   id="polygon422"
   style="clip-rule:evenodd;fill-rule:evenodd;fill:#b3b4b4;fill-opacity:1"
   d="M 48.124,4.812 C 48.080737,4.7998765 48.080737,4.7998765 48.124,4.812 Z" />
	<path
   id="polygon424"
   style="clip-rule:evenodd;fill-rule:evenodd;fill:#b3b4b4;fill-opacity:1"
   d="M 47.875,4.562 C 47.800891,4.549875 47.893104,4.5766031 47.875,4.562 Z" />
	<path
   id="polygon426"
   style="clip-rule:evenodd;fill-rule:evenodd;fill:#b3b4b4;fill-opacity:1"
   d="M 70.936,8.599 C 70.938684,8.5921414 70.919675,8.6017772 70.936,8.599 Z" />
	<path
   id="polygon428"
   style="clip-rule:evenodd;fill-rule:evenodd;fill:#b3b4b4;fill-opacity:1"
   d="M 47.919,4.705 C 47.938114,4.7186451 47.938114,4.7186451 47.919,4.705 Z" />
	<path
   id="polygon430"
   style="clip-rule:evenodd;fill-rule:evenodd;fill:#b3b4b4;fill-opacity:1"
   d="M 47.945,4.698 C 48.351381,4.9350786 48.094345,4.4133918 47.945,4.698 Z" />
	<path
   id="polygon432"
   style="clip-rule:evenodd;fill-rule:evenodd;fill:#b3b4b4;fill-opacity:1"
   d="M 48.341,4.68 C 48.365864,4.6278981 48.2739,4.637395 48.341,4.68 Z" />
	<path
   id="polygon434"
   style="clip-rule:evenodd;fill-rule:evenodd;fill:#b3b4b4;fill-opacity:1"
   d="M 48.032,4.63 C 47.922665,4.4279689 47.736948,4.6959648 48.032,4.63 Z" />
	<path
   id="polygon436"
   style="clip-rule:evenodd;fill-rule:evenodd;fill:#b3b4b4;fill-opacity:1"
   d="M 48.314,4.641 C 48.248392,4.3950233 48.061839,4.8028845 48.314,4.641 Z" />
	<path
   id="polygon438"
   style="clip-rule:evenodd;fill-rule:evenodd;fill:#b3b4b4;fill-opacity:1"
   d="M 67.836,8.663 C 67.870822,8.6561857 67.828404,8.6339076 67.836,8.663 Z" />
	<path
   id="polygon440"
   style="clip-rule:evenodd;fill-rule:evenodd;fill:#b3b4b4;fill-opacity:1"
   d="M 36.119,3.938 C 36.545061,3.6653508 35.763228,3.3672807 36.119,3.938 Z" />
	<path
   id="polygon442"
   style="clip-rule:evenodd;fill-rule:evenodd;fill:#b3b4b4;fill-opacity:1"
   d="M 55.107,31.299 C 55.108842,30.999243 54.891871,31.608873 55.107,31.299 Z" />
	<path
   id="polygon444"
   style="clip-rule:evenodd;fill-rule:evenodd;fill:#b3b4b4;fill-opacity:1"
   d="M 47.738,37.187 C 48.177794,37.278067 47.904188,36.830989 47.738,37.187 Z" />
	<path
   id="polygon446"
   style="clip-rule:evenodd;fill-rule:evenodd;fill:#b3b4b4;fill-opacity:1"
   d="M 55.215,31.555 C 55.362365,31.342732 54.899092,31.177631 55.215,31.555 Z" />
	<path
   id="polygon448"
   style="clip-rule:evenodd;fill-rule:evenodd;fill:#b3b4b4;fill-opacity:1"
   d="M 55.025,31.07 C 55.111963,31.156858 55.115042,31.029212 55.025,31.07 Z" />
	<path
   id="polygon450"
   style="clip-rule:evenodd;fill-rule:evenodd;fill:#b3b4b4;fill-opacity:1"
   d="M 52.428,24.797 C 52.43651,24.835818 52.43651,24.835818 52.428,24.797 Z" />
	<path
   id="polygon452"
   style="clip-rule:evenodd;fill-rule:evenodd;fill:#b3b4b4;fill-opacity:1"
   d="M 55.202,31.125 C 55.003078,30.98305 55.099254,31.355473 55.202,31.125 Z" />
	<path
   id="polyline454"
   style="clip-rule:evenodd;fill-rule:evenodd;fill:#b3b4b4;fill-opacity:1"
   d="M 43.999,45.597 43.897,45.656" />
	<path
   id="polygon456"
   style="clip-rule:evenodd;fill-rule:evenodd;fill:#b3b4b4;fill-opacity:1"
   d="M 37.78,36.268 C 37.720012,36.60132 38.06579,36.397568 37.78,36.268 Z" />
	<path
   id="polygon458"
   style="clip-rule:evenodd;fill-rule:evenodd;fill:#b3b4b4;fill-opacity:1"
   d="M 25.842,2.576 C 25.819407,2.5612161 25.819407,2.5612161 25.842,2.576 Z" />
	<path
   id="polygon460"
   style="clip-rule:evenodd;fill-rule:evenodd;fill:#b3b4b4;fill-opacity:1"
   d="M 25.885,2.597 C 26.040014,2.6126006 25.742876,2.5485543 25.885,2.597 Z" />
	<path
   id="polygon462"
   style="clip-rule:evenodd;fill-rule:evenodd;fill:#b3b4b4;fill-opacity:1"
   d="M 25.862,2.602 C 25.898082,2.5953579 25.800041,2.6005232 25.862,2.602 Z" />
	<path
   id="polygon464"
   style="clip-rule:evenodd;fill-rule:evenodd;fill:#b3b4b4;fill-opacity:1"
   d="M 32.908,3.565 C 32.87501,3.5580785 32.87501,3.5580785 32.908,3.565 Z" />
	<path
   id="polygon466"
   style="clip-rule:evenodd;fill-rule:evenodd;fill:#b3b4b4;fill-opacity:1"
   d="M 24.316,34.128 C 24.427828,34.152578 24.37978,34.085515 24.316,34.128 Z" />
	<path
   id="polygon468"
   style="clip-rule:evenodd;fill-rule:evenodd;fill:#b3b4b4;fill-opacity:1"
   d="M 26.126,1.196 C 25.958787,0.93367587 26.184086,1.5735989 26.126,1.196 Z" />
	<path
   id="polygon470"
   style="clip-rule:evenodd;fill-rule:evenodd;fill:#b3b4b4;fill-opacity:1"
   d="M 26.204,1.352 C 26.11055,1.2918998 26.130319,1.3734253 26.204,1.352 Z" />
	<path
   id="polygon472"
   style="clip-rule:evenodd;fill-rule:evenodd;fill:#b3b4b4;fill-opacity:1"
   d="M 32.797,3.563 C 32.748039,3.5783764 32.841253,3.5977153 32.797,3.563 Z" />
	<path
   id="polygon474"
   style="clip-rule:evenodd;fill-rule:evenodd;fill:#b3b4b4;fill-opacity:1"
   d="M 26.054,1.728 C 27.513303,1.4860661 26.196037,0.37189071 26.054,1.728 Z" />
	<path
   id="polygon476"
   style="clip-rule:evenodd;fill-rule:evenodd;fill:#b3b4b4;fill-opacity:1"
   d="M 38.8,36.439 C 38.825279,36.446997 38.825279,36.446997 38.8,36.439 Z" />
	<path
   id="polygon478"
   style="clip-rule:evenodd;fill-rule:evenodd;fill:#b3b4b4;fill-opacity:1"
   d="M 53.073,26.984 C 53.035067,26.991218 53.081009,26.999304 53.073,26.984 Z" />
	<path
   id="polygon480"
   style="clip-rule:evenodd;fill-rule:evenodd;fill:#b3b4b4;fill-opacity:1"
   d="M 61.625,20.222 C 61.772959,20.62099 61.849385,20.184444 61.625,20.222 Z" />
	<path
   id="polygon482"
   style="clip-rule:evenodd;fill-rule:evenodd;fill:#b3b4b4;fill-opacity:1"
   d="M 55.512,15.225 C 55.582924,15.415467 55.631256,15.128822 55.512,15.225 Z" />
	<path
   id="polygon484"
   style="clip-rule:evenodd;fill-rule:evenodd;fill:#b3b4b4;fill-opacity:1"
   d="M 61.818,20.172 C 61.658885,19.909793 61.529365,20.408354 61.818,20.172 Z" />
	<path
   id="polygon486"
   style="clip-rule:evenodd;fill-rule:evenodd;fill:#b3b4b4;fill-opacity:1"
   d="M 55.622,15.039 C 55.415183,15.255887 55.827669,15.304516 55.622,15.039 Z" />
	<path
   id="polygon488"
   style="clip-rule:evenodd;fill-rule:evenodd;fill:#b3b4b4;fill-opacity:1"
   d="M 61.427,20.039 C 61.447223,20.038958 61.447223,20.038958 61.427,20.039 Z" />
	<path
   id="polygon490"
   style="clip-rule:evenodd;fill-rule:evenodd;fill:#b3b4b4;fill-opacity:1"
   d="M 61.818,20.039 C 61.291431,19.836995 61.650468,20.276659 61.818,20.039 Z" />
	<path
   id="polygon492"
   style="clip-rule:evenodd;fill-rule:evenodd;fill:#b3b4b4;fill-opacity:1"
   d="M 67.44,8.019 C 67.483136,7.9010607 67.34947,7.9462942 67.44,8.019 Z" />
	<path
   id="polygon494"
   style="clip-rule:evenodd;fill-rule:evenodd;fill:#b3b4b4;fill-opacity:1"
   d="M 71.209,8.661 C 71.093213,8.914321 71.420062,8.7195289 71.209,8.661 Z" />
	<path
   id="polygon496"
   style="clip-rule:evenodd;fill-rule:evenodd;fill:#b3b4b4;fill-opacity:1"
   d="M 71.273,8.731 C 71.320221,8.8273492 71.25971,8.6176954 71.273,8.731 Z" />
	<path
   id="polygon498"
   style="clip-rule:evenodd;fill-rule:evenodd;fill:#b3b4b4;fill-opacity:1"
   d="M 71.266,8.775 C 71.2748,8.7968032 71.2748,8.7968032 71.266,8.775 Z" />
	<path
   id="polygon500"
   style="clip-rule:evenodd;fill-rule:evenodd;fill:#b3b4b4;fill-opacity:1"
   d="M 71.263,8.88 C 71.330143,8.6930491 71.033839,8.8640362 71.263,8.88 Z" />
	<path
   id="polygon502"
   style="clip-rule:evenodd;fill-rule:evenodd;fill:#b3b4b4;fill-opacity:1"
   d="M 71.392,9.037 C 71.42301,8.9115831 71.333384,8.9865771 71.392,9.037 Z" />
	<path
   id="polygon504"
   style="clip-rule:evenodd;fill-rule:evenodd;fill:#b3b4b4;fill-opacity:1"
   d="M 71.263,8.88 C 71.260724,8.884357 71.266219,8.8804714 71.263,8.88 Z" />
	<path
   id="polygon506"
   style="clip-rule:evenodd;fill-rule:evenodd;fill:#b3b4b4;fill-opacity:1"
   d="M 71.26,8.913 C 71.258993,8.9518537 71.258993,8.9518537 71.26,8.913 Z" />
	<path
   id="polygon508"
   style="clip-rule:evenodd;fill-rule:evenodd;fill:#b3b4b4;fill-opacity:1"
   d="M 71.301,8.831 C 71.42579,9.305473 71.405531,8.2412345 71.301,8.831 Z" />
	<path
   id="polygon510"
   style="clip-rule:evenodd;fill-rule:evenodd;fill:#b3b4b4;fill-opacity:1"
   d="M 71.263,8.907 C 71.30886,8.8776969 71.380652,8.9637328 71.263,8.907 Z" />
	<path
   id="polygon512"
   style="clip-rule:evenodd;fill-rule:evenodd;fill:#b3b4b4;fill-opacity:1"
   d="M 55.706,15.039 C 55.549889,15.402138 55.960539,15.208421 55.706,15.039 Z" />
	<path
   id="polygon514"
   style="clip-rule:evenodd;fill-rule:evenodd;fill:#b3b4b4;fill-opacity:1"
   d="M 55.7,15.39 C 55.691358,15.342813 55.691358,15.342813 55.7,15.39 Z" />
	<path
   id="polygon516"
   style="clip-rule:evenodd;fill-rule:evenodd;fill:#b3b4b4;fill-opacity:1"
   d="M 67.743,8.437 C 67.046097,8.8713646 68.245947,9.324998 67.743,8.437 Z" />
	<path
   id="polygon518"
   style="clip-rule:evenodd;fill-rule:evenodd;fill:#b3b4b4;fill-opacity:1"
   d="M 71.25,8.9 C 71.268921,8.9498112 71.270344,8.835944 71.25,8.9 Z" />
	<path
   id="polygon520"
   style="clip-rule:evenodd;fill-rule:evenodd;fill:#b3b4b4;fill-opacity:1"
   d="M 68.342,10.039 C 68.231086,10.011175 68.278512,10.051665 68.342,10.039 Z" />
	<path
   id="polygon522"
   style="clip-rule:evenodd;fill-rule:evenodd;fill:#b3b4b4;fill-opacity:1"
   d="M 71.262,9.039 C 71.264748,9.0401381 71.260862,9.0362525 71.262,9.039 Z" />
	<path
   id="polygon524"
   style="clip-rule:evenodd;fill-rule:evenodd;fill:#b3b4b4;fill-opacity:1"
   d="M 10.389,22.778 C 10.448902,22.809817 10.434426,22.725591 10.389,22.778 Z" />
	<path
   id="polygon526"
   style="clip-rule:evenodd;fill-rule:evenodd;fill:#b3b4b4;fill-opacity:1"
   d="M 10.472,22.749 C 10.474839,22.750114 10.474839,22.750114 10.472,22.749 Z" />
	<path
   id="polygon528"
   style="clip-rule:evenodd;fill-rule:evenodd;fill:#b3b4b4;fill-opacity:1"
   d="M 12.818,21.99 C 12.448475,21.771937 11.9414,22.465153 12.818,21.99 Z" />
	<path
   id="polygon530"
   style="clip-rule:evenodd;fill-rule:evenodd;fill:#b3b4b4;fill-opacity:1"
   d="M 12.318,22.128 C 12.246953,22.108066 12.315039,22.191193 12.318,22.128 Z" />
	<path
   id="polygon532"
   style="clip-rule:evenodd;fill-rule:evenodd;fill:#b3b4b4;fill-opacity:1"
   d="M 4.344,8.936 C 4.5162181,9.0827277 4.2827499,8.6640062 4.344,8.936 Z" />
	<path
   id="polygon534"
   style="clip-rule:evenodd;fill-rule:evenodd;fill:#b3b4b4;fill-opacity:1"
   d="M 6.692,6.765 C 6.5330334,7.4697117 7.4201953,6.5592677 6.692,6.765 Z" />
	<path
   id="polygon536"
   style="clip-rule:evenodd;fill-rule:evenodd;fill:#b3b4b4;fill-opacity:1"
   d="M 4.429,9.039 C 4.5944265,9.0536111 4.2700942,8.8757584 4.429,9.039 Z" />
	<path
   id="polygon538"
   style="clip-rule:evenodd;fill-rule:evenodd;fill:#b3b4b4;fill-opacity:1"
   d="M 2.725,7.964 C 2.941301,7.9273237 2.6193311,7.8236187 2.725,7.964 Z" />
	<path
   id="polygon540"
   style="clip-rule:evenodd;fill-rule:evenodd;fill:#b3b4b4;fill-opacity:1"
   d="M 4.268,8.929 C 4.0380698,9.1870891 4.5377306,8.9296699 4.268,8.929 Z" />
	<path
   id="polygon542"
   style="clip-rule:evenodd;fill-rule:evenodd;fill:#b3b4b4;fill-opacity:1"
   d="M 10.994,24.646 C 10.225837,24.9372 11.800305,24.942266 10.994,24.646 Z" />
	<path
   id="polygon544"
   style="clip-rule:evenodd;fill-rule:evenodd;fill:#b3b4b4;fill-opacity:1"
   d="M 11.407,24.919 C 11.039281,24.474895 11.126859,25.167454 11.407,24.919 Z" />
	<path
   id="polygon546"
   style="clip-rule:evenodd;fill-rule:evenodd;fill:#b3b4b4;fill-opacity:1"
   d="M 11.11,25.039 C 11.298286,24.970147 10.950878,24.874316 11.11,25.039 Z" />
	<path
   id="polygon548"
   style="clip-rule:evenodd;fill-rule:evenodd;fill:#b3b4b4;fill-opacity:1"
   d="M 29.261,41.039 C 29.382083,40.600452 29.014636,40.993426 29.261,41.039 Z" />
	<path
   id="polygon550"
   style="clip-rule:evenodd;fill-rule:evenodd;fill:#b3b4b4;fill-opacity:1"
   d="M 11.818,24.977 C 11.257541,24.80688 11.53223,25.159256 11.818,24.977 Z" />
	<path
   id="polygon552"
   style="clip-rule:evenodd;fill-rule:evenodd;fill:#b3b4b4;fill-opacity:1"
   d="M 15.588,23.764 C 14.879894,23.937517 16.57051,24.016265 15.588,23.764 Z" />
	<path
   id="polygon554"
   style="clip-rule:evenodd;fill-rule:evenodd;fill:#b3b4b4;fill-opacity:1"
   d="M 26.837,2.039 C 26.899849,1.9282533 26.749611,2.0706186 26.837,2.039 Z" />
	<path
   style="fill:#b3b4b4;fill-opacity:1"
   id="path556"
   d="M 45.637,4.602 C 44.010624,3.6574617 45.687521,5.4843749 45.637,4.602 Z M 45.198,4.592 45.211379,4.5823777 Z" />
	<path
   id="polygon558"
   style="clip-rule:evenodd;fill-rule:evenodd;fill:#b3b4b4;fill-opacity:1"
   d="M 45.41,5.111 C 44.907668,4.7450599 45.444933,5.4064446 45.41,5.111 Z" />
	<path
   id="polygon560"
   style="clip-rule:evenodd;fill-rule:evenodd;fill:#b3b4b4;fill-opacity:1"
   d="M 45.441,5.176 C 45.440049,5.2112818 45.53113,5.1609549 45.441,5.176 Z" />
	<path
   id="polygon562"
   style="clip-rule:evenodd;fill-rule:evenodd;fill:#b3b4b4;fill-opacity:1"
   d="M 71.475,8.589 C 72.34425,8.6304342 71.636328,8.2944289 71.475,8.589 Z" />
	<path
   id="polygon564"
   style="clip-rule:evenodd;fill-rule:evenodd;fill:#b3b4b4;fill-opacity:1"
   d="M 71.774,8.458 C 71.789287,8.4723785 71.864741,8.4412214 71.774,8.458 Z" />
	<path
   id="polygon566"
   style="clip-rule:evenodd;fill-rule:evenodd;fill:#b3b4b4;fill-opacity:1"
   d="M 71.818,8.456 C 71.807068,8.4552124 71.819346,8.4599328 71.818,8.456 Z" />
	<path
   id="polygon568"
   style="clip-rule:evenodd;fill-rule:evenodd;fill:#b3b4b4;fill-opacity:1"
   d="M 71.425,8.686 C 71.256334,9.5986796 71.632987,8.4193526 71.425,8.686 Z" />
	<path
   id="polygon570"
   style="clip-rule:evenodd;fill-rule:evenodd;fill:#b3b4b4;fill-opacity:1"
   d="M 56.818,22.961 C 56.787572,22.96667 56.827592,22.976053 56.818,22.961 Z" />
	<path
   id="polygon572"
   style="clip-rule:evenodd;fill-rule:evenodd;fill:#b3b4b4;fill-opacity:1"
   d="M 7.127,19.82 C 7.0519545,19.8196 7.0519545,19.8196 7.127,19.82 Z" />
	<path
   id="polygon574"
   style="clip-rule:evenodd;fill-rule:evenodd;fill:#b3b4b4;fill-opacity:1"
   d="M 53.782,26.955 C 53.765991,26.958987 53.765991,26.958987 53.782,26.955 Z" />
	<path
   id="polygon576"
   style="clip-rule:evenodd;fill-rule:evenodd;fill:#b3b4b4;fill-opacity:1"
   d="M 54.036,34.039 C 54.218093,35.082416 55.190874,33.221587 54.036,34.039 Z" />
	<path
   id="polygon578"
   style="clip-rule:evenodd;fill-rule:evenodd;fill:#b3b4b4;fill-opacity:1"
   d="M 68.833,7.944 C 69.224801,7.9646603 68.828847,7.7366279 68.833,7.944 Z" />
	<path
   id="polygon580"
   style="clip-rule:evenodd;fill-rule:evenodd;fill:#b3b4b4;fill-opacity:1"
   d="M 2.953,15.533 C 2.6301751,15.395314 3.0314976,16.201912 2.953,15.533 Z" />
	<path
   id="polygon582"
   style="clip-rule:evenodd;fill-rule:evenodd;fill:#b3b4b4;fill-opacity:1"
   d="M 53.783,26.955 C 53.871633,26.929983 53.764769,26.894998 53.783,26.955 Z" />
	<path
   id="polygon584"
   style="clip-rule:evenodd;fill-rule:evenodd;fill:#b3b4b4;fill-opacity:1"
   d="M 53.818,27.039 C 53.796428,26.930123 53.73633,27.06996 53.818,27.039 Z" />
	<path
   id="polygon586"
   style="clip-rule:evenodd;fill-rule:evenodd;fill:#b3b4b4;fill-opacity:1"
   d="M 68.831,7.958 C 68.90552,8.2796644 69.251452,7.7433185 68.831,7.958 Z" />
	<path
   id="polygon588"
   style="clip-rule:evenodd;fill-rule:evenodd;fill:#b3b4b4;fill-opacity:1"
   d="M 66.06,8.864 C 65.816296,8.5796144 65.665748,9.3961706 66.06,8.864 Z" />
	<path
   id="rect590"
   style="clip-rule:evenodd;fill-rule:evenodd;fill:#b3b4b4;fill-opacity:1"
   d="M 71.500999,8.0389996 C 71.502371,8.0755852 71.502371,8.0755852 71.500999,8.0389996 Z" />
	<path
   id="polygon592"
   style="clip-rule:evenodd;fill-rule:evenodd;fill:#b3b4b4;fill-opacity:1"
   d="M 71.593,8.439 C 72.149509,8.5260177 71.334183,8.1071499 71.593,8.439 Z" />
	<path
   id="polygon594"
   style="clip-rule:evenodd;fill-rule:evenodd;fill:#b3b4b4;fill-opacity:1"
   d="M 12.651,20.779 C 12.111593,20.673389 12.920608,21.459446 12.651,20.779 Z" />
	<path
   id="polygon596"
   style="clip-rule:evenodd;fill-rule:evenodd;fill:#b3b4b4;fill-opacity:1"
   d="M 69.328,7.685 C 69.465549,7.6811564 69.182785,7.6461411 69.328,7.685 Z" />
	<path
   id="polygon598"
   style="clip-rule:evenodd;fill-rule:evenodd;fill:#b3b4b4;fill-opacity:1"
   d="M 69.546,7.633 C 69.59285,7.6783791 69.592555,7.5821316 69.546,7.633 Z" />
	<path
   id="polygon600"
   style="clip-rule:evenodd;fill-rule:evenodd;fill:#b3b4b4;fill-opacity:1"
   d="M 12.818,20.798 C 12.826034,20.557556 12.493959,20.912882 12.818,20.798 Z" />
	<path
   id="polygon602"
   style="clip-rule:evenodd;fill-rule:evenodd;fill:#b3b4b4;fill-opacity:1"
   d="M 53.383,26.878 C 52.959644,26.788763 54.051648,27.230427 53.383,26.878 Z" />
	<path
   id="polygon604"
   style="clip-rule:evenodd;fill-rule:evenodd;fill:#b3b4b4;fill-opacity:1"
   d="M 32.809,3.583 C 32.149128,3.989038 33.188405,3.8477101 32.809,3.583 Z" />
	<path
   id="polygon606"
   style="clip-rule:evenodd;fill-rule:evenodd;fill:#b3b4b4;fill-opacity:1"
   d="M 32.876,3.897 C 32.797349,3.8366927 32.831042,3.9927614 32.876,3.897 Z" />
	<path
   style="fill:#b3b4b4;fill-opacity:1"
   id="path608"
   d="M 44.866,45.408 C 43.668468,44.415558 44.640022,42.298648 45.017,41.992 45.674981,42.86323 47.593031,44.719004 48.275313,44.355538 48.421368,44.341514 51.299874,42.406569 49.334,40.641 47.469006,39.609483 46.642613,36.935735 48.471099,36.614054 49.535473,36.161017 49.658355,38.435729 50.178077,36.185685 49.671375,36.82686 52.323402,36.21456 51.368979,35.617502 52.548798,36.947496 53.908671,34.554555 54.168771,33.782055 54.389978,32.736471 56.319468,32.960512 55.066974,32.178468 55.723914,31.200419 53.961938,30.549892 54.601,30.583 54.966401,29.712 52.705779,29.654438 54.64,29.79 53.921988,28.795436 51.150281,27.043671 53.860913,27.20325 51.465688,27.090491 55.385358,26.381245 52.86423,25.82976 51.848084,26.790598 49.678195,25.074432 51.565308,24.326681 52.314728,23.352745 55.250433,24.366436 52.451,24.548 51.61083,26.142788 54.366064,23.275631 54.806435,25.291767 55.455379,26.424891 56.97638,25.524992 56.581854,26.143162 57.454206,26.344511 55.550295,26.406799 56.77723,26.474798 55.134788,26.010382 56.771437,29.248382 57.80796,27.632649 58.489279,25.831714 54.408843,25.12945 56.447755,23.704535 55.955457,22.891397 57.281724,23.258888 56.576886,22.710282 57.204272,22.327589 56.816425,21.628049 57.69877,22.788674 58.719846,22.261378 58.366529,20.597948 59.840809,20.511954 58.230261,20.092049 59.343675,18.029841 58.036,17.044 59.53677,16.163834 60.885667,21.942488 61.31667,19.897698 60.214057,19.784038 59.850846,17.593304 61.269,18.802 59.795087,17.94607 58.557452,15.836971 58.217355,15.463231 56.328257,15.201869 60.353742,18.03792 57.641706,16.351295 56.80807,15.41542 55.635032,14.876667 55.638446,15.368775 54.277658,16.528949 54.596282,12.630091 53.586574,14.626439 54.737732,13.393302 54.530607,11.536919 56.78956,12.115874 58.37886,11.567441 59.015917,12.729928 60.520776,12.104417 58.427383,10.94938 61.60845,10.058895 62.204478,11.178996 62.982436,10.56462 62.059668,9.8862977 62.996482,10.275228 63.897825,11.773087 61.141112,13.783059 63.847383,15.191158 64.578494,15.98148 67.379173,18.393409 66.008,16.011 66.767532,15.980255 66.267887,15.104286 66.352133,14.659247 65.398604,13.558288 67.067737,14.342059 65.438154,13.324151 64.020498,12.762888 63.883015,11.263639 65.593481,11.52636 66.812608,10.095602 66.999344,12.420566 67.678483,10.812243 69.853245,9.589205 66.044138,8.6390966 66.029318,8.8098893 66.794728,8.5485653 66.367234,9.11894 67.483095,8.7322866 66.354565,7.6393379 68.545295,8.1143443 67.097702,7.9047025 68.918358,7.5431514 66.16926,8.2494173 68.223236,8.6859628 69.105567,8.3101847 71.429753,9.5080618 70.227279,8.3959268 73.304541,8.8988103 69.064433,7.0546863 69.835962,7.6919969 68.053547,7.3106873 69.751952,8.3481241 67.989,7.335 65.571964,6.6625489 62.978672,5.8380053 59.863273,5.9131299 61.916494,7.2220816 58.689191,5.548841 58.417331,6.5816195 57.295971,5.2410492 56.716469,6.6347584 56.388116,6.3109856 54.068137,4.77419 51.882983,6.3525772 49.573,4.957 49.382616,4.4769375 47.279517,5.0693085 47.117118,4.4805962 45.283097,3.535633 46.016989,5.6398933 45.743469,5.6858246 44.865015,4.478254 42.875498,5.1090463 42.39,5.387 40.532509,4.835105 40.851884,3.8975261 38.221101,3.9119984 38.848345,5.8677023 33.710358,2.79484 34.642727,4.3038045 34.92162,4.9406335 32.568672,2.6138604 32.801542,3.924863 30.988301,4.7669894 30.908522,3.7774378 32.741335,3.69734 32.976444,2.8501025 32.677581,2.3315266 30.740455,2.4946855 29.584419,3.6860759 27.484391,0.28364869 27.284552,1.7788951 28.396267,1.6701759 26.193838,2.2718996 27.636424,2.7279419 26.056261,2.2561553 28.040811,2.8359738 26.04886,2.7673209 24.510666,2.6114709 21.221283,3.1604058 23.45526,3.9186186 23.447028,4.5216869 22.040842,3.1588615 20.857117,4.0658101 21.770398,4.5215741 24.9723,6.5357915 22.701543,5.3826557 23.120622,5.2209505 19.21207,4.1942924 20.780963,4.7602082 18.020654,4.7202724 22.747226,5.7359816 19.822,5.24 19.23622,5.1236251 19.934563,4.094286 18.898,4.818 18.312097,6.5412348 21.543133,6.2506468 21.964719,7.2809903 21.083404,6.6848933 19.80913,6.0027422 20.124647,7.546194 18.399388,8.9244206 20.272928,6.4171723 18.608,5.755 17.863547,4.800647 19.83906,4.6629522 17.887859,4.4397143 16.466174,3.6788262 17.221695,4.3810254 16.02,5.432 16.692823,6.2052539 18.596238,7.2828597 16.127481,6.3898514 14.837406,5.7914619 13.734296,6.0269251 13.688333,6.8147433 12.288344,6.4382756 11.060334,6.7415391 10.440684,6.7761522 9.4266251,6.9492259 7.1793408,8.5078773 7.9478335,6.8599151 6.1336298,6.170292 8.5021783,8.9349043 6.3029194,7.9777335 5.2387181,8.4487765 6.3325169,9.3092683 4.545374,8.9003658 5.6965478,9.8248304 2.794919,8.9964636 2.8896038,7.939992 0.17389119,7.1761438 8.617633,9.0081306 4.9949966,6.91749 3.0810963,6.0265852 1.340014,6.2846253 1.07,6.005 -0.67894512,6.6025907 1.5931799,7.5624372 1.1179609,8.9332925 2.6699383,9.5961438 1.4987605,10.927196 0.98065204,11.364632 2.0891493,11.565285 -0.11901299,12.654461 1.1762912,13.961444 1.7963682,14.409963 1.5500126,12.02572 1.8605072,14.184929 2.7488239,14.389191 3.3112758,15.248662 3.147,16.476 3.3991466,15.362086 3.4469135,17.708508 3.5806521,16.024472 4.0682245,15.586659 5.186593,16.81715 4,16.897 5.0943331,17.455968 6.3896678,18.226566 6.8713212,16.991068 8.1178206,18.115845 7.424684,19.351963 7.2459503,19.745047 7.0415709,20.533587 5.6041335,21.305542 7.8573056,21.944855 9.9903465,22.295939 11.219814,23.177819 12.850369,23.354787 11.761208,22.252483 11.511509,20.370283 12.712656,20.666576 13.132062,18.54649 16.379633,21.074805 13.862899,21.09994 13.159093,21.734334 14.931293,22.362675 15.286,23.652 14.920124,22.286088 18.1975,24.460625 15.851847,24.007759 15.044137,24.721092 17.771285,26.731738 15.186,26.591 14.028484,26.278909 11.993786,24.591634 14,24.862 12.641108,24.592995 10.19415,25.299397 11.324265,25.652054 11.076077,26.551025 12.356658,26.088959 11.734,27.053 12.310997,27.939933 12.038785,28.974951 13.255214,29.722472 13.639247,31.473138 15.225706,30.735242 16.017989,32.538611 17.562681,33.603928 18.732796,32.534199 19.950968,34.00416 22.113865,34.547681 24.963788,33.286097 25.847301,35.641387 28.178535,35.608422 24.627874,36.233327 27.021292,37.067889 28.244552,37.238945 27.900656,34.969852 28.233741,36.906653 28.102517,39.22631 29.87903,41.850173 30.834324,44.215681 31.097352,46.884548 33.619789,43.714512 33.039175,41.970506 32.122457,40.079839 34.841942,39.762235 35.504,37.81 36.491616,37.257841 35.817531,36.972705 36.825374,36.802039 36.9004,36.73748 36.790344,35.539844 37.113348,36.578448 37.515909,36.760749 37.64875,35.065618 38.227,36.397 38.04796,34.055913 39.53462,37.553137 39.813602,37.290924 40.020803,38.258366 41.889477,38.357307 40.09738,38.40136 41.342676,39.371306 41.071284,41.254745 42.499313,39.542284 43.357761,41.037338 43.907202,42.889565 43.844087,44.720856 43.730586,45.131703 43.966356,45.301846 44.009,45.592 M 53.97,33.602 C 54.53963,33.585458 53.424014,33.783414 53.97,33.602 Z M 56.76,21.089 56.741,21.111 Z M 70.818,8.282 71.115318,8.2889467 Z M 69.509,8.037 69.154241,8.0393672 Z M 67.818,8.019 67.485809,8.046206 Z M 43.764,42.979 43.807088,43.042704 Z M 3.603,15.697 C 2.6248149,16.833785 4.1508464,13.861759 3.603,15.697 Z M 12.285,28.9 12.259552,28.807236 Z M 18.838,8.039 C 17.828349,7.9504532 18.604703,7.3016383 18.838,8.039 Z M 30.621,29.795 30.580735,29.748975 Z M 32.127,30.932 32.104,30.884 Z M 32.923,4.039 32.814303,3.9695773 Z M 38.746,35.618 38.74,35.581 Z" />
	<path
   id="polygon610"
   style="clip-rule:evenodd;fill-rule:evenodd;fill:#b3b4b4;fill-opacity:1"
   d="M 66.114,8.828 C 66.132465,8.8274698 66.116538,8.8231013 66.114,8.828 Z" />
	<path
   id="polygon612"
   style="clip-rule:evenodd;fill-rule:evenodd;fill:#b3b4b4;fill-opacity:1"
   d="M 71.57,8.303 C 71.646048,8.0484877 71.359458,8.253585 71.57,8.303 Z" />
	<path
   id="polygon614"
   style="clip-rule:evenodd;fill-rule:evenodd;fill:#b3b4b4;fill-opacity:1"
   d="M 7.19,19.859 C 7.2121962,19.86484 7.2121962,19.86484 7.19,19.859 Z" />
	<path
   id="polygon616"
   style="clip-rule:evenodd;fill-rule:evenodd;fill:#b3b4b4;fill-opacity:1"
   d="M 45.572,4.854 C 45.153823,5.1083151 45.871807,5.0450219 45.572,4.854 Z" />
	<path
   id="polygon618"
   style="clip-rule:evenodd;fill-rule:evenodd;fill:#b3b4b4;fill-opacity:1"
   d="M 71.375,8.544 C 71.184506,8.509346 71.535366,8.8316991 71.375,8.544 Z" />
	<path
   id="polygon620"
   style="clip-rule:evenodd;fill-rule:evenodd;fill:#b3b4b4;fill-opacity:1"
   d="M 71.536,9.058 C 72.163498,9.3222236 71.341223,8.8026231 71.536,9.058 Z" />
	<path
   id="rect622"
   style="clip-rule:evenodd;fill-rule:evenodd;fill:#b3b4b4;fill-opacity:1"
   d="M 67.514,8.9700003 C 67.515101,8.9924131 67.515101,8.9924131 67.514,8.9700003 Z" />
	<path
   id="polygon624"
   style="clip-rule:evenodd;fill-rule:evenodd;fill:#b3b4b4;fill-opacity:1"
   d="M 71.473,9.039 C 71.482411,8.9847013 71.378762,9.0496795 71.473,9.039 Z" />
	<path
   id="polygon626"
   style="clip-rule:evenodd;fill-rule:evenodd;fill:#b3b4b4;fill-opacity:1"
   d="M 16.63,4.32 C 16.656693,4.3243982 16.656693,4.3243982 16.63,4.32 Z" />
	<path
   id="polygon628"
   style="clip-rule:evenodd;fill-rule:evenodd;fill:#b3b4b4;fill-opacity:1"
   d="M 68.388,10.039 C 70.991455,11.290527 68.214332,8.7506477 68.388,10.039 Z" />
	<path
   id="polygon630"
   style="clip-rule:evenodd;fill-rule:evenodd;fill:#b3b4b4;fill-opacity:1"
   d="M 26.089,2.72 C 26.084167,2.7236434 26.084167,2.7236434 26.089,2.72 Z" />
	<path
   id="polygon632"
   style="clip-rule:evenodd;fill-rule:evenodd;fill:#b3b4b4;fill-opacity:1"
   d="M 24.606,2.776 C 24.613653,2.7961012 24.613653,2.7961012 24.606,2.776 Z" />
	<path
   id="polygon634"
   style="clip-rule:evenodd;fill-rule:evenodd;fill:#b3b4b4;fill-opacity:1"
   d="M 16.63,4.295 C 16.5224,4.2718202 16.660043,4.3186346 16.63,4.295 Z" />
	<path
   id="polygon636"
   style="clip-rule:evenodd;fill-rule:evenodd;fill:#b3b4b4;fill-opacity:1"
   d="M 26.97,1.85 C 26.649232,2.8421644 27.379398,1.4263368 26.97,1.85 Z" />
	<path
   id="polygon638"
   style="clip-rule:evenodd;fill-rule:evenodd;fill:#b3b4b4;fill-opacity:1"
   d="M 30.055,2.53 C 30.09788,2.755363 30.05448,2.3302055 30.055,2.53 Z" />
	<path
   id="polygon640"
   style="clip-rule:evenodd;fill-rule:evenodd;fill:#b3b4b4;fill-opacity:1"
   d="M 33.636,3.801 C 33.455163,3.6529756 33.612548,3.9291883 33.636,3.801 Z" />
	<path
   id="polygon642"
   style="clip-rule:evenodd;fill-rule:evenodd;fill:#b3b4b4;fill-opacity:1"
   d="M 26.874,1.84 C 26.933493,2.4433963 27.014438,1.0839096 26.874,1.84 Z" />
	<path
   id="polygon644"
   style="clip-rule:evenodd;fill-rule:evenodd;fill:#b3b4b4;fill-opacity:1"
   d="M 71.231,9.039 C 71.323942,9.0629374 71.160636,8.965364 71.231,9.039 Z" />
	<path
   id="polygon646"
   style="clip-rule:evenodd;fill-rule:evenodd;fill:#b3b4b4;fill-opacity:1"
   d="M 24.911,2.753 C 24.577157,2.6766342 24.806857,3.0090597 24.911,2.753 Z" />
	<path
   id="polygon648"
   style="clip-rule:evenodd;fill-rule:evenodd;fill:#b3b4b4;fill-opacity:1"
   d="M 71.234,8.964 C 70.866415,7.8791337 70.833673,9.7266518 71.234,8.964 Z" />
	<path
   id="polygon650"
   style="clip-rule:evenodd;fill-rule:evenodd;fill:#b3b4b4;fill-opacity:1"
   d="M 2.702,7.982 C 2.7580507,7.9464099 2.6199167,7.978189 2.702,7.982 Z" />
	<path
   id="polygon652"
   style="clip-rule:evenodd;fill-rule:evenodd;fill:#b3b4b4;fill-opacity:1"
   d="M 3.113,15.377 C 3.0199836,15.192006 2.9612117,15.544824 3.113,15.377 Z" />
	<path
   id="polygon654"
   style="clip-rule:evenodd;fill-rule:evenodd;fill:#b3b4b4;fill-opacity:1"
   d="M 71.26,9.037 C 71.266072,9.0424886 71.256813,9.0251122 71.26,9.037 Z" />
	<path
   id="polygon656"
   style="clip-rule:evenodd;fill-rule:evenodd;fill:#b3b4b4;fill-opacity:1"
   d="M 2.997,15.517 C 2.9989678,15.476186 2.9989678,15.476186 2.997,15.517 Z" />
	<path
   id="polygon658"
   style="clip-rule:evenodd;fill-rule:evenodd;fill:#b3b4b4;fill-opacity:1"
   d="M 3.022,15.34 C 2.7672434,14.906604 2.7500918,15.635291 3.022,15.34 Z" />
	<path
   id="polygon660"
   style="clip-rule:evenodd;fill-rule:evenodd;fill:#b3b4b4;fill-opacity:1"
   d="M 26.024,2.732 C 25.959494,2.7440856 25.959494,2.7440856 26.024,2.732 Z" />
	<path
   id="rect662"
   style="clip-rule:evenodd;fill-rule:evenodd;fill:#b3b4b4;fill-opacity:1"
   d="M 32.896999,3.253 C 32.943658,3.2530396 32.859221,3.3631436 32.896999,3.253 Z" />
	<path
   id="polygon664"
   style="clip-rule:evenodd;fill-rule:evenodd;fill:#b3b4b4;fill-opacity:1"
   d="M 24.701,3.012 C 24.831207,2.767088 24.548762,2.7771263 24.701,3.012 Z" />
	<path
   id="polygon666"
   style="clip-rule:evenodd;fill-rule:evenodd;fill:#b3b4b4;fill-opacity:1"
   d="M 70.818,8.463 C 70.949127,8.8451328 71.784754,8.3340809 70.818,8.463 Z" />
	<path
   id="polygon668"
   style="clip-rule:evenodd;fill-rule:evenodd;fill:#b3b4b4;fill-opacity:1"
   d="M 71.416,9.019 C 71.393294,9.0757709 71.468827,9.0129379 71.416,9.019 Z" />
	<path
   id="polygon670"
   style="clip-rule:evenodd;fill-rule:evenodd;fill:#b3b4b4;fill-opacity:1"
   d="M 71.248,8.583 C 71.206091,8.9563882 71.393204,8.3456681 71.248,8.583 Z" />
	<path
   id="polygon672"
   style="clip-rule:evenodd;fill-rule:evenodd;fill:#b3b4b4;fill-opacity:1"
   d="M 70.75,8.973 C 70.802159,8.9944862 70.802159,8.9944862 70.75,8.973 Z" />
	<path
   id="polygon674"
   style="clip-rule:evenodd;fill-rule:evenodd;fill:#b3b4b4;fill-opacity:1"
   d="M 71.435,9.014 C 71.418206,9.0251988 71.457754,9.0296856 71.435,9.014 Z" />
	<path
   id="polygon676"
   style="clip-rule:evenodd;fill-rule:evenodd;fill:#b3b4b4;fill-opacity:1"
   d="M 71.38,9.039 C 71.076062,8.8977265 71.746058,9.3480805 71.38,9.039 Z" />
	<path
   id="polygon678"
   style="clip-rule:evenodd;fill-rule:evenodd;fill:#b3b4b4;fill-opacity:1"
   d="M 24.25,34.128 C 24.188266,34.044751 24.149953,34.20703 24.25,34.128 Z" />
	<path
   id="polygon680"
   style="clip-rule:evenodd;fill-rule:evenodd;fill:#b3b4b4;fill-opacity:1"
   d="M 47.873,44.859 C 47.633231,45.168925 48.142797,44.670337 47.873,44.859 Z" />
	<path
   id="polygon682"
   style="clip-rule:evenodd;fill-rule:evenodd;fill:#b3b4b4;fill-opacity:1"
   d="M 52.462,24.953 C 52.520272,24.97338 52.412226,24.855836 52.462,24.953 Z" />
	<path
   id="polygon684"
   style="clip-rule:evenodd;fill-rule:evenodd;fill:#b3b4b4;fill-opacity:1"
   d="M 47.74,45.051 C 47.054704,45.436011 47.953093,45.049489 47.74,45.051 Z" />
	<path
   id="polygon686"
   style="clip-rule:evenodd;fill-rule:evenodd;fill:#b3b4b4;fill-opacity:1"
   d="M 52.399,24.745 C 52.338593,24.80767 52.499391,24.799798 52.399,24.745 Z" />
	<path
   id="polygon688"
   style="clip-rule:evenodd;fill-rule:evenodd;fill:#b3b4b4;fill-opacity:1"
   d="M 29.632,2.353 C 29.632,2.3533333 29.632,2.3533333 29.632,2.353 Z" />
	<path
   id="polygon690"
   style="clip-rule:evenodd;fill-rule:evenodd;fill:#b3b4b4;fill-opacity:1"
   d="M 29.564,2.426 C 29.585833,2.4109244 29.585833,2.4109244 29.564,2.426 Z" />
	<path
   id="polygon692"
   style="clip-rule:evenodd;fill-rule:evenodd;fill:#b3b4b4;fill-opacity:1"
   d="M 29.704,2.256 C 29.680067,2.2882757 29.680067,2.2882757 29.704,2.256 Z" />
	<path
   id="polygon694"
   style="clip-rule:evenodd;fill-rule:evenodd;fill:#b3b4b4;fill-opacity:1"
   d="M 1.077,6.138 C 1.0368459,6.1792302 1.1028536,6.1597484 1.077,6.138 Z" />
	<path
   id="polygon696"
   style="clip-rule:evenodd;fill-rule:evenodd;fill:#b3b4b4;fill-opacity:1"
   d="M 18.794,4.562 C 19.210885,4.6391906 18.579222,4.2619772 18.794,4.562 Z" />
	<path
   id="polygon698"
   style="clip-rule:evenodd;fill-rule:evenodd;fill:#b3b4b4;fill-opacity:1"
   d="M 20.266,4.758 C 20.181251,4.762579 20.176088,4.8051749 20.266,4.758 Z" />
	<path
   id="polygon700"
   style="clip-rule:evenodd;fill-rule:evenodd;fill:#b3b4b4;fill-opacity:1"
   d="M 29.536,2.45 C 29.640483,2.4053024 29.407683,2.4136595 29.536,2.45 Z" />
	<path
   id="polygon702"
   style="clip-rule:evenodd;fill-rule:evenodd;fill:#b3b4b4;fill-opacity:1"
   d="M 10.826,24.932 C 10.847952,24.937128 10.847952,24.937128 10.826,24.932 Z" />
	<path
   id="polygon704"
   style="clip-rule:evenodd;fill-rule:evenodd;fill:#b3b4b4;fill-opacity:1"
   d="M 37.736,36.167 C 37.746149,36.202655 37.746149,36.202655 37.736,36.167 Z" />
	<path
   id="polygon706"
   style="clip-rule:evenodd;fill-rule:evenodd;fill:#b3b4b4;fill-opacity:1"
   d="M 6.6,17.993 C 6.2814838,17.66841 5.9056794,18.147965 6.6,17.993 Z" />
	<path
   id="polygon708"
   style="clip-rule:evenodd;fill-rule:evenodd;fill:#b3b4b4;fill-opacity:1"
   d="M 10.724,24.819 C 10.740117,24.84232 10.7387,24.826301 10.724,24.819 Z" />
	<path
   id="polygon710"
   style="clip-rule:evenodd;fill-rule:evenodd;fill:#b3b4b4;fill-opacity:1"
   d="M 10.737,24.832 C 10.763135,24.865762 10.763135,24.865762 10.737,24.832 Z" />
	<path
   id="polygon712"
   style="clip-rule:evenodd;fill-rule:evenodd;fill:#b3b4b4;fill-opacity:1"
   d="M 6.644,17.995 C 6.5462204,17.960897 6.6263575,18.025361 6.644,17.995 Z" />
	<path
   id="polygon714"
   style="clip-rule:evenodd;fill-rule:evenodd;fill:#b3b4b4;fill-opacity:1"
   d="M 37.616,36.412 C 37.792928,36.797781 37.812267,35.924128 37.616,36.412 Z" />
	<path
   id="polygon716"
   style="clip-rule:evenodd;fill-rule:evenodd;fill:#b3b4b4;fill-opacity:1"
   d="M 47.857,4.662 C 48.021862,4.7408053 47.837971,4.5239744 47.857,4.662 Z" />
	<path
   id="polygon718"
   style="clip-rule:evenodd;fill-rule:evenodd;fill:#b3b4b4;fill-opacity:1"
   d="M 43.392,42.675 C 43.217731,42.649314 43.437939,42.857482 43.392,42.675 Z" />
	<path
   id="polygon720"
   style="clip-rule:evenodd;fill-rule:evenodd;fill:#b3b4b4;fill-opacity:1"
   d="M 43.425,43.099 C 43.298992,42.852513 43.492279,43.3707 43.425,43.099 Z" />
	<path
   id="polygon722"
   style="clip-rule:evenodd;fill-rule:evenodd;fill:#b3b4b4;fill-opacity:1"
   d="M 43.438,42.811 C 43.419436,42.549562 43.375105,42.950521 43.438,42.811 Z" />
	<path
   id="polygon724"
   style="clip-rule:evenodd;fill-rule:evenodd;fill:#b3b4b4;fill-opacity:1"
   d="M 43.718,43.622 C 43.725399,43.5995 43.725399,43.5995 43.718,43.622 Z" />
	<path
   id="polygon726"
   style="clip-rule:evenodd;fill-rule:evenodd;fill:#b3b4b4;fill-opacity:1"
   d="M 43.562,43.706 C 43.557036,43.696555 43.557036,43.696555 43.562,43.706 Z" />
	<path
   id="polygon728"
   style="clip-rule:evenodd;fill-rule:evenodd;fill:#b3b4b4;fill-opacity:1"
   d="M 39.906,37.62 C 39.558645,37.70267 40.147441,37.842677 39.906,37.62 Z" />
	<path
   id="polygon730"
   style="clip-rule:evenodd;fill-rule:evenodd;fill:#b3b4b4;fill-opacity:1"
   d="M 40.426,38.525 C 40.59028,38.288731 40.100942,38.427559 40.426,38.525 Z" />
	<path
   id="polygon732"
   style="clip-rule:evenodd;fill-rule:evenodd;fill:#b3b4b4;fill-opacity:1"
   d="M 40.174,37.683 C 40.198196,37.723729 40.198196,37.723729 40.174,37.683 Z" />
	<path
   id="polygon734"
   style="clip-rule:evenodd;fill-rule:evenodd;fill:#b3b4b4;fill-opacity:1"
   d="M 41.096,40.33 C 41.422182,39.939603 40.885631,40.351532 41.096,40.33 Z" />
	<path
   id="polygon736"
   style="clip-rule:evenodd;fill-rule:evenodd;fill:#b3b4b4;fill-opacity:1"
   d="M 41.253,40.411 C 41.367125,40.483108 41.264719,40.167605 41.253,40.411 Z" />
	<path
   id="polygon738"
   style="clip-rule:evenodd;fill-rule:evenodd;fill:#b3b4b4;fill-opacity:1"
   d="M 13.355,21.121 C 13.191121,21.318814 13.545696,21.441901 13.355,21.121 Z" />
	<path
   id="polygon740"
   style="clip-rule:evenodd;fill-rule:evenodd;fill:#b3b4b4;fill-opacity:1"
   d="M 14.658,20.909 C 14.674998,20.735332 14.485604,20.921711 14.658,20.909 Z" />
	<path
   id="polygon742"
   style="clip-rule:evenodd;fill-rule:evenodd;fill:#b3b4b4;fill-opacity:1"
   d="M 13.481,21.228 C 13.595938,20.897379 13.315146,21.297811 13.481,21.228 Z" />
	<path
   id="polygon744"
   style="clip-rule:evenodd;fill-rule:evenodd;fill:#b3b4b4;fill-opacity:1"
   d="M 59.918,26.952 C 60.004252,26.693898 59.633566,26.94671 59.918,26.952 Z" />
	<path
   id="polygon746"
   style="clip-rule:evenodd;fill-rule:evenodd;fill:#b3b4b4;fill-opacity:1"
   d="M 60.841,20.959 C 60.815531,20.942337 60.815531,20.942337 60.841,20.959 Z" />
	<path
   id="polygon748"
   style="clip-rule:evenodd;fill-rule:evenodd;fill:#b3b4b4;fill-opacity:1"
   d="M 60.049,30.519 C 59.872378,30.640713 60.204315,30.984597 60.049,30.519 Z" />
	<path
   id="polygon750"
   style="clip-rule:evenodd;fill-rule:evenodd;fill:#b3b4b4;fill-opacity:1"
   d="M 59.131,29.367 C 59.119212,29.419794 59.119212,29.419794 59.131,29.367 Z" />
	<path
   id="polygon752"
   style="clip-rule:evenodd;fill-rule:evenodd;fill:#b3b4b4;fill-opacity:1"
   d="M 59.23,29.447 C 59.449129,29.431858 59.120723,29.322047 59.23,29.447 Z" />
	<path
   id="polygon754"
   style="clip-rule:evenodd;fill-rule:evenodd;fill:#b3b4b4;fill-opacity:1"
   d="M 61.045,21.097 C 60.962923,20.835806 60.827321,21.153921 61.045,21.097 Z" />
	<path
   id="polygon756"
   style="clip-rule:evenodd;fill-rule:evenodd;fill:#b3b4b4;fill-opacity:1"
   d="M 59.496,32.195 C 59.787474,32.37178 59.807977,31.743346 59.496,32.195 Z" />
	<path
   id="polygon758"
   style="clip-rule:evenodd;fill-rule:evenodd;fill:#b3b4b4;fill-opacity:1"
   d="M 59.006,33.581 C 59.473989,33.120318 59.079923,32.917258 59.006,33.581 Z" />
	<path
   id="polygon760"
   style="clip-rule:evenodd;fill-rule:evenodd;fill:#b3b4b4;fill-opacity:1"
   d="M 58.561,28.948 C 58.564224,28.914418 58.564224,28.914418 58.561,28.948 Z" />
	<path
   id="polygon762"
   style="clip-rule:evenodd;fill-rule:evenodd;fill:#b3b4b4;fill-opacity:1"
   d="M 58.15,28.016 C 58.145471,28.585943 58.370655,27.812679 58.15,28.016 Z" />
	<path
   id="polygon764"
   style="clip-rule:evenodd;fill-rule:evenodd;fill:#b3b4b4;fill-opacity:1"
   d="M 57.966,34.515 C 57.856035,34.304808 57.791033,34.607146 57.966,34.515 Z" />
	<path
   id="polygon766"
   style="clip-rule:evenodd;fill-rule:evenodd;fill:#b3b4b4;fill-opacity:1"
   d="M 61.241,22.999 C 61.146997,23.157097 61.430294,23.069037 61.241,22.999 Z" />
	<path
   id="polygon768"
   style="clip-rule:evenodd;fill-rule:evenodd;fill:#b3b4b4;fill-opacity:1"
   d="M 57.025,34.816 C 57.311245,34.939564 57.057205,34.591949 57.025,34.816 Z" />
	<path
   id="polygon770"
   style="clip-rule:evenodd;fill-rule:evenodd;fill:#b3b4b4;fill-opacity:1"
   d="M 57.235,34.718 C 57.386435,34.952022 57.382814,34.442745 57.235,34.718 Z" />
	<path
   id="polygon772"
   style="clip-rule:evenodd;fill-rule:evenodd;fill:#b3b4b4;fill-opacity:1"
   d="M 62.109,25.839 C 62.409224,25.572924 61.759514,25.388926 62.109,25.839 Z" />
	<path
   id="polygon774"
   style="clip-rule:evenodd;fill-rule:evenodd;fill:#b3b4b4;fill-opacity:1"
   d="M 62.818,23.12 C 63.339026,23.285044 63.152619,22.914586 62.818,23.12 Z" />
	<path
   id="polygon776"
   style="clip-rule:evenodd;fill-rule:evenodd;fill:#b3b4b4;fill-opacity:1"
   d="M 61.418,20.964 C 61.19225,21.154116 61.948519,22.405787 61.421102,22.896946 62.83467,24.23421 60.836891,22.04462 62.94995,22.924312 65.7801,21.782777 62.154587,22.048487 61.418,20.964 Z" />
	<path
   id="polygon778"
   style="clip-rule:evenodd;fill-rule:evenodd;fill:#b3b4b4;fill-opacity:1"
   d="M 59.069,29.909 C 59.073868,30.085158 59.155626,29.739932 59.069,29.909 Z" />
	<path
   id="polygon780"
   style="clip-rule:evenodd;fill-rule:evenodd;fill:#b3b4b4;fill-opacity:1"
   d="M 58.625,28.568 C 58.567084,28.318879 58.4943,28.677746 58.625,28.568 Z" />
	<path
   id="polygon782"
   style="clip-rule:evenodd;fill-rule:evenodd;fill:#b3b4b4;fill-opacity:1"
   d="M 62.249,24.868 C 62.258735,25.004572 62.374363,24.830144 62.249,24.868 Z" />
	<path
   id="polygon784"
   style="clip-rule:evenodd;fill-rule:evenodd;fill:#b3b4b4;fill-opacity:1"
   d="M 62.31,24.953 C 62.402415,24.972251 62.269098,24.874893 62.31,24.953 Z" />
	<path
   id="polygon786"
   style="clip-rule:evenodd;fill-rule:evenodd;fill:#b3b4b4;fill-opacity:1"
   d="M 62.128,23.653 C 62.16829,23.656282 62.16829,23.656282 62.128,23.653 Z" />
	<path
   id="polygon788"
   style="clip-rule:evenodd;fill-rule:evenodd;fill:#b3b4b4;fill-opacity:1"
   d="M 63.63,27.953 C 64.254685,27.963197 63.30295,27.74359 63.63,27.953 Z" />
	<path
   id="polygon790"
   style="clip-rule:evenodd;fill-rule:evenodd;fill:#b3b4b4;fill-opacity:1"
   d="M 63.296,27.818 C 63.481437,28.462657 63.404409,27.531491 63.296,27.818 Z" />
	<path
   id="polygon792"
   style="clip-rule:evenodd;fill-rule:evenodd;fill:#b3b4b4;fill-opacity:1"
   d="M 63.158,27.659 C 63.155675,27.8625 63.458077,27.62246 63.158,27.659 Z" />
	<path
   id="polygon794"
   style="clip-rule:evenodd;fill-rule:evenodd;fill:#b3b4b4;fill-opacity:1"
   d="M 63.996,27.471 C 63.79211,25.840683 63.214807,25.330642 63.147222,24.204194 61.568652,22.977059 63.303448,24.127413 62.199534,24.087115 62.423344,25.351036 62.627616,25.704878 61.744724,26.579316 61.23607,25.380102 61.938878,28.296076 61.454,27.251 60.532839,26.844364 59.281973,27.51388 59.313166,28.408534 61.637008,28.930689 57.801607,28.389161 59.141,29.277 59.051232,28.544204 59.658119,31.063581 59.658,29.91 60.283839,31.142929 59.614731,27.817736 60.538517,29.156261 61.214152,28.850842 61.65552,27.978453 60.195,28.213 61.296507,26.836026 62.147764,29.796028 62.158982,27.746216 63.406037,28.794094 63.898603,26.015021 63.996,27.471 Z" />
	<path
   id="polygon796"
   style="clip-rule:evenodd;fill-rule:evenodd;fill:#b3b4b4;fill-opacity:1"
   d="M 58.849,28.799 C 58.380241,28.629672 59.036321,29.420923 58.849,28.799 Z" />
	<path
   id="polygon798"
   style="clip-rule:evenodd;fill-rule:evenodd;fill:#b3b4b4;fill-opacity:1"
   d="M 63.543,28.039 C 63.619497,27.908439 63.364528,28.115286 63.543,28.039 Z" />
	<path
   id="polygon800"
   style="clip-rule:evenodd;fill-rule:evenodd;fill:#b3b4b4;fill-opacity:1"
   d="M 64.329,29.012 C 64.339641,29.008483 64.339641,29.008483 64.329,29.012 Z" />
	<path
   id="polygon802"
   style="clip-rule:evenodd;fill-rule:evenodd;fill:#b3b4b4;fill-opacity:1"
   d="M 59.44,32.419 C 59.322982,32.571678 59.640653,32.568113 59.44,32.419 Z" />
	<path
   id="polygon804"
   style="clip-rule:evenodd;fill-rule:evenodd;fill:#b3b4b4;fill-opacity:1"
   d="M 58.158,28.188 C 58.098129,28.492014 58.392196,28.216641 58.158,28.188 Z" />
	<path
   id="polygon806"
   style="clip-rule:evenodd;fill-rule:evenodd;fill:#b3b4b4;fill-opacity:1"
   d="M 60.847,28.056 C 60.912219,28.218422 61.03227,27.958747 60.847,28.056 Z" />
	<path
   id="polygon808"
   style="clip-rule:evenodd;fill-rule:evenodd;fill:#b3b4b4;fill-opacity:1"
   d="M 61.269,28.039 C 60.945463,28.280631 61.537409,28.356627 61.269,28.039 Z" />
	<path
   id="polygon810"
   style="clip-rule:evenodd;fill-rule:evenodd;fill:#b3b4b4;fill-opacity:1"
   d="M 58.423,29.02 C 58.4227,29.057237 58.4227,29.057237 58.423,29.02 Z" />
	<path
   id="polygon812"
   style="clip-rule:evenodd;fill-rule:evenodd;fill:#b3b4b4;fill-opacity:1"
   d="M 59.914,30.798 C 59.636018,30.497078 59.832717,31.089386 59.914,30.798 Z" />
	<path
   id="polygon814"
   style="clip-rule:evenodd;fill-rule:evenodd;fill:#b3b4b4;fill-opacity:1"
   d="M 58.339,29.22 C 58.041141,29.190991 58.5099,29.448899 58.339,29.22 Z" />
	<path
   id="polygon816"
   style="clip-rule:evenodd;fill-rule:evenodd;fill:#b3b4b4;fill-opacity:1"
   d="M 59.613,32.291 C 59.583499,32.277128 59.583499,32.277128 59.613,32.291 Z" />
	<path
   id="polygon818"
   style="clip-rule:evenodd;fill-rule:evenodd;fill:#b3b4b4;fill-opacity:1"
   d="M 18.387,33.033 C 17.241177,33.502953 18.901855,33.132314 18.387,33.033 Z" />
	<path
   id="polygon820"
   style="clip-rule:evenodd;fill-rule:evenodd;fill:#b3b4b4;fill-opacity:1"
   d="M 40.473,42.917 C 40.484524,42.944741 40.484524,42.944741 40.473,42.917 Z" />
	<path
   id="polygon822"
   style="clip-rule:evenodd;fill-rule:evenodd;fill:#b3b4b4;fill-opacity:1"
   d="M 40.269,42.366 C 40.279842,42.146037 40.206207,42.511263 40.269,42.366 Z" />
	<path
   id="polygon824"
   style="clip-rule:evenodd;fill-rule:evenodd;fill:#b3b4b4;fill-opacity:1"
   d="M 51.885,36.189 C 51.866925,36.171552 51.866925,36.171552 51.885,36.189 Z" />
	<path
   id="polygon826"
   style="clip-rule:evenodd;fill-rule:evenodd;fill:#b3b4b4;fill-opacity:1"
   d="M 51.677,36.143 C 51.652809,36.335851 51.906968,35.968346 51.677,36.143 Z" />
	<path
   id="polygon828"
   style="clip-rule:evenodd;fill-rule:evenodd;fill:#b3b4b4;fill-opacity:1"
   d="M 51.409,35.765 C 51.183829,35.611534 51.538663,35.931975 51.409,35.765 Z" />
	<path
   id="polygon830"
   style="clip-rule:evenodd;fill-rule:evenodd;fill:#b3b4b4;fill-opacity:1"
   d="M 49.824,36.95 C 49.522493,37.004769 50.079248,36.995282 49.824,36.95 Z" />
	<path
   id="polygon832"
   style="clip-rule:evenodd;fill-rule:evenodd;fill:#b3b4b4;fill-opacity:1"
   d="M 54.555,29.962 C 53.779243,29.588564 55.131656,30.309212 54.555,29.962 Z" />
	<path
   id="polygon834"
   style="clip-rule:evenodd;fill-rule:evenodd;fill:#b3b4b4;fill-opacity:1"
   d="M 51.15,36.492 C 50.994682,36.468212 51.158135,36.725342 51.15,36.492 Z" />
	<path
   id="polygon836"
   style="clip-rule:evenodd;fill-rule:evenodd;fill:#b3b4b4;fill-opacity:1"
   d="M 51.032,36.52 C 51.01724,36.53884 51.01724,36.53884 51.032,36.52 Z" />
	<path
   id="polygon838"
   style="clip-rule:evenodd;fill-rule:evenodd;fill:#b3b4b4;fill-opacity:1"
   d="M 55.335,31.069 C 55.348516,31.091264 55.348516,31.091264 55.335,31.069 Z" />
	<path
   id="polygon840"
   style="clip-rule:evenodd;fill-rule:evenodd;fill:#b3b4b4;fill-opacity:1"
   d="M 55.303,31.064 C 55.22228,30.74154 54.90298,31.135803 55.303,31.064 Z" />
	<path
   id="polygon842"
   style="clip-rule:evenodd;fill-rule:evenodd;fill:#b3b4b4;fill-opacity:1"
   d="M 49.959,38.538 C 50.794067,35.947817 47.737165,39.468683 49.959,38.538 Z" />
	<path
   id="polygon844"
   style="clip-rule:evenodd;fill-rule:evenodd;fill:#b3b4b4;fill-opacity:1"
   d="M 55.24,31.183 C 55.120018,31.242776 55.437206,31.290835 55.24,31.183 Z" />
	<path
   id="polygon846"
   style="clip-rule:evenodd;fill-rule:evenodd;fill:#b3b4b4;fill-opacity:1"
   d="M 53.86,34.664 C 53.727441,34.572239 53.8904,34.839102 53.86,34.664 Z" />
	<path
   id="polygon848"
   style="clip-rule:evenodd;fill-rule:evenodd;fill:#b3b4b4;fill-opacity:1"
   d="M 55.018,32.225 C 54.869205,32.372754 55.189862,32.316608 55.018,32.225 Z" />
	<path
   id="polygon850"
   style="clip-rule:evenodd;fill-rule:evenodd;fill:#b3b4b4;fill-opacity:1"
   d="M 46.311,43.369 C 46.319474,43.375084 46.319474,43.375084 46.311,43.369 Z" />
	<path
   id="polygon852"
   style="clip-rule:evenodd;fill-rule:evenodd;fill:#b3b4b4;fill-opacity:1"
   d="M 46.473,43.758 C 46.497133,43.93989 46.580432,43.659353 46.473,43.758 Z" />
	<path
   id="polygon854"
   style="clip-rule:evenodd;fill-rule:evenodd;fill:#b3b4b4;fill-opacity:1"
   d="M 38.628,35.985 C 38.52278,36.422352 38.84702,36.192637 38.628,35.985 Z" />
	<path
   id="polygon856"
   style="clip-rule:evenodd;fill-rule:evenodd;fill:#b3b4b4;fill-opacity:1"
   d="M 38.341,35.692 C 38.321341,35.6826 38.321341,35.6826 38.341,35.692 Z" />
	<path
   id="polygon858"
   style="clip-rule:evenodd;fill-rule:evenodd;fill:#b3b4b4;fill-opacity:1"
   d="M 38.423,35.906 C 38.042724,35.452798 38.792572,37.147504 38.423,35.906 Z" />
	<path
   id="polygon860"
   style="clip-rule:evenodd;fill-rule:evenodd;fill:#b3b4b4;fill-opacity:1"
   d="M 38.913,36.076 C 38.924938,35.716485 38.690007,36.101593 38.913,36.076 Z" />
</g>
</svg>
