<svg xmlns="http://www.w3.org/2000/svg" width="71.818" height="46.937" xml:space="preserve"><g style="fill:#b3b4b4;fill-opacity:1"><path style="clip-rule:evenodd;fill-rule:evenodd;fill:#b3b4b4;fill-opacity:1" d="M48.772 43.982c-.018.018-.018.018 0 0zM46.993 44.034c-.333-.228.15.53 0 0zM48.171 36.843c-.186-.097.025.256 0 0zM48.148 37.021c-.073.157.118-.158 0 0zM48.509 45.118c.017-.009.017-.009 0 0zM15.631 24.984c.02.072.02.072 0 0zM43.852 45.51c.014.04.014.04 0 0zM43.789 45.646c.132-.24-.227-.171-.086-.016M46.029 43.192c.106.11-.002-.148 0 0zM43.659 44.858c.018.158.056-.108 0 0zM44.686 44.471c-.012-.026-.012-.026 0 0zM45.915 42.89c-.318-.452.082.246 0 0zM44.618 44.551c-.034.265.201-.102 0 0zM54.022 34.732c.031-.185-.208.074 0 0zM55.936 34.362c-.424-1.16-1.467 1.453.011 1.135-1.953.277.52 1.215-.035-.664zM33.002 44.504c-.024-.022-.024-.022 0 0zM32.91 44.859c.028-.01-.068-.011 0 0z"/><path style="clip-rule:evenodd;fill-rule:evenodd;fill:#b3b4b4;fill-opacity:1" d="M34.15 45.959c-.636-2.873-2.093-.158-.563.987.388-.154.753-.523.563-.987z"/><path style="clip-rule:evenodd;fill-rule:evenodd;fill:#b3b4b4;fill-opacity:1" d="M33.247 44.418c.125-.324-.138.145 0 0zM57.263 27.981c.076.142.02-.122 0 0zM57.324 27.912c.286.05-.244-.268 0 0zM58.222 26.068c-.016-.17-.13.085 0 0zM57.737 27.911c.231-.371-.355-.073 0 0zM55.726 25.864c-.237-.017.279.276 0 0zM56.767 28.198c.16.007-.164-.114 0 0zM56.055 26.775c-.031-.04-.031-.04 0 0zM56.276 27.792c.025.039.025.039 0 0zM56.548 28.07c-.218-.183-.08.312 0 0zM56.738 28.877c.644.377.222-.643 0 0zM10.695.387c1.132-.099-.956-.056 0 0zM18.445 4.296c.381.263.2-.294 0 0zM17.271.437c1.303.242.033-.281 0 0zM16.704.985c.13.004.13.004 0 0zM12.843 5.835c1.804.894.115-.641 0 0zM20.33 4.388c.864.487-.025-.518 0 0zM20.509 3.065c.42.2.11-.257 0 0zM19.283 4.051c-.07-.017-.07-.017 0 0zM11.085.085c1.32.136-.28-.133 0 0zM19.783 4.658c1.004.237.207-.511 0 0zM18.812 4.042c.496.042-.085-.134 0 0zM8.692 6.312c.378.912 1.511-.594 0 0zM10.551 3.158c-.224.071.322.104 0 0zM12.205 3.481c-.223.261.227-.163 0 0zM14.08 2.771c2.183-.172-.556-1.033 0 0zM11.601 4.039c.028-.128-.1.05 0 0zM11.687 3.843c.476.023-.39-.042 0 0zM13.911 3.039c.225-.433-.312-.156 0 0z"/><path style="clip-rule:evenodd;fill-rule:evenodd;fill:#b3b4b4;fill-opacity:1" d="M11.556 3.834c-.044.428.275-.153 0 0z"/><path style="clip-rule:evenodd;fill-rule:evenodd;fill:#b3b4b4;fill-opacity:1" d="M12.239 2.584c-1.136.117-3.129 2.141-.764 1.32.522-.85 4.13-1.509.764-1.32z"/><path style="clip-rule:evenodd;fill-rule:evenodd;fill:#b3b4b4;fill-opacity:1" d="M12.292 3.424c.015-.041-.043.025 0 0zM10.795 3.258c-.173-.152-.173.143 0 0z"/><path style="clip-rule:evenodd;fill-rule:evenodd;fill:#b3b4b4;fill-opacity:1" d="M10.541 3.414c.176.606.328-.43 0 0z"/><path style="clip-rule:evenodd;fill-rule:evenodd;fill:#b3b4b4;fill-opacity:1" d="M10.771 3.532c-.03-.042-.03.028 0 0zM11.171 4.562c.01-.161-.276.16 0 0z"/><path style="clip-rule:evenodd;fill-rule:evenodd;fill:#b3b4b4;fill-opacity:1" d="M11.182 4.47c-.054.177.254-.099 0 0z"/><path style="clip-rule:evenodd;fill-rule:evenodd;fill:#b3b4b4;fill-opacity:1" d="M11.828 5.506c2.765.501-2.39-.751.172-.807-.573.034-2.221-1.195-1.698-.235 1.06-.16-2.325.669.189.687-.629-.209 1.305 1.113 1.337.355z"/><path style="clip-rule:evenodd;fill-rule:evenodd;fill:#b3b4b4;fill-opacity:1" d="M9.826 4.408c-.278-.033.145.131 0 0z"/><path style="clip-rule:evenodd;fill-rule:evenodd;fill:#b3b4b4;fill-opacity:1" d="M9.903 4.562c.301-.038-.207-.24 0 0zM10.027 5.149c.012.318.612.064 0 0zM8.87.693c.299-.067-.264-.026 0 0zM9.095.748c.938.375.262-.444 0 0zM10.474.741c-.828-.095.337.223 0 0zM11.418.402c.833.367 1.238-.414 0 0zM16.01 5.598c.212.082-.293-.288 0 0zM5.256.547c1.842-.031.654-.255 0 0zM7.114.711c-.375-.159-.165.184 0 0zM10.27.563c1.448.252.717-.469 0 0z"/><path style="clip-rule:evenodd;fill-rule:evenodd;fill:#b3b4b4;fill-opacity:1" d="M7.489.772c-1.048-.129.3.222 0 0zM7.92.705c1.093.105-.324-.2 0 0zM6.431.569c-1.748.5 2.458-.383 0 0zM6.938.321c.052-.008.052-.008 0 0zM54.532 14.855c1.007.566-.182-.768 0 0zM21.356 3.672c-.19.065.315.042 0 0zM6.592 7.712c.037.017.037.017 0 0zM8.306.583c.316.227.19-.187 0 0zM64.183 22.232c-.047-.055-.076.008 0 0zM9.79.204c.077.005.077.005 0 0zM9.459.065c.853.15.241-.246 0 0zM9.961.456c-.042-.432-1.137.194 0 0zM9.641.583c-.38.343 1.737-.13 0 0z"/><path style="clip-rule:evenodd;fill-rule:evenodd;fill:#b3b4b4;fill-opacity:1" d="M8.801.276c1.516.076.71-.365 0 0zM63.746 21.948c.393-.05.178-.69 0 0zM8.428.448c1.966.29.217-.397 0 0zM58.536 12.298c.192.086-.014-.209 0 0zM57.448 15.188c.041-.038-.073-.06 0 0zM57.433 14.757c-.343.038.328.586 0 0zM62.249 20.485c-.23-.174-.03.13 0 0z"/><path style="clip-rule:evenodd;fill-rule:evenodd;fill:#b3b4b4;fill-opacity:1" d="M57.479 15.166c.326.318-.168-.333 0 0zM62.005 20.455c.418.006-.708-.183 0 0zM22.624 3.239c-.187.245.61-.109 0 0zM64.381 21.985c.082.192.222-.167 0 0zM62.338 5.301c2.273.686 1.192-.948 0 0zM64.236 22.228c-.015.056.057-.042 0 0zM44.96 5.111c.64.01-.415-.156 0 0zM65.734 17.366c-.286-.08.179.17 0 0zM64.575 21.128c.714-.962-1.077 1 0 0zM65.297 20.392c-.725.656.293.314 0 0zM45.854 2.39c-.143-.225-.47.193 0 0zM65.734 19.995c.322.034.016-.422 0 0zM58.824 5.996c1.303.541.476-.483 0 0zM45.705 2.949c.764.843 2.904.66 1.705.001-.558.472-1.188-.528-1.705-.001zM56.324 6.235c1.034.897.024-.452 0 0zM54.975 5.44c.415.152-.166-.158 0 0zM64.298 22.091c-.084.009.074.03 0 0zM18.646 7.803c-.63-.444.014.36 0 0zM16.663 6.215c.043-.217-.232.087 0 0zM66.13 18.368c-.174-.865-.216.263 0 0zM68.749 14.818c-1.247-.638.861.522 0 0zM69.465 14.931c-.498-.102 1.008.36 0 0zM3.903 8.659c-.301-.19.035.257 0 0zM21.022.309c1.141.07.249-.12 0 0zM65.97 19.369c-.018.123.12.021 0 0zM66.247 17.542c.048-.319-.378.005 0 0zM65.999 18.75c.01-.027.01-.027 0 0z"/><path style="clip-rule:evenodd;fill-rule:evenodd;fill:#b3b4b4;fill-opacity:1" d="M66.197 17.754c-.228-.74-.416.523 0 0zM64.959 12.596c.948-.327-.553-.675 0 0zM47.745 2.661c-.047-.007-.047-.007 0 0zM25.97 2.592c.211.19.03-.213 0 0zM31.739 2.445c.708.226-.222-.182 0 0zM25.197 2.171c-.554.163.842-.075 0 0zM22.351.447c-.019.004-.019.004 0 0zM22.187.457c.352-.032-.273-.08 0 0zM22.185.921c.245-.387-.655-.054 0 0z"/><path style="clip-rule:evenodd;fill-rule:evenodd;fill:#b3b4b4;fill-opacity:1" d="M22.13 1.039c.281.12-.014-.332 0 0zM21.968.841c-.506-.503.13.855 0 0zM22.607.941c.941.207 2.916 1.544 2.498-.133-.69-.204-2.954.302-1.222-.233-.341-.53-2.048-.368-1.276.366z"/><path style="clip-rule:evenodd;fill-rule:evenodd;fill:#b3b4b4;fill-opacity:1" d="M22.312.985c.078-.204-.204-.032 0 0zM22.42 1.039c.154-.231-.202-.063 0 0z"/><path style="clip-rule:evenodd;fill-rule:evenodd;fill:#b3b4b4;fill-opacity:1" d="M22.363 1.039c.03-.177-.167.049 0 0zM24.038.691c.154-.099-.191-.041 0 0zM22.255.709c.19.088-.108-.351 0 0zM26.063 2.424c.273.058-.301-.12 0 0zM28.474 1.632c.518.035-.127-.16 0 0zM22.068 3.489c-.337.066.315.058 0 0z"/><path style="clip-rule:evenodd;fill-rule:evenodd;fill:#b3b4b4;fill-opacity:1" d="M28.853 1.682c.811-.029-.77-.065 0 0zM29.513 2.099c.257-.048-.287-.06 0 0zM21.5 3.708c.102 0 .102 0 0 0zM42.246 3.542c-.02-.07-.02-.07 0 0zM43.771 3.409c.04-.001.04-.001 0 0z"/><path style="clip-rule:evenodd;fill-rule:evenodd;fill:#b3b4b4;fill-opacity:1" d="M42.058 2.812c1.132 1.316 2.614-.04 2.46.286.048 1.297 2.685.916.61.528.27-1.509-2.207-.603-2.264-.849-.105.001-.956-.336-.806.035zM44.773 4.042c-.05-.003-.05-.003 0 0z"/><path style="clip-rule:evenodd;fill-rule:evenodd;fill:#b3b4b4;fill-opacity:1" d="M43.594 3.402c-.479.345.547-.109 0 0zM44.724 3.729c-.384-.438-.705.28 0 0zM42.447 3.641c.094.209.98.136 0 0zM25.44 1.292c.405.305.132-.36 0 0z"/><path style="clip-rule:evenodd;fill-rule:evenodd;fill:#b3b4b4;fill-opacity:1" d="M25.262 1.363c-.169.425.483-.168 0 0zM22.766 2.093c-.256-.193-.187.188 0 0zM41.359 2.871c.574.634.29-.218 0 0zM38.186 3.822c.28.089-.096-.118 0 0zM25.375.975c.311-.59-.14-.173 0 0zM36.937 4.259c.15-.174-.55.06 0 0zM58.362 43.414c-.118.137.215.084 0 0zM58.288 42.674c.108-.151-.315-.225 0 0zM59.474 44.2c.284.374-.1-.647 0 0zM57.774 43.771c-.363.249.239.232 0 0zM58.119 42.606c-.53.436 1.145.638 0 0zM57.192 41.915c-.36.146.35.285 0 0zM57.32 42.508c-.26.299.18.46 0 0zM56.183 41.826c.01-.192-.265-.042 0 0zM54.761 45.374c-.069.175.15.015 0 0zM57.449 42.588c-.028-.129-.063.083 0 0zM57.636 42.749c.175-.222-.32-.095 0 0zM57.941 42.339c-.027-.036-.027-.036 0 0zM58.78 43.278c.277-.083-.323-.243 0 0zM59.34 44.304c-.028-.044-.028-.044 0 0zM58.963 43.23c-.008-.027-.008-.027 0 0z"/><path style="clip-rule:evenodd;fill-rule:evenodd;fill:#b3b4b4;fill-opacity:1" d="M57.779 44.602c.81.615.372-1.978-.112-.226zM58.757 42.59c.13 1.536 1.653.74 0 0zM59.734 44.432c.006.035.006.035 0 0zM59.797 44.414c.013-.03.013-.03 0 0zM58.53 44.474c.845.286.082-.854 0 0zM58.499 41.651c-.422-.048.343.554 0 0zM58.771 43.811c-.015.01-.015.01 0 0zM56.285 42.935c-.004-.389-.55-.013 0 0zM56.614 38.428c.01-.04.01-.04 0 0zM54.995 44.856c-.414 1.323 2.15-3.005.388-.415zM54.662 45.659c.146-.106-.147-.208-.065-.008M58.2 45.862c-.083.078.05.043 0 0zM57.665 45.856c-.459.219.297.753 0 0z"/><path style="clip-rule:evenodd;fill-rule:evenodd;fill:#b3b4b4;fill-opacity:1" d="M57.947 45.731c-.718.325.39.49 0 0zM59.585 46.301c.376.132.153-.336 0 0zM58.213 45.884c.279.355.209-.468 0 0zM58.578 45.296c-.378-.531-.651.479 0 0z"/><path style="clip-rule:evenodd;fill-rule:evenodd;fill:#b3b4b4;fill-opacity:1" d="M58.392 45.743c-.022.036.026.014 0 0zM58.606 45.457c.028.308.363-.463 0 0zM57.052 41.175c.242-.213-.264-.369 0 0zM56.414 37.133c-.063-.15-.033.21 0 0zM58.192 41.803c-.248-.008.069.29 0 0z"/><path style="clip-rule:evenodd;fill-rule:evenodd;fill:#b3b4b4;fill-opacity:1" d="M55.93 38.728c-.12 1.4-.187 3.109 1.07 3.93-.357-.938-1.284-1.77-.167-.913 1.053.34.493-.258 1.628.818-.452-1.37-2.56-.986-1.322-3.033-.36-.532-1.096-2.56-1.209-.802z"/><path style="clip-rule:evenodd;fill-rule:evenodd;fill:#b3b4b4;fill-opacity:1" d="M58.25 41.749c-.105-.106-.008.209 0 0zM56.285 38.047c-.021.167.222-.003 0 0zM57.111 41.48c.077.412.277-.09 0 0zM56.481 37.413c.014-.022.014-.022 0 0zM58.425 44.736c-.282.047.19.223 0 0zM57.689 43.802c1.133-2.004-1.703.322 0 0zM57.511 46.562c.556.359-.039-.567 0 0zM56.018 43.285c.07.204.156-.143 0 0zM56.17 42.992c-.298-.082.182.353 0 0zM56.187 43.938c.151-.202-.281.042 0 0zM58.542 44.05c.216-1.724-.828 1.933 0 0zM59.039 44.76c-.156.122.241.108 0 0zM59.218 44.116c-.273-1.707-.833-.34 0 0zM54.308 24.678c.049.114.04-.117 0 0zM43.555 42.716c.212-.19-.193-.289 0 0zM43.713 43.106c-.277-.217.101.432 0 0zM43.514 43.287c.016-.053.016-.053 0 0zM43.581 44.304c.281-.32-.188.104 0 0zM42.857 39.989c-.232-.085.136.393 0 0zM43.488 42.177c0 .032 0 .032 0 0zM40.421 38.096c.334-.032-.304-.264 0 0zM48.124 4.812c-.043-.012-.043-.012 0 0zM47.875 4.562c-.074-.012.018.015 0 0zM70.936 8.599c.003-.007-.016.003 0 0zM47.919 4.705c.02.014.02.014 0 0zM47.945 4.698c.406.237.15-.285 0 0zM48.341 4.68c.025-.052-.067-.043 0 0z"/><path style="clip-rule:evenodd;fill-rule:evenodd;fill:#b3b4b4;fill-opacity:1" d="M48.032 4.63c-.11-.202-.295.066 0 0zM48.314 4.641c-.066-.246-.252.162 0 0zM67.836 8.663c.035-.007-.008-.03 0 0zM36.119 3.938c.426-.273-.356-.57 0 0zM55.107 31.299c.002-.3-.215.31 0 0zM47.738 37.187c.44.091.166-.356 0 0z"/><path style="clip-rule:evenodd;fill-rule:evenodd;fill:#b3b4b4;fill-opacity:1" d="M55.215 31.555c.147-.212-.316-.377 0 0zM55.025 31.07c.087.087.09-.04 0 0zM52.428 24.797c.009.039.009.039 0 0z"/><path style="clip-rule:evenodd;fill-rule:evenodd;fill:#b3b4b4;fill-opacity:1" d="M55.202 31.125c-.199-.142-.103.23 0 0zM43.999 45.597l-.102.059M37.78 36.268c-.06.333.286.13 0 0zM25.842 2.576c-.023-.015-.023-.015 0 0z"/><path style="clip-rule:evenodd;fill-rule:evenodd;fill:#b3b4b4;fill-opacity:1" d="M25.885 2.597c.155.016-.142-.048 0 0zM25.862 2.602c.036-.007-.062-.001 0 0zM32.908 3.565c-.033-.007-.033-.007 0 0zM24.316 34.128c.112.025.064-.042 0 0zM26.126 1.196c-.167-.262.058.378 0 0z"/><path style="clip-rule:evenodd;fill-rule:evenodd;fill:#b3b4b4;fill-opacity:1" d="M26.204 1.352c-.093-.06-.074.021 0 0zM32.797 3.563c-.049.015.044.035 0 0z"/><path style="clip-rule:evenodd;fill-rule:evenodd;fill:#b3b4b4;fill-opacity:1" d="M26.054 1.728c1.46-.242.142-1.356 0 0zM38.8 36.439c.025.008.025.008 0 0zM53.073 26.984c-.038.007.008.015 0 0zM61.625 20.222c.148.399.224-.038 0 0zM55.512 15.225c.07.19.12-.096 0 0z"/><path style="clip-rule:evenodd;fill-rule:evenodd;fill:#b3b4b4;fill-opacity:1" d="M61.818 20.172c-.16-.262-.289.236 0 0zM55.622 15.039c-.207.217.206.266 0 0zM61.427 20.039c.02 0 .02 0 0 0z"/><path style="clip-rule:evenodd;fill-rule:evenodd;fill:#b3b4b4;fill-opacity:1" d="M61.818 20.039c-.527-.202-.168.238 0 0zM67.44 8.019c.043-.118-.09-.073 0 0zM71.209 8.661c-.116.253.211.059 0 0z"/><path style="clip-rule:evenodd;fill-rule:evenodd;fill:#b3b4b4;fill-opacity:1" d="M71.273 8.731c.047.096-.013-.113 0 0zM71.266 8.775c.009.022.009.022 0 0z"/><path style="clip-rule:evenodd;fill-rule:evenodd;fill:#b3b4b4;fill-opacity:1" d="M71.263 8.88c.067-.187-.23-.016 0 0zM71.392 9.037c.031-.125-.059-.05 0 0zM71.263 8.88c-.002.004.003 0 0 0zM71.26 8.913c-.001.039-.001.039 0 0z"/><path style="clip-rule:evenodd;fill-rule:evenodd;fill:#b3b4b4;fill-opacity:1" d="M71.301 8.831c.125.474.105-.59 0 0z"/><path style="clip-rule:evenodd;fill-rule:evenodd;fill:#b3b4b4;fill-opacity:1" d="M71.263 8.907c.046-.03.118.057 0 0zM55.706 15.039c-.156.363.255.17 0 0zM55.7 15.39c-.009-.047-.009-.047 0 0zM67.743 8.437c-.697.434.503.888 0 0z"/><path style="clip-rule:evenodd;fill-rule:evenodd;fill:#b3b4b4;fill-opacity:1" d="M71.25 8.9c.019.05.02-.064 0 0zM68.342 10.039c-.11-.028-.063.013 0 0zM71.262 9.039c.003.001-.001-.003 0 0zM10.389 22.778c.06.032.045-.052 0 0zM10.472 22.749c.003.001.003.001 0 0zM12.818 21.99c-.37-.218-.877.475 0 0z"/><path style="clip-rule:evenodd;fill-rule:evenodd;fill:#b3b4b4;fill-opacity:1" d="M12.318 22.128c-.071-.02-.003.063 0 0zM4.344 8.936c.172.147-.061-.272 0 0zM6.692 6.765c-.159.705.728-.206 0 0z"/><path style="clip-rule:evenodd;fill-rule:evenodd;fill:#b3b4b4;fill-opacity:1" d="M4.429 9.039c.165.015-.159-.163 0 0zM2.725 7.964c.216-.037-.106-.14 0 0z"/><path style="clip-rule:evenodd;fill-rule:evenodd;fill:#b3b4b4;fill-opacity:1" d="M4.268 8.929c-.23.258.27 0 0 0zM10.994 24.646c-.768.291.806.296 0 0z"/><path style="clip-rule:evenodd;fill-rule:evenodd;fill:#b3b4b4;fill-opacity:1" d="M11.407 24.919c-.368-.444-.28.248 0 0zM11.11 25.039c.188-.069-.16-.165 0 0zM29.261 41.039c.121-.439-.246-.046 0 0zM11.818 24.977c-.56-.17-.286.182 0 0zM15.588 23.764c-.708.174.983.252 0 0zM26.837 2.039c.063-.11-.087.032 0 0z"/><path style="fill:#b3b4b4;fill-opacity:1" d="M45.637 4.602c-1.626-.945.05.882 0 0zm-.439-.01.013-.01z"/><path style="clip-rule:evenodd;fill-rule:evenodd;fill:#b3b4b4;fill-opacity:1" d="M45.41 5.111c-.502-.366.035.295 0 0zM45.441 5.176c-.001.035.09-.015 0 0zM71.475 8.589c.87.041.161-.295 0 0z"/><path style="clip-rule:evenodd;fill-rule:evenodd;fill:#b3b4b4;fill-opacity:1" d="M71.774 8.458c.015.014.09-.017 0 0z"/><path style="clip-rule:evenodd;fill-rule:evenodd;fill:#b3b4b4;fill-opacity:1" d="M71.818 8.456c-.01 0 .001.004 0 0zM71.425 8.686c-.169.913.208-.267 0 0zM56.818 22.961c-.03.006.01.015 0 0zM7.127 19.82c-.075 0-.075 0 0 0zM53.782 26.955c-.016.004-.016.004 0 0zM54.036 34.039c.182 1.043 1.155-.817 0 0zM68.833 7.944c.392.02-.004-.207 0 0zM2.953 15.533c-.323-.138.078.669 0 0zM53.783 26.955c.089-.025-.018-.06 0 0zM53.818 27.039c-.022-.109-.082.031 0 0z"/><path style="clip-rule:evenodd;fill-rule:evenodd;fill:#b3b4b4;fill-opacity:1" d="M68.831 7.958c.075.322.42-.215 0 0zM66.06 8.864c-.244-.284-.394.532 0 0zM71.501 8.039c.001.037.001.037 0 0zM71.593 8.439c.557.087-.259-.332 0 0zM12.651 20.779c-.54-.106.27.68 0 0zM69.328 7.685c.138-.004-.145-.039 0 0zM69.546 7.633c.047.045.047-.05 0 0z"/><path style="clip-rule:evenodd;fill-rule:evenodd;fill:#b3b4b4;fill-opacity:1" d="M12.818 20.798c.008-.24-.324.115 0 0zM53.383 26.878c-.423-.09.669.352 0 0zM32.809 3.583c-.66.406.38.265 0 0zM32.876 3.897c-.079-.06-.045.096 0 0z"/><path style="fill:#b3b4b4;fill-opacity:1" d="M44.866 45.408c-1.198-.992-.226-3.11.151-3.416.658.871 2.576 2.727 3.258 2.364.146-.014 3.025-1.95 1.059-3.715-1.865-1.032-2.691-3.705-.863-4.027 1.064-.453 1.187 1.822 1.707-.428-.507.64 2.145.029 1.191-.568 1.18 1.33 2.54-1.063 2.8-1.836.221-1.046 2.15-.821.898-1.604.657-.978-1.105-1.628-.466-1.595.365-.871-1.895-.929.039-.793-.718-.995-3.49-2.746-.78-2.587-2.394-.113 1.525-.822-.996-1.373-1.016.96-3.186-.756-1.299-1.503.75-.974 3.685.04.886.221-.84 1.595 1.915-1.272 2.355.744.65 1.133 2.17.233 1.776.851.872.202-1.032.264.195.332-1.642-.465-.006 2.773 1.031 1.158.681-1.801-3.4-2.504-1.36-3.928-.493-.814.834-.446.129-.995.627-.382.24-1.082 1.122.079 1.02-.528.668-2.191 2.142-2.277-1.61-.42-.497-2.482-1.805-3.468 1.5-.88 2.85 4.898 3.28 2.854-1.102-.114-1.465-2.305-.047-1.096-1.474-.856-2.712-2.965-3.052-3.339-1.889-.261 2.137 2.575-.575.888-.834-.936-2.007-1.474-2.004-.982-1.36 1.16-1.042-2.739-2.051-.743 1.15-1.233.944-3.09 3.203-2.51 1.589-.549 2.226.614 3.73-.012-2.093-1.155 1.088-2.045 1.684-.925.778-.614-.144-1.293.792-.904.902 1.498-1.855 3.508.851 4.916.731.79 3.532 3.202 2.161.82.76-.03.26-.907.344-1.352-.953-1.1.716-.317-.914-1.335-1.418-.561-1.555-2.06.155-1.798 1.22-1.43 1.406.895 2.085-.714C69.853 9.59 66.044 8.64 66.03 8.81c.766-.261.338.309 1.454-.078-1.128-1.093 1.062-.618-.385-.827 1.82-.362-.929.344 1.125.781.883-.376 3.207.822 2.004-.29 3.078.503-1.163-1.341-.391-.704-1.782-.381-.084.656-1.847-.357-2.417-.672-5.01-1.497-8.126-1.422 2.053 1.31-1.174-.364-1.446.669-1.121-1.341-1.7.053-2.029-.271-2.32-1.537-4.505.042-6.815-1.354-.19-.48-2.293.112-2.456-.476-1.834-.945-1.1 1.159-1.374 1.205-.878-1.208-2.868-.577-3.353-.299-1.857-.552-1.538-1.49-4.169-1.475.627 1.956-4.51-1.117-3.578.392.279.637-2.074-1.69-1.841-.38-1.814.843-1.893-.147-.06-.227.234-.847-.064-1.365-2.002-1.202-1.156 1.191-3.256-2.211-3.455-.716 1.111-.109-1.091.493.351.949-1.58-.472.405.108-1.587.04-1.538-.157-4.828.392-2.594 1.15-.008.604-1.414-.76-2.598.148.913.456 4.115 2.47 1.845 1.317.419-.162-3.49-1.189-1.921-.623-2.76-.04 1.966.976-.959.48-.586-.116.113-1.146-.924-.422-.586 1.723 2.645 1.433 3.067 2.463-.882-.596-2.156-1.278-1.84.265-1.726 1.378.148-1.129-1.517-1.791-.744-.954 1.231-1.092-.72-1.315-1.422-.761-.666-.059-1.868.992.673.773 2.576 1.85.107.958-1.29-.599-2.393-.363-2.439.425-1.4-.377-2.628-.073-3.247-.039-1.014.173-3.262 1.732-2.493.084-1.814-.69.554 2.075-1.645 1.118-1.064.47.03 1.331-1.758.922 1.152.925-1.75.096-1.655-.96-2.716-.764 5.728 1.068 2.105-1.023-1.914-.89-3.655-.632-3.925-.912-1.749.598.523 1.557.048 2.928 1.552.663.38 1.994-.137 2.432 1.108.2-1.1 1.29.195 2.596.62.449.374-1.935.685.224.888.204 1.45 1.064 1.286 2.291.252-1.114.3 1.233.434-.452.487-.437 1.606.793.419.873 1.094.559 2.39 1.33 2.871.094 1.247 1.125.554 2.361.375 2.754-.204.789-1.642 1.56.611 2.2 2.133.35 3.363 1.233 4.993 1.41-1.089-1.103-1.338-2.985-.137-2.688.42-2.12 3.667.408 1.15.433-.704.634 1.068 1.263 1.423 2.552-.366-1.366 2.912.809.566.356-.808.713 1.92 2.724-.666 2.583-1.158-.312-3.192-2-1.186-1.729-1.359-.269-3.806.437-2.676.79-.248.899 1.033.437.41 1.401.577.887.305 1.922 1.521 2.67.384 1.75 1.97 1.012 2.763 2.816 1.545 1.065 2.715-.005 3.933 1.465 2.163.544 5.013-.718 5.896 1.637 2.332-.033-1.22.592 1.174 1.427 1.224.17.88-2.098 1.213-.161-.131 2.32 1.645 4.943 2.6 7.309.263 2.669 2.786-.501 2.205-2.245-.917-1.891 1.803-2.209 2.465-4.161.988-.552.314-.837 1.321-1.008.075-.065-.035-1.262.288-.224.403.183.536-1.512 1.114-.181-.179-2.341 1.308 1.156 1.587.894.207.967 2.075 1.066.283 1.11 1.246.97.974 2.854 2.402 1.141.859 1.495 1.408 3.348 1.345 5.179-.113.41.122.58.165.871m9.961-11.99c.57-.017-.546.181 0 0zm2.79-12.513-.019.022zM70.818 8.282l.297.007zm-1.309-.245-.355.002zm-1.691-.018-.332.027zm-24.054 34.96.043.064zM3.603 15.697c-.978 1.137.548-1.835 0 0zM12.285 28.9l-.025-.093zm6.553-20.861c-1.01-.089-.233-.737 0 0zm11.783 21.756-.04-.046zm1.506 1.137-.023-.048zm.796-26.893-.109-.07zm5.823 31.579-.006-.037z"/><path style="clip-rule:evenodd;fill-rule:evenodd;fill:#b3b4b4;fill-opacity:1" d="M66.114 8.828c.018 0 .003-.005 0 0zM71.57 8.303c.076-.255-.21-.05 0 0zM7.19 19.859c.022.006.022.006 0 0zM45.572 4.854c-.418.254.3.191 0 0zM71.375 8.544c-.19-.035.16.288 0 0zM71.536 9.058c.627.264-.195-.255 0 0zM67.514 8.97c.001.022.001.022 0 0zM71.473 9.039c.01-.054-.094.01 0 0zM16.63 4.32c.027.004.027.004 0 0zM68.388 10.039c2.603 1.252-.174-1.288 0 0zM26.089 2.72c-.005.004-.005.004 0 0zM24.606 2.776c.008.02.008.02 0 0zM16.63 4.295c-.108-.023.03.024 0 0zM26.97 1.85c-.32.992.41-.424 0 0zM30.055 2.53c.043.225 0-.2 0 0zM33.636 3.801c-.18-.148-.023.128 0 0z"/><path style="clip-rule:evenodd;fill-rule:evenodd;fill:#b3b4b4;fill-opacity:1" d="M26.874 1.84c.06.603.14-.756 0 0zM71.231 9.039c.093.024-.07-.074 0 0zM24.911 2.753c-.334-.076-.104.256 0 0z"/><path style="clip-rule:evenodd;fill-rule:evenodd;fill:#b3b4b4;fill-opacity:1" d="M71.234 8.964c-.368-1.085-.4.763 0 0zM2.702 7.982c.056-.036-.082-.004 0 0zM3.113 15.377c-.093-.185-.152.168 0 0zM71.26 9.037c.006.005-.003-.012 0 0zM2.997 15.517c.002-.04.002-.04 0 0z"/><path style="clip-rule:evenodd;fill-rule:evenodd;fill:#b3b4b4;fill-opacity:1" d="M3.022 15.34c-.255-.433-.272.295 0 0zM26.024 2.732c-.065.012-.065.012 0 0zM32.897 3.253c.047 0-.038.11 0 0zM24.701 3.012c.13-.245-.152-.235 0 0zM70.818 8.463c.131.382.967-.129 0 0zM71.416 9.019c-.023.057.053-.006 0 0z"/><path style="clip-rule:evenodd;fill-rule:evenodd;fill:#b3b4b4;fill-opacity:1" d="M71.248 8.583c-.042.373.145-.237 0 0zM70.75 8.973c.052.021.052.021 0 0zM71.435 9.014c-.017.011.023.016 0 0zM71.38 9.039c-.304-.141.366.31 0 0zM24.25 34.128c-.062-.083-.1.079 0 0zM47.873 44.859c-.24.31.27-.189 0 0zM52.462 24.953c.058.02-.05-.097 0 0zM47.74 45.051c-.685.385.213-.002 0 0zM52.399 24.745c-.06.063.1.055 0 0zM29.632 2.353zM29.564 2.426c.022-.015.022-.015 0 0zM29.704 2.256c-.024.032-.024.032 0 0zM1.077 6.138c-.04.041.026.022 0 0zM18.794 4.562c.417.077-.215-.3 0 0zM20.266 4.758c-.085.005-.09.047 0 0z"/><path style="clip-rule:evenodd;fill-rule:evenodd;fill:#b3b4b4;fill-opacity:1" d="M29.536 2.45c.104-.045-.128-.036 0 0zM10.826 24.932c.022.005.022.005 0 0zM37.736 36.167c.01.036.01.036 0 0zM6.6 17.993c-.319-.325-.694.155 0 0zM10.724 24.819c.016.023.015.007 0 0zM10.737 24.832c.026.034.026.034 0 0z"/><path style="clip-rule:evenodd;fill-rule:evenodd;fill:#b3b4b4;fill-opacity:1" d="M6.644 17.995c-.098-.034-.018.03 0 0zM37.616 36.412c.177.386.196-.488 0 0zM47.857 4.662c.165.079-.019-.138 0 0zM43.392 42.675c-.174-.026.046.182 0 0zM43.425 43.099c-.126-.246.067.272 0 0z"/><path style="clip-rule:evenodd;fill-rule:evenodd;fill:#b3b4b4;fill-opacity:1" d="M43.438 42.811c-.019-.261-.063.14 0 0zM43.718 43.622c.007-.023.007-.023 0 0zM43.562 43.706c-.005-.01-.005-.01 0 0zM39.906 37.62c-.347.083.241.223 0 0zM40.426 38.525c.164-.236-.325-.097 0 0zM40.174 37.683c.024.04.024.04 0 0zM41.096 40.33c.326-.39-.21.022 0 0zM41.253 40.411c.114.072.012-.243 0 0zM13.355 21.121c-.164.198.19.32 0 0zM14.658 20.909c.017-.174-.172.013 0 0z"/><path style="clip-rule:evenodd;fill-rule:evenodd;fill:#b3b4b4;fill-opacity:1" d="M13.481 21.228c.115-.33-.166.07 0 0zM59.918 26.952c.086-.258-.284-.005 0 0zM60.841 20.959c-.025-.017-.025-.017 0 0zM60.049 30.519c-.177.122.155.466 0 0zM59.131 29.367c-.012.053-.012.053 0 0zM59.23 29.447c.22-.015-.11-.125 0 0zM61.045 21.097c-.082-.261-.218.057 0 0zM59.496 32.195c.291.177.312-.452 0 0zM59.006 33.581c.468-.46.074-.664 0 0zM58.561 28.948c.003-.034.003-.034 0 0zM58.15 28.016c-.005.57.22-.203 0 0zM57.966 34.515c-.11-.21-.175.092 0 0zM61.241 22.999c-.094.158.19.07 0 0zM57.025 34.816c.286.124.032-.224 0 0zM57.235 34.718c.151.234.148-.275 0 0zM62.109 25.839c.3-.266-.35-.45 0 0zM62.818 23.12c.521.165.335-.205 0 0z"/><path style="clip-rule:evenodd;fill-rule:evenodd;fill:#b3b4b4;fill-opacity:1" d="M61.418 20.964c-.226.19.53 1.442.003 1.933 1.414 1.337-.584-.852 1.529.027 2.83-1.141-.795-.876-1.532-1.96zM59.069 29.909c.005.176.087-.17 0 0zM58.625 28.568c-.058-.25-.13.11 0 0zM62.249 24.868c.01.137.125-.038 0 0z"/><path style="clip-rule:evenodd;fill-rule:evenodd;fill:#b3b4b4;fill-opacity:1" d="M62.31 24.953c.092.02-.04-.078 0 0zM62.128 23.653c.04.003.04.003 0 0zM63.63 27.953c.625.01-.327-.21 0 0zM63.296 27.818c.185.645.108-.287 0 0zM63.158 27.659c-.002.204.3-.037 0 0z"/><path style="clip-rule:evenodd;fill-rule:evenodd;fill:#b3b4b4;fill-opacity:1" d="M63.996 27.471c-.204-1.63-.781-2.14-.849-3.267-1.578-1.227.156-.077-.947-.117.223 1.264.428 1.618-.455 2.492-.509-1.199.194 1.717-.291.672-.921-.407-2.172.263-2.14 1.158 2.323.522-1.512-.02-.173.868-.09-.733.517 1.787.517.633.626 1.233-.043-2.092.88-.754.676-.305 1.118-1.178-.343-.943 1.102-1.377 1.953 1.583 1.964-.467 1.247 1.048 1.74-1.731 1.837-.275z"/><path style="clip-rule:evenodd;fill-rule:evenodd;fill:#b3b4b4;fill-opacity:1" d="M58.849 28.799c-.469-.17.187.622 0 0zM63.543 28.039c.076-.13-.178.076 0 0zM64.329 29.012c.01-.004.01-.004 0 0zM59.44 32.419c-.117.153.2.15 0 0zM58.158 28.188c-.06.304.234.029 0 0zM60.847 28.056c.065.162.185-.097 0 0zM61.269 28.039c-.324.242.268.318 0 0zM58.423 29.02c0 .037 0 .037 0 0zM59.914 30.798c-.278-.3-.081.291 0 0zM58.339 29.22c-.298-.029.17.229 0 0zM59.613 32.291c-.03-.014-.03-.014 0 0zM18.387 33.033c-1.146.47.515.1 0 0zM40.473 42.917c.012.028.012.028 0 0zM40.269 42.366c.01-.22-.063.145 0 0zM51.885 36.189c-.018-.017-.018-.017 0 0zM51.677 36.143c-.024.193.23-.175 0 0zM51.409 35.765c-.225-.153.13.167 0 0zM49.824 36.95c-.302.055.255.045 0 0zM54.555 29.962c-.776-.373.577.347 0 0zM51.15 36.492c-.155-.024.008.233 0 0zM51.032 36.52c-.015.019-.015.019 0 0zM55.335 31.069c.014.022.014.022 0 0zM55.303 31.064c-.08-.322-.4.072 0 0zM49.959 38.538c.835-2.59-2.222.93 0 0zM55.24 31.183c-.12.06.197.108 0 0zM53.86 34.664c-.133-.092.03.175 0 0zM55.018 32.225c-.149.148.172.092 0 0zM46.311 43.369c.008.006.008.006 0 0zM46.473 43.758c.024.182.107-.099 0 0zM38.628 35.985c-.105.437.219.208 0 0zM38.341 35.692c-.02-.01-.02-.01 0 0zM38.423 35.906c-.38-.453.37 1.242 0 0zM38.913 36.076c.012-.36-.223.026 0 0z"/></g></svg>