<?xml version="1.0" encoding="UTF-8" standalone="no"?>
<svg
   xmlns:dc="http://purl.org/dc/elements/1.1/"
   xmlns:cc="http://creativecommons.org/ns#"
   xmlns:rdf="http://www.w3.org/1999/02/22-rdf-syntax-ns#"
   xmlns:svg="http://www.w3.org/2000/svg"
   xmlns="http://www.w3.org/2000/svg"
   xmlns:sodipodi="http://sodipodi.sourceforge.net/DTD/sodipodi-0.dtd"
   xmlns:inkscape="http://www.inkscape.org/namespaces/inkscape"
   inkscape:version="1.0 (4035a4fb49, 2020-05-01)"
   sodipodi:docname="europe.svg"
   xml:space="preserve"
   enable-background="new 0 0 69.617 61.243"
   viewBox="0 0 69.617 61.243"
   height="61.243px"
   width="69.617px"
   y="0px"
   x="0px"
   id="Layer_1"
   version="1.1"><metadata
   id="metadata329"><rdf:RDF><cc:Work
       rdf:about=""><dc:format>image/svg+xml</dc:format><dc:type
         rdf:resource="http://purl.org/dc/dcmitype/StillImage" /><dc:title></dc:title></cc:Work></rdf:RDF></metadata><defs
   id="defs327" /><sodipodi:namedview
   inkscape:current-layer="g1169"
   inkscape:window-maximized="0"
   inkscape:window-y="0"
   inkscape:window-x="0"
   inkscape:cy="28.318219"
   inkscape:cx="2.8556318"
   inkscape:zoom="13.74851"
   showgrid="false"
   id="namedview325"
   inkscape:window-height="1410"
   inkscape:window-width="2493"
   inkscape:pageshadow="2"
   inkscape:pageopacity="0"
   guidetolerance="10"
   gridtolerance="10"
   objecttolerance="10"
   borderopacity="1"
   bordercolor="#666666"
   pagecolor="#ffffff" />
<g
   id="g322">
	
	
	
	
	
	
	
	
	
	
	
	
	
	
	
	
	
	
	
	
	
	
	
	
	
	
	
	
	
	
	
	
	
	
	
	
	
	
	
	
	
	
	
	
	
	
	
	
	
	
	
	
	
	
	
	
	
	
	
	
	
	
	
	
	
	
	
	
	
	
	
	
	
	
	
	
	<g
   transform="translate(0.07371926,0.03774494)"
   id="g1169"><polygon
     style="fill:#b3b4b4;fill-opacity:1"
     fill="#b3b4b4"
     points="34.778,55.327 34.701,55.356 34.554,55.476 34.362,55.549 34.229,55.554 34.04,55.601 33.687,55.558 33.52,55.588 33.302,55.666 33.222,55.661 33.143,55.631 32.86,55.444 32.774,55.43 32.7,55.4 32.652,55.302 32.562,55.282 32.369,55.284 32.217,55.393 32.206,55.478 32.068,55.556 31.99,55.568 31.913,55.515 31.74,55.298 31.693,55.373 31.637,55.435 31.544,55.477 31.465,55.535 31.376,55.744 31.301,55.961 31.33,56.045 31.438,56.236 31.607,56.374 31.694,56.415 31.781,56.423 31.949,56.409 32.028,56.417 32.201,56.535 32.394,56.584 32.47,56.635 32.536,56.711 32.679,56.824 33.016,56.997 33.335,57.214 33.492,57.279 33.668,57.266 33.845,57.273 34.018,57.378 34.181,57.513 34.385,57.832 34.465,57.873 34.553,57.891 34.795,57.994 34.963,57.97 35.132,58.025 35.296,58.036 35.3,57.946 35.281,57.857 35.297,57.758 35.335,57.662 35.132,57.583 35.026,57.439 35.026,57.362 35.026,57.285 35.026,57.209 34.993,57.08 35.026,57.015 35.026,56.945 35.142,56.898 35.192,56.85 35.221,56.775 35.233,56.623 35.289,56.488 35.343,56.383 35.382,56.271 35.406,56.143 35.446,56.025 35.795,55.517 35.843,55.437 35.94,55.23 36.024,55.143 35.925,55.092 35.823,55.101 35.591,55.235 35.501,55.211 35.419,55.246 35.349,55.325 35.265,55.353 35.062,55.326 34.861,55.318 "
     id="polygon136" /><path
     d="M 7.479,21.49 C 7.8105813,21.638008 7.3798724,21.564945 7.314,21.766 7.3407694,21.935661 7.6877428,21.976965 7.5776499,22.210854 7.5307297,22.424653 7.3230127,22.559911 7.154,22.662 7.5015891,22.745389 7.0520767,22.907929 6.9,22.895 6.5769866,23.03606 7.0821316,22.969177 7.0524036,23.208363 7.3445428,23.419999 7.6263809,23.118184 7.8730231,22.976444 8.1617289,22.796293 7.7842595,23.118262 7.7848383,23.242307 7.6254464,23.382074 7.5369934,23.601317 7.4482105,23.794979 7.3940436,24.005674 7.2666491,24.181389 7.2725842,24.41081 7.3122545,24.610269 7.4802065,24.479247 7.2175495,24.709327 7.1100765,24.875772 7.0276712,25.069184 6.983,25.262 7.1565876,25.447992 7.3165155,25.176765 7.3583726,25.019379 7.4682624,24.763409 7.653102,24.513251 7.558,24.225 7.7066941,24.027783 7.9461131,23.908365 8.16,23.789 7.9693403,23.906049 7.6815436,24.146669 7.811,24.371 7.905484,24.211553 8.1268573,24.220596 8.2581524,24.0782 8.5038779,23.774326 8.21287,24.092912 8.4482949,24.176632 8.7913501,24.356012 8.4792005,24.218997 8.308459,24.330926 8.1724417,24.509182 8.156437,24.776411 8.4414167,24.775033 8.6159236,24.876176 8.9003802,24.861354 9.026,24.974066 8.9375184,25.131648 8.6331034,25.135266 8.4675762,25.249343 8.2412911,25.423887 8.0450835,25.65019 7.895,25.897 7.6126333,25.759702 7.6933209,26.184767 7.851,26.282 8.0602086,26.619007 8.0044454,26.008528 8.2476084,26.182533 8.4347203,26.306424 8.6560989,26.297633 8.831,26.156 8.9954149,26.150671 9.1485069,26.335834 9.3466719,26.217054 9.5016698,26.078088 9.7183606,26.075987 9.8865058,25.959668 10.09892,25.924609 10.323091,25.930779 10.535,25.957 10.205962,25.990308 9.9207576,26.208194 9.7937741,26.512469 9.6152592,26.768074 9.9220844,27.018546 10.067856,27.212073 10.201128,27.451592 10.383916,27.302582 10.57897,27.280972 10.753379,27.313081 10.602439,27.691154 10.436432,27.713368 10.170487,27.857426 10.56719,28.032569 10.424751,28.117427 10.237869,28.255891 10.2528,28.494702 10.410231,28.647753 10.708485,28.718723 10.626295,28.870979 10.393819,28.711439 10.216033,28.393118 10.084263,28.722991 10.160807,28.82774 9.9846893,28.696946 9.7815468,28.662375 9.5832445,28.762722 9.3721678,28.772648 9.1637117,28.759045 8.9679371,28.864193 8.7183799,28.927728 8.5162726,29.092091 8.3605073,29.283577 8.2404149,29.329224 7.8164295,29.612639 8.0895458,29.611138 8.30544,29.506775 8.5381329,29.415569 8.786,29.435 8.6863471,29.625167 8.9151335,29.78046 8.767,29.963 8.9776319,30.103635 8.7270858,30.225526 8.6442657,30.422544 8.3546648,30.718118 7.9158381,30.767752 7.5562076,30.9475 7.3880786,30.977772 7.0687968,31.084246 7.0755432,31.230252 7.1803596,31.371536 7.1582876,31.600602 7.4281115,31.626177 7.6777745,31.694385 7.8903606,31.369783 8.1599943,31.453816 8.2302138,31.57715 8.7493366,31.564235 8.484,31.654 8.2655648,31.86836 8.7418761,31.694212 8.8644462,31.715923 9.1034369,31.792937 9.2239067,32.086946 9.5010435,32.047156 9.7996058,32.127858 9.9777948,31.758194 10.277048,31.767938 10.510937,31.746042 10.660422,31.536756 10.874,31.458 10.595987,31.768369 10.221591,31.971093 9.973,32.31 9.604556,32.541333 9.1685082,32.254417 8.76856,32.352785 8.5499661,32.355914 8.3311913,32.384891 8.2643004,32.628774 8.1562735,32.797658 7.8101767,32.686884 7.8462988,32.983402 7.7931874,33.254815 7.4472941,33.317673 7.328,33.551 7.1010696,33.601489 6.9978547,33.859894 6.7878833,33.959838 6.6313408,34.150494 6.2215744,34.041728 6.206,34.347 6.3371954,34.401616 6.6084826,34.196082 6.7481964,34.40736 6.9650974,34.547234 7.0134385,34.190797 7.2029842,34.145676 7.5029869,33.923654 7.8809536,33.881963 8.234,33.822 8.3799256,33.82804 8.5889211,33.960397 8.7451299,34.045769 9.0109506,34.181326 9.1770522,33.808691 9.2407742,33.598876 9.3278125,33.284402 9.7083259,33.331456 9.957,33.233 10.242799,33.160085 10.457617,33.397472 10.718,33.437 10.891035,33.259236 11.177324,33.522844 11.37,33.388 11.135149,33.115002 11.573893,33.284337 11.727256,33.20564 11.885432,33.221789 12.26102,33.140709 12.210626,32.995132 12.090375,32.870545 12.545939,33.04764 12.673684,33.049735 13.001272,33.257958 13.365577,33.025176 13.718408,33.064803 14.044161,33.057995 14.389288,33.253214 14.68896,33.042857 14.894087,33.009802 15.069633,32.868422 15.265014,32.861304 15.496214,32.935914 15.487357,32.564464 15.740737,32.575739 15.975913,32.537106 16.109424,32.367924 16.075456,32.129869 16.089199,31.753839 16.07147,31.379242 16.024,31.006 15.802908,31.025971 15.533422,30.964929 15.343905,31.037757 15.227142,31.274407 15.057516,31.491372 15.032,31.762 14.768255,31.895905 14.675491,31.895858 15.010062,31.831492 15.184175,31.874749 15.57427,31.720257 15.373,31.533969 15.023687,31.493452 15.534705,31.276959 15.673863,31.377192 15.97706,31.424626 15.878537,31.112191 15.95,31.056 16.119488,31.097756 16.307669,30.905839 16.409592,30.771479 16.479023,30.46874 16.730953,30.19951 16.621371,29.871522 16.539376,29.629691 16.258146,29.518444 16.041,29.42 15.767184,29.356451 15.488716,29.344573 15.209167,29.335563 14.963026,29.29113 14.884273,29.742837 14.625644,29.583518 14.306726,29.506791 14.434297,29.346355 14.647754,29.217617 14.888837,29.119928 14.817824,28.861937 14.714901,28.686497 14.551581,28.421479 14.258059,28.292164 14.021,28.104 13.917464,28.131542 13.375302,28.047054 13.657,28.048 13.866523,28.085898 14.080955,27.963968 14.243985,28.151155 14.418538,28.208592 14.673222,28.301543 14.45632,28.057059 14.371179,27.869149 14.07455,27.645086 14.252,27.442 14.483968,27.334565 14.017014,27.227437 13.96652,27.076514 13.764439,26.828092 13.521839,26.614493 13.201343,26.542311 12.881802,26.5018 12.783943,26.184995 12.715833,25.9179 12.58519,25.585128 12.594098,25.197627 12.42934,24.88571 12.185824,24.733633 12.030108,24.463355 11.787218,24.322331 11.466152,24.200857 11.093971,24.016438 10.769662,24.229986 10.506779,24.300544 10.220749,24.166324 9.949,24.156 9.5873631,23.995508 9.8494284,24.070529 10.090158,24.122418 10.383182,24.210704 10.605585,23.960478 10.840027,23.853327 10.994243,23.918006 11.413805,23.717428 11.154662,23.600872 10.924443,23.430734 10.651725,23.569322 10.398,23.57 10.632229,23.480518 10.8594,23.376416 11.118,23.368 11.462825,23.266224 11.608425,22.909409 11.870533,22.697682 12.045855,22.476638 12.141131,22.210451 12.291393,21.979354 12.428281,21.827715 12.693965,21.69316 12.477614,21.476255 12.307274,21.209589 11.993038,21.402965 11.744619,21.350627 11.452928,21.333817 11.157191,21.339732 10.871862,21.360871 10.412276,21.178874 9.9880609,21.561006 9.527,21.529 9.5292897,21.309385 9.9836261,21.236186 9.868,21.091 9.5401904,21.115557 9.8342319,20.794794 10.004326,20.77326 10.300636,20.591449 10.604722,20.415585 10.90094,20.239109 11.007963,20.126377 11.105051,19.854245 11.06811,19.761438 10.780425,19.712878 10.498824,19.820069 10.210674,19.832038 9.9114563,19.892227 9.6010506,19.870989 9.308,19.968 9.2099794,19.730873 8.9485425,20.125654 8.834,19.868 8.6251684,19.770094 8.4378093,19.946864 8.4467217,20.156912 8.5881401,20.43074 8.393942,20.414759 8.1459439,20.411475 8.0578934,20.498007 7.8684202,20.753245 8.0881466,20.846601 8.3927503,21.070567 8.1173871,20.95977 7.9348796,21.025708 7.6995663,20.952322 7.5424956,21.109495 7.4786416,21.324565 7.4394739,21.377299 7.4488824,21.435859 7.479,21.49 Z"
     style="fill:#b3b4b4;fill-opacity:1"
     id="polygon22" /><path
     style="fill:#b3b4b4;fill-opacity:1"
     d="M 69.546,37.496 C 69.038481,37.098929 69.286685,36.556919 69.337343,36.453321 68.656873,36.255073 70.124807,35.681317 69.349,35.185 68.615553,35.15747 68.034887,34.72834 67.34,34.563 66.702163,34.284971 66.221354,34.896993 65.781,33.971 65.224489,33.421429 64.514176,34.388706 63.932,33.938 63.389258,33.642919 62.639106,33.983403 62.63,33.09 62.494569,32.431999 61.924923,32.425166 61.328199,32.335588 60.396012,32.329247 61.092363,31.381281 61.892948,31.635742 61.72969,31.665673 60.49316,31.118305 60.162748,30.485131 59.503379,30.254719 58.856273,30.670249 58.198,30.503 58.071453,31.400167 56.823706,30.679719 57.092,30.069 57.010653,29.687455 56.048253,28.940283 57.019,28.945 57.512263,29.428236 58.896786,28.534395 58.86771,28.615841 58.069583,28.561458 57.837738,27.759641 57,27.904 57.322698,27.224721 55.772519,27.218999 56.011444,26.553803 55.153078,26.375644 55.931726,25.769806 55.407,25.357 55.778239,24.774631 54.77508,24.557177 54.365438,24.453694 53.734556,24.493827 53.994252,21.919741 53.752713,23.812458 53.405483,25.156899 53.325072,23.783325 53.066844,23.213312 52.779343,22.837541 52.790705,24.553887 51.918,24.086 51.628958,23.744787 51.563274,22.740529 50.939,22.763 50.807108,21.931265 52.896144,22.250003 51.263,21.968 49.410736,21.474172 53.267149,21.703001 51.382061,21.493023 49.435761,21.171811 52.583253,21.031248 51.701531,21.028667 51.13697,21.313089 49.888756,20.268167 50.847,20.098 51.31623,19.415435 50.082943,19.216026 50.974,18.588 51.020302,18.144256 49.776384,17.914886 49.24428,18.027816 48.272726,17.910797 47.733827,18.145431 46.950591,18.004 46.284841,18.46551 45.506346,18.497123 45.161,19.041 45.357409,19.588095 45.197932,19.766592 45.790878,20.264568 46.63244,20.142149 46.753032,20.288013 46.411,21.184 47.094292,22.006863 45.953586,22.937832 45.196,22.347 44.751358,21.534951 43.967574,21.097421 43.105,21.542 42.741158,22.269786 42.175766,22.877601 42.328,23.746 42.33985,24.64675 42.785264,25.454016 43.80125,25.378916 44.874802,24.997411 41.965336,24.65118 43.162,25.494 43.661016,25.953493 45.1066,25.504848 44.784508,26.454017 45.137654,27.464408 43.66428,26.769634 43.039547,26.924258 41.888745,26.866212 40.762319,26.781034 39.658882,26.954377 38.437908,26.245906 40.189676,26.56837 38.908,26.153 37.812179,26.140899 36.746207,26.535882 35.908,27.125 35.038229,27.110515 34.140611,27.859226 33.335157,27.578174 32.456999,27.112482 33.401409,28.094931 33.944,27.88 33.833145,28.726702 32.857159,27.315268 32.494819,27.334392 31.949946,26.852693 31.167065,26.524626 30.661,27.29 30.182842,27.463741 28.453457,28.008426 29.26,27.1 29.069647,26.78069 27.449452,27.003175 27.878,26.589 27.496674,25.93399 27.086099,25.8936 27.359,25.176 27.639974,24.431195 28.094153,24.667018 28.282,23.826 29.120809,23.968869 29.268347,23.158302 28.238,23.138 28.329176,22.449163 28.495712,21.816966 28.672,21.265 27.788704,21.236435 27.495748,22.349725 26.637607,22.241816 25.223204,22.365151 26.430705,22.808583 27.028,22.915 25.370492,23.644367 26.713646,21.959341 26.841357,22.800348 26.627159,23.120104 25.818803,23.20308 25.445943,23.320842 25.176386,24.398055 25.632095,24.912012 26.087,25.613 25.925138,25.878646 26.716063,27.488678 26.016282,26.578025 26.064888,25.205081 26.369708,27.266052 26.469,27.688 27.480438,28.184228 27.719736,28.470524 26.609726,27.838667 25.011801,27.594487 26.65832,28.751684 27.025,28.453148 26.339009,27.936907 25.317076,28.881696 25.16577,28.111323 24.194966,27.682656 23.904437,28.794238 23.746,28.73 23.189307,28.348057 22.072219,28.542634 21.605832,29.061632 20.705708,29.303138 20.578571,29.880819 20.179,30.673 19.484052,31.129815 19.626258,31.756428 19.989,31.927 19.093816,31.474165 18.534981,32.02308 19.771042,32.036691 20.295389,32.230398 19.24131,32.055358 18.825,32.062 18.013064,32.382217 17.191806,32.665111 16.38,32.942 16.229302,33.790307 16.094055,34.706566 14.939163,34.70235 13.41759,34.943259 15.014619,35.555943 13.977749,35.613495 13.458039,35.62446 12.134548,35.861168 12.216,35.043 10.764787,34.676376 11.857501,35.780691 11.689575,36.526086 12.106761,37.257704 10.783715,36.610334 10.303124,36.928893 9.7219753,36.700624 9.0236401,36.44492 8.212,36.748 7.3210689,36.773 6.8622989,37.421492 7.902,37.458 7.4120122,37.419729 7.3884712,37.903696 7.596,38.046 7.8848223,38.285308 9.2734624,38.843334 9.246,38.006 10.224098,38.323913 9.5180239,39.026436 10.162,38.007 10.013416,39.06655 10.603489,39.339472 11.154,39.355 10.279069,39.043878 10.803239,40.532708 11.408063,40.758374 12.234219,40.737809 12.135127,41.996109 11.907,42.061 12.694412,42.235918 12.810303,44.037134 12.365,42.597 11.728124,41.780092 11.713141,43.999653 11.765,43.884 11.845037,44.05574 11.363981,45.418061 11.170638,46.054622 10.606206,46.527558 9.7714955,46.194116 9.121,46.122 8.4684218,46.171847 7.7336858,45.88046 6.9911514,46.162932 5.7154171,45.920773 4.5091239,45.694294 3.221,45.922 2.7643964,45.516468 1.5826611,45.423511 1.496,46.122 0.9900997,46.348404 -0.49735214,46.407176 0.252,47.209 0.33252911,47.487853 0.59237743,47.73688 0.62,48.126 -0.02737426,48.917704 0.76233623,48.547763 1.349,48.432 1.1224563,49.217122 1.779696,48.698351 2.314,48.913 2.7184285,48.799404 3.5489012,48.392008 3.7,48.995 4.5022058,49.389638 3.7317286,49.815455 3.1348785,50.263665 3.0380255,50.736861 3.3559075,51.553279 2.775,51.856 3.5032615,52.614557 1.7657577,52.432059 2.086,52.843 2.6191407,53.499571 2.7342521,53.930736 2.165,54.598 2.5316792,55.395133 2.6892294,55.42117 1.855,56.129 1.3133737,57.377079 2.6014543,56.828137 2.8728824,57.308819 3.7731274,57.793759 3.160505,57.640816 3.5030639,58.486556 3.7027056,59.216268 4.7500315,59.478263 4.9132776,58.724696 5.5855889,58.333924 6.2703376,57.92498 7.116,57.91 7.8078292,57.918615 8.5473434,58.076246 9.169,57.773 10.094856,58.261956 10.028398,56.590469 10.902,56.435 12.024372,56.717816 11.555473,55.844548 12.09451,55.267045 12.35189,54.553189 13.891478,54.400734 12.700071,53.726834 12.047148,52.541111 13.567061,51.988525 13.982,51.063 14.518751,50.894597 14.27743,50.104329 15.372092,50.059882 16.299631,49.952359 16.97047,49.283531 17.786,48.87 18.00507,48.237165 17.965501,48.010326 17.711401,47.275727 17.728934,46.528895 18.71582,46.02105 19.284,45.907 19.888961,46.493114 20.38146,45.94993 20.987549,46.10407 20.578902,46.363769 21.950468,46.932793 22.413,46.645 23.057908,46.512945 23.410346,45.773307 24.024,45.553 24.226047,45.592652 25.337261,45.194321 25.669,44.548 26.495761,44.165272 27.237672,45.04068 28.01,45.241 28.324391,45.910171 28.294724,46.812912 28.834,47.158 29.375162,47.920883 29.557548,47.800335 30.281482,48.390681 30.954202,48.869941 31.570426,49.787864 32.353,49.891 33.233838,49.54262 33.380538,50.733677 33.928568,50.704585 34.060907,51.30921 34.733789,50.635465 35.004,51.48 34.995762,51.891379 35.819555,53.816347 36.051,52.499 36.374286,52.813716 37.033725,53.938306 36.676354,54.282058 36.453527,54.556122 35.572418,55.744417 36.490688,55.74071 37.273111,55.441017 37.156886,54.335798 37.811282,53.963081 38.848419,53.89631 37.825458,52.628252 37.279,52.464 37.344045,51.887129 37.997907,50.754862 38.532,51.551 39.241596,51.309266 40.041282,53.067671 40.097,51.764 39.151286,50.562235 37.579461,50.218138 36.301,49.484 37.16725,48.633079 35.989887,48.747206 35.223,48.745 34.106121,48.317311 33.320578,47.359531 33.052,46.209 32.49959,45.310484 30.845523,45.250934 30.958,43.89 31.823514,43.634615 30.431864,42.743439 31.243503,42.330114 31.154882,42.826487 32.348352,41.590056 32.461556,42.193213 33.072984,43.841383 32.963084,41.691539 32.893,42.986 33.297594,44.538308 33.613647,42.764534 34.140612,42.717986 35.0303,43.016486 34.416152,44.125577 35.278,44.485 36.058654,43.759422 34.443126,44.469628 35.502309,45.16323 36.102592,45.71959 36.434105,46.045948 37.218082,46.081278 37.765445,46.025578 38.980664,47.62368 38.757381,46.619738 37.710032,45.251491 37.786103,47.08463 38.978654,47.176583 39.747305,47.701857 40.319425,47.892731 40.941,48.527 41.767476,48.899689 41.521569,49.406579 41.489,50.199 41.485571,51.00637 41.164963,51.492131 41.730356,51.862012 42.558076,52.199994 42.602305,53.216939 43.380589,53.648854 44.294113,53.89792 44.032123,53.776976 43.587,54.159 44.202936,54.926968 44.240529,54.957301 45.005,54.981 45.816154,54.762272 46.303298,55.043556 47.052,55.271 47.159624,55.837302 46.374482,55.563418 45.799,55.285 45.143411,54.797952 44.604529,55.315759 44.194,55.778 44.725007,56.294667 45.059503,56.836666 45.071576,57.587733 45.500468,57.89995 45.75412,57.261753 46.721124,58.042537 47.415445,59.108843 45.720763,57.452601 46.898161,58.160343 47.578547,59.007587 46.975336,57.142713 46.676135,56.794863 46.215607,55.967573 48.077489,57.341205 47.875348,56.565632 47.3367,56.485055 46.5514,55.643526 47.551,55.647 48.130197,55.720172 48.774156,56.747855 48.432,55.377 47.985034,54.826299 47.278713,54.487213 46.585943,54.189402 46.111413,54.002431 47.072491,53.76825 46.805,53.213 47.634199,54.123396 46.99222,52.856075 46.534,52.367 45.176667,51.754909 47.827135,51.162896 46.607,51.222 46.382631,51.584994 48.213983,52.361377 47.436,52.023 47.016895,51.167674 48.889989,52.670613 47.786,51.645 48.61183,51.601321 48.977739,51.960565 47.93,51.297 47.527207,50.975703 48.046275,52.890172 48.424331,51.173379 48.672949,50.357131 49.565386,50.486145 50.213352,50.539348 50.747625,50.690092 51.580608,51.077918 51.506,50.211 51.771929,49.780502 52.076558,49.336496 51.423,49.026 51.831557,48.791463 52.514814,48.211401 53.018885,48.686481 53.312346,48.717732 53.267322,45.950368 53.516423,47.653676 53.929083,49.012096 53.537098,48.256985 53.117527,47.68928 53.659176,47.266125 53.634001,46.161853 54.025,46.018 53.792218,45.327209 55.160448,44.084499 54.094598,44.165989 54.332925,44.320455 55.035474,42.807874 54.927,43.833 56.05375,43.966409 55.815384,42.604691 55.6,42 56.339381,42.006301 57.018398,41.294236 57.116,40.544 57.908619,40.012714 58.505756,40.808374 58.625255,39.921898 58.218305,38.505285 58.668045,40.979037 59.466412,40.475798 59.937579,40.827077 57.383962,40.363892 58.626,40.701 58.63894,40.894554 59.021631,41.384038 59.891062,41.305826 60.628265,41.009892 61.942464,41.654445 60.581,41.954 59.423136,42.557848 59.967812,42.614723 60.863,42.967 61.978792,42.920899 60.689126,44.577969 61.875205,44.472458 62.525581,44.147028 63.103019,43.662445 63.75526,43.516683 64.017471,42.546396 65.472453,43.898101 65.524528,42.585137 64.811515,42.175914 63.936468,43.205048 63.436646,42.236557 62.608439,41.90981 63.104499,40.390943 63.503,41.019 62.796682,41.947646 64.091092,40.050652 64.633023,40.362266 65.458032,40.067445 65.867322,39.99908 66.07785,40.961868 66.345544,40.658821 66.899282,39.720756 67.437,39.549 67.427762,39.122827 67.352761,38.648548 68.015,38.495 68.447355,37.918956 69.693752,38.748299 69.619,37.575 L 69.607,37.521 Z M 23.51,43.9 23.496,43.92 Z M 23.432,43.676 C 23.19302,43.585894 23.502632,43.708793 23.432,43.676 Z M 23.318,44.117 C 23.248181,44.221976 23.248181,44.221976 23.318,44.117 Z M 23.409,43.969 C 23.474184,43.911046 23.32183,44.086743 23.409,43.969 Z M 23.457,42.884 C 22.568559,43.459349 24.298027,42.238855 23.457,42.884 Z M 22.096,32.523 22.094,32.532 Z M 23.8,30.355 C 23.8637,30.592271 23.655091,30.067545 23.8,30.355 Z M 24.219,38.858 C 24.793306,38.347202 23.87238,39.184109 24.219,38.858 Z M 24.408,38.158 C 24.56998,37.14559 24.364994,38.389787 24.408,38.158 Z M 24.401,37.879 C 24.493268,37.565672 24.43392,37.767207 24.401,37.879 Z M 23.195,40.862 23.217,40.959 Z M 23.261,41.027 C 23.164212,41.305806 23.199532,41.204064 23.261,41.027 Z M 23.204,41.896 23.216,41.866 Z M 23.205,41.965 C 23.2587,42.160433 23.177637,41.813636 23.205,41.965 Z M 23.538,41.64 C 23.408499,41.417996 23.397743,41.405683 23.538,41.64 Z M 23.503,35.876 C 23.688665,35.946718 23.770705,36.064819 23.503,35.876 Z M 23.366,30.872 23.361,30.885 Z M 23.467,31.045 C 23.441548,31.112967 23.441548,31.112967 23.467,31.045 Z M 23.42,39.058 23.448,39.116 Z M 23.559,39.154 23.545,39.14 Z M 23.797,38.953 C 23.70392,38.774502 23.494081,38.914213 23.797,38.953 Z M 23.545,30.776 C 23.394778,30.87179 23.812558,30.594822 23.545,30.776 Z M 23.789,30.467 C 23.726677,30.679018 23.726677,30.679018 23.789,30.467 Z M 23.649,30.252 C 23.441802,30.251082 23.773843,30.248522 23.649,30.252 Z M 23.38,30.023 23.375,30.043 Z M 23.349,30.912 C 23.388354,31.004961 23.388354,31.004961 23.349,30.912 Z M 23.257,35.952 C 23.023328,35.640775 22.982915,35.595155 23.257,35.952 Z M 22.884,35.456 C 22.49296,35.260319 23.401743,35.885125 22.884,35.456 Z M 22.198,40.758 22.206,40.722 Z M 22.266,35.452 C 21.774034,35.393353 22.90174,35.362702 22.266,35.452 Z M 21.824,33.012 C 21.918468,33.169998 21.918468,33.169998 21.824,33.012 Z M 22.619,35.386 C 22.683768,35.421483 22.683768,35.421483 22.619,35.386 Z M 22.441,32.407 C 22.438199,32.340231 22.438199,32.340231 22.441,32.407 Z M 22.521,32.455 22.497,32.442 Z M 22.528,32.201 C 22.637682,31.971288 22.651208,31.92726 22.528,32.201 Z M 22.62,31.961 C 22.518458,31.717583 22.496285,31.683144 22.62,31.961 Z M 22.431,31.601 C 22.138667,31.236079 22.537785,31.712545 22.431,31.601 Z M 22.387,32.906 22.366,32.876 Z M 22.263,32.788 C 21.948346,32.708145 22.245123,32.764409 22.263,32.788 Z M 22.257,33.173 22.165,33.171 Z M 21.982,32.76 C 21.942268,32.847636 22.136933,32.480092 21.982,32.76 Z M 21.969,32.811 21.978,32.823 Z M 21.981,32.827 C 21.743319,33.048221 21.838219,33.000912 21.981,32.827 Z M 21.963,35.29 21.967,35.295 Z M 22.061,41.133 22.091,41.12 Z M 22.242,40.801 C 22.305026,40.889424 22.305026,40.889424 22.242,40.801 Z M 22.285,40.559 C 22.34444,40.426642 22.519563,40.224232 22.285,40.559 Z M 22.425,40.949 22.433,40.937 Z M 22.705,40.183 22.672,40.206 Z M 22.752,39.883 C 22.762922,39.838782 22.733929,40.009858 22.752,39.883 Z M 23.078,39.706 C 23.780789,38.957373 23.532188,39.218232 23.078,39.706 Z M 23.183,40.78 C 23.420784,40.835501 22.603691,40.678796 23.183,40.78 Z M 23.67,42.52 C 23.147334,41.919413 22.917038,41.599737 23.67,42.52 Z M 24.306,44.854 C 24.541086,44.830797 23.791118,44.945868 24.306,44.854 Z M 24.399,44.946 24.404,44.965 Z M 24.651,37.304 C 24.736916,36.891626 24.72451,36.999476 24.651,37.304 Z M 24.838,36.812 C 25.123997,36.517888 25.189295,36.450994 24.838,36.812 Z M 25.186,36.447 C 25.20088,36.230865 25.20088,36.230865 25.186,36.447 Z M 24.73,36.16 C 25.696407,36.38755 24.743222,36.147941 24.73,36.16 Z M 24.326,36.053 C 24.196454,35.922806 24.196454,35.922806 24.326,36.053 Z M 24.119,35.986 C 23.707992,36.032602 23.494926,36.036654 24.119,35.986 Z M 24.056,28.806 C 24.024792,29.264348 24.027395,29.250941 24.056,28.806 Z M 23.967,29.43 C 23.850869,29.661624 23.850869,29.661624 23.967,29.43 Z M 23.781,29.919 H 23.709 Z M 23.365,29.971 23.363,29.981 Z M 23.341,30.097 23.346,30.115 Z M 22.875,31.304 C 23.451135,31.151487 22.64705,31.33752 22.875,31.304 Z M 22.297,31.351 C 23.036181,31.066651 22.404089,31.281931 22.297,31.351 Z M 22.245,32.67 C 22.576138,32.52653 21.934445,32.741633 22.245,32.67 Z M 22.14,32.675 C 22.13384,32.727064 22.13384,32.727064 22.14,32.675 Z M 22.025,32.461 C 21.917185,32.422217 21.917185,32.422217 22.025,32.461 Z M 21.265,32.257 C 21.146068,32.223387 20.966664,31.941335 21.265,32.257 Z M 21.071,31.988 C 21.040045,31.91888 21.040045,31.91888 21.071,31.988 Z M 20.991,31.955 C 20.902034,32.031515 20.902034,32.031515 20.991,31.955 Z M 20.773,32.042 C 21.141672,32.035301 20.674096,32.029879 20.773,32.042 Z M 20.712,34.244 20.679,34.227 Z M 20.69,31.913 C 20.730674,31.957264 20.662752,31.888125 20.69,31.913 Z M 20.344,31.963 C 20.931609,32.101305 19.980839,31.854807 20.344,31.963 Z M 20.181,31.972 20.142,32 Z M 20.156,32.108 C 20.073314,32.133069 20.073314,32.133069 20.156,32.108 Z M 19.788,34.317 C 19.690834,34.195826 19.690834,34.195826 19.788,34.317 Z M 19.774,34.052 19.7,33.997 Z M 19.726,34.44 19.725,34.442 Z M 19.774,34.39 C 19.819198,34.308811 19.678853,34.514229 19.774,34.39 Z M 19.466,32.381 C 19.85335,32.299614 19.124968,32.411679 19.466,32.381 Z M 19.282,32.312 C 19.248703,32.284399 19.248703,32.284399 19.282,32.312 Z M 18.881,32.321 C 19.028657,32.283816 18.692266,32.336555 18.881,32.321 Z M 18.517,33.372 18.512,33.326 Z M 17.584,32.655 C 17.72089,32.90723 17.608354,32.768951 17.577,32.6 Z M 15.793,47.656 V 47.639 Z M 15.753,47.573 C 15.953839,47.703264 15.429979,47.431008 15.753,47.573 Z M 11.454,46.71 11.438,46.714 Z M 11.191,46.761 11.214,46.722 Z M 11.309,46.542 11.282,46.625 Z M 10.881,46.351 C 10.609925,46.080369 10.882409,46.380659 10.881,46.351 Z M 11.058,46.397 C 11.318167,46.42437 11.303254,46.457825 11.058,46.397 Z M 11.217,46.795 11.23,46.802 Z M 11.359,46.799 C 11.412763,46.726117 11.412763,46.726117 11.359,46.799 Z M 11.452,46.726 11.45,46.741 Z M 11.672,46.865 C 12.073796,47.010518 12.147052,47.017025 11.672,46.865 Z M 12.238,47.035 12.242,47.042 Z M 12.251,47.05 C 12.553424,47.317906 12.526991,47.281994 12.251,47.05 Z M 12.77,47.2 C 12.872609,47.172451 12.872609,47.172451 12.77,47.2 Z M 13.093,47.322 C 12.530915,46.960544 13.397053,47.539172 13.093,47.322 Z M 13.583,47.373 C 13.110348,47.42798 13.705535,47.381067 13.583,47.373 Z M 13.721,47.419 C 13.779279,47.416288 13.779279,47.416288 13.721,47.419 Z M 14.037,47.431 C 13.696682,47.419927 14.581163,47.426386 14.037,47.431 Z M 14.218,47.406 14.237,47.258 Z M 14.309,47.154 C 14.200868,47.159521 14.593015,47.172888 14.309,47.154 Z M 15.753,47.71 C 15.833578,47.572417 15.689274,47.843467 15.753,47.71 Z M 16.018,47.863 C 16.111659,47.948955 16.111659,47.948955 16.018,47.863 Z M 16.201,48.01 C 16.359274,47.921115 16.359274,47.921115 16.201,48.01 Z M 17.013,48.027 C 17.124792,48.031 17.124792,48.031 17.013,48.027 Z M 17.242,47.907 C 16.867865,48.004597 17.724001,47.765602 17.242,47.907 Z M 17.564,47.812 C 17.260392,47.822059 17.818936,47.834337 17.564,47.812 Z M 17.847,47.875 C 17.76834,47.867555 17.76834,47.867555 17.847,47.875 Z M 17.653,32.956 C 17.51947,32.731184 17.936379,33.34527 17.653,32.956 Z M 17.866,33.174 C 17.470784,32.851053 18.173856,33.403764 17.866,33.174 Z M 18.004,33.234 C 18.076387,33.230228 18.211746,33.16307 18.004,33.234 Z M 18.832,33.611 C 17.167044,33.325962 19.675572,33.783751 18.832,33.611 Z M 19.11,33.948 C 18.994854,33.925618 19.248691,33.903285 19.11,33.948 Z M 19.345,33.891 C 18.976461,33.847391 19.776581,33.926598 19.345,33.891 Z M 19.707,34.513 C 19.738311,34.549937 19.738311,34.549937 19.707,34.513 Z M 20.022,34.578 C 19.565509,34.565901 20.466742,34.565646 20.022,34.578 Z M 20.36,34.507 C 20.472077,34.429205 20.472077,34.429205 20.36,34.507 Z M 20.557,34.266 C 20.648971,34.205852 20.648971,34.205852 20.557,34.266 Z M 20.71,34.252 C 20.567521,34.660441 20.574286,34.641048 20.71,34.252 Z M 21.052,34.969 C 20.394933,34.625144 21.597427,35.220817 21.052,34.969 Z M 21.338,35.127 C 21.473133,35.25642 21.473133,35.25642 21.338,35.127 Z M 21.595,35.338 C 21.652098,35.333111 21.652098,35.333111 21.595,35.338 Z M 22.061,41.245 22.077,41.25 Z M 22.385,41.171 C 22.032021,41.410951 22.793073,40.843031 22.385,41.171 Z M 22.719,40.754 C 22.349018,40.843885 23.253857,40.672954 22.719,40.754 Z M 22.959,43.142 C 22.836331,42.847852 23.171153,43.471963 22.959,43.142 Z M 23.051,43.289 C 23.149642,43.796895 23.032874,43.195075 23.051,43.289 Z M 23.189,43.61 C 22.956011,43.465683 23.372742,43.701345 23.189,43.61 Z M 23.235,44.259 C 23.33403,44.44775 23.33403,44.44775 23.235,44.259 Z M 23.663,44.797 C 23.045572,44.449121 23.61934,44.782186 23.663,44.797 Z M 24.002,45.555 C 23.820819,45.688674 24.160766,45.478354 24.002,45.555 Z M 24.377,45.089 C 23.741617,45.846742 24.615214,44.781416 24.377,45.089 Z"
     id="path48" /><path
     d="M 21.778,15.555 C 22.770012,15.916673 24.300437,15.221367 24.745736,15.505263 24.239429,16.062693 23.150029,15.464878 22.174661,15.766705 21.238316,15.426371 21.668306,17.035431 22.350589,16.427922 21.450757,16.559417 21.942117,17.219086 22.260599,17.354289 21.554927,17.092621 21.525497,18.691804 22.189005,17.73564 22.519651,17.182456 23.791995,16.537415 23.971627,16.679144 23.442364,17.151109 23.748798,17.056532 23.301249,16.901042 22.403778,17.454457 22.652224,17.848917 22.854216,17.920678 21.87182,18.717886 21.964124,16.031025 21.759952,17.748974 21.20019,19.155673 22.61109,18.684319 23.260897,18.291834 22.635529,18.407921 22.434753,19.344318 23.149162,19.224566 22.327088,18.917223 21.668638,19.611865 22.635521,20.105406 23.663832,20.608916 24.506424,21.12439 25.77656,20.419151 26.847189,19.80864 27.216258,18.959775 28.266517,19.015489 28.523756,18.378967 28.611124,17.5752 28.847,18.667 29.489743,19.147693 29.591909,18.75093 29.454746,19.605641 29.686595,20.94575 30.926556,22.332846 31.585021,23.351281 30.689295,23.842996 31.940325,24.350837 31.821957,25.239133 32.594993,25.233405 33.781975,25.407591 33.519564,24.292789 34.570355,23.628746 36.139634,24.308833 36.324682,22.594438 36.319711,21.711742 36.688223,20.271065 36.555276,19.846946 35.243746,19.740419 37.533008,19.767141 37.885711,19.226978 38.50706,19.145304 39.314944,18.219881 38.161549,18.592848 38.838704,18.343217 39.945264,17.572322 38.623599,17.070153 37.61498,16.698257 36.269126,15.87339 37.083257,14.695135 37.378048,14.610505 37.161397,13.648392 37.194257,13.202357 37.472678,12.827195 37.974203,13.664976 37.748849,12.865786 38.472313,12.819513 39.078286,11.867506 40.052824,11.693511 40.99192,11.36481 42.382051,10.47686 41.532417,9.5692791 42.160441,9.0289614 41.64796,8.8111246 42.577239,8.5194203 42.826959,7.6827376 44.256614,8.6755853 43.798634,7.3015113 43.746877,6.6054042 44.314796,5.3782856 44.333205,6.7281819 44.235132,7.6422644 45.59579,8.6988324 45.366171,7.12619 45.137634,6.0533978 45.708769,5.8668314 46.605509,6.006 47.319231,5.7919564 46.928879,6.6819866 47.026,7.0845441 47.336434,8.0711941 46.563631,8.2188209 46.025355,8.4399296 46.722595,8.6608356 46.688336,9.9954132 45.705,9.728 44.910405,10.784406 43.446152,11.481111 42.724147,12.236507 41.368523,12.341223 41.784202,14.090691 42.387158,14.896414 42.352853,15.585245 42.428357,16.001972 42.263272,15.813035 42.006361,16.976373 44.114486,16.59877 43.910532,17.442909 44.7731,16.732 44.212333,18.412563 45.157463,17.553812 46.553893,17.491095 47.832827,16.762871 49.259002,16.924347 51.280644,16.749591 46.753457,17.308259 48.694337,16.761139 49.181064,16.250165 50.557924,16.53854 49.172082,16.693409 49.508969,16.897118 50.993408,16.420839 51.544624,15.756423 52.51401,15.076496 53.324042,14.194757 54.205371,13.416966 55.492892,11.941297 51.327053,12.040584 52.972357,10.872895 52.390876,10.518007 52.378217,9.7811702 51.682294,9.5664464 51.840047,9.0555931 51.504082,8.4990831 52.010612,8.1417545 51.403749,7.1839018 49.848136,6.3060119 51.399149,5.4183082 51.329596,4.4476805 48.868991,4.7935128 49.721,3.43 48.984427,3.3647149 50.442829,3.0266277 50.587204,2.7179097 51.225994,2.5100424 51.272753,2.1493432 52.025,2.362 51.727262,1.5117028 50.563538,2.5199005 50.175965,1.6940763 48.651418,1.3051244 51.595083,1.8095574 51.993371,1.2115652 51.461071,0.94512258 51.540063,0.86001455 51.894566,0.84695212 50.787263,0.9443588 49.185181,-0.32407118 48.741926,1.264865 48.786971,0.55165703 48.200065,0.79374426 48.810957,0.25300052 48.079135,-0.16664063 47.217943,0.22317248 47.865052,0.9414505 47.059842,0.93468572 46.749614,1.108401 47.778266,0.9093424 48.187416,0.84760258 46.903178,0.36822648 46.651125,0.38227056 46.006628,0.75748717 44.863255,1.8507333 46.394252,1.5336976 48.010324,1.3922695 44.96974,1.2415862 45.797589,0.40795935 45.125965,0.34719813 44.237975,-0.00123002 44.172232,0.80689208 43.348167,0.9104456 43.270288,2.2588653 42.644318,1.187544 42.106102,1.2813285 40.213834,1.2191956 41.673185,1.7969506 41.261131,1.8389835 39.77903,1.5507759 40.190527,2.4248263 39.089368,3.2742183 40.484489,1.4832657 39.493773,1.9100531 39.056408,2.5309264 39.282132,2.5654442 39.071545,2.0399158 38.282976,1.9633885 39.376538,2.5518394 38.261046,2.4201962 37.710171,2.35392 38.56249,3.0809659 37.662,2.546 37.2341,3.0927178 36.150499,3.5792463 35.699587,3.9870445 36.258329,4.0752763 37.280721,4.0414268 36.106,4.006 35.81779,3.4166949 35.070323,2.449209 35.2223,3.7655719 35.450231,4.1296279 35.47839,5.4337555 35.052,4.405 34.451602,4.4114226 34.216091,4.7201292 34.396486,4.8354754 33.541031,4.652294 33.547492,5.3313876 34.268764,5.280944 35.192665,6.0707989 33.551882,4.9425002 33.241096,5.7815274 32.855234,4.4878176 35.385386,5.045597 33.945695,5.7218919 33.352683,5.8372921 32.297524,6.3135493 32.397403,6.6151138 31.45925,6.5752402 31.663301,8.0005677 31.966518,6.7403326 31.784334,5.5802513 33.345878,5.9441635 32.590223,6.9160774 32.022229,7.7473146 30.787906,7.7791236 30.581462,8.9700582 31.189825,9.1693624 31.750092,8.8375402 30.770789,9.2740724 30.167856,8.9554272 29.348447,9.817522 29.717724,9.8479219 29.131886,10.121598 26.698357,11.227815 28.008586,11.779267 28.703007,11.735266 30.202459,10.314009 29.276611,11.485125 28.523991,12.213988 27.392871,11.708904 26.702335,11.627862 25.703603,11.329094 26.498504,12.299619 25.704903,12.266402 26.707921,13.402892 25.25723,11.961452 24.525034,12.601028 22.589576,13.423593 26.804078,12.758778 24.891819,13.183558 25.266996,13.393705 22.524144,13.046759 23.516382,13.55153 24.083538,13.395269 20.732073,13.999436 22.387998,14.363445 22.868408,14.424614 24.46042,14.478559 23.060586,14.56394 22.386412,14.325548 20.931536,14.288306 21.980333,15.109525 21.648502,15.041718 21.521709,15.352472 21.778,15.555 Z"
     style="fill:#b3b4b4;fill-opacity:1"
     id="polygon98" /><path
     d="M 0.841,31.39 C 0.68008275,31.4249 0.1468393,31.791298 0.56795171,31.662503 0.72764683,31.623434 1.0836012,31.495393 1.1527606,31.597914 0.96614101,31.607017 0.53919269,32.016182 0.96459311,31.895049 1.270803,31.765177 1.5813932,31.932177 1.8939102,31.784959 2.2011908,31.706563 2.478108,31.579627 2.7792603,31.47873 2.9171405,31.374193 2.6906827,31.053621 2.9884127,31.241123 3.2903913,31.484739 3.5613054,30.992014 3.8855224,30.990819 4.046206,30.59191 4.6227046,30.957894 4.784044,30.60989 4.8970718,30.86482 5.1327503,30.522627 5.3438068,30.680703 5.5306886,30.70503 5.7704469,30.549304 5.507283,30.427864 5.849831,30.270762 5.8726951,29.866725 6.0603667,29.586476 6.3099146,29.326394 6.1745181,28.903607 6.026,28.62 6.0194441,28.295693 5.9420697,27.8974 6.3833933,27.906375 6.5428348,27.793875 7.0290957,27.8876 6.9996672,27.685553 6.7480707,27.576922 6.2641517,27.680256 6.1986487,27.439271 6.5580849,27.65372 6.6159819,27.062371 6.9693325,27.122762 7.1286878,27.030411 7.0117413,26.911198 6.9686376,26.893094 6.9119286,26.577015 7.0672699,26.689371 7.1975766,26.799383 7.3085832,26.476179 6.9389682,26.360683 6.7097145,26.462033 6.88625,26.351514 7.0635956,26.17967 6.7733566,26.021925 6.5353941,25.797592 6.6511008,25.445929 6.5268046,25.168747 6.4184812,24.708696 6.1654671,25.374492 5.9381478,25.318844 5.7207872,25.322416 5.4877993,24.769768 5.4173567,25.178481 5.3868183,25.333155 5.1779634,25.897636 5.0402995,25.671655 5.1717424,25.585934 5.5401272,25.464593 5.1809411,25.385457 5.0913955,25.298436 4.8022824,25.165208 4.9154524,25.363881 4.627805,25.345507 4.6004055,25.575432 4.6423935,25.793263 4.4763228,25.931076 4.3613778,25.964298 4.5066775,25.730466 4.683509,25.558718 4.3492374,25.315136 4.265796,25.555731 3.9633513,25.524965 3.6036505,25.576218 3.4410442,25.8493 3.4719744,26.202119 3.0685228,26.209566 2.868,26.419 3.1086843,26.576403 3.4751321,26.489309 3.674704,26.521523 3.6045276,26.855798 2.9520958,26.74566 3.0427343,27.056566 3.0421596,27.383483 2.4743519,26.887018 2.3228972,27.188014 2.0260662,27.08915 1.650309,26.976088 1.3029223,27.122914 1.1229176,26.983971 0.8145885,27.36817 1.1229118,27.276019 1.235103,27.414564 0.85010901,27.447441 1.13091,27.61171 0.94554225,27.999017 1.803184,27.592899 1.5102464,27.928777 1.25926,27.891013 0.89843967,28.206848 1.3300694,28.254301 1.1535777,28.321976 0.70779845,28.23547 0.84887296,28.518508 0.76276893,28.660383 1.4051291,28.665017 1.1182551,28.42196 1.0406516,28.208038 1.137331,27.916036 1.4080269,27.99933 1.4816396,28.003608 1.8175208,28.012737 2.0235995,28.011738 2.1368649,28.167049 2.2360404,28.649646 2.312125,28.677747 2.1525093,28.471486 2.3390556,27.974675 2.018133,27.986994 1.6248026,27.972302 1.7212567,28.54109 1.5707111,28.791596 1.6957159,29.204293 1.5912676,29.651509 1.1612782,29.843031 1.0244554,29.933799 0.70699798,30.075217 1.0546149,30.003543 1.3765125,29.789245 1.8282567,30.106907 2.1014543,29.753182 2.2143622,29.715317 2.5579038,29.891615 2.2086712,29.896677 1.8375545,30.045829 1.3824422,29.935151 1.0614392,30.191938 0.78503174,30.221808 0.88555333,30.450781 0.95297901,30.579109 0.70390244,30.60512 0.19212811,30.40375 0.15215097,30.778422 0.31492552,30.834014 1.0064014,30.684941 0.59739363,30.923007 0.34620476,30.943064 -0.19041326,31.365554 0.32335726,31.385413 0.59497692,31.428333 0.85113539,31.274315 1.1159848,31.234137 1.0180185,31.276919 0.91243993,31.305251 0.841,31.39 Z"
     style="fill:#b3b4b4;fill-opacity:1"
     id="polygon154" /></g>
	
	
	
	
	
	
	
	
	
	
	
	
	
	
	
	
	
	
	
	
	
	
	
	
	
	
	
	
	
	
	
	
	
	
	
	
	
	
	
	
	
	
	
	
	
	
	
	
	
	
	
	
	
	
	
	
	
	
	
	
	
	
	
	
	
	
	
	
	
	
	
	
	
	
	
	
	
	
	
	
	
	
	
</g>
</svg>
