<svg xmlns="http://www.w3.org/2000/svg" xml:space="preserve" height="61.243" width="69.617"><path style="fill:#b3b4b4;fill-opacity:1" fill="#b3b4b4" d="m34.778 55.327-.077.029-.147.12-.192.073-.133.005-.189.047-.353-.043-.167.03-.218.078-.08-.005-.079-.03-.283-.187-.086-.014-.074-.03-.048-.098-.09-.02-.193.002-.152.109-.011.085-.138.078-.078.012-.077-.053-.173-.217-.047.075-.056.062-.093.042-.079.058-.089.209-.075.217.029.084.108.191.169.138.087.041.087.008.168-.014.079.008.173.118.193.049.076.051.066.076.143.113.337.173.319.217.157.065.176-.013.177.007.173.105.163.135.204.319.08.041.088.018.242.103.168-.024.169.055.164.011.004-.09-.019-.089.016-.099.038-.096-.203-.079-.106-.144V57.209l-.033-.129.033-.065v-.07l.116-.047.05-.048.029-.075.012-.152.056-.135.054-.105.039-.112.024-.128.04-.118.349-.508.048-.08.097-.207.084-.087-.099-.051-.102.009-.232.134-.09-.024-.082.035-.07.079-.084.028-.203-.027-.201-.008z" transform="translate(.074 .038)"/><path d="M7.479 21.49c.332.148-.1.075-.165.276.027.17.374.211.264.445-.047.214-.255.349-.424.451.348.083-.102.246-.254.233-.323.141.182.074.152.313.293.212.574-.09.821-.232.289-.18-.089.142-.088.266-.16.14-.248.36-.337.553-.054.21-.181.386-.175.616.04.2.207.068-.055.298-.108.167-.19.36-.235.553.174.186.334-.085.375-.243.11-.256.295-.506.2-.794.149-.197.388-.317.602-.436-.19.117-.478.358-.349.582.094-.16.316-.15.447-.293.246-.304-.045.015.19.099.343.179.031.042-.14.154-.136.178-.152.445.133.444.175.101.46.086.585.2-.088.157-.393.16-.558.274-.227.175-.423.401-.573.648-.282-.137-.202.288-.044.385.21.337.153-.273.397-.1a.478.478 0 0 0 .583-.026c.164-.005.318.18.516.061.155-.139.371-.141.54-.257a2.3 2.3 0 0 1 .648-.003.91.91 0 0 0-.741.555c-.179.256.128.507.274.7.133.24.316.09.511.069.174.032.023.41-.143.432-.266.144.131.32-.011.404-.187.139-.172.378-.015.53.298.072.216.224-.016.064-.178-.318-.31.012-.233.117-.176-.131-.38-.166-.578-.065-.21.01-.42-.004-.615.101-.25.064-.452.228-.607.42-.12.045-.545.329-.271.327.215-.104.448-.195.696-.176-.1.19.13.345-.019.528.21.14-.04.263-.123.46-.29.295-.728.345-1.088.525-.168.03-.487.136-.48.282.104.142.082.37.352.396.25.068.462-.256.732-.172.07.123.59.11.324.2-.218.214.258.04.38.062.24.077.36.37.637.331.299.08.477-.289.776-.28.234-.021.383-.23.597-.309-.278.31-.652.513-.901.852-.368.231-.804-.056-1.204.043-.219.003-.438.032-.505.276-.108.169-.454.058-.418.354-.053.272-.399.335-.518.568-.227.05-.33.309-.54.409-.157.19-.566.082-.582.387.131.055.402-.15.542.06.217.14.265-.216.455-.261.3-.222.678-.264 1.031-.324.146.006.355.138.511.224.266.135.432-.237.496-.447.087-.315.467-.268.716-.366.286-.073.5.164.761.204.173-.178.46.086.652-.049-.235-.273.204-.104.357-.182.158.016.534-.065.484-.21-.12-.125.335.052.463.054.327.208.692-.025 1.044.015.326-.007.671.188.971-.022.205-.033.38-.175.576-.182.231.075.222-.297.476-.285.235-.039.368-.208.334-.446a6.897 6.897 0 0 0-.051-1.124c-.221.02-.49-.041-.68.032-.117.236-.286.453-.312.724-.264.134-.357.134-.022.07.174.043.564-.112.363-.298-.35-.04.162-.257.3-.157.304.048.206-.265.277-.321.17.042.358-.15.46-.285.069-.302.321-.571.211-.9-.082-.241-.363-.353-.58-.451a4.26 4.26 0 0 0-.832-.084c-.246-.045-.325.407-.583.248-.32-.077-.192-.238.022-.366.24-.098.17-.356.067-.532-.163-.265-.457-.394-.694-.582-.104.028-.646-.057-.364-.056.21.038.424-.084.587.103.175.058.43.15.212-.094-.085-.188-.381-.412-.204-.615.232-.107-.235-.215-.285-.365-.203-.249-.445-.463-.766-.535-.32-.04-.417-.357-.485-.624-.13-.333-.122-.72-.287-1.032-.243-.152-.399-.423-.642-.564-.32-.121-.693-.306-1.017-.092-.263.07-.55-.064-.821-.074-.362-.16-.1-.085.141-.034.293.089.516-.162.75-.269.154.065.574-.136.315-.252-.23-.17-.503-.032-.757-.031.234-.09.461-.194.72-.202.345-.102.49-.459.753-.67.175-.221.27-.488.42-.719.137-.151.403-.286.187-.503-.17-.266-.485-.073-.733-.125a6.686 6.686 0 0 0-.873.01c-.46-.182-.884.2-1.345.168.002-.22.457-.293.341-.438-.328.025-.034-.296.136-.318.297-.182.6-.357.897-.534.107-.113.204-.385.167-.478-.288-.048-.57.06-.857.071-.3.06-.61.039-.903.136-.098-.237-.36.158-.474-.1-.209-.098-.396.079-.387.289.141.274-.053.258-.301.254-.088.087-.278.342-.058.436.305.224.03.113-.153.179-.235-.074-.393.083-.456.299-.04.052-.03.11 0 .165z" style="fill:#b3b4b4;fill-opacity:1" transform="translate(.074 .038)"/><path style="fill:#b3b4b4;fill-opacity:1" d="M69.546 37.496c-.508-.397-.26-.94-.209-1.043-.68-.198.788-.772.012-1.268-.733-.028-1.314-.457-2.009-.622-.638-.278-1.119.334-1.559-.592-.557-.55-1.267.418-1.849-.033-.543-.295-1.293.045-1.302-.848-.135-.658-.705-.665-1.302-.754-.932-.007-.236-.955.565-.7-.163.03-1.4-.518-1.73-1.15-.66-.231-1.307.184-1.965.017-.127.897-1.374.177-1.106-.434-.081-.382-1.044-1.129-.073-1.124.493.483 1.878-.41 1.849-.33-.798-.054-1.03-.855-1.868-.711.323-.68-1.227-.685-.989-1.35-.858-.178-.08-.784-.604-1.197.371-.582-.632-.8-1.042-.903-.63.04-.37-2.534-.612-.642-.348 1.345-.428-.029-.686-.599-.288-.375-.276 1.34-1.149.873-.289-.341-.355-1.345-.979-1.323-.132-.832 1.957-.513.324-.795-1.852-.494 2.004-.265.12-.475-1.947-.321 1.2-.462.319-.464-.565.284-1.813-.76-.855-.931.47-.683-.764-.882.127-1.51.046-.444-1.198-.673-1.73-.56-.971-.117-1.51.117-2.293-.024-.666.462-1.445.493-1.79 1.037.196.547.037.726.63 1.224.841-.123.962.023.62.919.683.823-.457 1.754-1.215 1.163-.445-.812-1.228-1.25-2.091-.805-.364.728-.93 1.336-.777 2.204.012.9.457 1.708 1.473 1.633 1.074-.382-1.836-.728-.639.115.499.46 1.945.01 1.623.96.353 1.01-1.12.316-1.745.47-1.151-.058-2.278-.143-3.381.03-1.221-.708.53-.386-.751-.801-1.096-.012-2.162.383-3 .972-.87-.014-1.767.734-2.573.453-.878-.466.066.517.609.302-.11.847-1.087-.565-1.45-.546-.544-.481-1.327-.81-1.833-.044-.478.174-2.208.718-1.401-.19-.19-.32-1.81-.097-1.382-.511-.381-.655-.792-.695-.519-1.413.281-.745.735-.509.923-1.35.839.143.986-.668-.044-.688.091-.689.258-1.321.434-1.873-.883-.029-1.176 1.085-2.034.977-1.415.123-.207.567.39.673-1.658.73-.314-.956-.187-.115-.214.32-1.022.403-1.395.52-.27 1.078.186 1.592.641 2.293-.162.266.63 1.876-.07.965.048-1.373.353.688.452 1.11 1.011.496 1.25.783.14.15-1.597-.244.05.914.416.615-.686-.516-1.708.429-1.86-.342-.97-.428-1.26.683-1.419.619-.557-.382-1.674-.187-2.14.332-.9.241-1.027.819-1.427 1.611-.695.457-.553 1.083-.19 1.254-.895-.453-1.454.096-.218.11.524.193-.53.018-.946.025-.812.32-1.633.603-2.445.88-.15.848-.286 1.765-1.44 1.76-1.522.241.075.854-.962.911-.52.011-1.843.248-1.762-.57-1.451-.367-.358.738-.526 1.483.417.732-.906.084-1.387.403-.581-.228-1.28-.484-2.091-.181-.89.025-1.35.673-.31.71-.49-.038-.514.446-.306.588.289.24 1.677.797 1.65-.04.978.318.272 1.02.916.001-.149 1.06.441 1.332.992 1.348-.875-.311-.35 1.178.254 1.403.826-.02.727 1.238.499 1.303.787.175.903 1.976.458.536-.637-.817-.652 1.403-.6 1.287.08.172-.401 1.534-.594 2.17-.565.474-1.4.14-2.05.068-.653.05-1.387-.242-2.13.04-1.276-.241-2.482-.468-3.77-.24-.457-.406-1.638-.498-1.725.2-.506.226-1.993.285-1.244 1.087.08.279.34.528.368.917-.647.792.142.422.729.306-.227.785.43.266.965.481.404-.114 1.235-.521 1.386.082.802.395.032.82-.565 1.269-.097.473.22 1.29-.36 1.592.728.759-1.01.576-.689.987.533.657.648 1.088.079 1.755.367.797.524.823-.31 1.531-.542 1.248.746.7 1.018 1.18.9.485.288.332.63 1.178.2.73 1.247.991 1.41.238.673-.391 1.357-.8 2.203-.815.692.009 1.431.166 2.053-.137.926.489.86-1.183 1.733-1.338 1.122.283.653-.59 1.193-1.168.257-.714 1.796-.866.605-1.54-.653-1.186.867-1.738 1.282-2.664.537-.168.295-.959 1.39-1.003.928-.108 1.598-.776 2.414-1.19.22-.633.18-.86-.075-1.594.018-.747 1.005-1.255 1.573-1.369.605.586 1.097.043 1.704.197-.41.26.962.829 1.425.541.645-.132.997-.872 1.611-1.092.202.04 1.313-.359 1.645-1.005.827-.383 1.569.493 2.341.693.314.67.285 1.572.824 1.917.541.763.724.642 1.447 1.233.673.479 1.29 1.397 2.072 1.5.88-.348 1.028.843 1.576.814.132.604.805-.07 1.075.775-.008.411.816 2.336 1.047 1.019.323.315.983 1.44.625 1.783-.222.274-1.104 1.462-.185 1.459.782-.3.666-1.405 1.32-1.778 1.037-.067.014-1.335-.532-1.499.065-.577.719-1.71 1.253-.913.71-.242 1.51 1.517 1.565.213-.946-1.202-2.518-1.546-3.796-2.28.866-.85-.311-.737-1.078-.739-1.117-.428-1.902-1.385-2.171-2.536-.552-.899-2.206-.958-2.094-2.319.866-.255-.526-1.147.286-1.56-.09.496 1.104-.74 1.218-.137.611 1.648.501-.501.431.793.405 1.552.72-.221 1.248-.268.89.298.275 1.408 1.137 1.767.78-.726-.835-.015.224.678.6.557.932.883 1.716.918.547-.055 1.763 1.543 1.54.539-1.048-1.369-.972.465.22.557.77.525 1.341.716 1.963 1.35.826.373.58.88.548 1.672-.003.807-.324 1.293.241 1.663.828.338.872 1.355 1.65 1.787.914.249.652.128.207.51.616.768.654.798 1.418.822.811-.219 1.298.063 2.047.29.108.566-.678.292-1.253.014-.656-.487-1.194.03-1.605.493.531.517.866 1.059.878 1.81.428.312.682-.326 1.65.455.693 1.066-1.001-.59.176.117.68.848.077-1.017-.222-1.365-.46-.827 1.401.546 1.2-.23-.54-.08-1.325-.921-.325-.918.58.073 1.223 1.1.881-.27-.447-.55-1.153-.89-1.846-1.188-.475-.187.486-.42.219-.976.83.91.187-.357-.271-.846-1.357-.612 1.293-1.204.073-1.145-.224.363 1.607 1.14.829.801-.42-.855 1.454.648.35-.378.826-.044 1.192.316.144-.348-.403-.321.116 1.593.494-.124.249-.816 1.141-.687 1.79-.634.534.151 1.367.539 1.292-.328.266-.43.57-.875-.083-1.185.409-.235 1.092-.815 1.596-.34.293.032.248-2.736.497-1.032.413 1.358.021.603-.398.035.541-.423.516-1.527.907-1.671-.233-.69 1.135-1.934.07-1.852.238.154.94-1.358.832-.333 1.127.133.888-1.228.673-1.833.74.006 1.418-.706 1.516-1.456.793-.531 1.39.264 1.51-.622-.408-1.417.042 1.057.84.554.472.351-2.082-.112-.84.225.013.194.396.683 1.265.605.737-.296 2.051.348.69.648-1.158.604-.613.66.282 1.013 1.116-.046-.174 1.611 1.012 1.505.65-.325 1.228-.81 1.88-.955.262-.97 1.717.381 1.77-.932-.713-.41-1.589.62-2.088-.348-.829-.327-.333-1.846.066-1.218-.706.929.588-.968 1.13-.657.825-.295 1.234-.363 1.445.6.268-.303.821-1.241 1.359-1.413-.01-.426-.084-.9.578-1.054.432-.576 1.679.253 1.604-.92l-.012-.054zM23.51 43.9l-.014.02zm-.078-.224c-.239-.09.07.033 0 0zm-.114.441c-.07.105-.07.105 0 0zm.091-.148c.065-.058-.087.118 0 0zm.048-1.085c-.888.575.841-.645 0 0zm-1.361-10.361-.002.009zm1.704-2.168c.064.237-.145-.287 0 0zm.419 8.503c.574-.51-.347.326 0 0zm.189-.7c.162-1.012-.043.232 0 0zm-.007-.279c.092-.313.033-.112 0 0zm-1.206 2.983.022.097zm.066.165c-.097.279-.061.177 0 0zm-.057.869.012-.03zm.001.069c.054.195-.027-.151 0 0zm.333-.325c-.13-.222-.14-.234 0 0zm-.035-5.764c.186.07.268.189 0 0zm-.137-5.004-.005.013zm.101.173c-.025.068-.025.068 0 0zm-.047 8.013.028.058zm.139.096-.014-.014zm.238-.201c-.093-.178-.303-.039 0 0zm-.252-8.177c-.15.096.268-.181 0 0zm.244-.309c-.062.212-.062.212 0 0zm-.14-.215c-.207 0 .125-.003 0 0zm-.269-.229-.005.02zm-.031.889c.04.093.04.093 0 0zm-.092 5.04c-.234-.311-.274-.357 0 0zm-.373-.496c-.391-.196.518.43 0 0zm-.686 5.302.008-.036zm.068-5.306c-.492-.059.636-.09 0 0zm-.442-2.44c.094.158.094.158 0 0zm.795 2.374c.065.035.065.035 0 0zm-.178-2.979c-.003-.067-.003-.067 0 0zm.08.048-.024-.013zm.007-.254c.11-.23.123-.274 0 0zm.092-.24c-.102-.243-.124-.278 0 0zm-.189-.36c-.292-.365.107.112 0 0zm-.044 1.305-.021-.03zm-.124-.118c-.315-.08-.018-.024 0 0zm-.006.385-.092-.002zm-.275-.413c-.04.088.155-.28 0 0zm-.013.051.009.012zm.012.016c-.238.221-.143.174 0 0zm-.018 2.463.004.005zm.098 5.843.03-.013zm.181-.332c.063.088.063.088 0 0zm.043-.242c.06-.132.235-.335 0 0zm.14.39.008-.012zm.28-.766-.033.023zm.047-.3c.01-.044-.018.127 0 0zm.326-.177c.703-.749.454-.488 0 0zm.105 1.074c.238.056-.58-.101 0 0zm.487 1.74c-.523-.6-.753-.92 0 0zm.636 2.334c.235-.023-.515.092 0 0zm.093.092.005.019zm.252-7.642c.086-.412.074-.305 0 0zm.187-.492c.286-.294.351-.361 0 0zm.348-.365c.015-.216.015-.216 0 0zm-.456-.287c.966.228.013-.012 0 0zm-.404-.107c-.13-.13-.13-.13 0 0zm-.207-.067c-.411.047-.624.05 0 0zm-.063-7.18c-.031.458-.029.445 0 0zm-.089.624c-.116.232-.116.232 0 0zm-.186.489h-.072zm-.416.052-.002.01zm-.024.126.005.018zm-.466 1.207c.576-.153-.228.034 0 0zm-.578.047c.74-.284.107-.07 0 0zm-.052 1.319c.331-.143-.31.072 0 0zm-.105.005c-.006.052-.006.052 0 0zm-.115-.214c-.108-.039-.108-.039 0 0zm-.76-.204c-.119-.034-.298-.316 0 0zm-.194-.269c-.031-.07-.031-.07 0 0zm-.08-.033c-.089.077-.089.077 0 0zm-.218.087c.369-.007-.099-.012 0 0zm-.061 2.202-.033-.017zm-.022-2.331c.04.044-.027-.025 0 0zm-.346.05c.588.138-.363-.108 0 0zm-.163.009-.039.028zm-.025.136c-.083.025-.083.025 0 0zm-.368 2.209c-.097-.121-.097-.121 0 0zm-.014-.265-.074-.055zm-.048.388-.001.002zm.048-.05c.045-.081-.095.124 0 0zm-.308-2.009c.387-.081-.341.03 0 0zm-.184-.069c-.033-.028-.033-.028 0 0zm-.401.009c.148-.037-.189.016 0 0zm-.364 1.051-.005-.046zm-.933-.717c.137.252.024.114-.007-.055zm-1.791 15.001v-.017zm-.04-.083c.2.13-.323-.142 0 0zm-4.299-.863-.016.004zm-.263.051.023-.039zm.118-.219-.027.083zm-.428-.191c-.271-.27.001.03 0 0zm.177.046c.26.027.245.06 0 0zm.159.398.013.007zm.142.004c.054-.073.054-.073 0 0zm.093-.073-.002.015zm.22.139c.402.146.475.152 0 0zm.566.17.004.007zm.013.015c.302.268.276.232 0 0zm.519.15c.103-.028.103-.028 0 0zm.323.122c-.562-.361.304.217 0 0zm.49.051c-.473.055.123.008 0 0zm.138.046c.058-.003.058-.003 0 0zm.316.012c-.34-.011.544-.005 0 0zm.181-.025.019-.148zm.091-.252c-.108.006.284.019 0 0zm1.444.556c.08-.138-.064.133 0 0zm.265.153c.094.086.094.086 0 0zm.183.147c.158-.089.158-.089 0 0zm.812.017c.112.004.112.004 0 0zm.229-.12c-.374.098.482-.141 0 0zm.322-.095c-.304.01.255.022 0 0zm.283.063c-.079-.007-.079-.007 0 0zm-.194-14.919c-.134-.225.283.39 0 0zm.213.218c-.395-.323.308.23 0 0zm.138.06c.072-.004.208-.07 0 0zm.828.377c-1.665-.285.844.173 0 0zm.278.337c-.115-.022.139-.045 0 0zm.235-.057c-.369-.044.432.036 0 0zm.362.622c.031.037.031.037 0 0zm.315.065c-.456-.012.445-.012 0 0zm.338-.071c.112-.078.112-.078 0 0zm.197-.241c.092-.06.092-.06 0 0zm.153-.014c-.142.408-.136.389 0 0zm.342.717c-.657-.344.545.252 0 0zm.286.158c.135.13.135.13 0 0zm.257.211c.057-.005.057-.005 0 0zm.466 5.907.016.005zm.324-.074c-.353.24.408-.328 0 0zm.334-.417c-.37.09.535-.081 0 0zm.24 2.388c-.123-.294.212.33 0 0zm.092.147c.099.508-.018-.094 0 0zm.138.321c-.233-.144.184.091 0 0zm.046.649c.099.189.099.189 0 0zm.428.538c-.617-.348-.044-.015 0 0zm.339.758c-.181.134.159-.077 0 0zm.375-.466c-.635.758.238-.308 0 0z" transform="translate(.074 .038)"/><path d="M21.778 15.555c.992.362 2.522-.334 2.968-.05-.507.558-1.596-.04-2.571.262-.937-.34-.507 1.268.176.66-.9.132-.409.792-.09.927-.706-.261-.736 1.338-.072.382.33-.554 1.603-1.199 1.783-1.057-.53.472-.223.378-.67.222-.898.553-.65.948-.448 1.02-.982.797-.89-1.89-1.094-.172-.56 1.407.851.935 1.5.543-.624.116-.825 1.052-.11.933-.823-.308-1.481.387-.514.88 1.028.504 1.87 1.02 3.14.314 1.071-.61 1.44-1.46 2.49-1.404.258-.636.345-1.44.581-.348.643.48.745.084.608.939.232 1.34 1.472 2.727 2.13 3.745-.896.492.355 1 .237 1.888.773-.006 1.96.169 1.698-.946 1.05-.664 2.62.016 2.805-1.699-.005-.882.363-2.323.23-2.747-1.311-.107.978-.08 1.33-.62.622-.082 1.43-1.007.277-.634.677-.25 1.783-1.02.462-1.523-1.009-.372-2.355-1.197-1.54-2.375.294-.084.077-1.047.11-1.493.279-.375.78.463.555-.336.723-.046 1.33-.998 2.304-1.172.939-.33 2.33-1.217 1.48-2.125.627-.54.115-.758 1.044-1.05.25-.836 1.68.157 1.222-1.217-.052-.697.516-1.924.534-.574-.098.914 1.263 1.97 1.033.398-.228-1.073.343-1.26 1.24-1.12.713-.214.323.676.42 1.079.31.986-.462 1.134-1 1.355.697.22.662 1.555-.321 1.288-.795 1.056-2.259 1.753-2.98 2.509-1.356.104-.94 1.854-.338 2.66-.034.688.041 1.105-.124.916-.257 1.163 1.851.786 1.648 1.63.862-.711.301.97 1.246.11 1.397-.062 2.676-.79 4.102-.629 2.022-.174-2.506.384-.565-.163.487-.51 1.864-.222.478-.068.337.204 1.821-.272 2.373-.937.969-.68 1.779-1.561 2.66-2.339 1.288-1.476-2.878-1.376-1.233-2.544-.581-.355-.594-1.092-1.29-1.307.158-.51-.178-1.067.329-1.424-.607-.958-2.163-1.836-.612-2.724-.07-.97-2.53-.624-1.678-1.988-.737-.065.722-.403.866-.712.639-.208.686-.569 1.438-.356-.298-.85-1.461.158-1.849-.668-1.525-.389 1.42.116 1.817-.482-.532-.267-.453-.352-.098-.365-1.108.097-2.71-1.171-3.153.418.045-.713-.542-.471.069-1.012-.732-.42-1.593-.03-.946.688-.805-.006-1.115.167-.087-.032.41-.061-.875-.54-1.127-.527-.644.375-1.788 1.469-.257 1.152 1.616-.142-1.424-.292-.596-1.126-.672-.06-1.56-.41-1.626.399-.824.103-.902 1.452-1.528.38-.538.094-2.43.032-.97.61-.413.042-1.895-.246-1.483.628-1.102.85.293-.942-.697-.515-.438.62-.212.655-.422.13-.789-.077.305.512-.811.38-.55-.066.301.661-.599.126-.428.547-1.512 1.033-1.962 1.441.558.088 1.58.054.406.019-.288-.59-1.036-1.557-.884-.24.228.364.256 1.668-.17.639-.6.006-.836.315-.656.43-.855-.183-.849.496-.127.446.924.79-.717-.338-1.028.5-.386-1.293 2.144-.735.705-.06-.593.116-1.648.593-1.549.894-.938-.04-.734 1.386-.43.125-.183-1.16 1.379-.796.623.176-.568.831-1.802.863-2.009 2.054.609.2 1.17-.132.19.304-.603-.319-1.423.544-1.053.574-.586.274-3.02 1.38-1.71 1.931.695-.044 2.194-1.465 1.269-.294-.753.729-1.884.224-2.575.143-.998-.299-.203.672-.997.638 1.003 1.137-.448-.305-1.18.335-1.935.823 2.28.158.367.583.375.21-2.368-.137-1.376.368.568-.157-2.784.447-1.128.811.48.062 2.072.116.673.2-.675-.237-2.13-.275-1.08.547-.332-.068-.46.242-.203.445zM.841 31.39c-.16.035-.694.401-.273.273.16-.04.516-.168.585-.065-.187.009-.614.418-.188.297.306-.13.616.037.929-.11.307-.078.584-.205.885-.306.138-.105-.088-.425.21-.238.301.244.572-.249.897-.25.16-.4.737-.033.898-.381.113.255.349-.087.56.07.187.025.426-.13.163-.252.343-.157.366-.561.553-.842.25-.26.115-.682-.034-.966-.007-.324-.084-.723.357-.714.16-.112.646-.018.617-.22-.252-.11-.736-.006-.801-.247.36.215.417-.377.77-.316.16-.093.043-.212 0-.23-.057-.316.098-.204.229-.094.11-.323-.259-.438-.488-.337.176-.11.354-.282.063-.44-.238-.224-.122-.576-.246-.853-.109-.46-.362.205-.589.15-.217.003-.45-.55-.52-.14-.031.154-.24.719-.378.493.132-.086.5-.207.14-.287-.089-.087-.378-.22-.265-.021-.287-.018-.315.211-.273.43-.166.137-.28.17-.135-.064.177-.171-.158-.415-.241-.174-.303-.031-.662.02-.825.293.031.353-.372.36-.573.57.24.157.607.07.807.103-.07.334-.723.224-.632.535 0 .326-.569-.17-.72.131-.297-.099-.673-.212-1.02-.065-.18-.139-.488.245-.18.153.112.139-.273.171.008.336-.185.387.672-.02.38.317-.252-.038-.613.278-.18.325-.177.068-.623-.019-.482.265-.086.141.556.146.27-.097-.078-.214.018-.506.289-.423.074.005.41.014.616.013.113.155.212.638.288.666-.16-.207.027-.703-.294-.691-.393-.015-.297.554-.447.805.125.412.02.86-.41 1.051-.137.09-.454.232-.106.16.322-.214.773.104 1.046-.25.113-.038.457.139.108.144-.371.149-.827.038-1.148.295-.276.03-.175.259-.108.387-.25.026-.76-.175-.8.2.162.055.853-.094.444.144-.25.02-.787.443-.274.462.272.043.528-.11.793-.15-.098.042-.204.07-.275.155z" style="fill:#b3b4b4;fill-opacity:1" transform="translate(.074 .038)"/></svg>