<svg xmlns="http://www.w3.org/2000/svg" width="50.226" height="62.887" xml:space="preserve"><g fill="#B3B4B4"><path d="M49.247 27.031c-.438-.116-.844-.311-1.253-.533-.605-.329-.824-1.214-1.702-1.128-.832.082-1.688-.603-2.516.122-.215.188-.376-.116-.317-.291.338-.995-.612-.839-1.013-1.171-.425-.352-.777-.056-1.002.216-.607.731-1.219.582-1.855.108-.191-.142-.362-.238-.556-.085-.184.146-.366.411-.544.068-.093-.18.078-.409.243-.567.134-.127.242-.294.396-.383.695-.4.921-.938.491-1.65-.259-.429-.049-1.056-.591-1.356-.206-.224-.405-.456-.621-.671-.314-.311-.647-.583-1.118-.276.022-.247-.131-.377-.326-.287-.487.223-.943.033-1.411-.029-.597-.382-1.224-.729-1.457-1.478-.058-.185-.235-.268-.438-.26-.265-.399-.661-.601-1.091-.782-.709-.3-1.347-.582-2.211-.537-.913.048-1.872-.384-2.64-1.048-.572-.495-.74.353-1.165.42-.185.029-.26.315-.133.46.455.522-.004.725-.29 1.021-.256-.301-.395-.546-.261-.969.077-.244.251-.668-.112-.934.095-.27.554-.019.569-.528-.831.267-1.415.953-2.222 1.146-.264.063-.372.237-.459.462-.228.591-.611 1.042-1.208 1.289-.523-.668-1.182-1.061-1.984-.594-.657.382-1.134.135-1.651-.197-.219-.441-.471-.853-.936-1.081.17 0 .278-.035.303-.252.095-.813.218-1.623.33-2.434.261-.427.103-.654-.34-.801-.915-.306-1.788.008-2.674.146-.02-.122.035-.289-.176-.297l.022-.009c-.008.002-.013.002-.02.005l-.002.005-.009-.003.012-.002.817-2.044c.381-.398.419-.962.686-1.415.096-.164.096-.228-.096-.347-.576-.354-1.852-.011-2.006.637-.134.567-.449.929-.931 1.137-1.635.706-2.669.631-3.346-1.242-.4-1.106-.333-2.203.252-3.209.278-.478.056-.607-.279-.78-.586-.338-.643-.946-.782-1.517-.206-.844-.871-1.271-1.432-.834-.658.512-.938.067-1.06-.383-.143-.533-.464-.868-.826-1.211a1.112 1.112 0 0 0-.94 0L5.215.81a5.886 5.886 0 0 1-2.076 0C2.565.647 2.05.366 1.564.026 1.301.022 1.035.041.776.01.343-.043.238.118.08.548c-.28.764.256 1.211.432 1.795.073.244.374.407.146.756-.278.423-.16.776.319 1.045.274.154.674.371.574.762-.251.973.538 1.236 1.021 1.719-.304-.648-.612-1.306-.654-2.001-.035-.6-.241-1.092-.504-1.594-.225-.429-.338-.906-.523-1.345-.217-.515-.03-.898.365-.996.378-.094.722.133.808.692.247 1.605 1.102 2.947 2.03 4.244.617.863 1.394 1.699.933 2.886-.145.374-.016.54.201.78 1.056 1.172 2.529 1.622 3.894 2.249.474.218.891.625 1.555.347 1.07-.448 1.565-.225 2.253.777.34.504.841.719 1.422.79.474.46.953.399 1.434.012-.02.234.107.37.303.461-.136.872.599 1.049 1.118 1.398-.749.137-.481.572-.137.782.424.26.779.569 1.108.921.15.161.279.161.443.06.41.279.813.566 1.295.716.282.088.357.047.366-.288.017-.663.579-.629 1-.57.358.05.847.179.449.776-.133.2.129.108.207.155-.098.165-.036.317.017.482.208.646.356 1.265.191 1.989-.183.801-.716 1.317-1.145 1.929-.499.541-.802 1.197-1.145 1.838-.2.374-.022.779.121.801.971.155.218.581.142.853-.041.148-.256.248-.225.458-.354.415-.219 1.254.307 1.585.395.249.592.608.822.985.467.766.544 1.703 1.095 2.42.496.645 1.037 1.244 1.302 2.053.201.612.656 1.058 1.285 1.327 1.014.435 1.932 1.021 2.606 1.925.76 1.064.878 2.262.628 3.489-.098.482-.143.872.123 1.31.141.233.118.567-.001.836-.203.459-.138.944-.083 1.395.256 2.113.941 4.193.455 6.359-.118.528.526.927.424 1.25-.355 1.123.466 1.58 1.021 2.213.121.138.416.231.231.496-.208.297-.007.455.145.678.56.825.449 1.308-.462 1.932.92.25 1.157 1.009 1.457 1.741.535 1.306 1.278 2.418 2.822 2.663.434.069.61-.354.909-.535.146-.088-.106-.221-.216-.306-.335-.647.012-1.18.312-1.704.372-.648.36-1.141-.351-1.574-.586-.357-.75-.875-.207-1.45.14-.148.459-.323.367-.464-.331-.51.094-.739.317-1.037-.264-.187-.653-.191-.748-.528-.076-.275-.488-.499-.23-.813.303-.37.524.13.792.14.178.006.368.396.511.048.121-.295.489-.545.188-.966-.321-.448-.102-.654.399-.644.211.004.422.014.632-.002 1.357-.099 1.84-.999 1.201-2.146-.181-.325-.338-.586-.708-.714-.351-.122-.308-.365-.095-.607.356.124.754.185 1.058.387.609.405 1.135.251 1.6-.171.232-.211.339-.561.503-.848.913-1.224 1.451-2.625 1.93-4.057.05-.149.171-.306.082-.435-.615-.903.015-1.296.642-1.767.535-.403 1.271-.434 1.714-.991.053-.066.271-.062.378-.014.914.409 1.282-.256 1.549-.871.736-1.695 1.31-3.434.966-5.337-.059-.325-.103-.752.179-.96.671-.493.859-1.301 1.355-1.901.503-.608.972-1.23 1.104-2.053.119-.74-.241-1.343-.957-1.533zM15.231 10.524a.356.356 0 0 0-.109-.101l.108-.04c.002.047 0 .094.001.141zm20.254 11.189a.95.95 0 0 0 .025.056l-.074.009a.326.326 0 0 0 .049-.065zM20.297 7.158c.907.391 1.98.476 2.589 1.43.093.145.344.208.535.269.545.175 1.093.17 1.845-.137-1.844-.723-3.185-2.182-5.214-1.917-.565.074-1.007.324-1.403.718.276-.008.534-.07.779-.165.283-.11.542-.339.869-.198zM35.696 61.313c-.29-.015.004-.494-.373-.461-.213.019-.396.124-.387.301.012.251-.361.692-.006.975.47.375.967.759 1.572.759h1.643c-.768 0-1.331-.99-1.965-1.381-.059-.035-.374-.822-.484-.193zM27.475 10.139c.348-.079.701-.136 1.216-.233-.477-.248-.727-.52-1.132-.61-.224-.049-.547-.208-.62-.049-.12.261-.144.64-.046.909.12.33.379.029.582-.017zM24.544 10.073c.356.041.663.387 1.066.123.395-.258.701.163 1.065.165.045-1.195.045-1.195-.81-1.157.322 1.481-.961.449-1.321.869z"/><path d="M39.722 23.663c0 .295.32.48.646.531.344.054.515-.169.643-.353-.045-.416-.332-.575-.636-.575-.259-.001-.653.107-.653.397zM23.341 10.368c-.367-.237-.367-.237-.85-.14.28.147.528.341.85.14zM30.46 10.887h-.891.891zM32.727 16.022c.099-.061.282-.012.277-.253-.023-.151-.18-.112-.294-.103-.092.007-.307-.092-.229.14.018.054-.03.385.246.216z"/></g></svg>