<svg xmlns="http://www.w3.org/2000/svg" width="62.452" height="51.729" xml:space="preserve"><g fill="#B3B4B4"><path d="M14.799 23.025c-.039-.139-.066-.284-.12-.417-.144-.357-.218-.674.176-.951.145-.102.213-.323.24-.527.09-.686.272-1.35.477-2.009a.118.118 0 0 0 .008-.048c-.034-.193.27-.273.213-.369-.151-.254-.002-.48.009-.708.017-.358.104-.725.337-1.014.19-.236.04-.541.164-.749.514-.86.157-1.646-.157-2.437-.074-.187-.015-.357-.008-.532.02-.529-.299-1.074.129-1.595.126-.153-.1-.291-.285-.234-.116.036-.253.131-.301.237-.187.407-.435.401-.795.217-.432-.221-.876-.108-1.218.423-.469.729-1.215.905-1.94 1.125-.354.107-.676-.102-.904-.378-.481-.584-1.183-.746-1.845-.957-.314-.1-.637-.032-.654.468-.017.51-.447.851-1.028.922-.402.049-.926-.29-1.062-.713-.061-.189-.06-.38-.334-.175-.1.075-.197-.085-.277-.158-.173-.157-.339-.072-.502.002-.12.054-.245.158-.343.002-.104-.165.091-.214.16-.311.028-.04.058-.077.133-.175-.345.023-.638.046-.932.058-.093.004-.275-.05-.255-.071.364-.38-.371-.543-.166-.891.068-.116-.043-.123-.134-.107-.127.022-.209-.051-.181-.163.149-.58-.258-.764-.665-.812-.58-.068-.56-.339-.348-.778.186.286.44.393.82.239-.315-.211-.55-.43-.24-.789.028-.032-.054-.177-.105-.257-.2-.313-.288-.63-.037-.95-.131-.103-.211-.006-.301.01-.226.04-.494.125-.655-.057-.186-.209-.038-.483.059-.696.334-.731.958-1.031 1.745-.876.048.009.111.04.143.021.495-.297 1.05-.085 1.564-.194.148-.032.456.048.313-.32-.072-.185.125-.15.22-.166.301-.052.605-.09 1.025-.149-.348-.176-.652-.085-.871-.274-.116-.1-.251-.174-.209-.351.044-.181.198-.218.35-.194.728.111 1.471-.12 2.197.117.322.105.585-.027.71-.356.102-.267.327-.424.54-.557.9-.565 1.787-1.143 2.952-1.008.532.061 1.118.163 1.62-.214.116-.087.231-.013.349.078.349.269.702.537 1.191.279.191-.101.256.112.309.231.118.267.31.353.588.339.161-.008.332.01.485.057.828.255 1.63.177 2.419-.151.401-.167.819-.23 1.253-.208.5.026.94-.103 1.273-.508.511-.621 1.182-.926 1.977-.972.12-.007.225-.036.303-.135a.35.35 0 0 1 .248-.143c.443-.046 1.432.741 1.453 1.19.022.468.237.766.665.933.661.258 1.112.805 1.647 1.232.654.523 1.808.524 2.413-.046.187-.177.244-.413.261-.671.031-.474.23-.846.697-1.04.582-.241 1.1.028 1.235.644.02.091.004.167-.059.223-.385.338-.143.434.182.565.17.068.368.18.507.143.591-.156.658.255.832.641.323.715.845.942 1.564.726.362-.108.624-.146.958.187.5.498 1.905.51 2.534.137.254-.151.518-.293.746-.479.45-.368 1-.467 1.53-.628.405-.123.569-.361.362-.769-.084-.166-.122-.337.08-.415.619-.241.786-.816.986-1.343.204-.538.534-.888 1.093-1.027a.623.623 0 0 0 .437-.361c.27-.571.756-.785 1.328-.54.291.125.563.163.854.086.589-.155 1.234.052 1.797-.345.208-.147.583-.113.793.086.274.26.578.253.907.271.276.016.55.086.821.147.301.068.59.055.861-.093.335-.183.528-.078.697.251.477.93.881 1.863.74 2.955-.041.317.1.616-.15.951-.142.19-.035.659.348.729.3.055.343.209.334.436-.013.341.056.669.254.935.403.54.797 1.076 1.032 1.721.113.31.417.31.718.245.745-.162 1.262.228 1.239 1.002-.019.619-.134 1.237-.232 1.851-.048.299.042.482.327.562.294.082.536.252.753.454.603.56 1.303.738 2.09.525.35-.095.573.02.739.311.154.271.308.542.455.817.075.141.155.265.339.193.266-.104.499-.086.611.206.12.313.006.604-.247.785-.219.156-.373.365-.568.533-.949.819-.734 1.946-.343 2.854.143.332.046.449-.178.496-.812.169-1.52.842-2.436.514-.14-.05-.191.1-.288.146-.493.232-1.018.334-1.552.435-.546.103-1.124.023-1.641.28-.392.195-.826.257-1.243.264-.535.008-.818-.429-1.07-.833-.157-.252-.269-.545-.531-.696-.387-.222-.77-.278-1.194.008-.629.425-1.039 1.067-1.624 1.535-.31.249-.58.484-1.001.375-.188-.048-.368.002-.529.069-.327.138-.639.307-.919-.073-.016-.021-.065-.037-.09-.029-.731.229-1.301-.103-1.88-.489-.268-.179-.606-.073-.909.016-.521.154-.937.012-1.245-.439-.542-.795-1.426-1.177-2.138-1.766-.164-.135-.376-.216-.524-.364-.225-.225-.406-.208-.629-.005-.326.296-.697.262-.991-.096-.13-.158-.213-.331-.467-.246-.31.104-.092.289-.075.439.027.241-.228.336-.263.56-.052.336-.302.103-.466.116-.098.007-.199-.015-.295-.001-.161.023-.319.065-.484.1.016.231.217.287.335.41.278.288.225.535-.153.614-.167.035-.287.091-.304.26-.022.218.149.228.299.226.237-.003.37.126.432.331.12.397.374.732.569 1.081.212.38.751.407 1.162.546.414.14.813.264 1.071.664.217.336.613.273.941.329.675.116 1.116.571 1.195 1.276a.404.404 0 0 0 .214.316c.502.262.937.59 1.239 1.085.077.126.232.304.402.183.165-.117.059-.295-.033-.437-.404-.628-.158-1.305-.136-1.962.005-.156.109-.369.305-.311.221.065.536.135.562.41.072.76.661 1.434.333 2.276-.059.15-.058.635.55.612.372-.014.773.155 1.167-.026.089-.041.219-.068.253-.139.246-.509.709-.595 1.195-.636 1.049-.089 1.698-.719 1.949-1.663.197-.742.656-1.345.875-2.055.171-.552.479-1.015.713-1.452.753.34.694 1.104.974 1.695.342.721 1.068.92 1.753 1.123.827.245 1.662.047 2.489-.048.311-.036.584-.037.841.149.344.249.775.344 1.097.645.153.143.39.116.612.095.36-.034.589.124.61.528.039.74-.082 1.44-.471 2.079-.287.471-.202 1.021-.342 1.523-.072.258-.139.5-.488.354-.143-.059-.202-.002-.269.116-.33.576-.254 1.729.156 2.245.333.419.317.607-.193.8-.807.306-1.096.851-.963 1.679.075.469-.178.757-.564.996-.407.252-.912.408-1.065.96-.05.18-.077.333-.022.521.148.509-.13.943-.639 1.042-.097.019-.199.075-.288.058-.823-.159-1.282.41-1.803.873-.245.218-.422.561-.83.529a.564.564 0 0 1-.191.468c-.535.513-1.088 1.035-.744 1.907.082.208-.067.325-.265.393-.371.126-.659.36-.853.705a.899.899 0 0 1-.386.369c-1.219.614-2.224 1.554-3.4 2.232-.235.136-.365.324-.397.628-.062.586-.717 1.209-1.288 1.274-.388.044-.682.209-.885.544-.517.85-1.297 1.304-2.255 1.493-.643.127-1.224.298-1.398 1.088-.081.364-.492.62-.802.762-.752.345-1.439.924-2.354.819-.121-.014-.227-.017-.293-.132-.507-.875-1.299-1.568-1.635-2.556-.045-.132-.162-.244-.26-.353a3.624 3.624 0 0 1-.94-2.001c-.099-.707-.496-1.373-1.003-1.887-.412-.418-.658-1.032-1.209-1.266-.709-.3-1.116-.884-1.593-1.414-.077-.085-.187-.169-.209-.27-.183-.826-.862-1.236-1.434-1.734a1.717 1.717 0 0 0-.987-.411c-.765-.061-1.285-.418-1.565-1.131-.261-.662-.668-1.264-.698-2.02-.016-.407-.21-.777-.571-1.05-.173-.131-.27-.366-.396-.558-.561-.852-1.229-1.512-2.349-1.552-.354-.013-.575-.381-.703-.692-.281-.687-.655-1.272-1.312-1.664a2.07 2.07 0 0 1-.604-.568c-.716-1.01-1.847-1.624-2.528-2.665-.113-.172-.278-.269-.507-.221-.319.067-.425-.093-.369-.389.068-.36-.109-.674-.185-1.006-.099-.436.003-.588.438-.6.388-.011.778-.002 1.166-.016-.54-.106-1.102.087-1.642-.153-.291.74-.433 1.513-.558 2.288-.034.211-.065.386-.294.455-.21.064-.406.025-.537-.144-.376-.486-.929-.857-1.02-1.533a.35.35 0 0 0-.056-.136c-.361-.574-.843-1.079-.982-1.792-.29.358-.456.676-.068 1.033a.62.62 0 0 1 .17.398c.033.817.603 1.316 1.078 1.872.074.086.246.156.243.229-.02.611.494.98.654 1.494.498 1.595 1.422 2.972 2.2 4.424.074.138.223.237.341.35.186.179.557.248.18.654-.183.197.04.597.069.906.056.596-.151.887-.752.947-.213.021-.219.181-.25.311-.085.349-.265.591-.628.679-.227.055-.348.207-.419.434-.144.463-.569.656-.976.363-.407-.292-.802-.289-1.253-.241-.456.049-.975.165-1.365.005-.496-.203-.866.056-1.291.079-.869.046-1.738.088-2.607.123-1.936.078-3.872.145-5.807.23-.397.018-.605-.075-.616-.526-.029-1.214-.105-2.427-.144-3.641-.081-2.527-.154-5.055-.218-7.582-.008-.297-.039-.572-.301-.735-.386-.241-.111-.69-.36-1.003-.24-.301-.175-.677.177-.951.129-.1.073-.276.032-.419-.117-.412-.006-.842-.127-1.268-.046-.161.103-.492.546-.496.648-.006 1.292-.101 1.946.007.472.078.923.183 1.371.366.416.169.875.246 1.323.316.309.049.635.068.907.205.439.221.795.126 1.122-.178.341-.317.82-.414 1.146-.753.047-.048.159-.063.234-.051.725.123 1.416-.147 2.127-.181.114-.005.183.035.25.116.691.84 1.575.811 2.497.53.722-.215.717-.232 1.107.436z"/><path d="M1.884 6.373c-.286-.722.5-.581.591-.944-.027-.023-.05-.059-.072-.058-.241.007-.516.146-.714-.024-.276-.238.128-.402.14-.636.015-.281.044-.589.28-.816.046-.044.047-.153.042-.23-.012-.18-.407-.32-.096-.523.297-.193.638-.376 1.008-.267.23.068.44.089.67.048.126-.022.3-.038.343.113.184.633.737.779 1.247.995.129.055.381.039.296.294-.063.187-.243.268-.432.267-.195-.001-.39-.056-.584-.053-.513.006-.98.081-1.336.547-.367.478-.985.698-1.383 1.287zM14.255 13.787c-.059.423-.466.514-.525.827-.163.856-.898 1.121-1.538 1.47-.333.182-.979-.092-1.145-.433-.097-.199-.063-.349.148-.437.544-.228.968-.689 1.595-.769.516-.066.946-.394 1.465-.658z"/></g></svg>