<svg xmlns="http://www.w3.org/2000/svg" width="52.16" height="49.087" xml:space="preserve"><g fill="#B3B4B4"><path d="M36.559 10.974c-.586-.032-.909-.567-.78-1.182-.267.182-.421.358-.783.081-.275-.21-.768-.69-.983-.548-.581.386-.736-.045-.978-.335-.205-.246-.496-.313-.619-.076-.18.346-.524.448-.743.748-.116-.849-.346-1.152-.841-1.14-.557.887-.583 1.34-.111 1.875-.172-.149-.269-.322-.346-.551-.135-.401.046-.808-.1-1.193-.394-.05-.8.165-.757.544.057.502-.45 1.167.321 1.502.241.105.572.096.156.428-.21.167.059.156.108.187.852.53 1.656-.146 2.491-.111.02.001.054-.067.064-.106.124-.501.122-.48.563-.163.29.209.548.447.964.515.965.159 1.398.877 1.214 1.828-.026.134-.089.26-.004.392.1.156.58.217.122.512-.227.146-.376.514-.643.465-.404-.075-.38.195-.45.4-.059.173.09.257.216.287.251.061.452.069.589-.266.181-.442.531-.418.968-.262.505.18.836.72 1.42.679.227-.016.405-.06.63.087.164.108.439.057.665.058.19.001.31-.151.324-.3.014-.149-.18-.169-.298-.216-.362-.144-.797-.128-1.063-.538.271.236.538-.096.83.065.188.103.544.118.609-.102.06-.203-.111-.479-.197-.717-.017-.047-.117-.058-.168-.1-.417-.345-.979-.333-1.436-.59-.289-.162-.433-.46-.399-.688.065-.438.366-.11.577-.08.406.057.735.388 1.205.354-.088-.244-.311-.454-.028-.662M28.371 2.088c.021.131.102.207.225.244.347-.15.275.219.41.331.184-.105.419-.17.54-.324.256-.325.232-.344.676-.24-.727.865-.727.865-.345 1.31-.418.149-.531-.558-.958-.334-.094.259.095.394.23.565.157.198.416.332.432.628-.007.014-.009.03-.015.045-.353-.148-.443.139-.502.478.305.07.344-.199.464-.365.334.201-.151.578.169.782.072.046.269-.012.168.179-.06.115-.186.107-.302.098-.177-.013-.214-.327-.449-.211-.165.258.306.293.188.461-.114.162-.38.26-.078.448.216.134.44.121.67-.075.159-.137.446-.307.621-.168.306.243.43.012.456-.16.039-.26-.237-.291-.41-.263-.239.039-.373-.201-.281-.212.514-.058.41-.455.545-.747.175-.376.149-.568-.208-.784-.126-.077-.317-.344-.144-.423.649-.298.53-.884.617-1.399.012-.018.018-.035.025-.053.093-.181.257-.365-.054-.525-.047.042-.1.081-.128.131-.049-.071-.06-.156-.002-.265-.128-.327.243-.428.314-.682.097-.346.012-.652-.307-.529-.379.146-.933-.29-1.16.341-.023.063-.2.076-.308.104-.568.148-.475.477-.232.847-.33.102-.77-.005-.895.476a.555.555 0 0 1 .028.291z"/><path d="M48.348 26.388c-.76.476-1.566.27-2.078-.528-.08-.124-.154-.258-.301-.115-.224.217-.383.024-.596-.031.179-.195.411-.276.5-.508.073-.19.217-.376.022-.561-.173-.163-.378-.123-.566-.019-.118.066-.24.142-.33.24-.67.733-1.198 1.541-1.295 2.564l-.042-.022-.128-.143c-.12-.568.019-1.105.176-1.646.082-.281.475-.467.449-.633-.147-.968.737-1.087 1.202-1.52.323-.301.772-.468 1.167-.691.321-.181.649-.396.713-.767.099-.569.325-1.07.589-1.572.157-.298.478-.701.017-.944-.321-.169-.393-1.187-1.087-.392-.075.086-.243-.152-.348-.266a.353.353 0 0 0-.292-.31c-.906.346-1.81.438-2.71-.02l-.138-.264c.081-.131.1-.208-.085-.3-.498-.247-1.048-.416-1.45-.822-.29-.293-.593-.533-1.015-.582-.067.136-.08.281.014.39.455.531.158 1.005-.1 1.482-.063.116-.15.279-.299.132-.361-.354-.658-.032-1.094.177.274-.515-.11-.696-.233-.983l.003-.209c-.195-.103-.133-.492-.489-.425-.435.083-.834-.056-1.181-.295-.427-.296-.775-.363-1.203.044-.181.172-.641.041-.836.208-.435.374.329.449.26.701-.132.476.17.763.408 1.044.272.322.253.597.023.878-.131.159-.291.353-.008.388.677.083.837.657 1.064 1.097.147.285.735.324.481.828-.163.324-.3.661-.467.982-.083.16-.21.297-.31.45-.057.087-.179.201-.052.29.581.409.508 1.332 1.323 1.569-.202.111-.401.261-.333.379.363.622-.52.417-.499.791-.146-.038-.363.137-.429-.143-.074-.31-.331-.322-.575-.344-.089-.008-.164.107-.248-.08-.278-.617-.649-1.196-.793-1.868-.088-.411-.282-.485-.68-.362-.84.259-1.571.03-2.279-.497-.441-.328-1.081-.553-1.582-.393-.581.186-.611-.06-.763-.45-.139-.356.044-1.07-.777-.85-.091.024-.226-.155-.248-.348-.153-1.287.098-2.419 1.154-3.278.284-.231.137-.356-.126-.478s-.645-.037-.82-.471c.337.055.621.095.902.149.123.024.273.15.315-.073.061-.324.281-.354.552-.383.417-.044.358-.427.391-.692.041-.331-.254-.25-.439-.252-.327-.004-.527-.126-.623-.535.238.107.39.159.525.239.521.31.717-.229.639-.418-.243-.587.065-.373.389-.456.296-.075.733-.193.87-.566.113-.309.067-.618-.257-.842-.135-.093-.191-.261-.155-.476.081-.485-.289-.833-.77-.79-.186.017-.379.092-.245.271.428.571-.167 1.077-.061 1.621.015.075-.094.218-.179.26-.15.074-.251-.058-.333-.167-.15-.199-.325-.387-.283-.671.035-.239-.065-.419-.225-.57-.323.17-.091.491-.268.689-.484-.685-.944-1.369-1.111-2.205-.041-.207-.119-.392-.349-.466-.105-.034-.253-.119-.285.026-.093.414-.19.837-.198 1.258-.006.329.412.278.6.466.174.175.392 1.094.193 1.139-.619.139-.235.59-.312.86-.708.135-.161-1.04-.965-.821.02.181.392.202.222.482-.735-.083-1.592.295-2.182-.417-.391-.471-.639-.15-.943.02-.328.183 0 .453-.075.676-.034.1.011.253-.144.259-.114.004-.175-.075-.201-.214-.097-.516-.356-.793-.952-.736-.294.028-.616-.136-.91-.251-.156-.061-.387-.216-.136-.393.524-.369.201-.465-.149-.596-.28-.105-.494-.315-.731-.492-.378-.283-.536-1.086-1.282-.605-.012.008-.098-.07-.125-.121-.164-.302-.798-.246-.615-.832.035-.113-.178-.03-.269-.051-.458-.105-.908.15-1.305.034-.348-.159.531-.238-.038-.39-.362-.133-.779.316-1.114-.106-.275-.277-.722-.361-.832-.836-.062-.267-.242-.032-.367.016.126-.389.147-.88-.196-1.045-.883-.428-1.003-1.401-1.562-2.056-.349-.409-.47-1.032-.997-1.436-.498-.383-1.086-.56-1.559-.439-.506.13-.792.089-1.138-.242-.25-.235-.489-.203-.447.204.05.483-.437.901-.093 1.44.142.222-.265.362-.438.521-.088.082-.215.208-.345.041-.123-.156-.392-.377-.275-.497.511-.527-.138-.468-.295-.571-.203-.133-.562-.441-.687-.225-.229.394-.663.795-.257 1.392.252.372.568.527.976.629-.2.368-.414.653-.724.858-.219-.401-.731-.118-.992-.424-.5-.59-1.445-.465-1.821.173-.308.522-.574.983-.071 1.519.04.043.073.158.049.185-.356.393-.122.729-.071 1.158.07.581.306.749.671.903-.669.663-1.417.533-2.25.436-.595-.07-1.028-.467-1.596-.488l-.702-.39c-.123-.039-.248-.274-.367-.044-.059.113.104.16.213.183.207.186.461.284.718.374.878.561 1.868.943 2.866 1.037.716.068 1.588.768 2.251-.181.768.028 1.532-.218 2.507-.076-.615.29-1.297.127-1.365.836.253.098.541.171.788.315.246.143.463.129.595-.082.226-.362.365-.157.558.018.252.228.361.51.427.832.049.24.068.513.292.672.704.497 1.046 1.237 1.36 1.997-.004.366.345.681.213 1.047-.382 1.065-.078 2.114.049 3.162.063.52.402.778.958.56-.225.74-.157 1.489.007 2.22.079.353.145.678-.009 1.013-.046.1-.165.204-.033.293.679.458.94 1.236 1.436 1.832.274.329.087.857.528 1.088-.307.332-.1.734-.144 1.101-.036.3.028.623-.314.825-.065-.759-.155-.848-.96-.922.225 1.111-.163 2.074-.618 3.055-.22.475-.689.924-.581 1.475.166.845-.559 1.494-.355 2.383.119.518-.021 1.046.543 1.393.145.089.19.393-.031.498-.142.067-.189.154-.136.23.339.49.135 1.164.569 1.624.113.12.212.288.13.493-.067.168-.029.285.174.363.962.367 1.547 1.083 1.843 2.053.006.139-.018.287.122.384.011-.145.085-.22.204-.245.018.003.036.006.055.007l.138.003c.202.152.742.093.742.083v-.006.006c0 .017.047.033.11.049a.677.677 0 0 1 .303.234c1.043.591 1.966 1.415 3.262 1.424.138.005.266.014.403.023.254.084.502.092.752-.003.116-.014.23-.036.346-.072.929.01 1.452.616 1.923 1.303.059.079.1.168.139.257a.426.426 0 0 0 .11.246c.028.058.06.113.099.165.826.711.831.71 1.382-.026a.437.437 0 0 1 .334-.111c.05.015.1.026.15.032.051.017.101.038.152.062.288.152.486.41.724.622.176.138.189.356.266.543.344.576.455 1.303 1.094 1.687.085.035.172.065.258.092a.67.67 0 0 0 .389.08c.094.008.19-.586.288-.598.022-.004.044-.607.066-.607h.037c-.003 0-.006.594-.008.592.21-.098.129.036.085-.111-.213-.71-.022-1.096.589-1.552.412-.308 1.242-.065 1.203-.921 0-.008.09-.002.125.011.388.148.793-.153 1.1-.051.549.181 1.076-.314 1.605.08.479.357.896.231 1.273-.31-.105-.008-.246.025-.306-.031-.128-.119-.458.009-.41-.252.051-.282.289-.124.484-.126.6-.007 1.137-.376 1.78-.288.492.067 1.036-.228 1.461.259.16.183.338.127.539.018.659-.357 1.58.178 1.721.934.187 1.01.817 1.727 1.663 2.268.228.145.327.146.43-.196.339-1.132-.499-1.841-.949-2.644-.394-.703-.838-1.286-.622-2.172.235-.965 1.079-1.452 1.613-2.165.308-.411.775-.861.901-1.285.112-.374.322-.337.519-.417-.154-.36-.471-.125-.654-.267.019-.223.234-.201.339-.306.221-.222.026-.471-.096-.462-.428.034-.359-.162-.337-.45.01-.13-.015-.338-.198-.468-.298-.212-.18-1.055.228-1.381-.063.519-.011.963.469 1.213.612-.546-.468-.829-.237-1.268.281-.275.447.386.72.01.272-.374.193-.718-.036-1.075-.096-.149-.145-.328-.216-.493a.365.365 0 0 1-.011-.144c.002.048.002.095.011.144.423-.436 1.08-.693 1.095-1.439.69-.259.72-.478.623-1.152-.069-.474-.239-1.013.103-1.502.318-.455.619-.9 1.123-1.192.176-.102.383-.315.324-.621-.065-.337-.409-.073-.529-.271.437-.215.856-.546 1.033-.941.253-.562.58-.473 1.131-.348-.58.226-.662.715-.874 1.106-.137.253-.061.556.27.664.33.108.424-.188.43-.385.02-.72.554-1.152.871-1.706.101-.177.39-.383.204-.579-.188-.201-.387.063-.572.179zm-4.544 1.029.06-.019c-.004.013-.01.022-.014.035l-.046-.016.006.025a.196.196 0 0 0-.106-.012l.1-.013zm-5.856 7.219a.019.019 0 0 0 .007-.002l-.005.008-.002-.006zm-.499-1.501c-.029-.093-.241-.179-.233-.268.048-.509-.237-.888-.755-1.08-.543-.201-.811.114-.964.541-.031.086-.132.152-.201.213-.494.441-.47.958-.216 1.496.108.229.22.45.197.713-.021.236-.082.482-.324.562-.293.096-.387-.174-.493-.368-.157-.288-.192-.605-.194-.929-.001-.249.076-.503-.014-.748-.222-.609-.065-1.011.518-1.294.331-.161.686-.245 1.044-.323.117-.025.218-.092.238-.216.027-.164-.086-.246-.22-.303-.377-.16-.758-.177-1.126.014a1.324 1.324 0 0 1-1.187.054c-.361-.152-.709-.147-1.033.105-.359.279-.758.317-1.176.224.174-.534.815-.584 1.029-1.064-.023-.016-.045-.025-.068-.036a1.9 1.9 0 0 0 1.037-.736c.108-.153.274-.284.465-.22.572.191 1.263.407 1.53.878.483.853 1.102.9 1.891.723.5-.112.949-.012 1.323.348.215.207.264.401-.112.45-.247.033.011.09.042.371.058.52.306.999.306 1.488v-.038c.002-.597-.708-.721-1.304-.557z"/><path d="M50.483 20.942c-.194-.138-.397.134-.527.296-.268.334-.771-.126-.989.317l-.272-.736c-.023-.064-.056-.126-.067-.192-.029-.17-.016-.436-.241-.389-.243.051-.071.291-.073.46-.01 1.078.72 2 .609 3.151.624-.497 1.149-1.068 1.797-1.379.446-.214.454-.478.358-.752a1.724 1.724 0 0 0-.595-.776zM20.713 9.667c.297.001.585.066.807-.265.167-.248.375-.537.76-.496l.157.135c-.501.412-.676.814.075 1.157-.176.178-.554-.002-.528.327.02.261.272.323.517.32.132-.002.272-.018.376.096l-.157.296c-.252.075-.642-.132-.748.135-.137.348.184.539.491.682.106.05.224.202.231.314.023.342.257.317.493.417.558.237 1.02-.05 1.377-.299.307-.214.318.003.49.061.342.115.676.702 1.084.092l-.011-.467c.432-.184.138-.385-.028-.483-.417-.247-.581-.519-.579-1.056.001-.403.07-.896-.196-1.292-.192-.004-.471-.165-.417.256.023.179.006.364 0 .545-.004.139-.014.282-.213.273-.145-.007-.207-.107-.187-.227.06-.352-.219-.413-.418-.589-.312-.275.021-.27-.085-.79-.002-.011.749-.005.749-.007V8.66c0-.396-1.886-1.456-2.261-1.375-.074.016-.592.088-.64.155-.288.404-.787.815-1.071 1.222-.268.385.02.649-.068 1.005zM30.282 7.682c.074-.064.149-.269.319-.112.206.19.372.076.533-.07-.235-.205.004-.559-.165-.709-.154-.137-.503-.284-.678-.038-.538.753-1.105.52-1.701.118-.118-.138.187-.536-.229-.457-.334.063-.357-.424-.668-.29-.051.022-.125.108-.115.134.031.078.092.15.156.207.211.188.586.087.726.407.036.417-.054 1.044.494 1.021.414-.017.929.133 1.328-.211zM31.573 15.161c.24.68-.142 1.501.711 1.933.057-.094.143-.182.169-.285.13-.528.341-.826.889-.38.056.046.174.024.263.018.099-.006.17-.065.174-.168.004-.113-.094-.128-.176-.166-.654-.302-1.304-.61-2.03-.952zM28.127 3.907c.157-.082.346.131.2.205-.419.212-.088.437-.028.589.12.307.271-.241.442-.029.604-.864.604-.884.003-1.349-.339-.087-.411-.437-.626-.646-.095-.092-.161-.274-.301-.139-.307.297.047.726-.171 1.053.231-.011.094.518.481.316z"/><path d="M23.405 6.806c-.012.027-.2-.031-.261.092.087.185.263.336.429.239.414-.243.531.138.813.26-.213.216-.567-.053-.646.298.031.112.127.13.215.126.458-.024.851-.399 1.372-.195.15.059.26-.27.267-.48.014-.415-.295.113-.349-.116-.698.254-1.002-.215-1.295-.706-.363.072-.357.075-.545.482zM26.78 9.689c-.64.376-.012.566.115.806.067.128.134.37.394.247.223-.105.373-.254.361-.564.077-.205-.138-.313-.242-.481-.079-.126-.356-.197-.157-.433.082-.098.207-.24.001-.312a.76.76 0 0 0-.46.007c-.148.049-.062.183-.015.282.072.152.11.385.003.448zM13.512 27.482c-.412-.787-.486-1.645-1.135-2.248-.048-.045-.107-.107-.163-.109-.142-.006-.325.084-.19.215.388.38.357.945.63 1.333.193.276.119.824.858.809zM28.7 9.525c.036.008.218-.498.268-.777.008-.042-.328-.187-.515-.213-.275-.039-.429.098-.494.4-.091.419.033.781.193 1.254.215-.28-.002-.792.548-.664zM26.576 6.687c-.25.447.265.642.38 1.145.227-.54.475-.938.164-1.325-.181-.225-.475.058-.544.18zM23.273 5.896c.138.117.269.14.386-.028.001-.211.128-.464-.218-.546-.541-.127-.634.492-1.092.52.363.425.628-.196.924.054zM27.592 13.178c.157-.033.43.047.4-.141-.049-.298-.25-.612-.562-.674-.273-.054-.234.308-.268.456-.067.303.241.298.43.359zM34.461 12.701c-.048-.184-.126-.435-.355-.44-.21-.005-.28.219-.248.397.029.166.091.359.372.367.105-.064.278-.146.231-.324zM26.884 5.195c-.002-.587-.238-.928-.859-1.069.235.442.429.809.859 1.069zM48.836 25.067c-.077.307-.181.621.117.816.129.085.255-.043.329-.155.371-.561-.576-.234-.446-.661zM51.637 21.754c-.069.011-.271.009-.205.179.131.336.438.273.728.303-.06-.32-.184-.537-.523-.482zM45.6 23.853c.47-.002.845.107 1.272-.219-.508-.095-.849-.02-1.272.219zM28.193 7.694c-.037-.17-.128-.332-.332-.335-.052-.001-.166.188-.149.267a.413.413 0 0 0 .323.314c.154.026.162-.111.158-.246z"/><path d="m25.121 6.816-.137-.676c-.224.368-.059.526.137.676zM27.581 5.041c.001.001.024-.033.043-.06.018-.184-.077-.316-.301-.479-.127.327.083.425.258.539zM25.548 8.995c-.018-.048-.185-.099-.229-.069-.188.126.038.265.012.405.153-.06.289-.145.217-.336zM25.331 9.331l-.009.004.003.006h.005zM18.346 9.865c-.144-.111-.236-.012-.427.19l.457-.074c-.01-.04-.005-.097-.03-.116zM10.951 21.169c-.085.037-.148.109-.127.213.016.08.075.093.146.061.072-.04.192-.044.177-.159-.013-.095-.09-.161-.196-.115zM47.537 26.072c-.074.069-.008.108.056.109.08.002.161-.017.3-.034-.089-.077-.131-.143-.177-.146a.263.263 0 0 0-.179.071zM37.264 31.137l-.191.205c.063.021.125.058.188.058.079 0 .204.009.159-.134-.015-.047-.09-.076-.156-.129z"/></g></svg>