<svg xmlns="http://www.w3.org/2000/svg" width="75.007" height="56.473" xml:space="preserve"><g fill="#B3B4B4"><path d="M0 0c1.064.453 2.259.244 3.146 1.587.596.901 1.418 1.815 2.477 2.228.677.263 1.185.994 1.875 1.314.108.05.211.318.206.48-.027.946.385 1.617.872 2.282.203.278.319.63.647.768.537.225.76.608.642 1.366-.123.793-.065 1.626-.087 2.442l-.029.027c-.077-.016-.161-.064-.23-.043-1.278.397-1.834-.942-2.6-1.653-.812-.754-1.574-1.655-1.98-2.861-.429-1.278-1.245-2.278-1.788-3.493-.347-.775-1.006-1.619-1.715-2.205C.801 1.714.267 1.086 0 .189V0zM37.505 44.168c.687-.608.721-1.419.878-2.189-.367.793-1.322.808-1.553 1.838-.077.344-.521-.014-.567-.265-.161-.893-.796-1.359-1.179-2.046-.083-.149-.218-.297-.355-.355-1.559-.661-3.12-1.241-4.774-.401-1.033.524-2.262.156-3.235.992-.125.107-.346.122-.408.256-.53 1.14-1.409.913-2.221.798-1.114-.158-2.028.421-2.965.978-.993.59-2.342.328-3.068-.582-.202-.253-.272-.578.017-.805.745-.588.58-1.475.318-2.147-.533-1.365-.652-2.901-1.296-4.206-.119-.242-.166-.553-.319-.75-.349-.448-.39-.903-.152-1.422.262-.021.243.383.44.454.104-.14.077-.283.01-.366-.942-1.163-.278-2.476-.231-3.726.005-.121.112-.91.412-.113.042.112.122.049.178-.027.925-1.269 2.215-1.61 3.491-2.01.449-.14.87-.361 1.345-.44 1.223-.201 1.931-1.116 2.08-2.573.051-.498.324-.809.641-1.007.32-.199.315.422.639.506-.045-.538.075-.808.532-1.055.299-.162.508-.852.781-1.295.652-1.06 1.868-1.303 2.669-.466.55.575 1.007.462 1.359-.313.209-.46.472-.876.667-1.356.205-.504.6-.862 1.165-.723.28.069.621.103.784-.246.157-.336-.203-.356-.326-.523-.08-.108-.112-.231-.006-.322.193-.165.408-.143.587.017.563.504 1.267.556 1.874.876.447.235.758-.263 1.255.036.698.42.857.468.332 1.216-.096.137-.244.221-.357.319.023.341.23.236.359.268.243.061.427.221.317.508-.109.284-.307.117-.455-.028-.335-.327-.393.13-.526.292-.199.243-.183.509.078.707.728.55 1.454 1.105 2.185 1.649.396.295.724-.055 1.251-.369-.333.605-.523 1.037.035 1.271.46.193.815.098 1.054-.458.343-.796.552-1.632.5-2.529-.073-1.283.12-2.5.535-3.676.082-.232.124-.511.4-.486.215.019.3.229.349.451.201.903.693 1.691.699 2.679.001.268.054.627.461.589.63-.059.961.461 1.045 1.098.165 1.246.808 2.293.944 3.547.091.845.826.866 1.266 1.091.893.459 1.207 1.337 1.551 2.256.053.141.079.397.15.414 1.376.338 1.475 2.226 2.517 2.983.259.189.398.515.815-.057-.228 1.217-.175 2.157.105 3.095.197.663.137 1.35-.079 2.021-.318.987-.218 2.139-.792 3.022-.381.586-.888 1.028-1.13 1.775-.375 1.157-1.059 2.155-1.14 3.471-.038.614-.516.726-.953.768-.441.042-.947-.073-1.273.349-.727.942-1.502.919-2.35.313-.192-.138-.376-.168-.594-.052-1.31.696-2.435-.154-3.578-.688-.344-.161-.511-.633-.554-1.168-.089-1.1-.486-1.348-1.332-.957-.122.056-.242.126-.369.157-.327.081-.663.247-.979-.025-.037-.032-.048-.207-.015-.241.258-.276.574-.255.89-.215.338.042.556-.147.649-.527.047-.193.011-.4-.151-.49-.17-.095-.215.111-.268.241-.202.497-.537.476-1.059.394zM33.417 9.178l1.513-.311.061-.254c-1.073.12-1.857-.576-2.729-1.179.789-.673 1.543-1.24 2.522-.468.268.212.512.411.442.788-.15.808.315 1.266.641 1.801.218.358.547.333.746.034.387-.582.949-.88 1.386-1.367.288-.321.584-.425.93-.227 1.659.95 3.489 1.35 5.144 2.315.657.383 1.326.657 1.626 1.621.156.501.749.5 1.151.707.191.098.431.12.471.425.04.313-.223.277-.353.402-.489.47-.014.739.19 1.026.77 1.083 1.663 2.02 2.56 2.962-1.429-.211-2.824-.36-3.62-2.151-.396-.891-1.886-1.065-2.507-.408-.231.245-.485.181-.735.3.138.229.586.131.469.57a.504.504 0 0 1-.579.385c-.725-.136-1.515.113-2.122-.713-.345-.471-.902-.436-1.395-.199-.257.123-.551.265-.653-.149a.538.538 0 0 1 .432-.669c.685-.084.452-.554.3-.956-.384-1.015-.969-1.742-1.907-2.074-.634-.224-1.292-.387-1.847-.943-.247-.248-.719-.735-1.146-.043-.139.225-.339-.019-.362-.269-.042-.43-.316-.631-.629-.956zM18.685 10.264c-.204.091-.422.187-.64.286-.177.081-.398.178-.477-.094-.206-.705-.802-.696-1.171-.688-.656.014-1.245.059-1.916-.201-.592-.229-.986-.338-1.035-1.169-.021-.361-.077-.716-.45-.99-.51-.374-.694-2.27-.407-2.909.182-.406.342-.57.694-.136.616.758 1.347.825 2.091.234.294-.233.557-.308.878-.151.717.349 1.214.085 1.496-.78.206-.632.549-1.17.73-1.843.236-.878.971-.492 1.509-.445.467.041.484.397.461.939-.033.776.152 1.569.641 2.173.142.176.407.284.367.563-.046.326-.325.256-.523.265-.444.019-.569.348-.603.807-.025.334.085.759-.202.965-.907.648-.825 1.757-.924 2.77-.039.42-.051.729-.519.404zM71.225 51.06c.025.18-.122.398-.259.636-.309.536-.917.843-.865 1.667.011.175-.198.16-.325.173-.694.071-1.087.502-1.386 1.285-.611 1.6-1.383 1.94-2.787 1.438-.174-.062-.358-.135-.535-.128-.326.012-.694.058-.797-.389-.092-.398.214-.681.425-.951.776-.992 1.849-1.414 2.808-2.043.806-.529 1.237-1.4 1.686-2.264.263-.506.472-.858.926-.283.137.173.303.267.495.156.537-.309.568.126.614.703zM22.88 10.577c-.025.375-.082.752-.068 1.126.021.564-.275.631-.61.593-.335-.039-.439-.336-.34-.689.19-.678.209-1.272-.316-1.781-.193-.187-.15-.539-.038-.799.403-.937.537-1.953.679-2.976.125-.907.969-1.48 1.691-1.247 1.016.328 2.043.683 2.94-.386.059-.07.211-.109.282-.069.151.086.091.263.048.412-.203.701-.893 1.231-1.503 1.05-.811-.24-1.614-.102-2.422-.072-.312.012-.493.175-.589.504-.143.491.166.745.39 1.046.224.301.401.129.608-.046.469-.395 1.04-.394 1.574-.509.51-.109.433.431.44.767.008.382-.2.629-.51.4-.419-.31-.666.077-.892.303-.301.302.053.574.188.781.328.5.002 1.202.447 1.705.157.178-.324.266-.497.424-.149.136-.457.214-.446-.042.027-.641-.675-.822-.561-1.474.035-.197-.031-.399-.233-.404-.231-.006-.308.177-.301.439.008.314.002.628.002.942a.435.435 0 0 0 .037.002zM75.007 47.123c-.008.444-.206.961-.453 1.042-.971.318-.897 1.585-1.513 2.201-.176.176-.305.419-.517.564-.3.205-.574.108-.801-.119-.24-.239.006-.446.103-.645.25-.517.09-.794-.339-1.008-.469-.233-1.176-.395-.201-1.129.41-.309.411-1.03.217-1.647-.222-.705-.715-1.154-1.07-1.731-.133-.216-.362-.459-.111-.733.205-.224.437-.078.655.051.424.249.529.734.674 1.208.083.269.14.845.508.194.191-.337.214.004.273.13.139.3.239.633.409.904.396.632.885.785 1.507.415.465-.279.661-.149.659.303z"/><path d="M9.779 12.467c.946.146 1.876.252 2.734.912.406.312 1.051.44 1.532-.14.061-.074.214-.134.279-.095.835.509 1.762.381 2.675.464-.137.59-.603.294-.892.776.7.008 1.277.234 1.854.467.295.119.709.032.587.584-.095.432-.362.321-.684.153-.309-.161-.716-.03-1.075-.04-1.65-.046-3.191-.842-4.842-.9-.65-.023-1.397-.113-1.932-.8-.139-.178-.425-.189-.677-.29l.41-1.065a.388.388 0 0 0 .031-.026zM47.922 51.052c-.182.543.005 1.417-.793 1.876-.703.405-1.189.427-1.712-.281-.428-.579-.49-1.371-.814-2.013-.097-.192-.039-.441.079-.623.181-.277.347-.002.472.083.676.466 1.365.316 2.055.106.498-.151.768.009.713.852z"/></g></svg>