<?xml version="1.0" encoding="UTF-8" standalone="no"?>
<svg
   xmlns:dc="http://purl.org/dc/elements/1.1/"
   xmlns:cc="http://creativecommons.org/ns#"
   xmlns:rdf="http://www.w3.org/1999/02/22-rdf-syntax-ns#"
   xmlns:svg="http://www.w3.org/2000/svg"
   xmlns="http://www.w3.org/2000/svg"
   version="1.1"
   width="512"
   height="512"
   viewBox="0 0 512 512"
   id="svg6">
  <metadata
     id="metadata12">
    <rdf:RDF>
      <cc:Work
         rdf:about="">
        <dc:format>image/svg+xml</dc:format>
        <dc:type
           rdf:resource="http://purl.org/dc/dcmitype/StillImage" />
        <dc:title></dc:title>
      </cc:Work>
    </rdf:RDF>
  </metadata>
  <defs
     id="defs10" />
  <g
     id="g2" />
  <path
     d="M 248.10849,467.60805 V 370.73474 H 165.14817 C 184.9348,409.98054 212.24316,441.81039 248.10849,467.60805 M 264.88434,370.7242 V 467.8299 C 300.92921,441.94769 328.38549,410.04392 348.11928,370.7242 Z M 264.67303,141.77787 C 265.90904,141.97856 266.63796,142.18987 267.37751,142.17933 294.45341,142.13702 321.55046,142.07364 348.62636,141.99971 348.79544,141.99971 348.98559,141.83071 349.11236,141.68279 349.22851,141.55602 349.24967,141.33417 349.49267,140.6264 329.98065,100.40867 301.97506,67.036518 264.67303,40.29862 Z M 163.05647,142.11594 H 248.14018 V 40.531005 C 211.07054,67.226673 183.18118,100.65159 163.05647,142.11594 M 367.82145,142.16871 C 380.69913,143.34133 437.58709,142.85541 442.16142,141.4504 406.71864,87.224615 357.75379,53.651683 293.93579,41.914935 325.78671,70.026147 350.53852,103.26099 367.82145,142.16871 M 145.47769,142.3061 C 162.71839,103.21868 187.57589,70.05784 219.47958,41.967782 187.1322,47.059651 157.80605,59.292941 131.23724,78.054877 106.98197,95.179423 86.899448,116.27597 70.95814,142.3061 Z M 71.158833,370.69251 C 88.484071,398.59241 110.44698,421.00952 137.30103,438.68337 163.94385,456.2093 210.66908,473.34438 225.99769,471.0836 191.79099,443.54285 165.63409,410.00169 147.10462,370.69251 Z M 442.22481,370.81928 H 365.74029 C 347.34812,410.57216 321.10676,443.82809 286.97399,471.34776 302.66175,472.53092 343.6401,458.40662 368.70884,443.26824 398.84837,425.06615 423.28326,401.05388 442.22481,370.81928 M 451.23601,158.59602 H 374.57195 C 385.23115,187.80586 390.4921,217.47 391.41118,248.02153 H 474.02289 C 476.10405,227.78066 463.96584,180.32643 451.23601,158.59602 M 121.99357,248.10607 C 122.70143,217.06861 128.42714,187.46786 138.72719,158.55371 H 61.725096 C 47.738105,186.90793 40.026299,216.4453 38.832523,248.10607 Z M 391.25272,264.35376 C 390.02733,295.32783 383.87899,325.03421 373.10355,354.19127 H 451.57409 C 465.57154,326.02729 473.28342,296.26807 474.27642,264.35376 Z M 38.758601,264.27976 C 40.089684,296.24692 47.653644,326.03783 61.71448,354.07504 H 140.26959 C 129.25115,324.92859 123.32466,295.15883 122.1415,264.27976 Z M 157.65821,354.03281 H 247.96057 V 264.3643 H 138.25181 C 139.39274,295.7293 145.86861,325.48852 157.65821,354.03281 M 375.05787,264.40653 H 265.0428 V 354.03281 H 355.70439 C 367.37776,325.20329 373.94863,295.63422 375.05787,264.40653 M 138.57935,247.9793 H 248.06618 V 158.53264 H 156.44328 C 146.66093,177.69596 135.9911,231.10837 138.57935,247.9793 M 265.08503,158.47979 V 248.05322 H 375.0051 C 374.65648,216.75169 368.39192,187.04524 357.21501,158.47979 Z M 488.98173,256.25103 C 489.70012,380.90802 388.30532,488.91592 256.25345,488.768 128.0046,488.62015 23.704682,384.89073 24.190607,255.50095 24.67661,123.91386 132.33593,23.734001 256.72884,23.839695 384.82976,23.94531 489.5205,128.81565 488.98173,256.25103"
     style="fill:#b3b4b4;fill-opacity:1;fill-rule:nonzero;stroke:none;stroke-width:10.5641"
     id="path1064-1-3" />
</svg>
