<?xml version="1.0" encoding="UTF-8" standalone="no"?>
<svg
   xmlns:dc="http://purl.org/dc/elements/1.1/"
   xmlns:cc="http://creativecommons.org/ns#"
   xmlns:rdf="http://www.w3.org/1999/02/22-rdf-syntax-ns#"
   xmlns:svg="http://www.w3.org/2000/svg"
   xmlns="http://www.w3.org/2000/svg"
   width="57.027122mm"
   height="52.260502mm"
   viewBox="0 0 57.027122 52.260502"
   version="1.1"
   id="svg5638">
  <defs
     id="defs5632">
    <clipPath
       clipPathUnits="userSpaceOnUse"
       id="clipPath896-0-6">
      <path
         d="M 0,841.89 H 595.276 V 0 H 0 Z"
         id="path894-3-76" />
    </clipPath>
    <clipPath
       clipPathUnits="userSpaceOnUse"
       id="clipPath972-1-9">
      <path
         d="M 0,841.89 H 595.276 V 0 H 0 Z"
         id="path970-0-7" />
    </clipPath>
    <clipPath
       clipPathUnits="userSpaceOnUse"
       id="clipPath1056-3-6">
      <path
         d="M 0,841.89 H 595.276 V 0 H 0 Z"
         id="path1054-6-0" />
    </clipPath>
    <clipPath
       clipPathUnits="userSpaceOnUse"
       id="clipPath1116-7-9">
      <path
         d="M 0,841.89 H 595.276 V 0 H 0 Z"
         id="path1114-3-0" />
    </clipPath>
    <clipPath
       clipPathUnits="userSpaceOnUse"
       id="clipPath1056-3-6-3">
      <path
         d="M 0,841.89 H 595.276 V 0 H 0 Z"
         id="path1054-6-0-6" />
    </clipPath>
    <clipPath
       clipPathUnits="userSpaceOnUse"
       id="clipPath1065">
      <rect
         style="fill:#000000;stroke-width:0.482437;stroke-dasharray:1.44731, 1.44731"
         id="rect1067"
         width="52.718533"
         height="46.845741"
         x="301.07346"
         y="-430.2337"
         transform="scale(1,-1)" />
    </clipPath>
  </defs>
  <metadata
     id="metadata5635">
    <rdf:RDF>
      <cc:Work
         rdf:about="">
        <dc:format>image/svg+xml</dc:format>
        <dc:type
           rdf:resource="http://purl.org/dc/dcmitype/StillImage" />
        <dc:title></dc:title>
      </cc:Work>
    </rdf:RDF>
  </metadata>
  <g
     id="layer1"
     transform="translate(-45.423041,-54.483619)">
    <g
       id="g7466-2-7"
       transform="translate(14.21564,25.404329)">
      <g
         id="g1144">
        <g
           id="g1050-4-2"
           transform="matrix(0.35277777,0,0,-0.35277777,-64.396633,188.76266)">
          <g
             clip-path="url(#clipPath1056-3-6)"
             id="g1052-9-0"
             transform="translate(8.7125659,-11.743024)">
            <g
               transform="translate(332.252,400.0558)"
               id="g1058-1-7">
              <path
                 id="path1060-23-1"
                 style="fill:#6bc852;fill-opacity:1;fill-rule:nonzero;stroke:none"
                 d="m 0,0 c 0.28687937,-15.495223 -11.12926,-30.212854 -26.173535,-33.887122 -13.548411,-3.61361 -28.972421,1.795196 -37.103255,13.269751 -8.421955,11.3990171 -8.972075,27.9746763 -1.009844,39.761551 7.251958,11.200574 21.193139,17.614281 34.414247,15.493452 C -16.255943,32.705376 -4.313837,22.110484 -1.089477,8.6920743 -0.36451615,5.8555697 0.00447917,2.9278431 0,0 Z" />
            </g>
            <g
               transform="translate(296.4683,380.0538)"
               id="g1062-18-6">
              <path
                 id="path1064-1-4"
                 style="fill:#ffffff;fill-opacity:1;fill-rule:nonzero;stroke:none"
                 d="m 0,0 c 0,3.0566667 0,6.1133333 0,9.17 -2.6176667,0 -5.2353333,0 -7.853,0 C -6.0422758,5.5293469 -3.3124317,2.3556313 0,0 Z m 1.588,9.171 c 0,-3.064 0,-6.128 0,-9.192 C 4.5095256,2.3343981 7.7742812,4.9264672 8.8628726,8.6633922 8.6048963,9.739876 6.4011211,8.9103512 5.3102783,9.171 c -1.2407594,0 -2.4815189,0 -3.7222783,0 z m -0.02,21.672 c 2.2534021,0.373504 7.3018824,-0.978595 7.6779838,0.81239 -1.6453955,3.167924 -5.1032821,7.580752 -7.6779838,8.397712 0,-3.070034 0,-6.140068 0,-9.210102 z m -9.619,-0.032 c 2.6846667,0 5.3693333,0 8.054,0 0,3.205333 0,6.410667 0,9.616 -3.4452282,-2.4507 -6.2300903,-5.805179 -8.054,-9.616 z m 19.383,-0.005 c 2.346806,-0.03538 9.082914,-0.995382 5.128043,2.641333 C 13.364401,37.027404 9.0152917,39.52436 4.338,40.296 7.3147073,37.684614 9.7345492,34.432157 11.332,30.806 Z M -9.715,30.793 c 1.2152929,3.692442 4.3034895,6.272753 6.4342205,9.399717 C -8.8419531,39.166056 -13.840032,35.612568 -16.769,30.793 c 2.351333,0 4.702667,0 7.054,0 z M -16.75,9.174 c 3.156782,-5.1088224 8.6318858,-8.87557574 14.657,-9.503 -3.6819298,2.2661304 -5.1938121,6.7835988 -8.259588,9.503 -2.132471,0 -4.264941,0 -6.397412,0 z M 18.375,9.162 c -2.413333,0 -4.826667,0 -7.24,0 C 9.9042938,5.3496141 6.4588257,2.9147166 4.3404766,-0.3307207 10.078302,0.65745091 15.333651,4.1919384 18.375,9.162 Z m 0.853,20.089 c -2.419,0 -4.838,0 -7.257,0 1.826149,-2.376735 0.08396,-7.125678 2.781486,-8.465 2.210838,0 4.421676,0 6.632514,0 0.02,2.946629 -0.840312,5.849074 -2.157,8.465 z m -31.166,-8.473 c -0.963708,2.612411 2.7826027,7.205494 0.198565,8.477 -1.967855,0 -3.93571,0 -5.903565,0 -0.720014,-2.388623 -3.66664,-6.930849 -0.979514,-8.477 2.228171,0 4.456343,0 6.684514,0 z M 13.55,19.24 c 0.917509,-2.631218 -2.897172,-7.20978 -0.332565,-8.504 2.014188,0 4.028377,0 6.042565,0 0.736947,2.392585 3.658013,6.954552 0.961514,8.504 -2.223838,0 -4.447676,0 -6.671514,0 z m -33.367,0.007 c 0.531743,-2.802102 0.128849,-7.489596 3.360486,-8.5 2.082838,0 4.165676,0 6.248514,0 -1.862452,2.379778 -0.198868,7.147876 -2.903486,8.5 -2.235171,0 -4.470343,0 -6.705514,0 z m 11.255,-8.496 c 2.8493333,0 5.6986667,0 8.548,0 0,2.829333 0,5.658667 0,8.488 -3.4616667,0 -6.9233333,0 -10.385,0 0.100231,-2.908493 0.7205971,-5.799765 1.837,-8.488 z m 20.579,8.484 c -3.4713333,0 -6.9426667,0 -10.414,0 0,-2.828 0,-5.656 0,-8.484 2.8606667,0 5.7213333,0 8.582,0 1.097099,2.69263 1.735261,5.576301 1.832,8.484 z m -22.385,1.555 c 3.4546667,0 6.9093333,0 10.364,0 0,2.822333 0,5.644667 0,8.467 -2.891,0 -5.782,0 -8.673,0 -1.0887033,-2.679692 -1.747313,-5.564496 -1.691,-8.467 z m 11.975,8.472 c 0,-2.826333 0,-5.652667 0,-8.479 3.4683333,0 6.9366667,0 10.405,0 -0.49676,2.730314 0.248729,7.404457 -2.8714859,8.479 -2.5111714,0 -5.0223427,0 -7.5335141,0 z M 22.801,20.007 C 23.131119,8.62252 13.128635,-1.804339 1.7458119,-2.0129723 -8.891134,-2.6335029 -19.222301,5.5336822 -20.886352,16.099763 -22.723862,25.84725 -17.155595,36.410967 -7.9518671,40.217975 1.4154064,44.393789 13.469111,40.986714 19.040611,32.306313 21.480524,28.704252 22.842161,24.363872 22.801,20.007 Z" />
            </g>
          </g>
        </g>
        <g
           id="g1110-3-9"
           transform="matrix(0.35277777,0,0,-0.35277777,-54.698873,150.8955)">
          <g
             clip-path="url(#clipPath1116-7-9)"
             id="g1112-8-5">
            <g
               transform="translate(332.1826,232.1808)"
               id="g1118-9-3"
               style="fill:#58aecf;fill-opacity:1">
              <path
                 id="path1120-2-5"
                 style="fill:#58aecf;fill-opacity:1;fill-rule:nonzero;stroke:none"
                 d="m 0,0 c 0.19051141,-13.728126 -8.633793,-26.967163 -21.322828,-32.167406 -12.465646,-5.429464 -27.950803,-2.619957 -37.675368,6.896723 -9.854357,9.15626 -13.450358,24.2412094 -8.850775,36.872276 4.447708,13.092355 17.308566,22.74606 31.140527,23.264979 13.44648,0.869063 26.8865821,-6.925137 32.8890234,-18.97299 C -1.3041572,10.999109 0.00837716,5.5017217 0,0 Z" />
            </g>
            <g
               transform="translate(320.8379,228.7013)"
               id="g1122-4-1">
              <path
                 id="path1124-5-1"
                 style="fill:#ffffff;fill-opacity:1;fill-rule:nonzero;stroke:none"
                 d="M 0,0 C -2.2083273,4.9913774 -4.2618014,10.058338 -6.685,14.95 -8.9629832,9.9675066 -11.241423,4.985222 -13.52,0.003 -9.0366984,-0.33095464 -4.4839491,-0.32857979 0,0 Z m -33.365,0.041 c -2.315351,5.1158882 -4.403599,10.348177 -6.919,15.363 -2.593034,-5.012876 -4.85038,-10.2311995 -6.775,-15.536 4.552632,-0.20549221 9.15541,-0.24188197 13.694,0.173 z m 7.544,-11.512 c 0,9.9233333 0,19.8466667 0,29.77 -4.599086,0.30048 -9.244947,0.306456 -13.841,-0.037 2.570443,-6.121264 5.173283,-12.2812079 8.181,-18.19725 -0.527454,-3.5175648 -6.700008,-5.5643643 -10.474664,-4.9027686 -2.75454,0.2788681 -7.243691,2.5352493 -7.440258,4.66103423 1.784485,2.75410437 2.769853,6.04194147 4.244988,9.00139967 0.861787,3.0762767 4.352901,7.3559527 3.412309,9.6465847 -1.507507,0.457207 -0.786206,3.774276 1.385047,2.733438 3.932227,0.728477 7.671705,2.668458 11.776719,2.190468 4.854905,-0.210958 9.736633,0.356659 14.57037,-0.153314 C -10.879865,22.564212 -7.8419225,21.461881 -4.67,20.996 -3.6532553,19.2693 -5.2830423,18.493943 -5.815625,17.856125 -3.3623457,12.001517 -0.64874447,6.2365352 1.946,0.437 3.270978,-2.2960321 -2.419859,-4.5035466 -5.0347614,-4.8648322 -9.104855,-5.4012098 -13.489302,-3.7819246 -15.983,-0.466 c 1.909852,2.4021943 2.682442,5.5361573 4.09807,8.2514277 1.563426,3.5270853 3.2014953,7.0220633 4.67193,10.5895723 -4.506873,0.261104 -9.039723,0.05658 -13.558,0.118 -0.346854,-9.9712066 -0.347412,-19.9656256 -0.123,-29.941 3.512529,-1.441099 8.766924,-1.162895 11.304,-3.384468 0.6154792,-2.969198 -3.810373,-1.079228 -5.575596,-1.646858 -7.334085,-0.02074 -14.676999,-0.153442 -22.005404,0.148326 -0.946217,3.366681 3.545659,2.599464 5.6495,3.525625 1.902335,0.435349 3.808624,0.854794 5.7005,1.334375 z" />
            </g>
          </g>
        </g>
        <g
           transform="matrix(0.35277777,0,0,-0.35277777,-26.601781,91.232522)"
           id="g1846-10-0">
          <g
             id="g1158-0-0"
             transform="translate(307.40035,63.058388)"
             style="fill:#803296;fill-opacity:1">
            <path
               id="path1160-13-7"
               style="fill:#803296;fill-opacity:1;fill-rule:nonzero;stroke:none"
               d="m 0,0 c 0.19121988,-13.769113 -8.6585326,-27.048422 -21.385687,-32.264297 -12.502809,-5.445464 -28.034332,-2.627895 -37.787867,6.917241 -9.883531,9.183974 -13.489482,24.3140853 -8.876702,36.982922 4.460649,13.131525 17.360266,22.813414 31.233323,23.333572 13.486204,0.87169 26.9661163,-6.945415 32.9862656,-19.028915 C -1.3079866,11.031591 0.00840193,5.5179669 0,0 Z" />
          </g>
          <g
             id="g1162-3-0"
             transform="matrix(0.72579364,0.13417649,-0.13417649,0.72579364,282.67499,46.843508)"
             style="stroke-width:1.35484">
            <path
               id="path1164-0-8"
               style="fill:#ffffff;fill-opacity:1;fill-rule:nonzero;stroke:none;stroke-width:1.35484"
               d="M 0,0 C -7.8036848,-0.29320151 -14.061137,8.1292359 -11.658494,15.523604 -9.7934737,23.18816 0.26345781,26.866018 6.6866468,22.359101 13.385437,18.33136 14.062308,7.7782135 7.9507507,2.9127246 5.7639854,1.0229692 2.8856258,-0.00971145 0,0 Z m 21.762,15.781 c -0.34848,3.235647 -1.701715,7.578799 -5.761,4.957 -2.919584,1.949179 -4.495859,5.120478 -2.064875,8.109375 -1.922481,2.38183 -7.2789276,6.121913 -8.413125,1.000625 -2.9785715,-1.355617 -7.1371446,0.02922 -7.322,3.811 -3.6053226,0.813341 -9.626054,-1.143053 -6.823125,-5.873 -2.404529,-3.048899 -5.173914,-3.698325 -8.289875,-1.812125 -2.636617,-2.512488 -5.303738,-7.346164 -0.302,-8.708875 0.409274,-3.446455 -0.516544,-6.669369 -4.342875,-7.051 -0.197351,-2.4743177 0.428154,-8.7065411 4.234375,-6.9535 3.680617,0.784392 6.376727,-5.0981245 3.44675,-7.774625 2.287682,-2.932851 7.4676279,-5.663869 8.85025,-0.54225 3.5399283,0.3564272 6.5558973,-0.7175205 7.1242187,-4.4693906 2.6352861,-0.00444 8.9602913,0.5861387 6.7529219,4.6540156 C 8.7177298,-1.5780738 13.876777,1.3369307 16.54,-1.75 c 3.0203,1.94077292 5.896202,7.4975555 0.760875,8.78875 -0.447285,3.518703 0.429734,6.724205 4.362875,7.0985 L 21.854,14.899 Z" />
          </g>
          <g
             style="stroke-width:1.84436"
             transform="matrix(0.53008204,-0.11395472,0.11395472,0.53008204,258.87062,67.821854)"
             id="g1836-0-1">
            <path
               id="path1834-0-6"
               style="fill:#ffffff;fill-opacity:1;fill-rule:nonzero;stroke:none;stroke-width:1.84436"
               d="m 0,0 c -8.5412329,-0.35828851 -14.91333,9.6797999 -11.008793,17.286912 3.4542581,8.51367 16.5710654,9.45721 21.22643,1.546918 C 15.58915,11.097645 9.4807357,-0.32411018 0,0 Z m 21.762,15.781 c 0.100427,4.947322 -2.817166,6.152535 -6.609,5.488 -3.624202,2.522806 -1.851253,5.302265 -1.657,8.307 -3.080856,2.807346 -7.0617536,4.291906 -8.895,-0.315 -3.80096821,-0.209495 -5.7684554,1.365516 -6.862,4.684875 -3.7431534,0.02069 -8.886372,-1.510028 -6.361125,-6.159875 -2.464354,-3.864878 -5.550115,-2.627891 -8.674875,-2.109 -3.502843,-3.352561 -3.426993,-7.013563 0.193,-9.352 0.693993,-4.23585 -2.365341,-5.146314 -4.667,-7.031 0.103242,-3.9472411 1.975788,-8.0171768 6.318,-5.8565 3.553806,-2.52883515 2.753317,-5.4002875 1.904,-8.5385 3.40048,-3.6906906 7.0298353,-3.4370604 9.456,0.101 4.40720379,0.9541645 4.83285112,-2.6163909 6.929,-4.669 3.6335825,0.2420573 8.355811,1.6593767 5.82925,6.15425 2.420025,3.04669679 5.195597,3.87803579 8.36675,1.885375 3.00194,2.8346599 4.923962,7.3601762 0.118,9.154375 -0.782048,4.410974 2.096894,5.538029 4.704,7.374 z" />
          </g>
        </g>
        <g
           id="g966-4-4"
           transform="matrix(0.35277777,0,0,-0.35277777,-35.875683,235.46512)">
          <g
             clip-path="url(#clipPath972-1-9)"
             id="g968-37-0"
             transform="translate(19.319168,-47.729709)">
            <g
               transform="translate(332.4893,568.4279)"
               id="g974-1-7"
               style="fill:#e0173a;fill-opacity:1">
              <path
                 id="path976-3-5"
                 style="fill:#e0173a;fill-opacity:1;fill-rule:nonzero;stroke:none"
                 d="m 0,0 c 0.19238275,-13.848769 -8.7088715,-27.204726 -21.509719,-32.450484 -12.575165,-5.476763 -28.196283,-2.642973 -38.006462,6.957048 -9.941092,9.236785 -13.568312,24.4545866 -8.928479,37.196717 4.486808,13.20742 17.460954,22.945517 31.414378,23.468893 13.564367,0.876708 27.122321,-6.9858 33.1773853,-19.139285 C -1.3155873,11.095516 0.00845058,5.5499442 0,0 Z" />
            </g>
            <g
               transform="translate(303.834,589.8761)"
               id="g978-96-4">
              <path
                 id="path980-4-0"
                 style="fill:#ffffff;fill-opacity:1;fill-rule:nonzero;stroke:none"
                 d="m 0,0 c -4.3569042,2.8463062 -10.344855,2.6817169 -14.446044,-0.569819 -6.177452,-4.0949392 -6.826951,-13.707644 -1.793325,-18.956792 0.804018,-1.279613 5.056674,-3.697134 2.210803,-1.16053 -4.982448,5.273795 -4.0229,14.5731312 1.872036,18.7694177 C -8.7504363,0.73490453 -4.0616143,1.3483584 0,0 Z m -6.563,-34.449 c -3.2202072,-0.205893 -7.881377,-0.67372 -6.922828,3.989437 -0.847387,6.309309 -7.798352,9.263685 -9.051407,15.413817 -2.130525,8.6657221 4.130409,18.4542773 13.0622498,19.7647899 C -1.2900098,6.3731287 7.5032845,0.79131365 9.3414763,-7.3819939 10.76205,-12.648189 9.24332,-18.57235 5.1761094,-22.278828 2.249268,-25.153443 0.04835486,-28.9414 0.17990234,-33.160928 -0.65126663,-35.665225 -4.5704157,-33.936568 -6.563,-34.449 Z" />
            </g>
            <g
               transform="translate(297.3965,551.1696)"
               id="g982-2-1">
              <path
                 id="path984-02-2"
                 style="fill:#ffffff;fill-opacity:1;fill-rule:nonzero;stroke:none"
                 d="M 0,0 C -1.9133176,-0.28016396 -9.2589572,-0.33376727 -5.405125,2.37625 -1.6300606,2.2897342 2.232207,2.6625295 5.9529688,2.1803125 8.3868744,-1.3070075 1.311073,0.42627339 0,0 Z" />
            </g>
            <g
               transform="translate(297.3291,547.4801)"
               id="g986-9-8">
              <path
                 id="path988-5-0"
                 style="fill:#ffffff;fill-opacity:1;fill-rule:nonzero;stroke:none"
                 d="M 0,0 C -1.8320849,0.30150892 -7.8752833,-1.1875637 -6.0910469,2.151875 -2.2636761,2.584242 1.6878016,2.2724587 5.558,2.311 8.7220181,-0.09720638 2.9250012,-0.35506882 1.1941563,-1.40625e-4 l -0.59711333,9.9609375e-5 z" />
            </g>
            <g
               transform="translate(293.3213,546.0695)"
               id="g990-74-1">
              <path
                 id="path992-6-5"
                 style="fill:#ffffff;fill-opacity:1;fill-rule:nonzero;stroke:none"
                 d="M 0,0 C 2.583,0 5.166,0 7.749,0 9.0379347,-3.1370655 4.708947,-4.78942 2.2811875,-3.8351094 0.53758719,-3.4561284 -0.59441117,-1.729517 0,0 Z" />
            </g>
          </g>
        </g>
        <g
           id="g890-2-6"
           transform="matrix(0.35277777,0,0,-0.35277777,-49.204272,273.10233)">
          <g
             id="g5808-5-3"
             clip-path="url(#clipPath896-0-6)"
             transform="translate(10.227795,-80.30713)">
            <g
               id="g5798-8-7"
               transform="translate(297.271,772.026)"
               style="fill:#f67e1d;fill-opacity:1;stroke:none;stroke-opacity:1">
              <path
                 id="path5796-0-6"
                 style="fill:#f67e1d;fill-opacity:1;fill-rule:nonzero;stroke:none;stroke-opacity:1"
                 d="m 0,0 c -13.802666,0.19172784 -27.114269,-8.6797506 -32.342625,-21.438 -5.640665,-12.942546 -2.423512,-29.109921 7.865993,-38.820415 10.3225,-10.359698 27.3318681,-12.944357 40.28634,-6.182698 12.772257,6.244777 20.761659,20.798852 19.110072,34.929028 C 33.67794,-17.526856 23.148706,-5.0106039 9.6094193,-1.3315594 6.4886819,-0.44418935 3.2440661,0.00110811 0,0 Z" />
            </g>
            <g
               id="g5802-86-9"
               transform="translate(314.3672,747.4083)">
              <path
                 id="path5800-9-7"
                 style="fill:#ffffff;fill-opacity:1;fill-rule:nonzero;stroke:none"
                 d="M 0,0 C -2.8583333,4.9506667 -5.7166667,9.9013333 -8.575,14.852 -11.433667,9.9013333 -14.292333,4.9506667 -17.151,0 c 1.903,0 3.806,0 5.709,0 0,-13.338 0,-26.676 0,-40.014 1.8026696,0.834083 6.1354434,0.356659 5.733,3.105929 0,12.30269 0,24.605381 0,36.908071 1.903,0 3.806,0 5.709,0 z" />
            </g>
            <g
               id="g5806-33-2"
               transform="translate(283.8018,744.1349)">
              <path
                 id="path5804-7-6"
                 style="fill:#ffffff;fill-opacity:1;fill-rule:nonzero;stroke:none"
                 d="M 0,0 C 0,1.903 0,3.806 0,5.709 -4.9503333,2.8506667 -9.9006667,-0.00766667 -14.851,-2.866 -9.9006667,-5.7246667 -4.9503333,-8.5833333 0,-11.442 c 0,1.903 0,3.806 0,5.709 2.6806667,0 5.3613333,0 8.042,0 0,-10.352667 0,-20.705333 0,-31.058 1.7254881,0.191705 6.481956,-2.120425 5.733,1.10149 0,11.896503 0,23.793007 0,35.68951 C 9.1833333,0 4.5916667,0 0,0 Z" />
            </g>
          </g>
        </g>
        <g
           id="g1050-4-2-7"
           transform="matrix(0.35277777,0,0,-0.35277777,-64.388164,188.76327)"
           clip-path="url(#clipPath1065)">
          <g
             clip-path="url(#clipPath1056-3-6-3)"
             id="g1052-9-0-5"
             transform="translate(8.7125659,-11.743024)">
            <g
               transform="translate(332.252,400.0558)"
               id="g1058-1-7-3">
              <path
                 id="path1060-23-1-5"
                 style="fill:#6bc852;fill-opacity:1;fill-rule:nonzero;stroke:none"
                 d="m 0,0 c 0.1910054,-13.755335 -8.6506682,-27.020781 -21.365016,-32.231109 -12.49035,-5.439851 -28.006192,-2.625274 -37.750131,6.910155 -9.873855,9.174471 -13.476356,24.2893789 -8.868017,36.945434 4.456287,13.118408 17.342726,22.791194 31.202091,23.311002 C -23.307984,35.80628 -9.8413311,27.996605 -3.8269892,15.924947 -1.3067515,11.020818 0.00839366,5.5125827 0,0 Z" />
            </g>
            <g
               transform="translate(296.4683,380.0538)"
               id="g1062-18-6-6">
              <path
                 id="path1064-1-4-2"
                 style="fill:#ffffff;fill-opacity:1;fill-rule:nonzero;stroke:none"
                 d="m 0,0 c 0,3.0566667 0,6.1133333 0,9.17 -2.6176667,0 -5.2353333,0 -7.853,0 C -6.0396865,5.5261323 -3.3153729,2.3588013 0,0 Z m 1.588,9.171 c 0,-3.064 0,-6.128 0,-9.192 2.8729817,2.088124 7.5271566,6.5993348 7.2851529,9.192 -2.4283843,0 -4.8567686,0 -7.2851529,0 z m -0.02,21.672 c 2.6409196,0.0053 5.5165656,-0.181384 8.029,0.109 -1.8106286,3.78285 -4.6124192,7.070326 -8.029,9.497 0,-3.202 0,-6.404 0,-9.606 z m -9.619,-0.032 c 2.6846667,0 5.3693333,0 8.054,0 0,3.205333 0,6.410667 0,9.616 -3.4485743,-2.454427 -6.2269695,-5.801152 -8.054,-9.616 z m 19.383,-0.005 c 1.973115,0.173991 6.2385,-0.677436 6.718715,0.543488 C 14.950607,36.047363 9.8979449,39.375466 4.338,40.296 7.3159274,37.683043 9.7333604,34.4339 11.332,30.806 Z M -9.715,30.793 c 0.9960215,3.49829 5.6019979,7.833194 6.4342205,9.399717 C -8.8415542,39.167114 -13.840184,35.611573 -16.769,30.793 c 2.351333,0 4.702667,0 7.054,0 z M -16.75,9.174 c 3.138748,-5.097447 8.6706649,-8.89553155 14.657,-9.503 -3.5826524,2.2717806 -5.505251,6.9026843 -8.061847,9.503 -2.198384,0 -4.396769,0 -6.595153,0 z M 18.375,9.162 c -2.413333,0 -4.826667,0 -7.24,0 C 10.127507,5.5438956 5.0099138,1.2650834 4.3404766,-0.3307207 10.080289,0.65915432 15.329872,4.1884605 18.375,9.162 Z m 0.853,20.089 c -2.419,0 -4.838,0 -7.257,0 1.473789,-2.476038 0.77296,-6.800346 2.187847,-8.465 2.408718,0 4.817435,0 7.226153,0 0.02758,2.91137 -0.849821,5.882296 -2.157,8.465 z m -31.166,-8.473 c -0.499134,2.69314 1.796293,6.923414 0.990153,8.477 -2.231718,0 -4.463435,0 -6.695153,0 -0.972146,-2.389752 -3.001837,-6.752991 -1.573153,-8.477 2.426051,0 4.852102,0 7.278153,0 z M 13.55,19.24 c 0.449867,-2.711184 -1.906677,-6.94091 -1.124153,-8.504 2.278051,0 4.556102,0 6.834153,0 0.987402,2.394484 2.994768,6.771832 1.555153,8.504 -2.421718,0 -4.843435,0 -7.265153,0 z m -33.367,0.007 c 0.344999,-2.770114 0.504158,-6.990035 2.766847,-8.5 2.280718,0 4.561435,0 6.842153,0 -1.509965,2.481122 -0.884512,6.814485 -2.309847,8.5 -2.433051,0 -4.866102,0 -7.299153,0 z m 11.255,-8.496 c 2.8493333,0 5.6986667,0 8.548,0 0,2.829333 0,5.658667 0,8.488 -3.4616667,0 -6.9233333,0 -10.385,0 0.100379,-2.909259 0.7204007,-5.79897 1.837,-8.488 z m 20.579,8.484 c -3.4713333,0 -6.9426667,0 -10.414,0 0,-2.828 0,-5.656 0,-8.484 2.8606667,0 5.7213333,0 8.582,0 1.097301,2.693482 1.735091,5.575384 1.832,8.484 z m -22.385,1.555 c 3.4546667,0 6.9093333,0 10.364,0 0,2.822333 0,5.644667 0,8.467 -2.891,0 -5.782,0 -8.673,0 -1.0831524,-2.654379 -1.751903,-5.593035 -1.691,-8.467 z m 11.975,8.472 c 0,-2.826333 0,-5.652667 0,-8.479 3.4683333,0 6.9366667,0 10.405,0 -0.289153,2.709405 -0.195644,6.938766 -2.2778471,8.479 -2.709051,0 -5.4181019,0 -8.1271529,0 z M 22.801,20.007 C 23.057579,9.2802412 14.312378,-0.68041181 3.644325,-1.8229482 -6.4655404,-3.3345325 -16.987802,3.2255124 -20.060395,12.976852 c -3.302867,9.344092 0.677721,20.564626 9.192541,25.665471 8.5169726,5.578391 20.746275,4.014567 27.61201,-3.493977 C 20.609032,31.123712 22.851973,25.594347 22.801,20.007 Z" />
            </g>
          </g>
        </g>
      </g>
    </g>
  </g>
</svg>
