<svg xmlns="http://www.w3.org/2000/svg" width="215.536" height="197.52" viewBox="0 0 57.027 52.261"><defs><clipPath clipPathUnits="userSpaceOnUse" id="d"><path d="M0 841.89h595.276V0H0z"/></clipPath><clipPath clipPathUnits="userSpaceOnUse" id="c"><path d="M0 841.89h595.276V0H0z"/></clipPath><clipPath clipPathUnits="userSpaceOnUse" id="a"><path d="M0 841.89h595.276V0H0z"/></clipPath><clipPath clipPathUnits="userSpaceOnUse" id="b"><path d="M0 841.89h595.276V0H0z"/></clipPath><clipPath clipPathUnits="userSpaceOnUse" id="f"><path d="M0 841.89h595.276V0H0z"/></clipPath><clipPath clipPathUnits="userSpaceOnUse" id="e"><path transform="scale(1 -1)" stroke-width=".482" stroke-dasharray="1.44731,1.44731" d="M301.073-430.234h52.719v46.846h-52.719z"/></clipPath></defs><g clip-path="url(#a)" transform="matrix(.35278 0 0 -.35278 -92.53 163.826)"><path d="M332.252 400.056c.287-15.495-11.13-30.213-26.174-33.887-13.548-3.614-28.972 1.795-37.103 13.27-8.422 11.398-8.972 27.974-1.01 39.761 7.252 11.2 21.194 17.614 34.415 15.493 13.616-1.932 25.558-12.527 28.783-25.945a34.934 34.934 0 001.089-8.692z" fill="#6bc852"/><path d="M296.468 380.054v9.17h-7.853a24.953 24.953 0 017.853-9.17zm1.588 9.17v-9.191c2.922 2.355 6.187 4.947 7.275 8.684-.258 1.077-2.462.247-3.552.508h-3.723zm-.02 21.673c2.254.373 7.302-.979 7.678.812-1.645 3.168-5.103 7.58-7.678 8.398v-9.21zm-9.619-.032h8.054v9.616c-3.445-2.45-6.23-5.805-8.054-9.616zm19.383-.005c2.347-.036 9.083-.996 5.128 2.641-3.095 3.58-7.444 6.077-12.122 6.849 2.977-2.612 5.397-5.864 6.994-9.49zm-21.047-.013c1.216 3.692 4.304 6.273 6.435 9.4-5.562-1.027-10.56-4.58-13.489-9.4h7.054zm-7.035-21.62c3.157-5.108 8.632-8.875 14.657-9.502-3.682 2.266-5.194 6.783-8.26 9.503h-6.397zm35.125-.011h-7.24c-1.23-3.813-4.676-6.247-6.794-9.493 5.738.988 10.993 4.523 14.034 9.493zm.853 20.089h-7.257c1.826-2.377.084-7.126 2.782-8.465h6.632c.02 2.946-.84 5.849-2.157 8.465zm-31.166-8.473c-.963 2.612 2.783 7.205.199 8.477h-5.904c-.72-2.389-3.666-6.931-.98-8.477h6.685zm25.488-1.538c.918-2.631-2.897-7.21-.332-8.504h6.042c.737 2.392 3.658 6.954.962 8.504h-6.672zm-33.367.007c.532-2.802.13-7.49 3.36-8.5h6.25c-1.863 2.38-.2 7.148-2.904 8.5h-6.706zm11.255-8.496h8.548v8.488H286.07c.1-2.909.72-5.8 1.837-8.488zm20.58 8.484H298.07v-8.484h8.582a24.734 24.734 0 011.832 8.484zm-22.386 1.555h10.364v8.467h-8.673c-1.088-2.68-1.747-5.565-1.69-8.467zm11.975 8.472v-8.48h10.405c-.496 2.731.249 7.405-2.871 8.48h-7.534zm21.194-9.255c.33-11.385-9.672-21.812-21.055-22.02-10.637-.62-20.968 7.546-22.632 18.113-1.838 9.747 3.73 20.31 12.934 24.118 9.368 4.176 21.421.769 26.993-7.912 2.44-3.602 3.801-7.942 3.76-12.3z" fill="#fff"/></g><g clip-path="url(#b)" transform="matrix(.35278 0 0 -.35278 -85.906 121.816)"><path d="M332.183 232.18c.19-13.727-8.634-26.966-21.323-32.167-12.466-5.43-27.951-2.62-37.676 6.897-9.854 9.156-13.45 24.241-8.85 36.872 4.447 13.093 17.308 22.746 31.14 23.265 13.447.87 26.887-6.925 32.89-18.973a34.8 34.8 0 003.819-15.893z" fill="#58aecf"/><path d="M320.838 228.701c-2.208 4.992-4.262 10.059-6.685 14.95l-6.835-14.947a92.09 92.09 0 0113.52-.003zm-33.365.041c-2.315 5.116-4.404 10.348-6.92 15.363a131.42 131.42 0 01-6.774-15.536c4.553-.205 9.155-.242 13.694.173zm7.544-11.512V247c-4.6.3-9.245.307-13.841-.037 2.57-6.121 5.173-12.28 8.18-18.197-.527-3.518-6.7-5.564-10.474-4.903-2.754.28-7.243 2.536-7.44 4.661 1.784 2.754 2.77 6.042 4.245 9.002.862 3.076 4.353 7.356 3.412 9.646-1.507.458-.786 3.775 1.385 2.734 3.933.728 7.672 2.668 11.777 2.19 4.855-.21 9.737.357 14.57-.153 3.127-.677 6.165-1.78 9.337-2.246 1.017-1.726-.613-2.502-1.146-3.14 2.454-5.854 5.167-11.62 7.762-17.419 1.325-2.733-4.366-4.94-6.98-5.302-4.071-.536-8.455 1.083-10.95 4.4 1.91 2.401 2.683 5.535 4.099 8.25 1.563 3.528 3.201 7.023 4.672 10.59-4.507.261-9.04.057-13.558.118-.347-9.97-.348-19.965-.123-29.94 3.512-1.442 8.767-1.164 11.304-3.385.615-2.97-3.81-1.08-5.576-1.647-7.334-.02-14.677-.153-22.005.148-.946 3.367 3.546 2.6 5.65 3.526 1.902.435 3.808.855 5.7 1.334z" fill="#fff"/></g><path d="M50.635 39.908c.067 4.857-3.055 9.542-7.545 11.382-4.41 1.92-9.89.927-13.33-2.44-3.487-3.24-4.76-8.578-3.132-13.047 1.574-4.633 6.125-8.048 11.019-8.232 4.757-.307 9.513 2.45 11.636 6.713a12.313 12.313 0 011.352 5.624z" fill="#803296"/><path d="M41.912 45.628c-1.984.444-3.985-1.416-3.72-3.423.115-2.05 2.516-3.468 4.374-2.619 1.906.715 2.579 3.385 1.244 4.92a3.173 3.173 0 01-1.898 1.122zm4.825-5.07c-.242-.813-.794-1.86-1.71-.997-.84-.361-1.393-1.099-.912-1.979-.605-.519-2.153-1.223-2.201.142-.699.488-1.83.33-2.056-.63-.961-.037-2.41.75-1.469 1.828-.471.894-1.15 1.191-2.036.856-.557.768-1.01 2.132.335 2.244.267.863.183 1.732-.779 2.011.067.643.522 2.209 1.414 1.58.905-.375 1.874 1.004 1.25 1.827.725.643 2.18 1.097 2.292-.28.89-.258 1.712-.126 2.036.808.674-.124 2.266-.575 1.508-1.512-.19-.837.993-1.827 1.821-1.163.682-.64 1.155-2.199-.221-2.286-.281-.88-.208-1.742.781-2.024l.013-.204z" fill="#fff" stroke-width="1.355"/><path d="M33.515 38.227c-1.612-.276-2.4-2.41-1.364-3.675.988-1.453 3.479-1.102 4.031.564.694 1.663-.908 3.553-2.667 3.111zm4.704-2.076c.217-.921-.28-1.264-1.016-1.292-.576-.617-.133-1.066.024-1.62-.463-.649-1.148-1.086-1.676-.299-.719-.113-1.023-.487-1.095-1.152-.699-.154-1.722-.074-1.437.897-.616.623-1.143.268-1.707.045-.79.486-.923 1.174-.34 1.757-.04.82-.649.867-1.155 1.127-.14.742.047 1.579.946 1.35.563.615.298 1.12.013 1.672.487.827 1.176.926 1.772.362.863-.002.799.683 1.108 1.151.69.101 1.63.026 1.338-.916.575-.473 1.127-.517 1.64-.016.675-.41 1.217-1.179.39-1.708.031-.856.615-.95 1.176-1.19z" fill="#fff" stroke-width="1.844"/><g clip-path="url(#c)" transform="matrix(.35278 0 0 -.35278 -60.268 223.224)"><path d="M332.49 568.428c.192-13.849-8.71-27.205-21.51-32.45-12.576-5.477-28.197-2.644-38.007 6.956-9.941 9.237-13.568 24.455-8.928 37.197 4.486 13.208 17.46 22.946 31.414 23.47 13.564.876 27.122-6.987 33.177-19.14a35.104 35.104 0 003.853-16.033z" fill="#e0173a"/><path d="M303.834 589.876c-4.357 2.846-10.345 2.682-14.446-.57-6.177-4.095-6.827-13.707-1.793-18.957.804-1.28 5.056-3.697 2.21-1.16-4.982 5.274-4.022 14.573 1.872 18.77 3.407 2.652 8.095 3.265 12.157 1.917zm-6.563-34.449c-3.22-.206-7.881-.674-6.923 3.99-.847 6.309-7.798 9.263-9.051 15.413-2.13 8.666 4.13 18.455 13.062 19.765 8.185 1.654 16.978-3.928 18.816-12.1 1.421-5.267-.098-11.191-4.165-14.898-2.927-2.874-5.128-6.662-4.996-10.882-.831-2.504-4.75-.775-6.743-1.288zM297.397 551.17c-1.914-.28-9.26-.334-5.406 2.376 3.775-.087 7.638.286 11.358-.196 2.434-3.487-4.641-1.754-5.952-2.18zM297.33 547.48c-1.833.302-7.876-1.187-6.092 2.152 3.827.432 7.779.12 11.65.16 3.163-2.41-2.634-2.667-4.365-2.312h-.597zM293.321 546.07h7.75c1.288-3.138-3.04-4.79-5.469-3.836-1.743.38-2.875 2.106-2.28 3.835z" fill="#fff"/></g><g><g clip-path="url(#d)" transform="matrix(.35278 0 0 -.35278 -76.804 272.354)"><path d="M297.271 772.026c-13.803.192-27.114-8.68-32.343-21.438-5.64-12.943-2.423-29.11 7.866-38.82 10.323-10.36 27.332-12.945 40.287-6.183 12.772 6.245 20.761 20.799 19.11 34.929-1.242 13.985-11.771 26.501-25.31 30.18a35.142 35.142 0 01-9.61 1.332z" fill="#f67e1d"/><path d="M314.367 747.408l-8.575 14.852-8.576-14.852h5.71v-40.014c1.802.834 6.135.357 5.732 3.106v36.908h5.71zM283.802 744.135v5.709l-14.851-8.575 14.85-8.576v5.709h8.043v-31.058c1.725.192 6.482-2.12 5.733 1.101v35.69h-13.775z" fill="#fff"/></g></g><g transform="matrix(.35278 0 0 -.35278 -95.596 159.684)" clip-path="url(#e)"><g clip-path="url(#f)" transform="translate(8.713 -11.743)"><path d="M332.252 400.056c.191-13.756-8.65-27.021-21.365-32.231-12.49-5.44-28.006-2.626-37.75 6.91-9.874 9.174-13.477 24.29-8.868 36.945 4.456 13.119 17.343 22.791 31.202 23.311 13.473.871 26.94-6.939 32.954-19.01a34.868 34.868 0 003.827-15.925z" fill="#6bc852"/><path d="M296.468 380.054v9.17h-7.853a24.95 24.95 0 017.853-9.17zm1.588 9.17v-9.191c2.873 2.088 7.527 6.6 7.285 9.192h-7.285zm-.02 21.673c2.641.005 5.517-.182 8.03.109-1.811 3.783-4.613 7.07-8.03 9.497v-9.606zm-9.619-.032h8.054v9.616c-3.448-2.455-6.227-5.801-8.054-9.616zm19.383-.005c1.973.174 6.239-.678 6.719.543-3.1 4.698-8.153 8.026-13.713 8.947 2.978-2.613 5.396-5.862 6.994-9.49zm-21.047-.013c.996 3.498 5.602 7.833 6.435 9.4-5.561-1.026-10.56-4.582-13.489-9.4h7.054zm-7.035-21.62c3.139-5.097 8.671-8.895 14.657-9.502-3.582 2.272-5.505 6.902-8.062 9.503h-6.595zm35.125-.011h-7.24c-1.007-3.618-6.125-7.897-6.794-9.493 5.74.99 10.99 4.52 14.034 9.493zm.853 20.089h-7.257c1.474-2.476.773-6.8 2.188-8.465h7.226c.028 2.911-.85 5.882-2.157 8.465zm-31.166-8.473c-.499 2.693 1.797 6.923.99 8.477h-6.695c-.972-2.39-3.002-6.753-1.573-8.477h7.278zm25.488-1.538c.45-2.711-1.906-6.941-1.124-8.504h6.834c.988 2.394 2.995 6.772 1.555 8.504h-7.265zm-33.367.007c.345-2.77.504-6.99 2.767-8.5h6.842c-1.51 2.48-.884 6.814-2.31 8.5h-7.299zm11.255-8.496h8.548v8.488H286.07c.1-2.91.72-5.8 1.837-8.488zm20.58 8.484H298.07v-8.484h8.582a24.732 24.732 0 011.832 8.484zm-22.386 1.555h10.364v8.467h-8.673c-1.083-2.655-1.752-5.593-1.69-8.467zm11.975 8.472v-8.48h10.405c-.289 2.71-.195 6.94-2.278 8.48h-8.127zm21.194-9.255c.257-10.727-8.488-20.688-19.156-21.83-10.11-1.512-20.633 5.048-23.705 14.8-3.303 9.344.678 20.564 9.192 25.665 8.517 5.579 20.747 4.015 27.612-3.494 3.865-4.024 6.108-9.554 6.057-15.141z" fill="#fff"/></g></g></svg>