<?xml version="1.0" encoding="UTF-8" standalone="no"?>
<svg
   xmlns:dc="http://purl.org/dc/elements/1.1/"
   xmlns:cc="http://creativecommons.org/ns#"
   xmlns:rdf="http://www.w3.org/1999/02/22-rdf-syntax-ns#"
   xmlns:svg="http://www.w3.org/2000/svg"
   xmlns="http://www.w3.org/2000/svg"
   version="1.1"
   id="svg919"
   width="24mm"
   height="23.99917mm"
   viewBox="0 0 90.708665 90.705526">
  <metadata
     id="metadata925">
    <rdf:RDF>
      <cc:Work
         rdf:about="">
        <dc:format>image/svg+xml</dc:format>
        <dc:type
           rdf:resource="http://purl.org/dc/dcmitype/StillImage" />
        <dc:title></dc:title>
      </cc:Work>
    </rdf:RDF>
  </metadata>
  <defs
     id="defs923" />
  <path
     style="fill:#000000;stroke-width:0.09255504"
     d="M 45.155112,1.7346732e-4 C 38.721392,0.01803929 32.45663,1.4175568 26.246635,4.2134132 24.798591,4.8653514 20.56176,7.3114843 19.273146,8.2395587 12.93364,12.805338 8.2185623,18.270176 4.8346973,24.974033 3.5009039,27.616445 2.5677675,30.062389 1.6946955,33.204064 0.24684276,38.414041 -0.25050516,43.246106 0.11561084,48.546145 0.49107583,53.981522 1.9428487,59.597454 4.2264915,64.448031 4.5093612,65.048859 4.8206506,65.710877 4.9182138,65.919061 5.3033666,66.740908 7.789383,70.812106 8.512811,71.805751 14.037066,79.393474 21.303734,84.880036 30.009621,88.036547 31.496962,88.575817 35.149429,89.571076 36.746254,89.87215 40.749922,90.627012 44.539068,90.865644 48.335925,90.601973 60.347551,89.767816 71.39816,84.341193 79.310903,75.391264 83.143956,71.055772 85.949908,66.338105 87.987803,60.802594 88.565458,59.233527 89.591611,55.488155 89.901903,53.816224 91.666394,44.30866 90.542366,35.261076 86.472031,26.208072 85.851031,24.826881 83.378937,20.544831 82.492388,19.314709 76.998951,11.69235 70.235218,6.4072513 61.684865,3.0561143 59.795547,2.3156368 55.299289,1.0447555 53.403447,0.71534701 50.618147,0.23138984 47.871572,-0.00737425 45.155112,1.7346732e-4 Z M 35.801677,15.265516 H 46.176836 56.55199 L 56.652318,25.935693 56.752645,36.60587 63.648991,36.794729 70.545336,36.983592 58.358982,49.164654 46.172497,61.34572 33.910219,49.079104 21.647942,36.812356 28.624549,36.709179 35.601156,36.60587 35.701348,25.935693 Z M 21.437117,66.07118 H 46.176836 70.916682 V 69.47054 71.508291 H 46.176836 21.437117 V 69.47054 Z"
     id="path1472" />
</svg>
