<svg xmlns="http://www.w3.org/2000/svg" viewBox="0 0 90.709 90.706" height="90.706" width="24mm"><path d="M45.155 0c-6.434.018-12.698 1.418-18.908 4.213-1.448.652-5.685 3.098-6.974 4.027-6.34 4.565-11.054 10.03-14.438 16.734-1.334 2.642-2.267 5.088-3.14 8.23C.247 38.414-.251 43.246.115 48.546c.376 5.436 1.828 11.051 4.111 15.902l.692 1.471c.385.822 2.871 4.893 3.595 5.887 5.524 7.587 12.79 13.074 21.497 16.23 1.487.54 5.14 1.535 6.736 1.836 4.004.755 7.793.994 11.59.73 12.012-.834 23.062-6.26 30.975-15.21 3.833-4.336 6.639-9.054 8.677-14.59.577-1.568 1.604-5.314 1.914-6.986 1.764-9.507.64-18.555-3.43-27.608-.621-1.381-3.093-5.663-3.98-6.893C77 11.692 70.235 6.407 61.685 3.056c-1.89-.74-6.386-2.011-8.282-2.34A47.321 47.321 0 0 0 45.155 0zM37.08 18.73h18.194l.088 9.356.088 9.355 6.046.166 6.047.166-10.685 10.68-10.685 10.68-10.751-10.755L24.67 37.622l6.117-.09 6.117-.09.088-9.356zM24.485 63.276H67.868V68.043H24.485v-1.786z" style="fill:#000;stroke-width:.092555"/></svg>