<svg xmlns="http://www.w3.org/2000/svg" width="90.709" height="90.705"><path d="M.259 90.388c.137-.353 2.111-5.524 4.386-11.491 2.274-5.967 4.18-10.895 4.237-10.95.055-.056 3.312 3.156 7.238 7.137 5.361 5.438 7.068 7.267 6.859 7.35-.263.106-18.79 7.041-21.637 8.1l-1.334.495zM28.225 78.97c-.19-.086-3.91-3.73-8.266-8.096l-7.92-7.94.08-.971c.16-1.924 2.414-5.459 5.917-9.277.899-.98 10.162-10.35 20.585-20.824l18.95-19.043 10.32 10.239L78.21 33.297 58.137 53.408C45.24 66.331 37.417 74.039 36.252 74.974c-3.986 3.2-6.747 4.575-8.027 3.996zm43.8-60.135L61.793 8.602l3.932-3.897C70.233.235 70.362.152 72.849.152c2.402 0 2.251-.115 10.048 7.663 7.9 7.881 7.82 7.775 7.82 10.39 0 2.21-.305 2.68-4.635 7.148-1.979 2.043-3.65 3.714-3.712 3.714-.062 0-4.718-4.604-10.345-10.232z" style="fill:#000;stroke-width:.17262794"/></svg>