<svg xmlns="http://www.w3.org/2000/svg" width="90.709" height="90.706"><path style="fill:#000;stroke-width:.09255504" d="M45.155 0c-6.434.018-12.698 1.418-18.908 4.213-1.448.652-5.685 3.099-6.974 4.027-6.34 4.565-11.054 10.03-14.438 16.734-1.334 2.642-2.267 5.088-3.14 8.23C.247 38.414-.251 43.246.115 48.546c.376 5.436 1.828 11.051 4.111 15.902l.692 1.471c.385.822 2.871 4.893 3.595 5.887 5.524 7.587 12.79 13.074 21.497 16.23 1.487.54 5.14 1.535 6.736 1.836 4.004.755 7.793.994 11.59.73 12.012-.834 23.062-6.26 30.975-15.21 3.833-4.336 6.639-9.054 8.677-14.59.577-1.568 1.604-5.314 1.914-6.986 1.764-9.507.64-18.555-3.43-27.608-.621-1.381-3.093-5.663-3.98-6.893C77 11.692 70.235 6.407 61.685 3.056c-1.89-.74-6.386-2.011-8.282-2.34A47.332 47.332 0 0 0 45.155 0zM21.58 25.95c.506-.01 1.076.099 1.549.028h46.864c.015.63-1.11 1.106-1.546 1.675-7.64 6.904-15.285 13.802-22.93 20.699-1.01-.585-1.847-1.622-2.79-2.38l-.098-.088-.075-.068c-7.256-6.555-14.51-13.114-21.779-19.655.222-.156.502-.205.805-.21zm-2.79 1.943c.76.021 1.177.936 1.796 1.324 5.242 4.756 10.484 9.513 15.764 14.227-.3.823-1.214 1.403-1.758 2.13-5.177 5.61-10.348 11.227-15.54 16.823-.61.078-.09-1.377-.262-1.891v-15.32zm53.004 0c.685.073.116 1.4.302 1.972v32.597c-.713-.31-1.225-1.25-1.843-1.786-5.248-5.662-10.472-11.347-15.718-17.01.525-.896 1.57-1.486 2.299-2.26 4.98-4.51 9.98-9 14.96-13.513zM52.658 45.228c4.39 4.59 8.67 9.384 13.02 14.05 1.52 1.61 2.971 3.286 4.537 4.853-.017.756-1.393.154-1.973.346h-47.57v-.149c.474-.87 1.403-1.561 2.049-2.364 5.194-5.544 10.282-11.214 15.505-16.713 1.398 1.047 2.734 2.435 4.108 3.614.95.78 1.816 1.795 2.84 2.41.963.205 1.453-.845 2.163-1.31 1.796-1.548 3.517-3.234 5.32-4.737z"/></svg>