<svg xmlns="http://www.w3.org/2000/svg" width="24mm" height="81.777" viewBox="0 0 24 21.637"><path style="fill:#000;stroke-width:.26458335" d="M-39.797 142.809c-2.38-1.3-13.637-12.385-17.487-17.22-7.08-8.894-9.725-15.5-8.524-21.289 1.105-5.32 5.578-10.029 10.862-11.435 1.915-.51 5.365-.497 7.16.026 2.706.788 6.54 3.269 8.958 5.797l.908.949 1.341-1.298c2.892-2.796 6.19-4.877 8.877-5.6.643-.174 2.202-.31 3.466-.305 7.889.038 14.51 6.818 14.528 14.878.015 6.765-5.985 16.296-17.24 27.388-4.823 4.752-8.439 7.962-9.368 8.315-1.039.395-2.544.306-3.481-.206zm2.492-2.788c1.88-1.045 11.128-10.18 15.46-15.27 5.056-5.942 8.204-11.522 8.965-15.893.787-4.519-1.929-9.691-6.277-11.955-3.023-1.574-5.289-1.854-8.067-.995-2.165.668-4.41 2.12-6.867 4.443-2.162 2.044-2.777 2.44-3.792 2.44-1.012 0-1.629-.396-3.763-2.413-4.265-4.03-7.864-5.497-11.604-4.73-4.887 1.001-8.759 4.976-9.666 9.92-.941 5.139 3.005 12.635 11.74 22.299 3.718 4.114 12.562 12.52 13.136 12.485.087-.005.417-.154.735-.33z" transform="matrix(.4257 0 0 .4257 28.133 -39.349)"/></svg>