<svg xmlns="http://www.w3.org/2000/svg" width="24mm" height="81.777" viewBox="0 0 24 21.637"><path style="fill:#000;stroke-width:.26458335" d="M-39.797 142.809c-2.38-1.3-13.637-12.385-17.487-17.22-7.08-8.894-9.725-15.5-8.524-21.289 1.105-5.32 5.578-10.029 10.862-11.435 1.915-.51 5.365-.497 7.16.026 2.706.788 6.54 3.269 8.958 5.797l.908.949 1.341-1.298c2.892-2.796 6.19-4.877 8.877-5.6.643-.174 2.202-.31 3.466-.305 7.889.038 14.51 6.818 14.528 14.878.015 6.765-5.985 16.296-17.24 27.388-4.823 4.752-8.439 7.962-9.368 8.315-1.039.395-2.544.306-3.481-.206z" transform="matrix(.4257 0 0 .4257 28.133 -39.349)"/></svg>