<?xml version="1.0" encoding="UTF-8" standalone="no"?>
<svg
   xmlns:dc="http://purl.org/dc/elements/1.1/"
   xmlns:cc="http://creativecommons.org/ns#"
   xmlns:rdf="http://www.w3.org/1999/02/22-rdf-syntax-ns#"
   xmlns:svg="http://www.w3.org/2000/svg"
   xmlns="http://www.w3.org/2000/svg"
   width="24mm"
   height="21.636751mm"
   viewBox="0 0 24 21.636751"
   version="1.1"
   id="svg8">
  <defs
     id="defs2" />
  <metadata
     id="metadata5">
    <rdf:RDF>
      <cc:Work
         rdf:about="">
        <dc:format>image/svg+xml</dc:format>
        <dc:type
           rdf:resource="http://purl.org/dc/dcmitype/StillImage" />
        <dc:title></dc:title>
      </cc:Work>
    </rdf:RDF>
  </metadata>
  <g
     id="layer1"
     transform="matrix(0.42569423,0,0,0.42569423,28.132835,-39.348715)">
    <path
       style="fill:#000000;stroke-width:0.26458335"
       d="M -39.797224,142.80896 C -42.177532,141.50918 -53.43402,130.42376 -57.28363,125.58832 -64.36406,116.69467 -67.00935,110.08827 -65.8076,104.3004 -64.70293,98.980112 -60.23034,94.271082 -54.94633,92.864972 -53.03146,92.355412 -49.58121,92.367782 -47.78645,92.890642 -45.080362,93.678992 -41.246766,96.159882 -38.827577,98.688322 L -37.920371,99.636502 -36.578618,98.338972 C -33.687294,95.542942 -30.388435,93.461502 -27.701784,92.738062 -27.059257,92.565042 -25.499522,92.428402 -24.235705,92.434412 -16.347087,92.471892 -9.7265667,99.252302 -9.7084877,107.31247 -9.6933167,114.07701 -15.692881,123.60798 -26.948619,134.70033 -31.770565,139.45228 -35.386562,142.66194 -36.316488,143.01549 -37.35453,143.41016 -38.859819,143.32084 -39.797224,142.80896 Z"
       id="path826" />
  </g>
</svg>
