<svg xmlns="http://www.w3.org/2000/svg" width="90.709" height="90.706"><path style="fill:#000;stroke-width:.09255504" d="M45.155 0c-6.434.018-12.698 1.418-18.908 4.213-1.448.652-5.685 3.099-6.974 4.027-6.34 4.565-11.054 10.03-14.438 16.734-1.334 2.642-2.267 5.088-3.14 8.23C.247 38.414-.251 43.246.115 48.546c.376 5.436 1.828 11.051 4.111 15.902l.692 1.471c.385.822 2.871 4.893 3.595 5.887 5.524 7.587 12.79 13.074 21.497 16.23 1.487.54 5.14 1.535 6.736 1.836 4.004.755 7.793.994 11.59.73 12.012-.834 23.062-6.26 30.975-15.21 3.833-4.336 6.639-9.054 8.677-14.59.577-1.568 1.604-5.314 1.914-6.986 1.764-9.507.64-18.555-3.43-27.608-.621-1.381-3.093-5.663-3.98-6.893C77 11.692 70.235 6.407 61.685 3.056c-1.89-.74-6.386-2.011-8.282-2.34A47.332 47.332 0 0 0 45.155 0zM39.51 21.171c2.188-.001 4.379.06 6.563.018 4.133.082 8.3-.247 12.4.37 2.277.529 4.654 1.271 6.367 2.923 1.048 1.04 2.178 2.017 2.79 3.394 1.194 2.271 1.69 4.831 1.8 7.38.133 5.536.02 11.083.058 16.624.029 3.219-.138 6.542-1.5 9.512-.592 1.47-1.573 2.71-2.757 3.75-1.753 1.95-4.38 2.764-6.863 3.341-4.31.592-8.674.247-13.011.324-3.605-.074-7.226.128-10.821-.148-2.723-.215-5.461-1.108-7.658-2.744-1.146-1.19-2.486-2.23-3.17-3.775-1.195-2.272-1.692-4.832-1.802-7.38-.132-5.536-.02-11.083-.057-16.624-.029-3.219.138-6.543 1.5-9.512.592-1.47 1.573-2.71 2.756-3.75 1.754-1.951 4.38-2.764 6.863-3.341 2.17-.296 4.355-.36 6.542-.362zm11.05 4.207c-2.215.003-4.431.056-6.643.017-3.52.05-7.083-.195-10.56.41-1.323.319-2.599.745-3.701 1.565-1.507 1.21-2.694 2.897-3.045 4.825-.474 1.757-.49 3.615-.556 5.426.037 5.462-.073 10.93.056 16.388.107 1.686.224 3.37.833 4.964.537 1.539 1.621 2.89 2.956 3.818 1.25.936 2.78 1.284 4.28 1.582 4.161.402 8.35.144 12.524.232 3.03-.056 6.073.16 9.091-.133a12.165 12.165 0 0 0 4.672-1.09c1.648-.817 2.906-2.223 3.73-3.85.771-1.827.928-3.824 1.05-5.789.065-5.774.041-11.558.012-17.334-.128-1.822-.23-3.648-.849-5.385-.712-1.79-2.03-3.393-3.766-4.282-1.044-.597-2.285-.849-3.454-1.083-2.205-.238-4.417-.284-6.63-.28zm7.875 4.025c.15 0 .302.011.453.035.694.141 1.587.495 1.885 1.193.843 1.17.585 2.944-.56 3.831-.783.658-2.025.783-2.945.36-1.47-.586-2.073-2.486-1.374-3.874a2.89 2.89 0 0 1 2.541-1.545zm-13.279 3.409c.813-.003 1.633.057 2.433.055 1.477.32 2.907.764 4.208 1.55 1.413.767 2.68 1.845 3.613 3.163.839 1.039 1.404 2.305 1.886 3.537.418 1.312.667 2.645.547 4.026.142 1.509-.277 2.982-.77 4.387-.654 1.436-1.43 2.793-2.503 3.96-1.163 1.189-2.571 2.108-4.096 2.778-1.746.787-3.716 1.01-5.618.977l-.771-.104c-2.469-.288-4.794-1.404-6.657-3.039-1.22-1.07-2.176-2.443-2.837-3.927-.627-1.155-.935-2.492-1.097-3.78.026-1.62-.172-3.268.426-4.814.323-1.313 1.029-2.525 1.736-3.662.817-1.181 1.836-2.16 3.006-2.989 1.422-.889 2.957-1.635 4.622-1.942.612-.135 1.24-.174 1.872-.176zm.847 4.233a6.26 6.26 0 0 0-.47.022c-1.281-.103-2.584.29-3.685.914-1.926 1.058-3.432 2.903-3.934 5.055-.349 1.107-.156 2.328-.147 3.47a8.927 8.927 0 0 0 1.619 3.473c1.282 1.573 3.173 2.746 5.207 2.955 1.155-.048 2.345.201 3.433-.291 1.988-.543 3.66-2.006 4.655-3.793.539-.89.87-1.977.928-3.013.034-1.266.067-2.533-.468-3.713-.584-1.457-1.598-2.797-2.91-3.684-1.228-.88-2.716-1.409-4.228-1.395z"/></svg>