<svg xmlns="http://www.w3.org/2000/svg" width="93.373" height="93.375" viewBox="0 0 24.705 24.705"><g style="fill:#874493;fill-opacity:1"><path d="M0 0c0-19.339-15.677-35.016-35.015-35.016C-54.354-35.016-70.03-19.339-70.03 0c0 19.338 15.676 35.015 35.015 35.015C-15.677 35.015 0 19.338 0 0" style="fill:#874493;fill-opacity:1;fill-rule:nonzero;stroke:none" transform="matrix(.35278 0 0 -.35278 24.705 12.353)"/></g><g style="stroke-width:1.35484469"><path d="M0 0c-6.05-.138-11.624 4.914-12.061 10.952-.707 5.795 3.363 11.694 9.079 12.99 5.467 1.515 11.694-1.4 14.021-6.573 2.589-5.258.692-12.204-4.273-15.35C4.776.691 2.388-.004 0 0zm21.762 15.781c-.552 1.79-.685 3.781-1.74 5.364-1.458 1.17-3.593-1.386-4.869.124-.684 1.563-2.513 2.567-2.775 4.225 1.241 1.634 2.485 4.17-.26 5.053-1.7.709-4.496 3.623-5.725.825-.575-2.301-2.572-2.336-4.518-1.692-2.473-.575-2.94 1.607-3.355 3.453-1.288 1.972-4.062.002-5.874-.254-3.319-.332-.82-3.627-1.475-5.403-1.494-.864-2.675-2.292-4.206-3.005-1.777.834-4.238 2.787-5.246-.137-.98-1.801-3.743-4.946-.535-6.026 2.85-.684 1.146-3.573 1.215-5.555.136-2.5-3.813-.987-4.168-3.182.15-2.016.75-4.014 1.493-5.888 1.313-2.36 4.777 1.682 5.739-1.422 1.082-1.543 3.297-3.12 1.396-4.954-2.22-2.49 1.672-3.768 3.339-4.819 2.217-2.049 3.706.44 4.581 2.301 1.756.529 3.905-.365 5.725-.503.868-1.494.729-4.857 3.383-3.81 1.738.456 3.603.742 5.142 1.71.924 1.886-1.887 4.792 1.33 5.681 1.396 1.503 3.144 2.684 4.849.93 2.076-1.723 3.24 1.4 4.095 2.8 1.565 1.656 1.53 4.095-.906 4.704-2.535 1.003-.29 4.172-.603 6.134 1.124 1.4 4.942.432 3.968 3.346z" style="fill:#fff;fill-opacity:1;fill-rule:nonzero;stroke:none;stroke-width:1.35484469" transform="scale(.26038 -.26038) rotate(10.474 409.32 300.132)"/></g><g style="stroke-width:1.84436369"><path d="M0 0c-6.05-.138-11.624 4.914-12.061 10.952-.707 5.795 3.363 11.694 9.079 12.99 5.564 1.554 11.895-1.514 14.138-6.829 2.469-5.323.407-12.23-4.64-15.257C4.577.633 2.287-.002 0 0zm21.762 15.781c-.831 1.775-.418 6.278-3.397 5.536-1.646-.765-3.416-.75-4.072 1.223-1.253 1.382-2.834 3.012-.937 4.7 1.936 2.6-2.301 3.682-3.907 4.798-2.055 1.783-3.296-.91-4.11-2.458-1.769-.472-4.27.08-5.97.679-.65 1.276-.413 4.175-2.574 3.698-1.954-.767-6.49-.45-5.926-3.445 1.301-2.115.001-3.647-1.87-4.61-1.358-2.048-3.32-1.166-4.946.044-2.439.078-3.053-3.432-4.275-5.117-1.383-2.726 3.981-2.272 3.039-4.835-.488-1.975.224-5.113-2.708-5.04-2.557-.082-1.875-2.85-1.304-4.467.35-1.693 1.075-4.608 3.409-3.355 2.6 1.68 3.432-1.621 4.918-2.989 2.048-1.75-2.77-4.079-.197-5.679 1.895-.858 4.162-3.572 6.256-2.316.867 1.54 1.727 3.79 3.914 2.65 2.243.034 4.33-.473 4.299-3.135.54-2.396 3.367-.852 4.933-.56 2.226.167 3.796 1.873 2.515 4.025-.91 2.437 2.773 3.098 3.967 4.67 1.614.213 3.117-2.54 4.654-1.069 1.117 1.918 3.224 3.967 2.854 6.278-1.183 1.24-4.163 1.61-2.947 3.963.094 2.086.106 4.59 2.855 4.472 1.29.142 1.95 1.071 1.527 2.339z" style="fill:#fff;fill-opacity:1;fill-rule:nonzero;stroke:none;stroke-width:1.84436369" transform="matrix(.187 .0402 .0402 -.187 7.585 10.672)"/></g></svg>