<svg xmlns="http://www.w3.org/2000/svg" viewBox="0 0 24.705 24.705" height="93.375" width="93.373"><g style="fill:#fff"><g style="fill:#fff;fill-opacity:1"><path d="M-35.014 35.015c-13.77.191-27.049-8.659-32.264-21.386-5.446-12.503-2.628-28.035 6.917-37.788 9.183-9.884 24.314-13.49 36.982-8.877C-10.247-28.576-.566-15.676-.046-1.803.826 11.684-6.99 25.164-19.074 31.184a34.9 34.9 0 0 1-15.94 3.831zm-11.993-11.877c2.396.208.927-3.528 3.84-3.218 1.516-.125 2.753 2.608 4.19-.028 2.735-1.438-1.671-3.224.703-5.063.58-1.766 4.025.012 3.041-3.121.854-3.116-3.666-1.3-3.259-4.636 1.127-1.554 1.775-3.2-.508-4.616-1.493-1.437-2.819 2.206-4.52-.107-1.665-.673-.115-3.917-3.12-3.054-3.018-.798-1.785 4.452-5.36 3.205-1.41-3.208-6.324 1.66-3.126 3.242-.397 2.112-1.567 3.005-3.54 2.883-.737 1.892-.813 4.89 2.011 4.375 1.559 1.937.503 3.334-.351 4.882 1.122 2.149 2.962 3.213 4.73 1.4 2.221.397 2.407 1.905 2.755 3.588.807.24 1.679.224 2.514.268zm-.375-5.344c-5.008.07-8.183-6.353-5.188-10.323 2.513-4.008 9.2-3.69 11.256.614 2.475 4.346-1.088 10.022-6.068 9.71zm24.006-9.265c2.68-.267 6.536-1.51 4.24-4.825 1.585-2.26 3.503-3.308 5.933-1.79 2.003-1.956 3.558-5.742-.206-6.535-.484-2.672.192-4.786 2.908-5.43.025-2.611-1.37-6.876-4.678-4.512-2.19-1.477-3.32-3.51-1.82-5.848-1.431-1.333-5.353-4.165-6.078-.659-1.6 1.706-5.683 1.018-5.702-1.99-2.638-.503-7.11 1.3-4.748 4.624-1.498 1.732-3.271 3.627-5.463 1.727-1.569.735-4.334 4.998-1.445 5.872 2.317.946 1.632 5.852-1.3 5.724-1.159 2.305.995 7.449 4.266 4.91 2.327 1.53 3.314 3.565 1.85 5.97 2.046 2.077 5.699 3.478 6.563-.254 3.54-.117 3.82-.263 5.68 3.016zm-3.19-6.934c-5.577.042-10.054-5.874-8.453-11.221 1.213-5.692 8.51-8.603 13.348-5.435 4.982 2.78 5.81 10.44 1.506 14.213-1.702 1.617-4.055 2.522-6.402 2.443z" style="fill:#fff;fill-opacity:1;fill-rule:nonzero;stroke:none;stroke-width:1" transform="matrix(.35278 0 0 -.35278 24.705 12.353)"/></g></g></svg>