<svg xmlns="http://www.w3.org/2000/svg" width="93.097" height="93.097" viewBox="0 0 24.632 24.632"><defs><clipPath clipPathUnits="userSpaceOnUse" id="a"><path d="M0 841.89h595.276V0H0z"/></clipPath></defs><g clip-path="url(#a)" transform="matrix(.35278 0 0 -.35278 -92.555 94.224)"><g style="fill:#fff"><path transform="matrix(.75 0 0 -.75 262.36 267.093)" d="M46.549 0C20.842 0 0 20.84 0 46.549c0 25.706 20.842 46.549 46.549 46.549 25.708 0 46.549-20.843 46.549-46.55C93.098 20.842 72.257 0 46.548 0zm7.322 19.895c2.424-.05 4.832.027 7.219.71 2.853.82 5.736 1.53 8.613 2.26.664.168 1.357.222 2.041.328.379 1.072.39 1.296.131 3.164l-1.771.362c.097.464.113.886.273 1.242C73.365 34.646 76.37 41.323 79.373 48c.392.873.737 1.77 1.193 2.605.231.427.658.746 1.022 1.14-6.85 8.755-19.441 7.364-24.928.066.364-.42.837-.77 1.057-1.24 1.28-2.743 2.503-5.513 3.74-8.274 1.781-3.97 3.565-7.94 5.336-11.916.512-1.148.98-2.316 1.56-3.692-1.67-.282-3.141-.125-4.597-.152-1.543-.03-3.088-.006-4.631-.006H50.277c-.358 1.332-.484 37.077-.164 39.922C55 67.88 60.13 68.69 65.183 70.176v2.775c-1.377.342-35.268.356-36.773.012V70.16c4.953-1.437 10.089-2.399 15.133-3.678V26.79c-1.585-.383-17.132-.346-18.455.05.128.392.223.792.387 1.163 2.206 5.005 4.41 10.011 6.638 15.006a325.953 325.953 0 0 0 3.397 7.375c.245.513.694.93 1.078 1.43-6.881 8.402-18.954 7.574-25.078-.186.96-.125 1.218-.89 1.531-1.584 1.477-3.293 2.935-6.595 4.404-9.893 1.728-3.878 3.465-7.754 5.188-11.634.23-.522.402-1.07.648-1.735l-1.886-.433v-3.073c1.216-.166 2.47-.27 3.695-.525 1.348-.28 2.669-.693 3.998-1.059 1.89-.52 3.745-1.272 5.668-1.52 2.245-.286 4.546-.152 6.822-.167 3.288-.02 6.58.073 9.865-.035.812-.027 1.62-.058 2.428-.074zM24.26 30.65c-1.135 1.448-8.864 19.294-9.033 20.715 2.686.322 16.953.191 18.257-.23-1-2.27-1.992-4.53-2.988-6.785-1.025-2.326-1.987-4.684-3.105-6.965-1.074-2.192-1.763-4.58-3.131-6.735zm44.799.606-9.114 19.93c1.33.388 16.234.42 18.026.003-1.487-3.417-2.876-6.713-4.356-9.97-1.468-3.232-2.744-6.56-4.556-9.963z" style="fill:#fff;fill-opacity:1;fill-rule:nonzero;stroke:none;stroke-width:1.33333325"/></g></g></svg>