<svg xmlns="http://www.w3.org/2000/svg" width="93.097" height="93.097" viewBox="0 0 24.632 24.632"><defs><clipPath clipPathUnits="userSpaceOnUse" id="a"><path d="M0 841.89h595.276V0H0z"/></clipPath></defs><g clip-path="url(#a)" transform="matrix(.35278 0 0 -.35278 -92.555 94.224)"><path d="M0 0c0-19.28-15.631-34.911-34.912-34.911-19.28 0-34.911 15.631-34.911 34.911 0 19.281 15.631 34.912 34.911 34.912C-15.631 34.912 0 19.281 0 0" style="fill:#48abcc;fill-opacity:1;fill-rule:nonzero;stroke:none" transform="translate(332.183 232.18)"/><path d="M0 0c-1.115 2.563-2.157 5.035-3.267 7.478-1.101 2.424-2.059 4.92-3.418 7.472L-13.52.003C-12.523-.288-1.344-.313 0 0m-33.365.041c-.75 1.703-1.494 3.397-2.241 5.088-.769 1.744-1.49 3.513-2.329 5.224-.805 1.644-1.323 3.435-2.349 5.051-.851-1.086-6.648-14.47-6.775-15.536 2.015-.241 12.716-.143 13.694.173m7.544-11.512v29.77c-1.189.287-12.849.261-13.841-.037.096-.293.166-.594.289-.872 1.655-3.754 3.309-7.508 4.98-11.254A244.435 244.435 0 0 1-31.846.605c.184-.385.52-.698.808-1.073-5.161-6.302-14.215-5.681-18.808.139.72.094.913.667 1.148 1.188 1.108 2.47 2.202 4.947 3.304 7.42 1.296 2.909 2.598 5.816 3.89 8.726.172.391.301.801.486 1.3l-1.415.326v2.304c.912.125 1.853.203 2.772.394 1.011.21 2.001.52 2.998.794 1.417.391 2.81.955 4.252 1.14 1.684.215 3.41.115 5.117.126 2.466.015 4.934-.055 7.398.026 2.434.08 4.848.205 7.235-.478 2.14-.614 4.302-1.147 6.46-1.695.498-.126 1.018-.166 1.531-.246.284-.804.292-.972.098-2.373l-1.328-.271c.073-.348.084-.664.204-.931C-3.455 12.407-1.2 7.4 1.052 2.392c.294-.655.552-1.328.894-1.955.173-.32.493-.558.766-.853-5.137-6.567-14.58-5.524-18.695-.05.273.314.627.577.792.93.96 2.057 1.877 4.134 2.805 6.205 1.336 2.977 2.674 5.955 4.002 8.937.384.861.736 1.737 1.171 2.769-1.253.212-2.357.093-3.449.113-1.157.023-2.316.005-3.473.005H-20.771c-.269-.999-.363-27.807-.123-29.941 3.665-1.07 7.514-1.677 11.304-2.792v-2.082c-1.033-.256-26.452-.267-27.581-.009v2.102c3.715 1.078 7.567 1.799 11.35 2.758" style="fill:#fff;fill-opacity:1;fill-rule:nonzero;stroke:none" transform="translate(320.838 228.701)"/></g></svg>