<?xml version="1.0" encoding="UTF-8" standalone="no"?>
<svg
   xmlns:dc="http://purl.org/dc/elements/1.1/"
   xmlns:cc="http://creativecommons.org/ns#"
   xmlns:rdf="http://www.w3.org/1999/02/22-rdf-syntax-ns#"
   xmlns:svg="http://www.w3.org/2000/svg"
   xmlns="http://www.w3.org/2000/svg"
   width="73.270523mm"
   height="84.802246mm"
   viewBox="0 0 73.270523 84.802246"
   version="1.1"
   id="svg8">
  <defs
     id="defs2" />
  <metadata
     id="metadata5">
    <rdf:RDF>
      <cc:Work
         rdf:about="">
        <dc:format>image/svg+xml</dc:format>
        <dc:type
           rdf:resource="http://purl.org/dc/dcmitype/StillImage" />
        <dc:title></dc:title>
      </cc:Work>
    </rdf:RDF>
  </metadata>
  <g
     id="layer1"
     transform="translate(-91.458058,-153.85007)">
    <path
       style="fill:#000000;stroke-width:0.264583"
       d="m 124.71932,238.52354 c -12.80446,-1.29783 -23.70609,-8.74355 -29.428382,-20.09934 -2.287755,-4.54001 -3.669321,-9.72366 -3.77666,-14.17009 l -0.05622,-2.32875 6.119761,-0.0332 6.119761,-0.0332 0.16988,1.87471 c 0.70739,7.80633 4.92346,14.76764 11.37339,18.77904 10.89101,6.77345 25.48015,3.82518 32.69158,-6.60651 9.99649,-14.46044 2.18679,-34.19563 -14.93009,-37.7285 -1.31227,-0.27085 -2.94917,-0.49402 -3.63756,-0.49593 l -1.25161,-0.003 -0.0713,5.64431 -0.0713,5.64431 -11.64167,-8.16656 c -6.40293,-4.49201 -12.03837,-8.44746 -12.52323,-8.79029 l -0.88155,-0.62334 12.52322,-8.76857 12.52322,-8.76856 0.13229,5.63029 0.13229,5.6303 2.43078,0.17111 c 14.47413,1.01886 27.26246,10.72124 32.03264,24.30285 1.68242,4.79017 2.02763,6.83738 2.03001,12.03854 0.002,5.29985 -0.35081,7.7019 -1.7446,11.86372 -4.24407,12.6727 -14.93538,22.04122 -27.97383,24.51276 -3.16134,0.59926 -7.41225,0.81567 -10.29082,0.5239 z"
       id="path847" />
  </g>
</svg>
