<svg xmlns="http://www.w3.org/2000/svg" width="276.928" height="320.512" viewBox="0 0 73.271 84.802"><path style="fill:#000;stroke-width:.264583" d="M124.72 238.524c-12.805-1.298-23.707-8.744-29.43-20.1-2.287-4.54-3.668-9.723-3.776-14.17l-.056-2.329 6.12-.033 6.12-.033.17 1.875c.707 7.806 4.923 14.767 11.373 18.779 10.89 6.773 25.48 3.825 32.691-6.607 9.997-14.46 2.187-34.195-14.93-37.728-1.312-.271-2.949-.494-3.637-.496l-1.252-.003-.071 5.644-.071 5.644-11.642-8.166a17281.4 17281.4 0 0 1-12.523-8.79l-.882-.624 12.523-8.768 12.524-8.769.132 5.63.132 5.63 2.43.172c14.475 1.019 27.263 10.721 32.034 24.303 1.682 4.79 2.027 6.837 2.03 12.038.002 5.3-.351 7.702-1.745 11.864-4.244 12.673-14.935 22.041-27.974 24.513-3.161.599-7.412.815-10.29.524z" transform="translate(-91.458 -153.85)"/></svg>