<?xml version="1.0" encoding="UTF-8" standalone="no"?>
<svg
   xmlns:dc="http://purl.org/dc/elements/1.1/"
   xmlns:cc="http://creativecommons.org/ns#"
   xmlns:rdf="http://www.w3.org/1999/02/22-rdf-syntax-ns#"
   xmlns:svg="http://www.w3.org/2000/svg"
   xmlns="http://www.w3.org/2000/svg"
   id="svg8"
   version="1.1"
   viewBox="0 0 24.000001 23.990407"
   height="23.990406mm"
   width="24mm">
  <defs
     id="defs2" />
  <metadata
     id="metadata5">
    <rdf:RDF>
      <cc:Work
         rdf:about="">
        <dc:format>image/svg+xml</dc:format>
        <dc:type
           rdf:resource="http://purl.org/dc/dcmitype/StillImage" />
        <dc:title></dc:title>
      </cc:Work>
    </rdf:RDF>
  </metadata>
  <g
     transform="matrix(0.19719979,0,0,0.19719979,-5.3096611,-11.970248)"
     id="layer1">
    <path
       id="path837"
       d="M 80.762834,182.0908 C 58.893624,179.62218 39.531114,164.86878 31.338041,144.43124 23.843693,125.73666 25.991944,104.42706 37.046064,87.810405 47.043104,72.782764 63.277274,62.917602 81.215424,60.969618 84.512084,60.611619 91.036504,60.611619 94.333154,60.969618 114.4609,63.155381 132.29194,75.304039 141.6893,93.234365 152.84174,114.51339 150.39935,140.5248 135.46874,159.48335 133.26281,162.28438 127.41051,167.9897 124.55137,170.12653 115.58577,176.82714 105.23232,180.93635 94.333154,182.11994 91.313574,182.44785 83.782624,182.43168 80.762834,182.0908 Z M 94.692654,171.93084 C 105.56553,170.41434 115.14662,165.7574 122.92977,158.20604 126.21285,155.02074 128.19341,152.64892 130.36451,149.30254 134.1009,143.54353 136.62913,137.07123 137.95175,129.87916 138.49597,126.91977 138.70685,119.61711 138.34367,116.30724 137.36775,107.41334 134.2605,99.207867 129.10548,91.911445 127.00301,88.935615 121.01287,82.81202 118.20137,80.76441 111.82008,76.116928 105.42327,73.267416 97.738334,71.648972 93.330904,70.720772 85.668224,70.480915 81.055484,71.126766 57.803754,74.382351 40.143294,92.359945 37.251844,115.71701 36.895554,118.59509 36.895554,124.49447 37.251844,127.37255 38.449344,137.04592 42.270544,146.12195 48.277034,153.55936 50.158664,155.88925 54.428974,160.07332 56.685754,161.79826 63.742504,167.19201 71.944794,170.66718 80.560874,171.91372 84.138994,172.43139 91.043894,172.43976 94.692654,171.93084 Z M 84.202414,151.81088 C 77.233064,150.78875 71.578094,148.10113 66.808164,143.54396 63.477427,140.40855 61.321728,137.24211 60.433296,132.97667 H 65.823656 C 70.936706,132.97667 71.181048,132.97302 71.181048,132.97302 71.899434,134.39249 72.169764,134.72266 73.662334,136.13484 77.859624,140.10605 82.568964,141.82159 88.655224,141.59651 91.392354,141.49529 92.250184,141.34986 94.374534,140.62692 99.770324,138.79066 103.70622,135.35083 106.0668,130.40832 107.60863,127.18008 108.00327,125.37375 108.00327,121.54478 108.00327,117.57268 107.60294,115.84687 105.85516,112.28436 104.80162,110.13692 104.25251,109.40132 102.08513,107.23395 99.917754,105.06656 99.182154,104.51745 97.034714,103.46391 93.402674,101.68202 91.748744,101.30288 87.642004,101.31075 83.652834,101.3184 81.654844,101.80705 78.121814,103.63912 76.019784,104.72914 71.899294,108.30835 71.899294,109.04423 71.899294,109.28988 72.742574,109.37395 75.206584,109.37395 H 78.513874 V 114.40367 119.4334 L 66.276894,119.36461 54.039924,119.29582 53.971104,107.19114 53.902284,95.086447 H 58.932044 63.961794 V 98.526027 C 63.961794,100.4178 64.038934,101.96561 64.133214,101.96561 64.227494,101.96561 65.329044,100.97809 66.581084,99.771107 69.358664,97.093507 71.400264,95.681697 74.907564,94.013135 79.427654,91.862755 84.140514,90.936165 89.229504,91.197325 96.823544,91.587045 103.31956,94.366537 108.74042,99.545597 113.18645,103.79331 115.90408,108.55148 117.45179,114.79791 117.93502,116.74815 118.0436,117.94539 118.05169,121.41249 118.06211,125.8728 117.85399,127.33053 116.69183,130.93749 115.27599,135.33177 113.00868,139.12466 109.77347,142.51091 105.46116,147.02456 100.18434,149.97919 93.992004,151.34739 92.195734,151.74428 85.809804,152.04662 84.202414,151.81088 Z"
       style="fill:#000000;stroke-width:0.264583" />
  </g>
</svg>
