<svg xmlns="http://www.w3.org/2000/svg" width="90.709" height="90.705"><path style="fill:#000;stroke-width:.47318015" d="M3.201 86.665C1.298 85.89.065 83.763.3 81.662.588 79.084 40.15 7.648 42.545 5.383c2.271-2.148 4.054-2.082 6.336.237 2.647 2.689 41.733 73.419 42.03 76.058.195 1.726-.115 3.09-1.354 4.476l-1.29.735-42.033.092c-23.118.05-42.483-.091-43.033-.316zM50.81 71.983v-5.205h-10.41v10.41h10.41zM49.135 59.09c.811-5.904 2.14-23.058 2.143-27.68l.004-5.324H39.926v5.179c0 4.416 1.315 21.349 2.16 27.825l.264 2.011h6.508z"/></svg>