<?xml version="1.0" encoding="UTF-8" standalone="no"?>
<svg
   xmlns:dc="http://purl.org/dc/elements/1.1/"
   xmlns:cc="http://creativecommons.org/ns#"
   xmlns:rdf="http://www.w3.org/1999/02/22-rdf-syntax-ns#"
   xmlns:svg="http://www.w3.org/2000/svg"
   xmlns="http://www.w3.org/2000/svg"
   width="24mm"
   height="24.055912mm"
   viewBox="0 0 24 24.055912"
   version="1.1"
   id="svg879">
  <defs
     id="defs873" />
  <metadata
     id="metadata876">
    <rdf:RDF>
      <cc:Work
         rdf:about="">
        <dc:format>image/svg+xml</dc:format>
        <dc:type
           rdf:resource="http://purl.org/dc/dcmitype/StillImage" />
        <dc:title></dc:title>
      </cc:Work>
    </rdf:RDF>
  </metadata>
  <g
     id="layer1"
     transform="matrix(0.44677293,0,0,0.44677293,-314.5862,-71.488947)">
    <path
       style="fill:#000000;stroke-width:0.26458332"
       d="M 751.9202,213.59462 C 751.30318,213.41701 749.61436,211.94349 746.36395,208.7467 L 741.69415,204.15394 744.91292,200.93512 748.13169,197.71629 752.76048,202.40513 C 756.54792,206.24171 757.44569,207.2955 757.6997,208.20275 758.32862,210.44905 756.89853,212.9789 754.64632,213.60419 753.43165,213.94142 753.12117,213.94033 751.9202,213.59462 Z M 723.04103,204.71713 C 717.93552,203.84886 712.94687,201.02128 709.49782,197.04079 702.73159,189.232 702.31666,177.50889 708.51077,169.15349 713.98272,161.77223 723.21362,158.46191 732.07481,160.7031 736.06219,161.7116 739.56213,163.72451 742.51717,166.7088 745.4192,169.63955 747.22688,172.84796 748.34683,177.05575 748.96057,179.36164 749.01561,179.963 748.90873,183.19488 748.80578,186.30781 748.6814,187.1074 747.96045,189.29127 746.87862,192.56824 745.15555,195.46348 742.83025,197.91142 738.4644,202.50752 732.74383,204.94554 726.51283,204.86565 724.96714,204.84583 723.40483,204.779 723.04103,204.71713 Z M 729.84077,199.98757 C 732.53857,199.43032 734.30545,198.74248 736.2235,197.50279 742.47192,193.46424 745.63023,185.78671 743.97325,178.66392 742.36054,171.73141 737.13225,166.47815 730.42447,165.05044 727.80333,164.49254 723.25825,164.68414 721.1161,165.44284 716.2539,167.16492 712.77867,170.18979 710.58767,174.60689 706.22044,183.4113 709.87184,194.16606 718.6754,198.42838 722.55675,200.30757 725.97833,200.78538 729.84077,199.98757 Z"
       id="path892" />
  </g>
</svg>
