<svg xmlns="http://www.w3.org/2000/svg" width="24mm" height="90.92" viewBox="0 0 24 24.056"><path style="fill:#000;stroke-width:.26458332" d="M751.92 213.595c-.617-.178-2.306-1.652-5.556-4.848l-4.67-4.593 3.219-3.219 3.219-3.219 4.628 4.69c3.788 3.836 4.686 4.89 4.94 5.797.629 2.246-.801 4.776-3.054 5.401-1.214.337-1.525.336-2.726-.01zm-28.879-8.878c-5.105-.868-10.094-3.696-13.543-7.676-6.766-7.809-7.181-19.532-.987-27.888 5.472-7.38 14.703-10.691 23.564-8.45 3.987 1.009 7.487 3.022 10.442 6.006 2.902 2.93 4.71 6.139 5.83 10.347.614 2.306.669 2.907.562 6.139-.103 3.113-.228 3.912-.949 6.096-1.081 3.277-2.804 6.172-5.13 8.62-4.366 4.597-10.086 7.035-16.317 6.955-1.546-.02-3.108-.087-3.472-.149zm6.8-4.73c2.698-.557 4.464-1.245 6.382-2.484 6.249-4.039 9.407-11.716 7.75-18.84-1.612-6.932-6.84-12.185-13.549-13.613-2.62-.557-7.166-.366-9.308.393-4.862 1.722-8.337 4.747-10.528 9.164-4.368 8.804-.716 19.56 8.087 23.821 3.882 1.88 7.303 2.357 11.166 1.56z" transform="matrix(.44677 0 0 .44677 -314.586 -71.489)"/></svg>