<svg xmlns="http://www.w3.org/2000/svg" width="24mm" height="90.812" viewBox="0 0 24 24.027"><path style="fill:#6b6b6b;stroke-width:.0361923;stroke:none;fill-opacity:1" d="M7.42 20.243c-2.992-.337-5.64-2.355-6.76-5.15-1.026-2.558-.732-5.473.78-7.746a8.353 8.353 0 0 1 6.042-3.672c.45-.049 1.343-.049 1.794 0a8.347 8.347 0 0 1 6.478 4.414 8.381 8.381 0 0 1-.85 9.062c-.303.383-1.103 1.164-1.494 1.456a8.4 8.4 0 0 1-4.134 1.64c-.413.045-1.443.043-1.856-.004zm1.905-1.39c1.488-.207 2.173-.816 2.173-.816-2.88-1.357-5.424-10.193.001-12.19-.872-.636-.706-.49-1.757-.71-.603-.128-1.651-.16-2.282-.072-3.18.445-5.596 2.904-5.992 6.1a8.711 8.711 0 0 0 0 1.594 7.081 7.081 0 0 0 1.508 3.582c.258.318.842.89 1.15 1.127a7.038 7.038 0 0 0 3.266 1.383c.49.071 1.434.072 1.933.003z"/><path d="M14.672 20.246c-2.992-.337-5.64-2.355-6.761-5.151-1.025-2.557-.731-5.472.78-7.745a8.353 8.353 0 0 1 6.043-3.672c.45-.049 1.343-.049 1.794 0a8.347 8.347 0 0 1 6.478 4.414 8.381 8.381 0 0 1-.851 9.062c-.302.383-1.102 1.163-1.494 1.456a8.4 8.4 0 0 1-4.133 1.64c-.413.045-1.443.043-1.856-.004zm1.905-1.39a6.804 6.804 0 0 0 3.863-1.877c.449-.436.72-.76 1.017-1.218a7.228 7.228 0 0 0 1.037-2.657c.075-.404.104-1.403.054-1.856a7.05 7.05 0 0 0-1.264-3.337c-.287-.407-1.107-1.245-1.491-1.525a7.024 7.024 0 0 0-2.8-1.247c-.602-.127-1.65-.16-2.281-.071-3.18.445-5.597 2.904-5.992 6.1a8.711 8.711 0 0 0 0 1.593 7.081 7.081 0 0 0 1.508 3.583c.257.318.841.89 1.15 1.127a7.038 7.038 0 0 0 3.266 1.383c.49.071 1.434.072 1.933.003z" style="fill:#6b6b6b;stroke-width:.0361923;stroke:none;fill-opacity:1"/></svg>