<svg xmlns="http://www.w3.org/2000/svg" viewBox="0 0 24.681 24.681" height="93.281" width="93.281"><defs><clipPath id="a" clipPathUnits="userSpaceOnUse"><path d="M0 841.89h595.276V0H0z"/></clipPath></defs><g clip-path="url(#a)" transform="matrix(.35278 0 0 -.35278 -92.53 153.471)"><path style="fill:#70c861;fill-opacity:1;fill-rule:nonzero;stroke:none" d="M0 0c0-19.319-15.662-34.98-34.981-34.98-19.319 0-34.98 15.661-34.98 34.98 0 19.319 15.661 34.981 34.98 34.981C-15.662 34.981 0 19.319 0 0" transform="translate(332.252 400.056)"/><path style="fill:#fff;fill-opacity:1;fill-rule:nonzero;stroke:none" d="M0 0v9.17h-7.853C-5.98 5.455-3.395 2.442 0 0m1.588 9.171V-.021C5 2.429 7.599 5.449 9.467 9.171zm-.02 21.672c.117-.019.186-.039.256-.038 2.563.004 5.128.01 7.691.017.016 0 .034.016.046.03.011.012.013.033.036.1-1.847 3.807-4.498 6.966-8.029 9.497zm-9.619-.032H.003v9.616c-3.509-2.527-6.149-5.691-8.054-9.616m19.383-.005c1.219-.111 6.604-.065 7.037.068-3.355 5.133-7.99 8.311-14.031 9.422 3.015-2.661 5.358-5.807 6.994-9.49m-21.047-.013c1.632 3.7 3.985 6.839 7.005 9.498-3.062-.482-5.838-1.64-8.353-3.416a20.361 20.361 0 0 1-5.706-6.082zM-16.75 9.174a20.583 20.583 0 0 1 6.261-6.436C-7.967 1.079-3.544-.543-2.093-.329c-3.238 2.607-5.714 5.782-7.468 9.503zm35.125-.012h-7.24C9.394 5.399 6.91 2.251 3.679-.354 5.164-.466 9.043.871 11.416 2.304c2.853 1.723 5.166 3.996 6.959 6.858m.853 20.089h-7.257c1.009-2.765 1.507-5.573 1.594-8.465h7.82c.197 1.916-.952 6.408-2.157 8.465m-31.166-8.473c.067 2.938.609 5.74 1.584 8.477h-7.289c-1.324-2.684-2.054-5.48-2.167-8.477zM13.55 19.24c-.116-2.932-.698-5.744-1.718-8.504h7.428a20.268 20.268 0 0 1 2.149 8.504zm-33.367.007c.126-3.026.842-5.846 2.173-8.5h7.436a26.7 26.7 0 0 0-1.716 8.5zm11.255-8.496h8.548v8.488h-10.385a24.33 24.33 0 0 1 1.837-8.488m20.579 8.484H1.603v-8.484h8.582c1.105 2.729 1.727 5.528 1.832 8.484m-22.385 1.555H-.004v8.467h-8.673c-.926-1.814-1.936-6.87-1.691-8.467m11.975 8.472v-8.479h10.405c-.033 2.963-.626 5.775-1.684 8.479zm21.194-9.255c.068-11.8-9.53-22.024-22.03-22.01-12.14.014-22.013 9.833-21.967 22.081.046 12.456 10.237 21.939 22.012 21.929 12.126-.01 22.036-9.937 21.985-22" transform="translate(296.468 380.054)"/></g></svg>