<svg xmlns="http://www.w3.org/2000/svg" width="93.281" height="93.281" viewBox="0 0 24.681 24.681"><defs><clipPath clipPathUnits="userSpaceOnUse" id="a"><path d="M0 841.89h595.276V0H0z"/></clipPath></defs><g style="fill:#fff" clip-path="url(#a)" transform="matrix(.35278 0 0 -.35278 -92.53 153.471)"><g style="fill:#fff"><path transform="matrix(.75 0 0 -.75 262.291 435.037)" d="M46.64 0C20.883 0 0 20.882 0 46.64 0 72.4 20.882 93.282 46.64 93.282c25.76 0 46.641-20.882 46.641-46.64C93.281 20.882 72.4 0 46.641 0zm.018 17.3c16.168.014 29.38 13.25 29.313 29.335.09 15.733-12.707 29.364-29.373 29.345-16.187-.018-29.35-13.11-29.29-29.44.062-16.609 13.65-29.253 29.35-29.24zm1.002 2.079v12.808c.156.026.249.053.342.051 3.417-.005 6.837-.014 10.254-.023.021 0 .046-.023.062-.041.015-.016.017-.044.047-.133-2.462-5.076-5.997-9.287-10.705-12.662zm-2.086.03c-4.678 3.369-8.198 7.586-10.738 12.82h10.738v-12.82zm5.78.173c4.02 3.548 7.144 7.744 9.326 12.654 1.625.148 8.805.086 9.383-.091-4.474-6.844-10.655-11.082-18.71-12.563zm-9.397.008c-4.083.643-7.785 2.187-11.139 4.555a27.146 27.146 0 0 0-7.607 8.109h9.406c2.176-4.933 5.313-9.119 9.34-12.664zm5.756 14.705V45.6h13.873c-.044-3.951-.835-7.7-2.246-11.305H47.713zM34 34.3c-1.235 2.418-2.58 9.16-2.254 11.289h13.818V34.3H34zm-11.955.004c-1.765 3.578-2.738 7.306-2.889 11.302h10.496c.09-3.917.812-7.653 2.112-11.302h-9.72zm39.486.004c1.346 3.686 2.01 7.43 2.125 11.287h10.428c.263-2.555-1.27-8.545-2.877-11.287h-9.676zm-42.385 13.34c.168 4.034 1.124 7.793 2.899 11.331h9.914a35.59 35.59 0 0 1-2.287-11.332H19.146zm12.56.01a32.445 32.445 0 0 0 2.448 11.318h11.397V47.658H31.705zm31.93 0c-.154 3.909-.93 7.657-2.29 11.337h9.904c1.767-3.555 2.74-7.31 2.865-11.338H63.637zm-15.929.005v11.313H59.15c1.474-3.64 2.302-7.372 2.442-11.313H47.707zm-24.47 13.414c2.186 3.521 4.958 6.351 8.347 8.582 3.363 2.212 9.26 4.375 11.195 4.09-4.317-3.476-7.618-7.71-9.957-12.672h-9.586zm24.45.004v12.256c4.55-3.267 8.016-7.293 10.506-12.256H47.688zm-12.587.002c2.497 4.953 5.944 8.97 10.47 12.227V61.084H35.1zm25.316.01c-2.321 5.017-5.633 9.216-9.941 12.69 1.98.149 7.152-1.635 10.316-3.546 3.804-2.297 6.889-5.328 9.28-9.144h-9.655z" style="fill:#fff;fill-opacity:1;fill-rule:nonzero;stroke:none;stroke-width:1.33333325"/></g></g></svg>