<svg xmlns="http://www.w3.org/2000/svg" width="93.604" height="93.604" viewBox="0 0 24.766 24.766"><defs><clipPath clipPathUnits="userSpaceOnUse" id="a"><path d="M0 841.89h595.276V0H0z"/></clipPath></defs><g style="fill:#fff" transform="matrix(.35278 0 0 -.35278 -107.284 267.421)" clip-path="url(#a)"><g style="fill:#fff"><path d="M41.942-13.98c-19.386 0-35.1-15.715-35.1-35.101 0-17.54 12.865-32.075 29.673-34.684a35.311 35.311 0 0 1 5.427-.419c.103 0 .204.008.306.01a34.945 34.945 0 0 1 8.804 1.192c14.97 4.012 25.992 17.667 25.992 33.9 0 19.387-15.716 35.101-35.102 35.101zm8.521-9.767 8.576-14.852H53.33v-38.297a29.838 29.838 0 0 0-3.579-1.235 30.34 30.34 0 0 0-2.154-.482v40.014h-5.709zm-21.99-12.416v-5.709h13.775V-79.15l-.042-.002a9.593 9.593 0 0 1-.299-.009 30.437 30.437 0 0 0-4.62.36c-.259.04-.515.092-.772.138v31.058h-8.042v-5.708l-14.85 8.575z" style="fill:#fff;fill-opacity:1;fill-rule:nonzero;stroke:none;stroke-width:1" transform="translate(297.271 772.026)"/></g></g></svg>