<svg xmlns="http://www.w3.org/2000/svg" viewBox="0 0 24.766 24.766" height="93.603" width="93.603"><defs><clipPath id="a" clipPathUnits="userSpaceOnUse"><path d="M0 841.89h595.276V0H0z"/></clipPath></defs><g clip-path="url(#a)" transform="matrix(.35278 0 0 -.35278 -92.488 272.354)"><path style="fill:#f48c2d;fill-opacity:1;fill-rule:nonzero;stroke:none" d="M0 0c-19.386 0-35.101-15.715-35.101-35.101 0-17.54 12.866-32.073 29.674-34.682A35.308 35.308 0 0 1 0-70.202c.103 0 .204.007.306.008a34.949 34.949 0 0 1 8.803 1.193c14.969 4.012 25.992 17.666 25.992 33.9C35.101-15.715 19.386 0 0 0" transform="translate(297.271 772.026)"/><path style="fill:#fff;fill-opacity:1;fill-rule:nonzero;stroke:none" d="m0 0-8.575 14.852L-17.151 0h5.709v-40.014c.723.138 1.444.292 2.154.482a29.84 29.84 0 0 1 3.579 1.234V0z" transform="translate(314.367 747.408)"/><path style="fill:#fff;fill-opacity:1;fill-rule:nonzero;stroke:none" d="M0 0v5.709l-14.851-8.575L0-11.442v5.709h8.042v-31.058c.257-.046.512-.097.771-.137a30.435 30.435 0 0 1 4.62-.36c.121.005.21.007.3.008l.042.002V0z" transform="translate(283.802 744.135)"/></g><g clip-path="url(#a)" transform="matrix(.35278 0 0 -.35278 -92.488 272.354)"><path d="M0 0c-19.386 0-35.101-15.715-35.101-35.101 0-17.54 12.866-32.073 29.674-34.682A35.308 35.308 0 0 1 0-70.202c.103 0 .204.007.306.008a34.949 34.949 0 0 1 8.803 1.193c14.969 4.012 25.992 17.666 25.992 33.9C35.101-15.715 19.386 0 0 0" style="fill:#f48c2d;fill-opacity:1;fill-rule:nonzero;stroke:none" transform="translate(297.271 772.026)"/><path d="m0 0-8.575 14.852L-17.151 0h5.709v-40.014c.723.138 1.444.292 2.154.482a29.84 29.84 0 0 1 3.579 1.234V0z" style="fill:#fff;fill-opacity:1;fill-rule:nonzero;stroke:none" transform="translate(314.367 747.408)"/><path d="M0 0v5.709l-14.851-8.575L0-11.442v5.709h8.042v-31.058c.257-.046.512-.097.771-.137a30.435 30.435 0 0 1 4.62-.36c.121.005.21.007.3.008l.042.002V0z" style="fill:#fff;fill-opacity:1;fill-rule:nonzero;stroke:none" transform="translate(283.802 744.135)"/></g></svg>