<?xml version="1.0" encoding="UTF-8" standalone="no"?>
<svg
   class="svg-icon"
   style="overflow:hidden;fill:currentColor"
   viewBox="0 0 844.79999 832.16791"
   version="1.1"
   id="svg856"
   width="844.79999"
   height="832.16791"
   xmlns="http://www.w3.org/2000/svg"
   xmlns:svg="http://www.w3.org/2000/svg">
  <defs
     id="defs860" />
  <path
     d="m 780.8,352.08394 a 64,64 0 0 0 0,-128 H 666.24 L 693.12,75.603945 a 64.083945,64.083945 0 0 0 -126.08,-23.04 l -32,171.519995 H 378.24 L 405.12,75.603945 a 64.083945,64.083945 0 0 0 -126.08,-23.04 l -32,171.519995 H 108.8 a 64,64 0 1 0 0,128 h 116.16 l -23.36,128 H 64 a 64,64 0 0 0 0,128 h 114.56 l -26.88,148.48 a 64.083945,64.083945 0 1 0 126.08,23.04 l 32,-171.52 h 157.76 l -26.88,148.48 a 64.083945,64.083945 0 1 0 126.08,23.04 l 32,-171.52 H 736 a 64,64 0 1 0 0,-128 H 619.84 l 23.36,-128 z m -291.2,128 H 331.84 l 23.36,-128 h 157.76 z"
     fill="#231F20"
     id="path854"
     style="fill:#6b6b6b;fill-opacity:1" />
</svg>
