<svg xmlns="http://www.w3.org/2000/svg" viewBox="0 0 24.848 24.848" height="93.915" width="93.915"><defs><clipPath id="a" clipPathUnits="userSpaceOnUse"><path d="M0 841.89h595.276V0H0z"/></clipPath></defs><g clip-path="url(#a)" transform="matrix(.35278 0 0 -.35278 -92.447 212.953)"><path style="fill:#de193b;fill-opacity:1;fill-rule:nonzero;stroke:none" d="M0 0c0-19.451-15.768-35.218-35.218-35.218-19.45 0-35.218 15.767-35.218 35.218 0 19.45 15.768 35.218 35.218 35.218C-15.768 35.218 0 19.45 0 0" transform="translate(332.49 568.428)"/><path style="fill:#fff;fill-opacity:1;fill-rule:nonzero;stroke:none" d="M0 0c-4.338 2.542-8.801 2.818-13.187.249-4.725-2.769-6.796-7.069-6.354-12.499.336-4.11 3.537-8.674 6.794-9.753-2.458 2.273-3.966 4.886-4.393 8.057-.433 3.225.249 6.21 2.051 8.918C-12.375-.95-6.8 2.13 0 0m-6.563-34.449c-1.665 0-3.329-.007-4.992.003-1.24.007-1.694.459-1.716 1.727-.053 3.099-1.031 5.856-3.039 8.227-.877 1.036-1.783 2.049-2.686 3.063-4.444 4.99-4.986 10.637-2.477 16.589 2.779 6.59 9.456 10.445 16.565 9.723A16.265 16.265 0 0 0 9.589-8.59c.802-4.92-.279-9.29-3.758-12.977-.885-.938-1.718-1.925-2.556-2.906C1.255-26.84.306-29.61.213-32.699c-.04-1.348-.442-1.743-1.784-1.748-1.664-.008-3.328-.002-4.992-.002" transform="translate(303.834 589.876)"/><path style="fill:#fff;fill-opacity:1;fill-rule:nonzero;stroke:none" d="M0 0c-1.763 0-3.526-.008-5.289.004-.745.006-1.195.313-1.341.851-.177.653.124 1.242.78 1.439.286.086.6.1.901.1 3.255.007 6.509.005 9.763.003.237-.001.479.001.707-.049.644-.141 1.029-.633.997-1.228A1.177 1.177 0 0 0 5.39.017C4.646-.026 3.898.001 3.152 0H0" transform="translate(297.397 551.17)"/><path style="fill:#fff;fill-opacity:1;fill-rule:nonzero;stroke:none" d="M0 0c-1.762 0-3.524-.013-5.286.006-.865.009-1.33.464-1.312 1.202.014.571.317.967.88 1.08.296.058.606.057.91.058 3.185.004 6.37.005 9.555.003.271 0 .545.003.811-.038.65-.101 1.049-.569 1.029-1.175-.02-.6-.45-1.05-1.099-1.123C5.254-.014 5.015 0 4.777 0H0" transform="translate(297.33 547.48)"/><path style="fill:#fff;fill-opacity:1;fill-rule:nonzero;stroke:none" d="M0 0h7.749c.496-1.134.217-2.288-.695-3.059C5.505-4.366 2.442-4.398.869-3.124-.119-2.325-.309-1.3 0 0" transform="translate(293.321 546.07)"/></g></svg>