<svg xmlns="http://www.w3.org/2000/svg" width="93.915" height="93.915" viewBox="0 0 24.848 24.848"><defs><clipPath clipPathUnits="userSpaceOnUse" id="a"><path d="M0 841.89h595.276V0H0z"/></clipPath></defs><g style="fill:#fff" clip-path="url(#a)" transform="matrix(.35278 0 0 -.35278 -92.447 212.953)"><g style="fill:#fff"><path transform="matrix(.75 0 0 -.75 262.053 603.646)" d="M46.957 0C21.024 0 0 21.024 0 46.957c0 25.935 21.024 46.957 46.957 46.957s46.957-21.022 46.957-46.957C93.914 21.024 72.89 0 46.957 0zm.438 11.74c.586.013 1.177.05 1.77.11 10.798 1.096 17.922 9.34 19.327 17.962 1.07 6.56-.37 12.387-5.01 17.303-1.18 1.25-2.29 2.567-3.408 3.875-2.693 3.156-3.958 6.85-4.082 10.969-.053 1.797-.59 2.323-2.379 2.33-2.218.01-4.437.002-6.656.002-2.22 0-4.439.01-6.656-.004-1.654-.01-2.258-.612-2.287-2.303-.071-4.132-1.376-7.807-4.053-10.968-1.17-1.382-2.378-2.732-3.582-4.084-5.925-6.654-6.648-14.184-3.303-22.12 3.474-8.237 11.517-13.268 20.319-13.072zm-.456 3.899c-2.941-.088-5.89.676-8.814 2.388-6.3 3.692-9.062 9.426-8.473 16.666.448 5.48 4.716 11.566 9.059 13.004-3.277-3.03-5.288-6.514-5.857-10.742-.578-4.3.333-8.28 2.736-11.89 3.619-5.438 11.05-9.546 20.117-6.706-2.892-1.694-5.826-2.633-8.768-2.72zm6.604 51.132c.316.002.64 0 .943.067.859.188 1.371.843 1.328 1.637a1.569 1.569 0 0 1-1.503 1.47c-.992.058-1.99.022-2.985.024h-4.201c-2.35 0-4.702.01-7.053-.006-.993-.008-1.592-.418-1.787-1.135-.236-.87.165-1.655 1.04-1.918.38-.115.8-.133 1.2-.133 4.34-.009 8.68-.008 13.018-.006zm-.18 4.985c.362 0 .728-.004 1.082.05.867.135 1.398.759 1.371 1.567-.026.8-.6 1.4-1.464 1.498-.312.036-.63.018-.948.018h-6.369c-2.35 0-4.7.015-7.049-.01-1.153-.012-1.774-.618-1.75-1.602.019-.761.423-1.288 1.174-1.44.395-.076.808-.076 1.213-.077 4.247-.006 8.494-.007 12.74-.004zm-11.672 5.012h10.332c.662 1.512.289 3.052-.927 4.08-2.066 1.742-6.15 1.784-8.246.086-1.318-1.066-1.57-2.433-1.159-4.166z" style="fill:#fff;fill-opacity:1;fill-rule:nonzero;stroke:none;stroke-width:1.33333325"/></g></g></svg>