<svg xmlns="http://www.w3.org/2000/svg" height="90.705" width="90.709"><path d="m4.918 65.919-.691-1.471C1.943 59.598.49 53.981.116 48.546c-.367-5.3.13-10.132 1.579-15.342.873-3.142 1.806-5.588 3.14-8.23 3.384-6.704 8.099-12.169 14.438-16.735 1.289-.928 5.526-3.374 6.974-4.026C35.079.237 44.02-.915 53.403.715c1.896.33 6.393 1.6 8.282 2.341 8.55 3.351 15.314 8.636 20.807 16.259.887 1.23 3.36 5.512 3.98 6.893 4.07 9.053 5.194 18.1 3.43 27.608-.31 1.672-1.337 5.417-1.914 6.986-2.038 5.536-4.844 10.254-8.677 14.59-7.913 8.95-18.963 14.376-30.975 15.21-3.797.263-7.586.025-11.59-.73-1.596-.301-5.249-1.296-6.736-1.836-8.706-3.156-15.973-8.643-21.497-16.23-.724-.994-3.21-5.065-3.595-5.887zm15.63-6.212c2.667 2.8 5.821 4.964 9.452 6.488 1.363.572 4.889 1.533 6.483 1.767 7.871 1.153 15.342-.964 21.583-6.117 4.977-4.109 8.484-9.947 10.41-16.18l.354-1.298.58-.232c1.35-.539 3.99-2.217 5.292-3.364l.284-.25-.55.068c-1.495.184-4.514.167-5.042-.028-.141-.052-.105-.084.261-.226.234-.091.983-.49 1.665-.887 1.084-.632 1.321-.805 1.891-1.381.756-.765 1.623-1.872 1.485-1.897-.052-.01-.366.055-.697.144-1.42.381-3.752.616-5.378.542l-.63-.029-.457-.79c-1.288-2.231-3.443-3.846-5.982-4.481-1.623-.407-2.966-.41-4.693-.015-.787.18-.937.248-2.366 1.067-1.43.82-1.567.919-2.194 1.558a12.238 12.238 0 0 0-2.121 3.016c-.437.892-.97 2.787-1.03 3.662-.021.319-.062.594-.09.612-.065.04-1.718-.609-2.707-1.062-5.993-2.752-11.082-8.023-13.865-14.36-.192-.438-.382-.806-.42-.816-.106-.029-.921 1.01-1.377 1.754-2.235 3.65-2.203 8.554.08 11.945.604.898.59.906-.594.345a10.097 10.097 0 0 1-2.372-1.592c-.226-.208-.442-.344-.48-.302-.146.166-.4 2.227-.384 3.128.02 1.109.153 1.996.466 3.092.187.657.356 1.013 1.036 2.186.731 1.262.88 1.469 1.49 2.079.372.373 1.053.927 1.513 1.232.46.305.784.554.72.554-1.05 0-2.439-.277-3.43-.683l-.79-.324.018.387c.01.213.08.734.154 1.157.655 3.745 2.989 6.596 6.504 7.944l.377.144-.514.22c-2.639 1.125-6.022 1.712-8.838 1.534-1.732-.11-3.786-.54-5.445-1.143-.615-.223-.581-.143.348.832z" style="fill:#000;stroke-width:.092555"/></svg>