<?xml version="1.0" encoding="UTF-8" standalone="no"?>
<svg
   xmlns:dc="http://purl.org/dc/elements/1.1/"
   xmlns:cc="http://creativecommons.org/ns#"
   xmlns:rdf="http://www.w3.org/1999/02/22-rdf-syntax-ns#"
   xmlns:svg="http://www.w3.org/2000/svg"
   xmlns="http://www.w3.org/2000/svg"
   version="1.1"
   id="svg919"
   width="90.708664"
   height="90.705376"
   viewBox="0 0 90.708664 90.705377">
  <metadata
     id="metadata925">
    <rdf:RDF>
      <cc:Work
         rdf:about="">
        <dc:format>image/svg+xml</dc:format>
        <dc:type
           rdf:resource="http://purl.org/dc/dcmitype/StillImage" />
        <dc:title></dc:title>
      </cc:Work>
    </rdf:RDF>
  </metadata>
  <defs
     id="defs923" />
  <path
     style="fill:#000000;stroke-width:0.09255498"
     d="M 4.9182362,65.918899 C 4.8206731,65.710699 4.5094107,65.048799 4.2265409,64.447999 1.9428995,59.597399 0.49107632,53.981499 0.11561154,48.546099 -0.25050426,43.246099 0.24683669,38.413999 1.6946886,33.203999 2.5677602,30.062299 3.5010045,27.616299 4.8347972,24.973899 8.2186607,18.270099 12.933618,12.805299 19.27312,8.2394995 20.561733,7.3114995 24.79856,4.8652995 26.246604,4.2133995 35.078591,0.23709949 44.021339,-0.91480051 53.403401,0.71529949 55.299242,1.0446995 59.795574,2.3156995 61.68489,3.0560995 70.235235,6.4072995 76.998945,11.692299 82.492379,19.314599 83.378928,20.544799 85.851062,24.826899 86.47206,26.208099 90.542392,35.261099 91.666387,44.308599 89.901895,53.816099 89.591605,55.487999 88.565494,59.233399 87.98784,60.802399 85.949946,66.337999 83.143989,71.055699 79.310936,75.391199 71.3982,84.341099 60.347544,89.767699 48.335926,90.601799 44.539073,90.865499 40.749988,90.626899 36.746323,89.871999 35.1495,89.570999 31.496984,88.575799 30.009644,88.036499 21.303763,84.879999 14.03705,79.393399 8.5127981,71.805699 7.7893706,70.811999 5.3033887,66.740799 4.9182362,65.918899 Z M 18.547505,55.670099 C 21.214615,58.468999 24.368958,60.634199 27.999579,62.158099 29.362608,62.730199 32.888543,63.690799 34.483437,63.924499 42.354072,65.077999 49.824543,62.960799 56.066194,57.807599 61.042651,53.698999 64.759716,47.921699 66.475575,41.628499 L 66.829625,40.329999 67.41059,40.097999 C 68.75991,39.559099 71.399199,37.881099 72.702274,36.733499 L 72.985673,36.483899 72.43691,36.551499 C 70.940802,36.735899 67.922133,36.719099 67.393597,36.523499 67.252974,36.471399 67.289494,36.439899 67.655109,36.297499 67.888834,36.206499 68.638008,35.807199 69.319933,35.410299 70.404444,34.778999 70.641445,34.605999 71.211435,34.029499 71.967323,33.264899 72.833616,32.157799 72.695679,32.132599 72.643555,32.123099 72.330217,32.187899 71.999372,32.276599 70.578151,32.657799 68.247042,32.892699 66.620509,32.818599 L 65.990195,32.789899 65.533957,31.999699 C 64.245717,29.768399 62.090787,28.154099 59.551861,27.518499 57.929187,27.112199 56.585927,27.107999 54.858601,27.503699 54.071838,27.683899 53.921649,27.751699 52.493167,28.571199 51.063768,29.391399 50.925804,29.489299 50.299454,30.129099 49.490318,30.955599 48.700597,32.078099 48.177795,33.144899 47.740765,34.036599 47.208044,35.931899 47.148498,36.806899 47.126806,37.125699 47.085739,37.401199 47.057237,37.419099 46.993263,37.459499 45.339685,36.809899 44.351413,36.356299 38.358251,33.605099 33.268528,28.333899 30.486256,21.996799 30.293744,21.558299 30.104376,21.190999 30.065441,21.180599 29.959553,21.152199 29.144995,22.190499 28.689243,22.934699 26.453749,26.585399 26.486256,31.488499 28.76844,34.879699 29.372771,35.777699 29.359637,35.785299 28.175223,35.224299 27.348635,34.832799 26.45034,34.230199 25.803131,33.633099 25.577008,33.424499 25.361352,33.288299 25.323889,33.330599 25.176719,33.496499 24.923053,35.558099 24.938978,36.458699 24.958587,37.567599 25.092212,38.454999 25.404606,39.550699 25.591898,40.207599 25.760864,40.564099 26.440775,41.736799 27.172373,42.998699 27.320522,43.205499 27.930524,43.815699 28.303067,44.188399 28.98395,44.742799 29.443589,45.047499 29.903236,45.352299 30.227694,45.601599 30.164609,45.601599 29.114702,45.601399 27.725065,45.324899 26.734558,44.919199 L 25.943463,44.595199 25.962268,44.981899 C 25.972604,45.194699 26.041722,45.715399 26.115858,46.139199 26.770988,49.883899 29.104901,52.734399 32.619597,54.082399 L 32.997228,54.227199 32.483486,54.446199 C 29.844072,55.571399 26.460739,56.158899 23.645169,55.980999 21.913114,55.871499 19.858873,55.440399 18.199992,54.838199 17.58499,54.614999 17.6185,54.695199 18.547505,55.670099 Z"
     id="path1472" />
</svg>
