<svg xmlns="http://www.w3.org/2000/svg" viewBox="0 0 22.912 17.989" height="67.989" width="86.598"><path style="fill:#000;stroke-width:.0163688" d="M10.49 17.986a56.284 56.284 0 0 1-4.157-.245c-1.305-.125-2.928-.335-3.282-.426A3.503 3.503 0 0 1 .514 14.78c-.104-.401-.29-1.712-.376-2.668-.255-2.806-.154-5.858.28-8.414.09-.535.175-.82.35-1.18A3.615 3.615 0 0 1 2.086 1.07a4.61 4.61 0 0 1 .63-.302C3.037.653 3.44.582 4.622.433A57.126 57.126 0 0 1 9.73.02a77.27 77.27 0 0 1 3.454 0c2.207.09 4.115.26 6.076.545.643.093.881.16 1.29.359a3.477 3.477 0 0 1 1.412 1.27c.284.455.417.841.542 1.586.426 2.526.525 5.561.271 8.324-.09.974-.272 2.278-.374 2.67a3.518 3.518 0 0 1-1.892 2.312c-.382.18-.626.246-1.254.336-1.95.282-3.947.461-6.03.542-.418.017-2.38.033-2.734.023zm2.75-1.66a57.374 57.374 0 0 0 4.608-.369c.823-.099 1.542-.204 1.69-.246.59-.171 1.053-.631 1.245-1.235.073-.228.21-1.11.305-1.964.139-1.24.2-2.544.184-3.888a30.101 30.101 0 0 0-.15-2.823 26.9 26.9 0 0 0-.287-2.063c-.107-.532-.382-.951-.812-1.237-.283-.189-.463-.244-1.089-.333-3.26-.464-6.6-.634-9.671-.491-1.184.054-2.407.15-3.56.278-.964.107-2.057.256-2.28.31-.5.122-.943.482-1.182.962-.13.257-.182.494-.303 1.346-.215 1.52-.295 2.72-.294 4.428 0 1.276.027 1.91.13 3.02.1 1.054.27 2.217.369 2.496.208.593.658 1.027 1.235 1.195.182.052 1.179.191 2.169.302 1.522.17 3.068.28 4.583.328.559.017 2.57.008 3.11-.015zM8.182 8.994V4.9l4.084 2.042a715.365 715.365 0 0 1 4.084 2.05c0 .005-1.837.928-4.084 2.05l-4.084 2.043z"/></svg>