<?xml version="1.0" encoding="UTF-8" standalone="no"?>
<svg
   xmlns:dc="http://purl.org/dc/elements/1.1/"
   xmlns:cc="http://creativecommons.org/ns#"
   xmlns:rdf="http://www.w3.org/1999/02/22-rdf-syntax-ns#"
   xmlns:svg="http://www.w3.org/2000/svg"
   xmlns="http://www.w3.org/2000/svg"
   width="24mm"
   height="18.025642mm"
   viewBox="0 0 24 18.025642"
   version="1.1"
   id="svg891">
  <defs
     id="defs885" />
  <metadata
     id="metadata888">
    <rdf:RDF>
      <cc:Work
         rdf:about="">
        <dc:format>image/svg+xml</dc:format>
        <dc:type
           rdf:resource="http://purl.org/dc/dcmitype/StillImage" />
        <dc:title></dc:title>
      </cc:Work>
    </rdf:RDF>
  </metadata>
  <g
     id="layer1"
     transform="matrix(0.10033512,0,0,0.10033512,2.8752219,4.0406266)">
    <path
       style="fill:#000000;stroke-width:0.28144076"
       d="M 66.843546,139.25075 27.92516,139.1162 V 135.27974 131.44328 L 40.94785,131.29844 C 48.11033,131.21877 54.006352,131.12947 54.05012,131.1 54.093888,131.07052 54.093888,127.74242 54.05012,123.70422 L 53.970541,116.36203 12.657177,116.22974 -28.656186,116.09745 V 37.913069 -40.271309 H 90.943008 210.5422 V 37.913069 116.09745 L 169.99427,116.16455 C 138.01178,116.21748 129.39628,116.30131 129.20939,116.56142 128.90095,116.99071 128.89962,130.28361 129.20798,130.7127 129.38773,130.96283 132.38207,131.05682 141.85187,131.10957 L 154.26023,131.1787 V 135.27974 139.38078 L 130.01108,139.38304 C 116.67405,139.38428 88.248658,139.32475 66.843546,139.25075 Z M 201.30422,37.383902 V -31.54006 H 90.943008 -19.418199 L -19.494888,37.119319 C -19.537067,74.881977 -19.507545,105.92769 -19.429283,106.10979 -19.315655,106.37418 4.639508,106.42748 91.008612,106.37437 L 201.30422,106.30786 Z"
       id="path1447" />
  </g>
</svg>
